<svg xmlns="http://www.w3.org/2000/svg" data-name="Layer 1" viewBox="0 0 2000 2000" id="download-files"><path fill="#e9efff" d="m624.2,882.16c-41.33,190.21-280.79,328.2-162.58,509.89,218.94,336.52,430.13-40.54,878.54,60.78,432.78,97.79,400.16-311.24,248.63-676.87-148.01-357.14-809.59-607.16-964.59,106.2Z" opacity=".34"></path><g><polygon fill="#fdbd28" points="1398.72 1521.54 1395.72 1538.63 1383.63 1607 1361.2 1607 1361.2 1521.54 1398.72 1521.54"></polygon><polygon fill="#fdbd28" points="1629.6 1521.54 1629.6 1607 1607.17 1607 1596.92 1548.72 1592.08 1521.54 1629.6 1521.54"></polygon><polygon fill="#e8a621" points="1629.6 1521.54 1629.6 1537.55 1596.92 1548.72 1592.08 1521.54 1629.6 1521.54"></polygon><polygon fill="#e8a621" points="1398.72 1521.54 1395.72 1538.63 1361.2 1550.47 1361.2 1521.54 1398.72 1521.54"></polygon><rect width="284.19" height="444.9" x="1353.3" y="1076.64" fill="#d5e0f7"></rect><rect width="268.21" height="105.57" x="1361.29" y="1089.26" fill="#e9efff"></rect><rect width="268.21" height="105.57" x="1361.29" y="1194.83" fill="#e9efff"></rect><rect width="268.21" height="105.57" x="1361.29" y="1300.39" fill="#e9efff"></rect><rect width="268.21" height="105.57" x="1361.29" y="1405.96" fill="#e9efff"></rect><path fill="#4f6bfd" d="M1452.66 1089.26h85.47v14.71c0 1.11-.9 2-2 2h-81.46c-1.11 0-2-.9-2-2v-14.71h0zM1452.66 1194.83h85.47v14.71c0 1.11-.9 2-2 2h-81.46c-1.11 0-2-.9-2-2v-14.71h0zM1452.66 1300.39h85.47v14.71c0 1.11-.9 2-2 2h-81.46c-1.11 0-2-.9-2-2v-14.71h0zM1452.66 1405.96h85.47v14.71c0 1.11-.9 2-2 2h-81.46c-1.11 0-2-.9-2-2v-14.71h0z"></path><rect width="268.21" height="6.25" x="1361.29" y="1086.13" fill="#d5e0f7"></rect><rect width="268.21" height="6.25" x="1361.29" y="1191.7" fill="#d5e0f7"></rect><rect width="268.21" height="6.25" x="1361.29" y="1297.27" fill="#d5e0f7"></rect><rect width="268.21" height="6.25" x="1361.29" y="1402.84" fill="#d5e0f7"></rect></g><g><g><g><path fill="#0d8459" d="m534.11,1524.11c1.33-15.27,2.19-30.71,2.64-46.1.43-15.4.46-30.82-.33-46.2-.9-15.33-2.23-30.8-6.52-45.52-1.11-3.66-2.45-7.25-4.24-10.6-1.77-3.34-4.09-6.47-7.27-8.49-1.6-.96-3.39-1.6-5.26-1.81-1.87-.11-3.79.08-5.61.65-3.69,1.07-6.98,3.24-10.04,5.58,2.96-2.46,6.17-4.78,9.89-6.03,1.85-.66,3.82-.95,5.81-.9,1.99.14,3.93.74,5.69,1.7,3.48,2.02,6.04,5.23,8.02,8.6,2,3.39,3.52,7.03,4.81,10.71,4.99,14.84,6.96,30.39,8.5,45.83,1.43,15.48,2.04,31,2.23,46.52.17,15.54-.05,31.02-.77,46.61l-7.56-.56Z"></path><path fill="#2ec68f" d="m502.89,1367.86s34.99-24.03,52.04,10.7c17.04,34.72-17.68,113-126.26,125.63-34.72-44.82-19.44-136.35-2.24-153.6,27.49-27.58,50.3-21.19,76.46,17.28Z"></path></g><g><path fill="#c2f9e4" d="m429.57,1504.47l-1.81-.57c36.47-114.89,73.12-136.03,74.67-136.87l.91,1.66c-.37.21-37.6,21.82-73.77,135.78Z"></path><path fill="#c2f9e4" d="m552.57,1424.77c-.41-11.16-5.48-27.04-18.5-38.17-10.52-8.99-24.17-12.78-39.44-10.94l-.45.06-.33-.32c-16.17-16.02-40.12-11.87-52.97-7.97-15.35,4.66-26.44,12.24-26.81,14.05l-1.89-.18c.28-3.03,11.25-9.69,23.03-13.97,14.44-5.26,41.31-11.37,59.64,6.41,15.63-1.78,29.62,2.17,40.45,11.43,13.48,11.53,18.74,27.99,19.16,39.55l-1.89.07Z"></path><path fill="#c2f9e4" d="m529,1459.98c-10.66-42.42-17.87-64.39-52.74-61.54l-.41.03-.31-.28c-10.03-9.2-23.81-5.86-33.6-1.42-18.25,8.26-33.25,24.43-33.18,27.93l-1.89.04c-.11-5.16,16.8-21.78,34.29-29.7,14.6-6.61,26.82-6.1,35.35,1.47,37.85-2.89,44.71,24.75,54.33,63l-1.83.46Z"></path><path fill="#c2f9e4" d="m502.1,1481.63l-1.89-.1c1.95-37.77-14.02-52.55-20.98-57.15-6.79-4.48-12.93-4.98-16.01-3.47l-.79.38-.44-.76c-.31-.54-2.15-1.26-5.8-1.04-11.08.63-33.11,9.15-45.43,37.09l-1.73-.76c12.68-28.78,35.54-37.56,47.05-38.22,3.27-.18,5.75.29,6.97,1.32,4.38-1.69,11.03-.21,17.22,3.88,7.23,4.78,23.83,20.08,21.83,58.82Z"></path><path fill="#c2f9e4" d="m467.94,1495.87c-4.86-23.43-11.66-35.38-22.02-38.69-8.26,1.75-18.72,6.75-26.82,29.26l-1.78-.64c6.63-18.43,15.41-27.84,28.46-30.52l.24-.05.23.07c14.4,4.4,20.15,23.79,23.55,40.19l-1.86.38Z"></path></g></g><g><g><path fill="#0d8459" d="m558.79,1525.15c-1.77-10.8-2.9-21.48-3.61-32.28-.66-10.78-.86-21.61-.08-32.41.76-10.77,2.44-21.63,6.51-31.76,2.12-5,4.98-9.81,9.01-13.5,3.98-3.75,9.26-5.95,14.6-6.34-5.32.71-10.33,3.19-13.95,7.02-3.67,3.79-6.14,8.56-7.9,13.5-3.35,10.01-4.37,20.67-4.49,31.24-.14,10.59.68,21.2,1.95,31.73,1.3,10.5,3.07,21.06,5.37,31.28l-7.42,1.53Z"></path><path fill="#2ec68f" d="m578.03,1410.76s-10.47-52.38,50.76-45.77,111.74,83,111.74,83c0,0-60.6,9.47-95.32,23.99-34.72,14.52-102.35-15.08-67.18-61.23Z"></path></g><path fill="#c2f9e4" d="m740.15,1448.86c-128.3-56.4-161.3-37.5-161.62-37.3l-1.01-1.6c1.31-.84,33.74-19.83,163.39,37.17l-.76,1.73Z"></path><path fill="#c2f9e4" d="m598.54,1471.76c-7.26-7.01-24.81-36.14-14.24-63.13,2.19-20.51,33.13-43.98,34.45-44.97l1.14,1.52c-.32.24-31.73,24.07-33.72,43.78l-.06.25c-10.33,26.14,6.71,54.4,13.75,61.2l-1.32,1.36Z"></path><path fill="#c2f9e4" d="m635.51,1475.5c-17.26-9.71-33.07-51.99-28.62-68.44,4.34-16.02,48.36-34.12,50.23-34.88l.72,1.75c-.45.18-45.03,18.5-49.12,33.62-4.21,15.54,11.4,57.1,27.73,66.29l-.93,1.65Z"></path><path fill="#c2f9e4" d="m667.46,1464.83c-11.13-7.87-27.94-34.26-27.63-51.93v-.27s.16-.23.16-.23c8-12.21,44.49-21.53,46.03-21.92l.47,1.83c-.37.09-36.84,9.41-44.77,20.9-.11,16.82,16.33,42.64,26.83,50.07l-1.09,1.55Z"></path><polygon fill="#c2f9e4" points="702.69 1455.7 674.04 1422.28 711.87 1412.58 712.35 1414.42 677.46 1423.36 704.12 1454.47 702.69 1455.7"></polygon></g><g><g><path fill="#0d8459" d="m564.41,1527.1c2.16-13.91,5.19-27.4,8.98-40.81,3.83-13.36,8.44-26.55,14.57-39.08,6.17-12.41,13.78-24.65,25.02-33.23,2.72-2.21,5.96-3.81,8.79-5.57,2.84-1.85,5.52-3.98,7.93-6.39,4.82-4.83,8.69-10.69,11.09-17.15-2.1,6.57-5.72,12.66-10.4,17.8-2.35,2.57-4.99,4.87-7.83,6.92-2.93,2.01-5.86,3.6-8.4,5.87-10.43,8.75-17.29,20.95-22.76,33.34-5.41,12.51-9.35,25.64-12.5,38.93-3.11,13.27-5.5,26.85-6.96,40.26l-7.52-.89Z"></path><path fill="#13a173" d="m639.62,1387.92s49.14,34.82,63.66-28.31c14.52-63.13,5.66-127.52,8.83-142.04-49.86,3.16-112.23,41.73-118.67,99.74-6.45,58.01,6.19,72.87,46.18,70.6Z"></path></g><path fill="#c2f9e4" d="m635.03,1384.93c-5.41-83.42,75.58-167.18,76.4-168.02l1.35,1.32c-.81.83-81.22,84-75.87,166.57l-1.89.13Z"></path><path fill="#c2f9e4" d="m635.6,1374.01l-.12-.03c-24.81-6.16-43.71-48.18-44.51-49.96l1.73-.77c.19.43,19.26,42.81,43.11,48.86,37.04-.87,70.02-30.82,70.35-31.13l1.28,1.39c-.33.31-33.9,30.81-71.72,31.63h-.13Z"></path><path fill="#c2f9e4" d="m643.89,1342.76c-1.28,0-2.56-.04-3.85-.14l-.44-.14c-28.5-17.97-33.39-63.3-33.44-63.76l1.89-.19c.04.45,4.82,44.66,32.37,62.22,36.86,2.6,69.45-36.26,69.78-36.66l1.46,1.21c-.32.39-31.43,37.46-67.77,37.46Z"></path><path fill="#c2f9e4" d="m648.95,1311.23l-.33-.37c-8.59-9.71-16.92-58.4-17.26-60.47l1.86-.32c.09.5,8.37,48.95,16.5,59.15,28.56-3.88,61.4-36.43,61.72-36.76l1.34,1.34c-1.38,1.38-34.02,33.73-63.34,37.37l-.5.06Z"></path><path fill="#c2f9e4" d="m667.87,1277.26l-.49-.66c-8.76-11.78-4.97-44.76-4.8-46.16l1.88.22c-.04.33-3.72,32.35,3.97,44.13,29.75-16.3,41.82-25.24,41.94-25.33l1.13,1.52c-.12.09-12.47,9.25-42.9,25.88l-.73.39Z"></path></g><g><g><path fill="#0d8459" d="m551.23,1537.84c-3.15-16.52-5.2-33-6.12-49.7-.77-16.63-.69-33.55,3.42-50,1.92-8.14,5.8-16.3,11.23-22.61,5.13-6.36,9.26-13.49,12.52-20.97,6.42-14.95,8.85-32.12,4.74-48.2,4.72,15.92,2.98,33.39-2.99,48.91-3.04,7.77-7,15.24-12,21.96-5.12,6.49-8.19,13.79-9.82,21.8-3.34,15.87-2.82,32.45-1.43,48.71,1.52,16.28,4.19,32.61,7.84,48.44l-7.39,1.66Z"></path><path fill="#2ec68f" d="m577.99,1350.08s45.75,13.96,57.11-30.86c11.36-44.82-91.54-126.26-133.2-116.79-23.36,69.44-20.83,111.92,9.47,149.71,30.3,37.78,66.32,21.86,66.62-2.06Z"></path></g><path fill="#c2f9e4" d="m577.06,1350.25c-.21-1.08-21.11-107.97-75.71-147.06l1.1-1.54c55.22,39.53,76.26,147.16,76.47,148.24l-1.86.36Z"></path><path fill="#c2f9e4" d="m541.72,1348.08c-19.16,0-37.53-5-38.78-5.35l.5-1.83c.5.14,50.26,13.66,71.27-3.53l.23-.18.29-.03c27.75-2.49,52.92-48.95,53.17-49.42l1.67.9c-1.04,1.95-25.75,47.52-54.38,50.39-8.64,6.92-21.47,9.05-33.96,9.05Z"></path><path fill="#c2f9e4" d="m554.21,1321.48c-26.21,0-64.18-15.69-66.15-16.51l.73-1.75c.58.24,58.78,24.31,80.5,13.56,19.87-6.45,34.13-61.12,34.27-61.67l1.83.47c-.59,2.29-14.67,56.24-35.39,62.95-4.22,2.09-9.69,2.94-15.79,2.94Z"></path><path fill="#c2f9e4" d="m549.05,1291.53c-21.31,0-61.04-13.88-63.1-14.6l.63-1.78c.61.21,61.33,21.42,72.45,12.32l.33-.17c16.47-4.89,17.71-54.55,17.72-55.05l1.89.04c-.04,2.1-1.28,51.22-18.9,56.77-2.27,1.76-6.17,2.48-11.03,2.48Z"></path><path fill="#c2f9e4" d="m536.75,1261.39c-17.78,0-47.11-9.76-48.63-10.27l.6-1.8c.45.15,45.41,15.12,57.26,8.52,7.63-3.87,7.34-31.27,6.58-41.51l1.89-.14c.11,1.55,2.7,38.11-7.58,43.32-2.39,1.33-5.94,1.88-10.13,1.88Z"></path><polygon fill="#c2f9e4" points="531.54 1233.52 495.44 1223.32 495.95 1221.5 529.58 1230.99 528.97 1205.63 530.86 1205.59 531.54 1233.52"></polygon></g><g><g><path fill="#0d8459" d="m570.25,1519.21c-4.63-16.22-8.7-32.46-12.21-48.9-3.51-16.41-6.42-32.99-8.04-49.76-.56-8.55-1.08-16.51-3.96-24.23-2.77-7.7-7.48-14.62-12.85-20.86-10.94-12.44-25.03-22.06-40.14-29.1,15.37,6.48,29.9,15.56,41.54,27.83,5.72,6.17,10.87,13.12,14.09,21.09,3.33,7.89,4.26,16.79,5.08,24.86,2.22,16.45,5.71,32.75,9.81,48.88,4.08,16.12,8.75,32.17,13.9,47.92l-7.23,2.28Z"></path><path fill="#13a173" d="m500.23,1349.72s17.46-44.4-32.42-53.24c-49.87-8.84-109.21,41.03-121.21,46.08,41.03,22.73,87.75,55.55,125.63,42.3,37.88-13.26,31.64-14.26,28-35.14Z"></path></g><path fill="#c2f9e4" d="m499.86,1350.6c-.71-.3-72.22-29.5-153-7.11l-.5-1.83c81.44-22.55,153.52,6.89,154.24,7.19l-.73,1.75Z"></path><path fill="#c2f9e4" d="m466.46,1387.32l-1.35-1.32c.25-.26,25.25-25.96,24.73-39.6,2.23-18.07-17.33-47.95-17.53-48.25l1.58-1.04c.82,1.25,20.14,30.77,17.83,49.37.56,14.29-24.21,39.76-25.26,40.84Z"></path><path fill="#c2f9e4" d="m425.28,1383.59l-.78-1.72c.43-.2,43.02-19.6,43.41-41.43-2.11-22.28-23.04-43.47-23.26-43.68l1.34-1.34c.88.88,21.63,21.89,23.81,44.95-.42,23.13-42.73,42.42-44.53,43.23Z"></path><path fill="#c2f9e4" d="m397.68,1371.84l-.63-1.78c.44-.16,43.6-15.59,43.16-34.22,3.18-18.35-22.19-31.95-22.44-32.08l.88-1.68c1.1.58,26.85,14.38,23.44,33.9.48,19.82-42.58,35.22-44.41,35.87Z"></path><path fill="#c2f9e4" d="m374.44,1359.42l-.03-1.89c14.03-.19,40.22-18.84,40.22-23.49,0-2.86-14.24-10.14-28.01-15.52l.69-1.76c4.88,1.9,29.21,11.71,29.21,17.29,0,6.02-27.33,25.18-42.08,25.38Z"></path></g><path fill="#fdbd28" d="m593.81,1608.34h-77.77c-7.01,0-12.94-5.19-13.86-12.15l-11.65-88.23h128.78l-11.65,88.23c-.92,6.95-6.84,12.15-13.86,12.15Z"></path><rect width="139.59" height="20.2" x="485.13" y="1497.87" fill="#d18f09" rx="1.92" ry="1.92"></rect></g><g><path fill="#ff748f" d="m857.45,586.29v113.47l-.56,107.5-72.18-46.75h-304.66c-26.19,0-47.43-21.24-47.43-47.43v-126.79c0-26.19,21.24-47.42,47.43-47.42h329.98c26.19,0,47.42,21.23,47.42,47.42Z"></path><g><path fill="#fff" d="M714.37 684.96h-230.84c-6.59 0-11.92 5.34-11.92 11.92h0c0 6.59 5.34 11.92 11.92 11.92h230.84c6.59 0 11.92-5.34 11.92-11.92h0c0-6.59-5.34-11.92-11.92-11.92zM800.22 637.99h-316.69c-6.59 0-11.92 5.34-11.92 11.92h0c0 6.59 5.34 11.92 11.92 11.92h316.69c6.59 0 11.92-5.34 11.92-11.92h0c0-6.59-5.34-11.92-11.92-11.92zM647.95 591.01h-164.42c-6.59 0-11.92 5.34-11.92 11.92h0c0 6.59 5.34 11.92 11.92 11.92h164.42c6.59 0 11.92-5.34 11.92-11.92h0c0-6.59-5.34-11.92-11.92-11.92z" opacity=".75"></path></g></g><g><path fill="#e5a21c" d="m1026.6,1608c-2.99,0-5.64-2.15-6.17-5.2l-36.4-210.61c-1.59-9.23-8.5-15.93-16.42-15.93h-93c-7.92,0-14.82,6.7-16.42,15.93l-36.4,210.61c-.59,3.41-3.83,5.69-7.24,5.11-3.41-.59-5.7-3.83-5.11-7.24l36.4-210.61c2.64-15.26,14.74-26.33,28.77-26.33h93c14.03,0,26.13,11.07,28.77,26.33l36.4,210.61c.59,3.41-1.7,6.65-5.11,7.24-.36.06-.72.09-1.07.09Z"></path><path fill="#fdbd28" d="m862.25,1608c-2.99,0-5.64-2.15-6.17-5.2l-36.4-210.61c-1.6-9.23-8.5-15.93-16.42-15.93h-93c-7.92,0-14.82,6.7-16.42,15.93l-36.4,210.61c-.59,3.41-3.83,5.69-7.24,5.11-3.41-.59-5.7-3.83-5.11-7.24l36.4-210.61c2.64-15.26,14.74-26.33,28.77-26.33h93c14.03,0,26.13,11.07,28.77,26.33l36.4,210.61c.59,3.41-1.7,6.65-5.11,7.24-.36.06-.72.09-1.07.09Z"></path><path fill="#c1cee5" d="m661.86,1332.58h214.56l13.26-22.53c18.66-31.71,25.35-70.6,18.57-107.97l-27.74-152.73c-2.38-13.11-12.54-22.52-24.31-22.52h-173.38c-12.1,0-22.44,9.92-24.47,23.49l-24.39,163.06c-5.06,33.86.81,68.66,16.53,97.98l11.37,21.2Z"></path><path fill="#e9efff" d="m660.77,1311.38l11.38,21.21h214.54l13.27-22.51c7.09-12.16,12.49-25.31,16-39.03,5.79-22.25,6.77-45.86,2.54-68.95l-27.71-152.74c-2.41-13.08-12.55-22.51-24.33-22.51h-173.36c-5.72,0-11.06,2.21-15.29,6.05-4.75,4.16-8.13,10.28-9.17,17.43l-24.39,163.08c-5.07,33.83.78,68.63,16.52,97.97Z"></path><path fill="#c1cee5" d="m638.51,1332.58v3.25c0,18.86,13.45,34.15,30.04,34.15h339.46c16.59,0,30.04-15.29,30.04-34.15v-3.25h-399.53Z"></path><path fill="#d5e0f7" d="m770.39,1332.58v3.25c0,18.86,13.45,34.15,30.04,34.15h207.58c16.59,0,30.04-15.29,30.04-34.15v-3.25h-267.65Z"></path><path fill="#fff" d="m677.81,1032.89l238.15,238.15c5.79-22.25,6.77-45.86,2.54-68.95l-27.71-152.74c-2.41-13.08-12.55-22.51-24.33-22.51h-173.36c-5.72,0-11.06,2.21-15.29,6.05Z" opacity=".34"></path></g><g><path fill="#f9d5ce" d="m927.1,1520.41l4.04-53.01,64.8.61-12.85,55.22s-40.88,6.97-55.98-2.82Z"></path><g><path fill="#4741bb" d="m1051.8,1595.86l-134.75-18.04,8.86-63.3c34.3,7.95,59.64,1.26,59.64,1.26,0,0-10.74,22.86,34.57,25.27,5.84.31,10.7,1.45,14.73,3.2,17.1,7.41,19.42,25.79,18.78,38.48-.38,7.57-1.83,13.12-1.83,13.12Z"></path><path fill="#9393d8" d="m1051.8,1595.86l-52.16-7.3c.91-35.71,23.93-42.91,35.21-44.3,17.1,7.41,19.42,25.79,18.78,38.48-.38,7.57-1.83,13.12-1.83,13.12Z"></path><path fill="#9393d8" d="m1051.8,1595.86l-134.75-18.04,1.84-13.12,134.74,18.04c-.38,7.57-1.83,13.12-1.83,13.12Z"></path><rect width="20.66" height="3.9" x="992.61" y="1542.91" fill="#9393d8" transform="rotate(-46.24 1002.919 1544.841)"></rect><rect width="25.1" height="3.9" x="976.31" y="1537.48" fill="#9393d8" transform="rotate(-45.88 988.99 1539.514)"></rect><rect width="20.58" height="3.9" x="967.42" y="1530.02" fill="#9393d8" transform="rotate(-44.72 977.575 1531.879)"></rect></g><path fill="#4741bb" d="m1007.33,1468.31c-.5,6.22-.91,12.14-1.24,17.67-21.73,7.21-42.67,6.54-58.38,3.98-16.35-2.66-27.03-7.37-27.03-7.37l.2-22.79-1.47-146.16-54.2,4.61-55.3,4.71c-76.35-8.89-59.7-104.11-54.8-120.97,42.39-2.73,155.77-2,233.72,37.36,48.71,24.6,21.58,189.07,18.49,228.95Z"></path><path fill="#9393d8" d="m1007.33,1468.31c-.49,6.22-.91,12.14-1.23,17.68-44.32,14.71-85.4-3.39-85.4-3.39l.2-22.79c14.87,3.98,51.36,12.24,86.43,8.51Z"></path><g opacity=".6"><path fill="#2d2d91" d="m920.69,1482.59l.2-22.79-1.47-146.16-54.2,4.61-11.45-57.34,17.24-29.21s47.42,11.97,56.04,29.21c8.62,17.24,14.37,54.6,5.75,103.45-7.86,44.53,2.18,108.14,14.91,125.59-16.35-2.66-27.03-7.37-27.03-7.37Z"></path></g><path fill="#f9d5ce" d="m906.25,1090.27s48.91,36.71,58.29,43.24c12.93,9,70.26,32.96,70.26,32.96v34.75s-52.98-13.32-88.05-23.21-70.36-39.3-70.36-39.3l29.85-48.44Z"></path><path fill="#4f6bfd" d="m932.27,1105.63s-16.51,27.69-34.51,41.73c-1.77,1.38-3.53,2.61-5.32,3.69-1.74,1.06-3.46,1.94-5.19,2.63-3.05-2.36-5.99-4.55-8.84-6.65-24.99-18.29-42.89-27.54-66.74-53.71-7.87-8.62-14.08-18.35-17.89-29.17-16.68-47.36,50.4-45.1,50.4-45.1,0,0,44.56,41.47,88.08,86.58Z"></path><g><path fill="#f9d5ce" d="m1031.27,1167.7s18.13-8.5,40.81,3.34c22.68,11.83,41.97,21.31,32.92,28.39-9.05,7.08-34.41-1.72-48.07,1.26-16.43,3.59-25.95,1.94-30.36-6.01-4.41-7.94,4.7-26.98,4.7-26.98Z"></path><path fill="#f9d5ce" d="m1029.86,1198.91s28.59,13.89,32.57,10.58c3.98-3.31-14.98-9.59-12.53-11.67,2.45-2.08-20.04,1.09-20.04,1.09Z"></path></g><path fill="#4f6bfd" d="m881.08,1207.75s-44.79,57.46-149.58,23.95c-7.68-2.45-15.67-5.4-24.01-8.89-.01-.06-.02-.13-.01-.19-4.56-41.67-6.34-74.86-6.32-101.28.01-39.69,4.08-64.13,8.82-79.13,6.71-21.23,16.24-32.24,16.24-32.24,0,0,6.78-3.1,20.51-6.55,3.28-.84,7.14-1.68,11.47-2.39,14.36-2.35,33.96-3.16,55.48,3.21.88.27,1.78.54,2.67.83,3.93,1.25,7.99,2.62,12.16,4.1,61.63,21.77,45.63,182.07,52.57,198.58Z"></path><path fill="#3a5dcc" d="m897.75,1147.36c-1.77,1.38-3.53,2.61-5.32,3.69-1.74,1.06-3.46,1.94-5.19,2.63-3.05-2.36-5.99-4.55-8.84-6.65l-.1-.46s-3.23-60.35-7.9-75.79c13.65,29.46,16.88,59.27,19.76,65.02,1.08,2.14,4.15,6.7,7.59,11.57Z"></path><path fill="#f9d5ce" d="m815.8,1520.75l12.29-51.72,63.9,10.75-21.34,52.53s-41.47.49-54.85-11.56Z"></path><g><path fill="#4741bb" d="m925.98,1615.85l-129.76-40.55,19.43-60.89c32.47,13.63,58.57,11.32,58.57,11.32,0,0-14.45,20.72,29.8,30.75,5.71,1.3,10.3,3.24,13.98,5.65,15.6,10.2,14.78,28.7,12,41.1-1.66,7.4-4.02,12.63-4.02,12.63Z"></path><path fill="#9393d8" d="m925.98,1615.85l-50.17-16.01c6.93-35.04,30.84-38.25,42.19-37.71,15.6,10.2,14.78,28.7,12,41.1-1.66,7.4-4.02,12.63-4.02,12.63Z"></path><path fill="#9393d8" d="m925.98,1615.85l-129.76-40.55,4.03-12.62,129.75,40.55c-1.66,7.4-4.02,12.63-4.02,12.63Z"></path><rect width="20.66" height="3.9" x="876.11" y="1555.38" fill="#9393d8" transform="rotate(-36.51 886.567 1557.452)"></rect><rect width="25.1" height="3.9" x="860.93" y="1547.65" fill="#9393d8" transform="rotate(-36.15 873.544 1549.647)"></rect><rect width="20.58" height="3.9" x="853.46" y="1538.41" fill="#9393d8" transform="rotate(-35.01 863.678 1540.284)"></rect></g><path fill="#4741bb" d="m903.19,1481.86c-1.47,6.08-2.8,11.85-3.98,17.27-16.58,2.73-32.1,1.32-45.15-1.59-23.22-5.17-38.68-15.13-38.68-15.13l3.78-22.49,14.5-117.1-69.59-5.47c-37.96-4.43-52.95-30.2-57.79-57.06-4.91-27.16.52-55.43,2.99-63.91,42.37-2.73,101.94,4.78,192.67,20.81,53.74,9.48,10.56,205.79,1.25,244.68Z"></path><path fill="#9393d8" d="m903.19,1481.86c-1.46,6.07-2.8,11.85-3.98,17.27-46.08,7.59-83.82-16.73-83.82-16.73l3.77-22.48c14.06,6.26,48.81,20.13,84.03,21.94Z"></path><g opacity=".6"><path fill="#2d2d91" d="m819.16,1459.92l14.5-117.1-69.59-5.47c-37.96-4.43-52.95-30.2-57.79-57.06,7.79,15.91,26.31,41.54,64.16,39.54,54.6-2.87,73.28,14.37,73.28,14.37,0,0,2.87,79.03-12.93,113.51-12.79,27.89,12.96,44.5,23.28,49.83-23.22-5.17-38.68-15.13-38.68-15.13l3.78-22.49Z"></path></g><path fill="#3a5dcc" d="m775.3,1048.9s23.33,31.77,30,77.1c-6.67,12.67-7.25,24.89,23.15,32.68-21.15,20.65-47.68,38.43-47.68,38.43,0,0-21.47,7.06-40.8-32.36-19.33-39.42-25.64-103.37-25.64-103.37l60.97-12.48Z"></path><g><path fill="#f9d5ce" d="m930.05,1186.17s18.3-9.23,42.93,3.25c24.63,12.47,45.57,22.45,35.9,30.21-9.68,7.76-39.87-5.3-54.74-2.78-17.9,3.03-11.52,5.46-25.5,4.8-9.8-.46,1.42-35.47,1.42-35.47Z"></path><path fill="#f9d5ce" d="m736.52,1132.36s12.28,54.46,32.14,62.1c19.86,7.65,161.36,27.25,161.36,27.25l5.74-37.05s-131.84-29.74-139.05-36.34-5.69-34.75-5.69-34.75l-54.5,18.8Z"></path><path fill="#4f6bfd" d="m797.3,1126c-17.51,16.6-63.79,12.84-63.79,12.84,0,0-25.05-81.77-20.97-105.15,1.18-6.77,5.84-16.91,13.5-24.03,13.14,3.35,28.49,11,41.04,27.59,23.61,31.21,25.89,49.32,30.21,88.74Z"></path></g><path fill="#abbbff" d="m806.8,1032.67c-19,2-34.17-5-42.73-13.63-4.44-4.48-6.72-13.59-6.93-17.82,14.36-2.35,35.02-3.34,56.54,3.03,1.03,7.59,2.38,27.45-6.88,28.43Z"></path><g><path fill="#f9d5ce" d="m810.51,946.83l-1.09,57.4c-.24,12.73,2.31,24.27-10.3,22.52-18.08-2.5-36.04-10.67-35.8-23.4l1.09-57.4,46.1.87Z"></path><path fill="#eabdb7" d="m810.51,946.83l-.92,48.42c-25.84-5.33-39.23-20.72-45.53-31.13l.34-18.17,46.1.87Z"></path><g><path fill="#f9d5ce" d="m847.15,904.91s.19,78.98-38.61,76.42c-38.8-2.57-58.33-37.9-57.45-57.79.87-19.89,11.2-74.33,55.08-67.68,43.88,6.65,40.99,49.06,40.99,49.06Z"></path><path fill="#0f094f" d="m777.74,899.6s16.62,6.94,65.14-7.78l-9.31,12.78s41.83-13.23,19.17-51.84c-7.88-13.41-74.43-20.28-86.36-8.64-41.25,4.47-41.9,113.04-.42,116.14,7.78-36.21,11.79-60.67,11.79-60.67Z"></path><path fill="#f9d5ce" d="m774.66,923.83s-3.61-10.31-17.28-9.72c-13.67.59-16.49,32.18,11.75,31.04,7.67-14.81,5.54-21.32,5.54-21.32Z"></path><path fill="#eabdb7" d="m753.75,933.7l-.54-2.66c8.16-1.67,8.97-9.61,8.98-9.69l2.7.24c0,.1-1.01,10.03-11.13,12.11Z"></path><rect width="2.71" height="6.94" x="761.56" y="927.32" fill="#eabdb7" transform="rotate(-40.69 762.81 930.724)"></rect></g></g></g><g><g><polygon fill="#fdbd28" points="793.33 1310.54 790.44 1349.05 770.59 1608 740.75 1608 740.75 1310.54 793.33 1310.54"></polygon><polygon fill="#fdbd28" points="864.18 1310.54 863.13 1324.21 841.44 1608 811.6 1608 811.6 1310.54 864.18 1310.54"></polygon><polygon fill="#fdbd28" points="1315.17 1310.54 1315.17 1608 1285.33 1608 1264.83 1339.19 1262.59 1310.54 1315.17 1310.54"></polygon><polygon fill="#fdbd28" points="1244.32 1310.54 1244.32 1608 1214.48 1608 1195.69 1362.85 1191.74 1310.54 1244.32 1310.54"></polygon><rect width="670.37" height="26.29" x="690.91" y="1231.7" fill="#e9efff" rx="1" ry="1"></rect><polygon fill="#c1cee5" points="1333.31 1257.96 1329.63 1269 1315.83 1310.54 736.41 1310.54 722.48 1269 718.8 1257.96 1333.31 1257.96"></polygon><polygon fill="#d5e0f7" points="1329.63 1269 1315.83 1310.54 736.41 1310.54 722.48 1269 1329.63 1269"></polygon></g><polygon fill="#e8a621" points="1191.74 1310.54 1244.32 1310.54 1244.32 1346.16 1195.69 1362.85 1191.74 1310.54"></polygon><polygon fill="#e8a621" points="1315.17 1310.54 1315.17 1321.97 1264.83 1339.19 1262.59 1310.54 1315.17 1310.54"></polygon><polygon fill="#e8a621" points="740.75 1310.54 793.33 1310.54 790.44 1349.05 740.75 1366.14 740.75 1310.54"></polygon><polygon fill="#e8a621" points="864.18 1310.54 863.13 1324.21 811.6 1341.82 811.6 1310.54 864.18 1310.54"></polygon></g><g><rect width="794.16" height="476.5" x="931.59" y="538.87" fill="#e9efff" rx="57.86" ry="57.86"></rect><path fill="#4741bb" d="m1725.75,596.73v17.27h-794.16v-17.27c0-31.95,25.91-57.86,57.86-57.86h678.44c31.95,0,57.86,25.91,57.86,57.86Z"></path><circle cx="991.52" cy="576.44" r="12.28" fill="#e9efff" transform="rotate(-80.78 991.563 576.426)"></circle><circle cx="1030.81" cy="576.44" r="12.28" fill="#e9efff" transform="rotate(-80.78 1030.849 576.428)"></circle><circle cx="1070.09" cy="576.44" r="12.28" fill="#e9efff" transform="rotate(-76.72 1070.047 576.441)"></circle><g><rect width="206.94" height="206.94" x="976.54" y="639.63" fill="#f5f8ff" rx="25.56" ry="25.56"></rect><g><g><rect width="36.72" height="80.89" x="1061.65" y="673.34" fill="#4f6bfd"></rect><polygon fill="#4f6bfd" points="1080.01 789.1 1042.42 731.99 1117.6 731.99 1080.01 789.1"></polygon></g><rect width="75.18" height="11.24" x="1042.42" y="801.64" fill="#4f6bfd"></rect></g></g><rect width="459.38" height="206.94" x="1221.42" y="639.63" fill="#f5f8ff" rx="21.66" ry="21.66"></rect><rect width="708.95" height="113.44" x="971.85" y="873" fill="#f5f8ff" rx="21.66" ry="21.66"></rect><g><g><path fill="#e9efff" d="m1342.79,820.57c-42.71,0-77.46-34.75-77.46-77.46s34.75-77.46,77.46-77.46,77.46,34.75,77.46,77.46-34.75,77.46-77.46,77.46Zm0-130.33c-29.15,0-52.87,23.72-52.87,52.87s23.72,52.87,52.87,52.87,52.87-23.72,52.87-52.87-23.72-52.87-52.87-52.87Z"></path><path fill="#fdbd28" d="m1342.79,820.57c-42.71,0-77.46-34.75-77.46-77.46s34.75-77.46,77.46-77.46v24.6c-29.15,0-52.87,23.72-52.87,52.87s23.72,52.87,52.87,52.87,52.87-23.72,52.87-52.87h24.6c0,42.71-34.75,77.46-77.46,77.46Z"></path></g><path fill="#fdbd28" d="m1642.52,708.68h-185.55c-6.21,0-11.25-5.03-11.25-11.25h0c0-6.21,5.03-11.25,11.25-11.25h185.55c6.21,0,11.25,5.03,11.25,11.25h0c0,6.21-5.03,11.25-11.25,11.25Z"></path><rect width="141.97" height="22.49" x="1445.73" y="731.86" fill="#e9efff" rx="11.25" ry="11.25"></rect><path fill="#e9efff" d="m1607.38,800.02h-150.4c-6.21,0-11.25-5.03-11.25-11.25h0c0-6.21,5.03-11.25,11.25-11.25h150.4c6.21,0,11.25,5.03,11.25,11.25h0c0,6.21-5.03,11.25-11.25,11.25Z"></path></g><path fill="#ff748f" d="m1307.79,917.27h-300.04c-5.86,0-10.61-4.75-10.61-10.61h0c0-5.86,4.75-10.61,10.61-10.61h300.04c5.86,0,10.61,4.75,10.61,10.61h0c0,5.86-4.75,10.61-10.61,10.61Z"></path><path fill="#e9efff" d="M1188.03 963.23h-174.85c-8.86 0-16.04-7.18-16.04-16.04h0c0-8.86 7.18-16.04 16.04-16.04h174.85c8.86 0 16.04 7.18 16.04 16.04h0c0 8.86-7.18 16.04-16.04 16.04zM1413.03 963.23h-174.85c-8.86 0-16.04-7.18-16.04-16.04h0c0-8.86 7.18-16.04 16.04-16.04h174.85c8.86 0 16.04 7.18 16.04 16.04h0c0 8.86-7.18 16.04-16.04 16.04z"></path></g><path fill="#fff" d="m739.15,538.87c-55.8,51.26-153.59,117.4-306.53,147.73v-100.31c0-26.19,21.24-47.42,47.43-47.42h259.1Z" opacity=".15"></path><g><g><rect width="180.43" height="13.24" x="891.99" y="1218.46" fill="#110a56"></rect><polygon fill="#110a56" points="1271.95 1081.21 1231.2 1231.7 997.13 1231.7 1000.72 1218.46 1003.98 1206.42 1037.88 1081.21 1271.95 1081.21"></polygon><polygon fill="#2b1a82" points="1281.28 1081.21 1240.53 1231.7 1006.47 1231.7 1010.05 1218.46 1013.73 1204.88 1047.21 1081.21 1281.28 1081.21"></polygon><circle cx="1143.87" cy="1156.46" r="14.29" fill="#110a56" transform="rotate(-22.5 1143.867 1156.47)"></circle></g><path fill="#fff" d="m1227.59,1081.21c-17.5,20.26-41.72,44.13-73.02,65.78-7.53,5.2-15.46,10.28-23.81,15.15-32.6,19.02-71.51,34.86-117.03,42.74-3.22.56-6.47,1.07-9.75,1.54l33.9-125.21h189.71Z" opacity=".09"></path></g></svg>