<svg id="SvgjsSvg2084" width="288" height="288" xmlns="http://www.w3.org/2000/svg" version="1.1" xmlns:xlink="http://www.w3.org/1999/xlink" xmlns:svgjs="http://svgjs.com/svgjs"><defs id="SvgjsDefs2085"></defs><g id="SvgjsG2086"><svg xmlns="http://www.w3.org/2000/svg" xmlns:svgjs="http://svgjs.com/svgjs" xmlns:xlink="http://www.w3.org/1999/xlink" viewBox="0 0 288 288" width="288" height="288"><svg xmlns="http://www.w3.org/2000/svg" enable-background="new 0 0 2000 2000" viewBox="56.376 367.495 1887.248 1485.33" width="288" height="288"><g class="color000 svgShape" opacity=".41" fill="#000000"><path fill="#ffefb2" d="M142.16,932.37L142.16,932.37c0-101.28,88.06-183.38,196.68-183.38h41.03      c-19.19-15.49-31.35-38.35-31.35-63.87v0c0-46.65,40.56-84.47,90.59-84.47h136.55c-13.81-11.08-22.59-27.47-22.59-45.79      c0-33.38,29.02-60.44,64.82-60.44h342.87c35.8,0,64.82,27.06,64.82,60.44c0,33.38-29.02,60.44-64.82,60.44H832.38      c-23.9,15.21-39.6,40.8-39.6,69.82v0c0,25.52,12.16,48.38,31.35,63.87h211.14c108.62,0,196.68,82.1,196.68,183.38l0,0      c0,101.28-88.06,183.38-196.68,183.38h279.71c50.03,0,90.59,37.82,90.59,84.47c0,46.65-40.56,84.47-90.59,84.47h113.97      c124.52,0,227.88,84.17,248.4,194.8h39.91c77.64,0,140.58,58.68,140.58,131.07v13.28c0,72.39-62.94,131.07-140.58,131.07      h-288.31H485.4h-91.07c-139.27,0-252.17-105.26-252.17-235.11v0c0-129.85,112.9-235.11,252.17-235.11h441.46      c-50.03,0-90.59-37.82-90.59-84.47c0-46.65,40.56-84.47,90.59-84.47H338.84C230.22,1115.75,142.16,1033.65,142.16,932.37z" class="colora5d5fe svgShape colorfeeca5"></path><path fill="#fffae6" d="M1144.48,615.3c-32.52,0-58.89-27.06-58.89-60.44s26.37-60.44,58.89-60.44c32.52,0,58.89,27.06,58.89,60.44      S1177,615.3,1144.48,615.3z" class="colorabe9ff svgShape colorffeeab" opacity=".2"></path></g><path fill="#231f20" d="M1857.84,1758.35c0,22.45-392.68,26.96-866.46,26.96c-473.77,0-849.22-4.51-849.22-26.96     c0-22.45,383.91-21.75,857.68-21.75C1473.61,1736.6,1857.84,1735.9,1857.84,1758.35z" class="color231f20 svgShape" opacity=".15"></path><path fill="#951a2e" d="M1754.04,801.24c0.29-13.58-1.78-27.3-6.39-40.53l29.64-26.27l-19.42-31.31l-36.52,14.82     c-9.82-10.17-21.24-18.27-33.61-24.13l2.37-39.37l-35.86-8.4l-15.43,36.51c-13.56-0.13-27.24,2.12-40.41,6.88l-26.48-29.89     l-31.29,19.42l15.19,37.44c-9.7,9.65-17.44,20.78-23.1,32.8l-40.75-2.46l-8.4,35.87l38.04,16.09     c-0.02,12.98,2.13,26.06,6.58,38.68l-31.11,27.58l19.42,31.31l38.7-15.7c9.31,9.43,20.02,17.03,31.58,22.67l-2.51,41.71     l35.86,8.4l16.18-38.29c12.99,0.19,26.1-1.81,38.77-6.1l27.37,30.89l31.29-19.42l-15.33-37.81c9.89-9.49,17.83-20.49,23.68-32.4     l40.31,2.43l8.4-35.87L1754.04,801.24z M1668.51,848.28c-27.3,16.94-63.17,8.54-80.11-18.78c-16.94-27.31-8.54-63.19,18.76-80.13     c27.3-16.94,63.17-8.54,80.11,18.78C1704.21,795.46,1695.82,831.33,1668.51,848.28z" class="colora9ceea svgShape coloreadda9"></path><path fill="#d93f57" d="M1740.05,808.51c0.29-13.58-1.78-27.3-6.39-40.53l29.64-26.28l-19.42-31.31l-36.52,14.82     c-9.82-10.17-21.24-18.27-33.61-24.13l2.37-39.37l-35.86-8.4l-15.43,36.51c-13.56-0.13-27.24,2.11-40.41,6.88l-26.48-29.89     l-31.29,19.42l15.19,37.44c-9.7,9.65-17.44,20.78-23.1,32.8l-40.75-2.46l-8.4,35.87l38.04,16.09     c-0.02,12.98,2.13,26.06,6.58,38.68l-31.11,27.58l19.42,31.31l38.7-15.7c9.31,9.43,20.02,17.03,31.58,22.67l-2.51,41.71     l35.86,8.4l16.18-38.29c12.99,0.19,26.1-1.81,38.77-6.1l27.37,30.89l31.29-19.42l-15.33-37.81c9.89-9.49,17.83-20.49,23.68-32.41     l40.31,2.43l8.4-35.87L1740.05,808.51z M1654.53,855.54c-27.3,16.94-63.17,8.54-80.11-18.78c-16.94-27.31-8.54-63.19,18.76-80.13     c27.3-16.94,63.17-8.54,80.11,18.78C1690.23,802.72,1681.83,838.59,1654.53,855.54z" class="colorc5dfef svgShape colorefe7c5"></path><polygon fill="#951a2e" points="1477.99 754.02 1490.1 754.75 1491.97 746.76" class="colora9ceea svgShape coloreadda9"></polygon><polygon fill="#951a2e" points="1640.26 653.31 1654.25 646.05 1650.19 655.64" class="colora9ceea svgShape coloreadda9"></polygon><polygon fill="#951a2e" points="1557.94 666.82 1571.93 659.56 1558.75 667.73" class="colora9ceea svgShape coloreadda9"></polygon><polygon fill="#951a2e" points="1606.14 960.63 1620.13 953.37 1610.19 951.04" class="colora9ceea svgShape coloreadda9"></polygon><polygon fill="#951a2e" points="1768.41 859.92 1782.4 852.66 1770.28 851.93" class="colora9ceea svgShape coloreadda9"></polygon><polygon fill="#951a2e" points="1688.46 947.12 1702.45 939.86 1701.64 938.95" class="colora9ceea svgShape coloreadda9"></polygon><path fill="#951a2e" d="M1397.86,541.46c0.2-9.31-1.22-18.72-4.38-27.8l20.33-18.02l-13.32-21.47l-25.05,10.17     c-6.73-6.97-14.57-12.53-23.05-16.55l1.62-27l-24.6-5.76l-10.59,25.04c-9.3-0.09-18.68,1.45-27.72,4.72l-18.16-20.5l-21.47,13.32     l10.42,25.68c-6.65,6.62-11.96,14.25-15.84,22.5l-27.95-1.69l-5.76,24.6l26.09,11.04c-0.02,8.9,1.46,17.87,4.51,26.53     l-21.34,18.92l13.32,21.47l26.54-10.77c6.39,6.47,13.73,11.68,21.66,15.55l-1.72,28.61l24.6,5.76l11.1-26.26     c8.91,0.13,17.9-1.24,26.59-4.19l18.77,21.19l21.47-13.32l-10.52-25.93c6.78-6.51,12.23-14.05,16.24-22.23l27.65,1.67l5.76-24.6     L1397.86,541.46z M1339.2,573.72c-18.73,11.62-43.33,5.86-54.95-12.88c-11.62-18.73-5.86-43.34,12.87-54.97     c18.73-11.62,43.33-5.86,54.95,12.88C1363.69,537.49,1357.93,562.1,1339.2,573.72z" class="colora9ceea svgShape coloreadda9"></path><path fill="#d93f57" d="M1388.27,546.44c0.2-9.31-1.22-18.72-4.38-27.8l20.33-18.02l-13.32-21.47l-25.05,10.17     c-6.74-6.97-14.57-12.53-23.05-16.55l1.62-27l-24.6-5.76l-10.58,25.05c-9.3-0.09-18.69,1.45-27.72,4.72l-18.16-20.5l-21.47,13.32     l10.42,25.68c-6.65,6.62-11.97,14.25-15.84,22.5l-27.95-1.69l-5.76,24.6l26.09,11.04c-0.02,8.9,1.46,17.87,4.51,26.53     l-21.34,18.92l13.32,21.47l26.54-10.77c6.39,6.47,13.73,11.68,21.66,15.55l-1.72,28.61l24.6,5.76l11.1-26.26     c8.91,0.13,17.9-1.24,26.59-4.19l18.77,21.19l21.46-13.32l-10.52-25.93c6.78-6.51,12.23-14.06,16.24-22.23l27.65,1.67l5.76-24.6     L1388.27,546.44z M1329.61,578.7c-18.73,11.62-43.33,5.86-54.95-12.88c-11.62-18.73-5.86-43.34,12.87-54.97     c18.73-11.62,43.33-5.86,54.95,12.88C1354.1,542.47,1348.34,567.08,1329.61,578.7z" class="colorc5dfef svgShape colorefe7c5"></path><polygon fill="#951a2e" points="1208.52 509.06 1216.83 509.56 1218.11 504.08" class="colora9ceea svgShape coloreadda9"></polygon><polygon fill="#951a2e" points="1319.82 439.99 1329.42 435.01 1326.64 441.58" class="colora9ceea svgShape coloreadda9"></polygon><polygon fill="#951a2e" points="1263.36 449.25 1272.95 444.27 1263.91 449.88" class="colora9ceea svgShape coloreadda9"></polygon><polygon fill="#951a2e" points="1296.42 650.78 1306.01 645.8 1299.2 644.21" class="colora9ceea svgShape coloreadda9"></polygon><polygon fill="#951a2e" points="1407.73 581.71 1417.32 576.73 1409.01 576.22" class="colora9ceea svgShape coloreadda9"></polygon><polygon fill="#951a2e" points="1352.89 641.52 1362.48 636.54 1361.92 635.91" class="colora9ceea svgShape coloreadda9"></polygon><g class="color000 svgShape" fill="#000000"><path fill="#3b2226" d="M826.78,1090.51l1.26,12.78c0,0-12.5,5.33-14.72,2.8c-2.22-2.53-3.75-1.87-3.75-1.87l-1.06-16.16     L826.78,1090.51z" class="color22313b svgShape color3b2226"></path><polygon fill="#3b2226" points="881.28 1086.59 880.5 1098.86 864.22 1098.04 862.29 1084.38" class="color22313b svgShape color3b2226"></polygon><path fill="#523f42" d="M875.97,930.22c1.35-13.32,1.25-33.8,1.09-44.1H795.7c-0.86,0.54-1.52,1.12-1.91,1.75     c-6.58,10.54-1.75,102.01,1.35,127.14c3.1,25.13,11.66,79.02,11.66,79.02c5.32,1.54,13.29,1.65,19.83,2.24     c2.06,0.19,3.82-1.41,3.76-3.39l-2.3-81.04c-0.39-13.75,1.48-32.14,1.48-32.14s5.1,11.32,7.88,25     c2.78,13.68,21.47,83.59,23.99,88.1c1.96,3.51,13.44,2.32,20.62,2.29c1.85-0.01,3.31-1.52,3.15-3.29     c-1.45-15.94-9.25-70.97-11.8-83.54C870.63,994.57,874.1,948.62,875.97,930.22z" class="color3f4752 svgShape color523f42"></path><path fill="#402f32" d="M875.71 1021.74c-.13-.85-.27-1.68-.39-2.48-.15-.91-.29-1.78-.43-2.63-.45-2.73-.85-5.05-1.19-6.85-.03-.17-.06-.33-.09-.49-.07-.37-.14-.73-.2-1.05-1.04-5.13-1.21-14.8-.9-25.85.18-6.45.51-13.36.92-20.13.76-12.56 1.79-24.58 2.55-32.05 0-.02 0-.03 0-.05.07-.72.14-1.47.21-2.23.02-.22.04-.45.06-.68.05-.66.1-1.34.15-2.02.01-.14.02-.27.03-.41.05-.8.1-1.62.15-2.45.02-.26.03-.52.04-.77.03-.65.07-1.3.1-1.97.01-.23.02-.46.03-.69.04-.85.07-1.7.1-2.56.01-.24.02-.48.03-.72.02-.68.05-1.36.06-2.04.01-.27.02-.54.02-.81.02-.85.04-1.7.06-2.55.01-.25.01-.49.01-.74.01-.67.03-1.33.04-1.99 0-.3.01-.59.01-.89.01-.85.02-1.71.03-2.55 0-.11 0-.22 0-.33.01-.77.01-1.54.02-2.3 0-.28 0-.55 0-.83 0-.7.01-1.39.01-2.07 0-.14 0-.29 0-.43 0-.83 0-1.64 0-2.44 0-.18 0-.37 0-.55 0-.69-.01-1.36-.01-2.02 0-.12 0-.24 0-.36-.01-.79-.01-1.56-.02-2.3 0-.05 0-.1 0-.15-.01-.73-.01-1.44-.02-2.11 0-.02 0-.05 0-.07-.01-.71-.02-1.39-.03-2.02H864.1c-3.56 30.15-9.05 81.26-7.04 93.93 2.51 15.76 15.55 89.22 19.25 114.96 2.18.06 4.18.07 5.74.07 1.85-.01 3.31-1.52 3.15-3.29-.36-3.99-1.12-10.41-2.1-18.01-.24-1.9-.5-3.87-.77-5.9-1.07-8.1-2.31-17.05-3.54-25.58-.15-1.07-.31-2.13-.46-3.18C877.42 1032.82 876.52 1026.85 875.71 1021.74zM822.13 928.31c2.65 9.1 8.54 54.01 8.54 54.01l0 0c-.67-1.67-1.11-2.64-1.11-2.64s-1.87 18.4-1.48 32.14l2.3 81.04c.06 1.99-1.7 3.58-3.76 3.39-5.47-.49-11.68-.85-17.93-2.06 4.47-.89 11.37-4.03 13.15-7.69 2.26-4.65-4.93-89.28-4.93-89.28C821.24 981.07 822.13 928.31 822.13 928.31z" class="color2f3740 svgShape color402f32"></path><path fill="#3d2d30" d="M883.17 1099.42c0 0-17.79-6.01-22.13-3.71 0 0 .12 4.34-2.02 6.57-2.14 2.23-14.97 15.62-12.71 17.73 2.26 2.11 24.33 3.65 37.41-1.06L883.17 1099.42zM828.24 1100.57c.75-.08 1.41.49 1.43 1.24l.47 16.4c0 0 2.05 1.92-9.9 2.26-11.95.34-43.81 1.24-45.86-.67-2.05-1.92-.11-3.95 9.73-8.19 9.84-4.23 20.6-11.46 24.47-15.53 0 0 7.97-.23 6.14 5.76C814.73 1101.83 816.57 1101.78 828.24 1100.57z" class="color2d313d svgShape color3d2d30"></path><path fill="#fce896" d="M721.5,752.99c-0.97-5.43,10.07-7.3,10.07-7.3s-2.26-5.2-4.21-9.24c-1.95-4.04,0.72-2.68,0.72-2.68     c7.5,6.66,14.57,17.71,13.51,22.99c-1.06,5.27,2.82,10.29,2.82,10.29l-9.89,4.68c0,0-5.76-8.22-6.89-10.05     C726.5,759.84,722.47,758.42,721.5,752.99z" class="colorfcc596 svgShape colorfce896"></path><path fill="#f8f2d8" d="M745.09,763.46l-2.06-5.16c0,0-9.96,3.41-13.7,9.96l3.97,3.9L745.09,763.46z" class="colorf8e8d8 svgShape colorf8f2d8"></path><path fill="#e04463" d="M795.33,758.11c-7.54,11.61-22.8,35.42-22.8,35.42s-3.81-6.11-4.38-0.79l-21.76-32.23     c0,0-13.07,1.96-16.01,12.64c0,0,24.95,51.62,36.77,55.03c11.82,3.41,28.86-28.51,28.86-28.51l2.76-40.41     C798.89,757.34,796.38,756.49,795.33,758.11z" class="color4484e0 svgShape colore04463"></path><path fill="#402f32" d="M877.14,894.36c-0.01-3.12-0.05-5.94-0.08-8.23H864.1h-68.4c-0.86,0.54-1.52,1.12-1.91,1.75    c-0.58,0.92-1.06,2.5-1.47,4.56C809.54,898.07,846.51,905.93,877.14,894.36z" class="color2f3740 svgShape color402f32"></path><path fill="#330008" d="M796.39,857.31c0.64-2.35,1.16-3.84,1.16-3.84l73.12,3c0,0,0.26,1.49,0.66,4.05     c-0.36,0.5-0.66,0.88-0.66,0.88C838.04,874.72,814.41,874.73,796.39,857.31z" class="color330e00 svgShape color330008"></path><path fill="#e04463" d="M802.8,753.79c-7.76,3.27-18.65,9.81-9.08,32.4l3.33,69.54c0,0-3.72,10.72-1.37,12.99      c18.03,17.49,41.68,17.49,74.35,4.15c0,0,1.72-2.19,1.94-3.07c1.2-4.73-2.79-17.92-2.79-17.92l18.26-56.76      c0,0,18-24.49,6.08-33.38C874.76,747.77,833.5,740.86,802.8,753.79z" class="color4484e0 svgShape colore04463"></path><path fill="#ce2843" d="M888.94,788.64c-12.35,14.49-31.8,53.61-44.15,68.09c4.76-12.72,9.52-25.45,14.28-38.17    c-12.65,17.67-29.53,32.29-48.82,42.3c-4.55-12.16-6.19-22.91-14.61-32.81l-5.84,58.6c36.33,23.71,90.66-0.43,90.66-0.43l-6.52-44    L888.94,788.64z" class="color286bce svgShape colorce2843"></path><path fill="#ead068" d="M824.11,745.36c0,0-7.2-0.31-8.51,0.5c-1.31,0.81-4.59,10.27-5.24,11.76c-0.66,1.49,8.76,10.3,8.76,10.3    s-7.77,12.75-7.45,13.78c0.33,1.03,14.1,56.79,14.1,56.79s33.4-49.82,34.09-52.3c0.68-2.48-3.2-15.29-3.2-15.29    s9.89-7.29,10.49-8.88c0.6-1.59,1.87-11.75,0-13.04c-1.15-0.79-7.8-2.29-7.8-2.29L824.11,745.36z" class="color68a9ea svgShape coloread068"></path><path fill="#f8f2d8" d="M859.35,749.09L859.35,749.09c0,0-10.24,26.42-19.26,49.69c-7.09,18.3-14.93-0.84-14.93-0.84l-2.21-52.46    c0.49-0.03,1.51-0.17,2-0.19L859.35,749.09z" class="colorf8e8d8 svgShape colorf8f2d8"></path><defs><filter id="a" width="34.64" height="86.71" x="822.96" y="745.28" filterUnits="userSpaceOnUse"><feFlood flood-color="#fff" flood-opacity="1" result="back"></feFlood><feBlend in="SourceGraphic" in2="back"></feBlend></filter></defs><mask id="c" width="34.64" height="86.71" x="822.96" y="745.28" maskUnits="userSpaceOnUse"><g class="color000 svgShape" filter="url(#a)" fill="#000000"><linearGradient id="b" x1="928.043" x2="954.474" y1="760.722" y2="832.918" gradientTransform="matrix(-1 0 0 1 1764.058 0)" gradientUnits="userSpaceOnUse"><stop class="stopColorfff svgShape" offset="0" stop-color="#ffffff"></stop><stop class="stopColorececec svgShape" offset=".064" stop-color="#ececec"></stop><stop class="stopColor888 svgShape" offset=".414" stop-color="#888888"></stop><stop class="stopColor3f3f3f svgShape" offset=".698" stop-color="#3f3f3f"></stop><stop class="stopColor111 svgShape" offset=".899" stop-color="#111111"></stop><stop class="stopColor000000 svgShape" offset="1" stop-color="#000000"></stop></linearGradient><path fill="url(#b)" d="M825.52,762.23      c-2.05-0.48-2.15-6.9-2.15-6.9l-0.41-9.71c0.02-0.05,0.04-0.1,0.07-0.15c0.51-0.04,1.46-0.16,1.93-0.19l31.69,3.51      c-0.12,0.38,1.16,3.02,0.93,3.76c-1.84,5.4-7.75,13.18-8.94,13.37c-1.39,0.22-4.94-3.84-5.41-5.17      c-0.73,0.66-1.97,2.62-2.7,3.28c-0.39,9.45-0.04,21.88,0.11,33.36c-5.49,14.17-10.61,27.38-12.82,33.08      c-0.4,0.53-0.8,1.03-1.21,1.52l-1.18-28.07c3.57-13.51,7.15-27.03,10.72-40.55c-1.14-1.55-2.6-2.71-3.74-4.26      C830.51,760.96,828.16,762.23,825.52,762.23z" mask="url(#c)"></path></g></mask><linearGradient id="d" x1="928.043" x2="954.474" y1="760.722" y2="832.918" gradientTransform="matrix(-1 0 0 1 1764.058 0)" gradientUnits="userSpaceOnUse"><stop class="stopColorcfd4d8 svgShape stopColord8d6cf" offset="0" stop-color="#d8d6cf"></stop><stop class="stopColorcfd4d8 svgShape stopColord8d6cf" offset="1" stop-color="#d8d6cf"></stop></linearGradient><path fill="url(#d)" d="M825.52,762.23    c-2.05-0.48-2.15-6.9-2.15-6.9l-0.41-9.71c0.02-0.05,0.04-0.1,0.07-0.15c0.51-0.04,1.46-0.16,1.93-0.19l31.69,3.51    c-0.12,0.38,1.16,3.02,0.93,3.76c-1.84,5.4-7.75,13.18-8.94,13.37c-1.39,0.22-4.94-3.84-5.41-5.17c-0.73,0.66-1.97,2.62-2.7,3.28    c-0.39,9.45-0.04,21.88,0.11,33.36c-5.49,14.17-10.61,27.38-12.82,33.08c-0.4,0.53-0.8,1.03-1.21,1.52l-1.18-28.07    c3.57-13.51,7.15-27.03,10.72-40.55c-1.14-1.55-2.6-2.71-3.74-4.26C830.51,760.96,828.16,762.23,825.52,762.23z"></path><path fill="#d35367" d="M832.85,750.63c3.08,1.78,9.43,2.7,12.88,2.79c5.13,0.14,3.07-2.86,4.78-3.32l8.84-22.27l-22.3-2.58      l-0.07,1.28L832.85,750.63z" class="colord38753 svgShape colord35367"></path><path fill="#d93f57" d="M825.17,797.94l10.71-36.16l-4.69-5.26l7.96-4.87l6.09,5.61l-5.67,5.02c0,0,1.35,16.76,0.52,36.5    c-7.09,18.3-13.43,34.66-13.43,34.66L825.17,797.94z" class="colorde3d73 svgShape colord93f57"></path><path fill="#f8f2d8" d="M854.73,740.36c0,0-12.1,11.59-15.21,11.08c-3.1-0.5-4.72-12.19-4.72-12.19s-10.49,4.67-11.84,6.22      c-1.35,1.54,1.39,15.18,2.84,15.91c3.06,1.54,12.28-8.75,13.96-7.44c1.68,1.31,6.43,10.1,8,9.93      c1.57-0.18,14.03-12.47,13.32-16.99C860.38,742.37,854.73,740.36,854.73,740.36z" class="colorf8e8d8 svgShape colorf8f2d8"></path><path fill="#f4de84" d="M859.44,719.79c0,0,9.12-0.88,8.87-9.22c-0.24-8.1-10.57-6.28-12.66,2.15c-0.04,0.17-0.28,0.18-0.31,0     c-0.48-2.4-2.13-9.75-4.4-11.62c0,0,3.57-12.06-4.87-15.7c-8.44-3.64-28.55-3.93-28.95,9.22c-0.4,13.15,1.11,17.18,1.42,23.29     c0.31,6.1,9.87,24.14,13.9,25.42c4.03,1.28,23.76-10.95,26.81-14.03C862.29,726.2,859.44,719.79,859.44,719.79z" class="colorf4be84 svgShape colorf4de84"></path><path fill="#521e26" d="M803.14,678.86c0,0,3.61,0.77,5.81-0.56c0,0-4.49-10.9-1.5-15.47c0,0,6.62,7.91,26.33,4.14     c19.71-3.77,37.61,2.49,42.58,19.3c4.97,16.81-7.45,39.79-16.06,41.26c1.12-3.27-0.86-7.74-0.86-7.74s9.12-0.88,8.87-9.22     c-0.24-8.1-10.57-6.28-12.66,2.15c-0.04,0.17-0.28,0.18-0.31,0c-0.48-2.4-2.13-9.75-4.4-11.62c0,0,3.57-12.06-4.87-15.7     c-8.44-3.64-28.55-3.93-28.95,9.22c-0.04,1.35-0.06,2.57-0.06,3.74l0,0C817.06,698.34,801.94,693.29,803.14,678.86z" class="color221e52 svgShape color521e26"></path></g><g class="color000 svgShape" fill="#000000"><path fill="#ed657a" d="M949.29,1528.92c0,0,18.53,52.59-29.12,186.47h309.78c0,0-55.6-52.59-42.36-186.47H949.29z" class="color92bff7 svgShape colorf7e392"></path><path fill="#951a2e" d="M1185.8,1581.33c-0.55-15.89-0.1-33.29,1.79-52.41h-238.3c0,0,5.57,15.92,2.71,52.41H1185.8z" class="color5f9bdd svgShape colorddc45f"></path><path fill="#ed657a" d="M1623.85,1549.35H505.08c-15.57,0-28.19-12.62-28.19-28.19V859.11c0-13.6,11.03-24.63,24.63-24.63h1125.9     c13.6,0,24.63,11.03,24.63,24.63v662.05C1652.04,1536.73,1639.42,1549.35,1623.85,1549.35z" class="color92bff7 svgShape colorf7e392"></path><path fill="#951a2e" d="M487.13,1531.64V867.97c0-13.18,11.37-23.87,25.41-23.87h1124.34c4.37,0,8.42,1.13,12.02,2.96     c-4.3-7.46-12.6-12.58-22.25-12.58H502.29c-14.03,0-25.41,10.69-25.41,23.87v663.67c0,10.02,5.75,18.75,14.31,23.51     C488.63,1541.46,487.13,1536.72,487.13,1531.64z" class="color5f9bdd svgShape colorddc45f"></path><path fill="#951a2e" d="M1600.43,1457.66H528.5c-0.73,0-1.32-0.59-1.32-1.32v-578.8c0-0.73,0.59-1.32,1.32-1.32h1071.93     c0.73,0,1.32,0.59,1.32,1.32v578.8C1601.74,1457.07,1601.16,1457.66,1600.43,1457.66z" class="color1d3b77 svgShape color771d2c"></path><path fill="#c4314e" d="M1600.48,1457.66H528.45c-0.7,0-1.27-0.57-1.27-1.27V918.62c0-0.7,0.57-1.27,1.27-1.27h1072.02     c0.7,0,1.27,0.57,1.27,1.27v537.77C1601.74,1457.09,1601.18,1457.66,1600.48,1457.66z" class="color29478c svgShape color8c2939"></path><polygon fill="#951a2e" points="762.62 1703.7 737.47 1761.39 1378.22 1761.39 1353.07 1703.7" class="color83b6ed svgShape coloredd883"></polygon><path fill="#951a2e" d="M1097.48,1501.98c0,12.55-10.04,22.73-22.43,22.73c-12.39,0-22.43-10.18-22.43-22.73     c0-12.55,10.04-22.73,22.43-22.73C1087.44,1479.25,1097.48,1489.42,1097.48,1501.98z" class="color5f9bdd svgShape colorddc45f"></path><rect width="712.78" height="481.83" x="843.35" y="948.66" fill="#ffffff" class="colorfff svgShape" opacity=".08"></rect><path fill="#de3e63" d="M781.18,1420.37H574.45c-4.74,0-8.58-3.84-8.58-8.58V957.25c0-4.74,3.84-8.58,8.58-8.58h206.73     c4.74,0,8.59,3.84,8.59,8.59v454.54C789.76,1416.53,785.92,1420.37,781.18,1420.37z" class="color2b50a0 svgShape colora02b3e"></path><path fill="#e0d8b8" d="M697.78 1006.66h-95.85c-1.85 0-3.35-1.5-3.35-3.35v-8.15c0-1.85 1.5-3.35 3.35-3.35h95.85c1.85 0 3.35 1.5 3.35 3.35v8.15C701.13 1005.16 699.63 1006.66 697.78 1006.66zM748.73 1040.35h-146.8c-1.85 0-3.35-1.5-3.35-3.35v-8.15c0-1.85 1.5-3.35 3.35-3.35h146.79c1.85 0 3.35 1.5 3.35 3.35v8.15C752.08 1038.85 750.58 1040.35 748.73 1040.35zM722.29 1074.03H601.94c-1.85 0-3.35-1.5-3.35-3.35v-8.15c0-1.85 1.5-3.35 3.35-3.35h120.35c1.85 0 3.35 1.5 3.35 3.35v8.15C725.64 1072.54 724.14 1074.03 722.29 1074.03zM658.77 1107.72h-56.83c-1.85 0-3.35-1.5-3.35-3.35v-8.15c0-1.85 1.5-3.35 3.35-3.35h56.83c1.85 0 3.35 1.5 3.35 3.35v8.15C662.11 1106.22 660.61 1107.72 658.77 1107.72zM679.73 1141.41h-77.79c-1.85 0-3.35-1.5-3.35-3.35v-8.15c0-1.85 1.5-3.35 3.35-3.35h77.79c1.85 0 3.35 1.5 3.35 3.35v8.15C683.07 1139.91 681.57 1141.41 679.73 1141.41zM714.55 1175.1H601.94c-1.85 0-3.35-1.5-3.35-3.35v-8.15c0-1.85 1.5-3.35 3.35-3.35h112.61c1.85 0 3.35 1.5 3.35 3.35v8.15C717.9 1173.6 716.4 1175.1 714.55 1175.1zM679.73 1208.78h-77.79c-1.85 0-3.35-1.5-3.35-3.35v-8.15c0-1.85 1.5-3.35 3.35-3.35h77.79c1.85 0 3.35 1.5 3.35 3.35v8.15C683.07 1207.28 681.57 1208.78 679.73 1208.78zM753.25 1242.47H601.94c-1.85 0-3.35-1.5-3.35-3.35v-8.15c0-1.85 1.5-3.35 3.35-3.35h151.31c1.85 0 3.35 1.5 3.35 3.35v8.15C756.59 1240.97 755.09 1242.47 753.25 1242.47zM698.43 1276.16h-96.49c-1.85 0-3.35-1.5-3.35-3.35v-8.15c0-1.85 1.5-3.35 3.35-3.35h96.49c1.85 0 3.35 1.5 3.35 3.35v8.15C701.77 1274.66 700.28 1276.16 698.43 1276.16zM757.11 1309.85H601.94c-1.85 0-3.35-1.5-3.35-3.35v-8.15c0-1.85 1.5-3.35 3.35-3.35h155.18c1.85 0 3.35 1.5 3.35 3.35v8.15C760.46 1308.35 758.96 1309.85 757.11 1309.85z" class="colorb8d0e0 svgShape colore0d8b8"></path><g class="color000 svgShape" fill="#000000"><polygon fill="#f3b344" points="1072.3 1133.13 927.92 1133.71 927.46 1019.28 927.42 1009.55 956.13 1009.44 969.45 1019.11 1071.84 1018.69" class="colorf3b344 svgShape colorf3445f"></polygon><rect width="134.63" height="6.81" x="932.55" y="1029.74" fill="#f1f2f2" class="colorf1f2f2 svgShape colorfffae6" transform="matrix(1 -.00402 .00402 1 -4.145 4.028)"></rect><path fill="#f3b344" d="M1075.22,1137.52l-153.19,0.62c-2.42,0.01-4.39-2.03-4.4-4.56l-0.37-92.12        c-0.01-2.53,1.94-4.59,4.36-4.6l153.19-0.62c2.42-0.01,4.39,2.03,4.4,4.56l0.37,92.13        C1079.59,1135.45,1077.64,1137.51,1075.22,1137.52z" class="colorf9a300 svgShape colorf90027"></path><path fill="#f3b344" d="M1070.26,1127.47l-148.47,0.6c-2.31,0.01-4.19-1.85-4.2-4.16l-0.33-82.85c-0.01-2.31,1.86-4.19,4.16-4.2        l148.47-0.6c2.31-0.01,4.19,1.85,4.2,4.16l0.33,82.85C1074.44,1125.59,1072.57,1127.46,1070.26,1127.47z" class="colorffc300 svgShape colorff0028"></path><path fill="#fddb81" d="M978.53,1065.27c9.48-8.36,13.38-19.47,19.32-28.72l-76.42,0.31c-2.31,0.01-4.17,1.89-4.16,4.2        l0.24,59.76C929.97,1094.98,956.86,1084.38,978.53,1065.27z" class="colorfddb81 svgShape colorfde481"></path><path fill="#f1f2f2" d="M1064.66,1150.42H932.19c-1.12,0-2.03,0.91-2.03,2.03v5.69c0,1.12,0.91,2.03,2.03,2.03h132.47       c1.12,0,2.03-0.91,2.03-2.03v-5.69C1066.69,1151.33,1065.78,1150.42,1064.66,1150.42z" class="colorf1f2f2 svgShape colorfffae6"></path><polygon fill="#f3b344" points="1273.62 1133.13 1129.24 1133.71 1128.78 1019.28 1128.74 1009.55 1157.45 1009.44 1170.77 1019.11 1273.16 1018.69" class="colorf3b344 svgShape colorf3445f"></polygon><rect width="134.63" height="6.81" x="1133.87" y="1029.74" fill="#f1f2f2" class="colorf1f2f2 svgShape colorfffae6" transform="matrix(1 -.00402 .00402 1 -4.143 4.837)"></rect><path fill="#f3b344" d="M1276.54,1137.52l-153.19,0.62c-2.42,0.01-4.39-2.03-4.4-4.56l-0.37-92.12        c-0.01-2.53,1.94-4.59,4.36-4.6l153.19-0.62c2.42-0.01,4.39,2.03,4.4,4.56l0.37,92.13        C1280.91,1135.45,1278.96,1137.51,1276.54,1137.52z" class="colorf9a300 svgShape colorf90027"></path><path fill="#f3b344" d="M1271.58,1127.47l-148.47,0.6c-2.31,0.01-4.19-1.85-4.2-4.16l-0.33-82.85c-0.01-2.31,1.86-4.19,4.16-4.2        l148.47-0.6c2.31-0.01,4.19,1.85,4.2,4.16l0.33,82.85C1275.76,1125.59,1273.89,1127.46,1271.58,1127.47z" class="colorffc300 svgShape colorff0028"></path><path fill="#fddb81" d="M1179.85,1065.27c9.48-8.36,13.38-19.47,19.32-28.72l-76.42,0.31c-2.31,0.01-4.17,1.89-4.16,4.2        l0.24,59.76C1131.29,1094.98,1158.18,1084.38,1179.85,1065.27z" class="colorfddb81 svgShape colorfde481"></path><path fill="#f1f2f2" d="M1265.98,1150.42h-132.47c-1.12,0-2.03,0.91-2.03,2.03v5.69c0,1.12,0.91,2.03,2.03,2.03h132.47       c1.12,0,2.03-0.91,2.03-2.03v-5.69C1268.01,1151.33,1267.1,1150.42,1265.98,1150.42z" class="colorf1f2f2 svgShape colorfffae6"></path><g class="color000 svgShape" fill="#000000"><polygon fill="#f3b344" points="1474.94 1133.13 1330.56 1133.71 1330.1 1019.28 1330.06 1009.55 1358.77 1009.44 1372.09 1019.11 1474.48 1018.69" class="colorf3b344 svgShape colorf3445f"></polygon><rect width="134.63" height="6.81" x="1335.19" y="1029.74" fill="#f1f2f2" class="colorf1f2f2 svgShape colorfffae6" transform="matrix(1 -.00402 .00402 1 -4.142 5.646)"></rect><path fill="#f3b344" d="M1477.86,1137.52l-153.19,0.62c-2.42,0.01-4.39-2.03-4.4-4.56l-0.37-92.12        c-0.01-2.53,1.94-4.59,4.36-4.6l153.19-0.62c2.42-0.01,4.39,2.03,4.4,4.56l0.37,92.13        C1482.23,1135.45,1480.28,1137.51,1477.86,1137.52z" class="colorf9a300 svgShape colorf90027"></path><path fill="#f3b344" d="M1472.9,1127.47l-148.47,0.6c-2.31,0.01-4.19-1.85-4.2-4.16l-0.33-82.85c-0.01-2.31,1.86-4.19,4.16-4.2        l148.47-0.6c2.31-0.01,4.19,1.85,4.2,4.16l0.33,82.85C1477.08,1125.59,1475.21,1127.46,1472.9,1127.47z" class="colorffc300 svgShape colorff0028"></path><path fill="#fddb81" d="M1381.17,1065.27c9.48-8.36,13.38-19.47,19.32-28.72l-76.42,0.31c-2.31,0.01-4.17,1.89-4.16,4.2        l0.24,59.76C1332.61,1094.98,1359.5,1084.38,1381.17,1065.27z" class="colorfddb81 svgShape colorfde481"></path><path fill="#f1f2f2" d="M1467.3,1150.42h-132.47c-1.12,0-2.03,0.91-2.03,2.03v5.69c0,1.12,0.91,2.03,2.03,2.03h132.47       c1.12,0,2.03-0.91,2.03-2.03v-5.69C1469.33,1151.33,1468.42,1150.42,1467.3,1150.42z" class="colorf1f2f2 svgShape colorfffae6"></path></g><g class="color000 svgShape" fill="#000000"><polygon fill="#f3b344" points="1072.3 1342.68 927.92 1343.26 927.46 1228.82 927.42 1219.1 956.13 1218.98 969.45 1228.65 1071.84 1228.24" class="colorf3b344 svgShape colorf3445f"></polygon><rect width="134.63" height="6.81" x="932.55" y="1239.28" fill="#f1f2f2" class="colorf1f2f2 svgShape colorfffae6" transform="matrix(1 -.00402 .00402 1 -4.987 4.03)"></rect><path fill="#f3b344" d="M1075.22,1347.07l-153.19,0.62c-2.42,0.01-4.39-2.03-4.4-4.56l-0.37-92.12        c-0.01-2.53,1.94-4.59,4.36-4.6l153.19-0.62c2.42-0.01,4.39,2.03,4.4,4.56l0.37,92.13        C1079.59,1345,1077.64,1347.06,1075.22,1347.07z" class="colorf9a300 svgShape colorf90027"></path><path fill="#f3b344" d="M1070.26,1337.02l-148.47,0.6c-2.31,0.01-4.19-1.85-4.2-4.16l-0.33-82.85c-0.01-2.31,1.86-4.19,4.16-4.2        l148.47-0.6c2.31-0.01,4.19,1.85,4.2,4.16l0.33,82.85C1074.44,1335.13,1072.57,1337.01,1070.26,1337.02z" class="colorffc300 svgShape colorff0028"></path><path fill="#fddb81" d="M978.53,1274.82c9.48-8.36,13.38-19.47,19.32-28.72l-76.42,0.31c-2.31,0.01-4.17,1.89-4.16,4.2        l0.24,59.76C929.97,1304.53,956.86,1293.93,978.53,1274.82z" class="colorfddb81 svgShape colorfde481"></path><path fill="#f1f2f2" d="M1064.66,1359.97H932.19c-1.12,0-2.03,0.91-2.03,2.03v5.69c0,1.12,0.91,2.03,2.03,2.03h132.47       c1.12,0,2.03-0.91,2.03-2.03V1362C1066.69,1360.88,1065.78,1359.97,1064.66,1359.97z" class="colorf1f2f2 svgShape colorfffae6"></path><polygon fill="#f3b344" points="1273.62 1342.68 1129.24 1343.26 1128.78 1228.82 1128.74 1219.1 1157.45 1218.98 1170.77 1228.65 1273.16 1228.24" class="colorf3b344 svgShape colorf3445f"></polygon><rect width="134.63" height="6.81" x="1133.87" y="1239.28" fill="#f1f2f2" class="colorf1f2f2 svgShape colorfffae6" transform="matrix(1 -.00402 .00402 1 -4.986 4.839)"></rect><path fill="#f3b344" d="M1276.54,1347.07l-153.19,0.62c-2.42,0.01-4.39-2.03-4.4-4.56l-0.37-92.12        c-0.01-2.53,1.94-4.59,4.36-4.6l153.19-0.62c2.42-0.01,4.39,2.03,4.4,4.56l0.37,92.13        C1280.91,1345,1278.96,1347.06,1276.54,1347.07z" class="colorf9a300 svgShape colorf90027"></path><path fill="#f3b344" d="M1271.58,1337.02l-148.47,0.6c-2.31,0.01-4.19-1.85-4.2-4.16l-0.33-82.85c-0.01-2.31,1.86-4.19,4.16-4.2        l148.47-0.6c2.31-0.01,4.19,1.85,4.2,4.16l0.33,82.85C1275.76,1335.13,1273.89,1337.01,1271.58,1337.02z" class="colorffc300 svgShape colorff0028"></path><path fill="#fddb81" d="M1179.85,1274.82c9.48-8.36,13.38-19.47,19.32-28.72l-76.42,0.31c-2.31,0.01-4.17,1.89-4.16,4.2        l0.24,59.76C1131.29,1304.53,1158.18,1293.93,1179.85,1274.82z" class="colorfddb81 svgShape colorfde481"></path><path fill="#f1f2f2" d="M1265.98,1359.97h-132.47c-1.12,0-2.03,0.91-2.03,2.03v5.69c0,1.12,0.91,2.03,2.03,2.03h132.47       c1.12,0,2.03-0.91,2.03-2.03V1362C1268.01,1360.88,1267.1,1359.97,1265.98,1359.97z" class="colorf1f2f2 svgShape colorfffae6"></path><g class="color000 svgShape" fill="#000000"><polygon fill="#f3b344" points="1474.94 1342.68 1330.56 1343.26 1330.1 1228.82 1330.06 1219.1 1358.77 1218.98 1372.09 1228.65 1474.48 1228.24" class="colorf3b344 svgShape colorf3445f"></polygon><rect width="134.63" height="6.81" x="1335.19" y="1239.28" fill="#f1f2f2" class="colorf1f2f2 svgShape colorfffae6" transform="matrix(1 -.00402 .00402 1 -4.984 5.648)"></rect><path fill="#f3b344" d="M1477.86,1347.07l-153.19,0.62c-2.42,0.01-4.39-2.03-4.4-4.56l-0.37-92.12        c-0.01-2.53,1.94-4.59,4.36-4.6l153.19-0.62c2.42-0.01,4.39,2.03,4.4,4.56l0.37,92.13        C1482.23,1345,1480.28,1347.06,1477.86,1347.07z" class="colorf9a300 svgShape colorf90027"></path><path fill="#f3b344" d="M1472.9,1337.02l-148.47,0.6c-2.31,0.01-4.19-1.85-4.2-4.16l-0.33-82.85c-0.01-2.31,1.86-4.19,4.16-4.2        l148.47-0.6c2.31-0.01,4.19,1.85,4.2,4.16l0.33,82.85C1477.08,1335.13,1475.21,1337.01,1472.9,1337.02z" class="colorffc300 svgShape colorff0028"></path><path fill="#fddb81" d="M1381.17,1274.82c9.48-8.36,13.38-19.47,19.32-28.72l-76.42,0.31c-2.31,0.01-4.17,1.89-4.16,4.2        l0.24,59.76C1332.61,1304.53,1359.5,1293.93,1381.17,1274.82z" class="colorfddb81 svgShape colorfde481"></path><path fill="#f1f2f2" d="M1467.3,1359.97h-132.47c-1.12,0-2.03,0.91-2.03,2.03v5.69c0,1.12,0.91,2.03,2.03,2.03h132.47       c1.12,0,2.03-0.91,2.03-2.03V1362C1469.33,1360.88,1468.42,1359.97,1467.3,1359.97z" class="colorf1f2f2 svgShape colorfffae6"></path></g></g></g></g><g class="color000 svgShape" fill="#000000"><rect width="113.98" height="480.87" x="268.11" y="1269.78" fill="#963141" class="color314b96 svgShape color963141"></rect><rect width="113.98" height="15.84" x="268.11" y="1285.61" fill="#f9f5e4" class="colore7e4f9 svgShape colorf9f5e4"></rect><rect width="28.73" height="480.87" x="382.09" y="1269.78" fill="#662f38" class="color2f3a66 svgShape color662f38" transform="rotate(-180 396.454 1510.211)"></rect><path fill="#efdd94" d="M325.28,1636.43L325.28,1636.43c-17.85,0-32.32-14.47-32.32-32.32v-140.53       c0-17.85,14.47-32.32,32.32-32.32h0c17.85,0,32.32,14.47,32.32,32.32v140.53C357.59,1621.96,343.12,1636.43,325.28,1636.43z" class="color94b0ef svgShape colorefdd94"></path><path fill="#662f38" d="M292.96 1602.95v-15.48h64.63v15.48c0 7.74-2.56 14.85-6.82 20.52h-51C295.52 1617.8 292.96 1610.69 292.96 1602.95zM292.96 1473.02v-8.28c0-3.38.49-6.64 1.39-9.72h61.85c.9 3.08 1.39 6.34 1.39 9.72v8.28H292.96z" class="color2f3a66 svgShape color662f38"></path><circle cx="325.27" cy="1365.28" r="21.87" fill="#cfcdc5" class="colorc5cfcc svgShape colorcfcdc5"></circle><circle cx="325.27" cy="1365.28" r="15.31" fill="#d1546d" class="color5465d1 svgShape colord1546d"></circle><rect width="113.98" height="480.87" x="406.97" y="1269.78" fill="#963141" class="color314b96 svgShape color963141"></rect><rect width="113.98" height="15.84" x="406.97" y="1285.61" fill="#f9f5e4" class="colore7e4f9 svgShape colorf9f5e4"></rect><rect width="28.73" height="480.87" x="520.95" y="1269.78" fill="#662f38" class="color2f3a66 svgShape color662f38" transform="rotate(-180 535.316 1510.211)"></rect><path fill="#efdd94" d="M464.14,1636.43L464.14,1636.43c-17.85,0-32.32-14.47-32.32-32.32v-140.53        c0-17.85,14.47-32.32,32.32-32.32h0c17.85,0,32.32,14.47,32.32,32.32v140.53C496.45,1621.96,481.98,1636.43,464.14,1636.43z" class="color94b0ef svgShape colorefdd94"></path><path fill="#662f38" d="M431.82 1602.95v-15.48h64.63v15.48c0 7.74-2.56 14.85-6.82 20.52h-51C434.38 1617.8 431.82 1610.69 431.82 1602.95zM431.82 1473.02v-8.28c0-3.38.49-6.64 1.39-9.72h61.85c.9 3.08 1.39 6.34 1.39 9.72v8.28H431.82z" class="color2f3a66 svgShape color662f38"></path><circle cx="464.14" cy="1365.28" r="21.87" fill="#cfcdc5" class="colorc5cfcc svgShape colorcfcdc5"></circle><circle cx="464.14" cy="1365.28" r="15.31" fill="#d1546d" class="color5465d1 svgShape colord1546d"></circle><g class="color000 svgShape" fill="#000000"><rect width="113.98" height="480.87" x="544.82" y="1269.78" fill="#963141" class="color314b96 svgShape color963141"></rect><rect width="113.98" height="15.84" x="544.82" y="1285.61" fill="#f9f5e4" class="colore7e4f9 svgShape colorf9f5e4"></rect><rect width="28.73" height="480.87" x="658.8" y="1269.78" fill="#662f38" class="color2f3a66 svgShape color662f38" transform="rotate(-180 673.163 1510.211)"></rect><path fill="#efdd94" d="M601.98,1636.43L601.98,1636.43c-17.85,0-32.32-14.47-32.32-32.32v-140.53        c0-17.85,14.47-32.32,32.32-32.32h0c17.85,0,32.32,14.47,32.32,32.32v140.53C634.3,1621.96,619.83,1636.43,601.98,1636.43z" class="color94b0ef svgShape colorefdd94"></path><path fill="#662f38" d="M569.67 1602.95v-15.48h64.63v15.48c0 7.74-2.56 14.85-6.82 20.52h-51C572.23 1617.8 569.67 1610.69 569.67 1602.95zM569.67 1473.02v-8.28c0-3.38.49-6.64 1.39-9.72h61.85c.9 3.08 1.39 6.34 1.39 9.72v8.28H569.67z" class="color2f3a66 svgShape color662f38"></path><circle cx="601.98" cy="1365.28" r="21.87" fill="#cfcdc5" class="colorc5cfcc svgShape colorcfcdc5"></circle><circle cx="601.98" cy="1365.28" r="15.31" fill="#d1546d" class="color5465d1 svgShape colord1546d"></circle></g><rect width="439.58" height="85.88" x="256.4" y="1675.51" fill="#fe556f" class="colorfe6555 svgShape colorfe556f"></rect><rect width="124.35" height="85.88" x="256.4" y="1675.51" fill="#ce4f63" class="colorce5d4f svgShape colorce4f63"></rect><path fill="#e3e3e1" d="M639.57,1706.45h-78.06c-1.82,0-3.3-1.48-3.3-3.3v-4.79c0-1.82,1.48-3.3,3.3-3.3h78.06    c1.82,0,3.3,1.48,3.3,3.3v4.79C642.87,1704.97,641.4,1706.45,639.57,1706.45z" class="colore1e3e2 svgShape colore3e3e1"></path></g><g class="color000 svgShape" fill="#000000"><polygon fill="#f3b344" points="835.94 1751.2 541.68 1752.38 540.74 1519.15 540.66 1499.33 599.17 1499.09 626.32 1518.8 835.01 1517.96" class="colorf3b344 svgShape colorf3445f"></polygon><rect width="274.4" height="13.87" x="551.12" y="1540.46" fill="#f1f2f2" class="colorf1f2f2 svgShape colorfffae6" transform="matrix(1 -.00402 .00402 1 -6.216 2.78)"></rect><path fill="#f3b344" d="M841.9,1760.14l-312.21,1.26c-4.93,0.02-8.94-4.14-8.96-9.29l-0.76-187.76c-0.02-5.15,3.96-9.35,8.89-9.37    l312.21-1.26c4.93-0.02,8.94,4.14,8.96,9.29l0.75,187.76C850.81,1755.93,846.83,1760.12,841.9,1760.14z" class="colorf9a300 svgShape colorf90027"></path><path fill="#f3b344" d="M831.79,1739.67l-302.59,1.22c-4.71,0.02-8.53-3.78-8.55-8.49l-0.68-168.86c-0.02-4.71,3.78-8.54,8.49-8.56    l302.59-1.22c4.71-0.02,8.54,3.78,8.56,8.49l0.68,168.86C840.3,1735.82,836.5,1739.65,831.79,1739.67z" class="colorffc300 svgShape colorff0028"></path><path fill="#fddb81" d="M644.83,1612.88c19.32-17.05,27.28-39.68,39.38-58.53l-155.75,0.63c-4.71,0.02-8.51,3.85-8.49,8.56    l0.49,121.79C545.87,1673.44,600.66,1651.84,644.83,1612.88z" class="colorfddb81 svgShape colorfde481"></path></g><g class="color000 svgShape" fill="#000000"><path fill="#fde896" d="M454.85,1185.62c-0.76-0.7-1.99-0.23-2.08,0.8c-0.08,0.83,0.04,1.87,0.62,2.99     c1.45,2.77,1.58,5.93,0.92,5.93c-0.66,0-2.5-5.93-4.74-5.47c-2.24,0.46,2.37,7.44,1.71,8.36c-0.66,0.92-3.16-4.87-4.35-3.82     c-1.19,1.05,2.77,7.11,2.37,7.9c-0.4,0.79-3.03-2.5-3.29-1.32c-0.26,1.19,0.38,3.56,4.34,6.06c0,0,5.93,4.21,8.83,1.05     C461.94,1205.11,463.14,1193.24,454.85,1185.62z" class="colorfdc596 svgShape colorfde896"></path><path fill="#e55d72" d="M426.79,1185.28c4.48,8.52,15.5,7.49,15.5,7.49l0,0l-5.4,12.62c-13.82,3.89-26.55-9.14-26.55-9.14     c-10.27-10.03-13.05-63.22-13.05-63.22C413.62,1137.51,422.31,1176.76,426.79,1185.28z" class="colore55daa svgShape colore55d72"></path><path fill="#e26a7d" d="M411.99,1373.56c0,0-1.02,3.71-0.95,7.69l-5.2-1.22l0.32-6.55L411.99,1373.56z" class="colore2a36a svgShape colore26a7d"></path><path fill="#e26a7d" d="M422.26,1383.92c-0.09,1.05-16.81,0.21-16.81,0.21l0.39-4.1l5.28,0.07     C411.12,1380.1,422.35,1382.86,422.26,1383.92z" class="colore2a36a svgShape colore26a7d"></path><path fill="#3d2d30" d="M405.41,1384.1l0.26-2.28c0,0,0.97,1.29,6.08,1.36c4.5,0.06,5.03-1.54,5.03-1.54     c4.2,1.27,6.56,1.51,5.95,2.37C421.94,1385.11,405.41,1384.1,405.41,1384.1z" class="color2d313d svgShape color3d2d30"></path><path fill="#d35367" d="M406.16,1373.48l-0.25,5.48c0,0,2.44-1.48,5.18,0.07c0,0,0.43-4.05,0.9-5.47L406.16,1373.48z" class="colord38753 svgShape colord35367"></path><path fill="#e26a7d" d="M436.38,1373.9c0,0-1.02,3.71-0.95,7.69l-5.2-1.22l0.31-6.55L436.38,1373.9z" class="colore2a36a svgShape colore26a7d"></path><path fill="#e26a7d" d="M446.65,1384.26c-0.09,1.05-16.81,0.21-16.81,0.21l0.39-4.1l5.28,0.07     C435.51,1380.44,446.74,1383.21,446.65,1384.26z" class="colore2a36a svgShape colore26a7d"></path><path fill="#3d2d30" d="M429.8,1384.44l0.26-2.28c0,0,0.97,1.29,6.08,1.36c4.5,0.06,5.03-1.54,5.03-1.54     c4.2,1.27,6.56,1.51,5.95,2.37C446.34,1385.45,429.8,1384.44,429.8,1384.44z" class="color2d313d svgShape color3d2d30"></path><path fill="#d35367" d="M430.55,1373.82l-0.25,5.48c0,0,2.44-1.48,5.18,0.07c0,0,0.43-4.05,0.9-5.47L430.55,1373.82z" class="colord38753 svgShape colord35367"></path><path fill="#914753" d="M405.31,1229.79c0,0-32.77,9.29-28.38,39.41l84.35,1.18c0,0,2.64-12.93-2.65-18.84    C453.39,1245.68,405.31,1229.79,405.31,1229.79z" class="color476291 svgShape color914753"></path><path fill="#914753" d="M461.07,1270.38c0,0-11.58,33.04-24.03,106.45l-8.48-0.12c0,0-5.25-54.98-3.75-69.78    c1.5-14.8,12.68-38.04,12.68-38.04S453.62,1265.45,461.07,1270.38z" class="color476291 svgShape color914753"></path><path fill="#873e4a" d="M405.31,1269.6l31.85,0.26c0,0-11.55,23.28-12.35,37.08c-0.8,13.8,3.75,69.78,3.75,69.78l3.53,0.05    c0,0-1.97-59.36-0.87-68.9c1.1-9.55,13.99-40.81,13.37-42.93c-0.62-2.12-40.33-13.86-40.33-13.86L405.31,1269.6z" class="color3e5c87 svgShape color873e4a"></path><polygon fill="#873e4a" points="405.31 1229.79 338.67 1228.86 385.96 1253.55" class="color3e5c87 svgShape color873e4a"></polygon><path fill="#aa5767" d="M338.67,1228.86c0,0-9.74,15.79-2.67,39.77l98.75,1.38c0,0,2.19-13.17-3.34-18.85    C423.71,1243.24,366.49,1235.86,338.67,1228.86z" class="color5775aa svgShape coloraa5767"></path><path fill="#aa5767" d="M434.75,1270.01c0,0-10.77,23.73-21.53,106.49l-8.52-0.12c0,0-6.22-55-5.01-69.8    c1.21-14.8,10.88-36.91,10.88-36.91S427.21,1265.08,434.75,1270.01z" class="color5775aa svgShape coloraa5767"></path><path fill="#914753" d="M336,1268.63l74.58,1.04c0,0-10.04,24.28-10.88,36.91c-1.06,15.98,5.01,69.8,5.01,69.8l3.16,0.04    c0,0-3.76-55.25-2.15-69.08c1.62-13.84,13.89-40.49,11.91-43.35c-1.99-2.86-54.07-6.42-83.99-16.97    C333.64,1247.02,332.49,1259.58,336,1268.63z" class="color476291 svgShape color914753"></path><path fill="#ff778c" d="M391.21,1189.81c-0.2,14.51,4.41,23.55,15.23,40.04c-21.81,7.11-44.7,6.13-68.42-0.96    c5.28-14,13.18-25.4,21.97-35.31c0.06-0.07,0.14-0.16,0.19-0.22c0.11-0.12,0.19-0.22,0.26-0.29c0.07-0.08,0.18-0.2,0.18-0.2    c4.63-8.12-9.24-17.68-14.54-33.64c-5.4-16.26-2.82-24.67-2.82-24.67c20.53-8.86,32.52-10.8,55.61-0.98l0.68,14.08    c0,0,6.14,11.07,5.37,15.99C404.14,1168.57,391.32,1182.07,391.21,1189.81z" class="colorff77c4 svgShape colorff778c"></path><path fill="#fee78c" d="M359.39,1127.21c-0.37,5.37,7.98,9.27,12.46,9.58c4.47,0.31,12.55-2.47,12.92-7.84      c0.37-5.37-5.38-4.81-12.38-5.29C365.37,1123.18,359.75,1121.84,359.39,1127.21z" class="colorfeb48c svgShape colorfee78c"></path><path fill="#fee78c" d="M371.99,1135.58L371.99,1135.58c4.89,0.34,9.17-3.4,9.51-8.29l1.07-15.57c0.34-4.9-3.4-9.17-8.29-9.51        l0,0c-4.89-0.34-9.17,3.4-9.51,8.29l-1.07,15.58C363.36,1130.97,367.09,1135.25,371.99,1135.58z" class="colorfeb48c svgShape colorfee78c"></path><path fill="#ba495b" d="M381.82,1122.49c0.31-4.58,0.74-10.77,0.74-10.77c0.34-4.9-3.4-9.17-8.29-9.51        c-4.89-0.34-9.17,3.4-9.51,8.29c0,0-0.2,2.97-0.49,7.09c0,0,3.26,4.48,7.72,5.66        C377.21,1124.62,381.82,1122.49,381.82,1122.49z" class="colorba6549 svgShape colorba495b"></path><path fill="#ed657a" d="M406.44,1229.85c-1.96-6.91-15.54-17.63-15.23-40.04c0.13-8.98,12.92-19.41,13.71-26.28    c-4.83,1.99-24.74,7.9-56.22,1.78c5.85,16.08,13.32,20.48,11.93,27.56c0,0-0.11,0.12-0.18,0.2c-0.07,0.08-0.16,0.17-0.26,0.29    c-0.05,0.06-0.13,0.15-0.19,0.22c-8.79,9.91-16.69,21.31-21.97,35.31c11.61,3.47,23.02,5.45,34.21,5.76    C383.3,1234.79,395.86,1233.3,406.44,1229.85z" class="colored65b2 svgShape colored657a"></path><path fill="#db5267" d="M381.6,1198.69c0-1.99,1.07-6.76,2.2-11.82c1.62-7.21,3.45-15.38,3.16-19.42c-0.49-6.85-7.1-26.37-7.38-27.2    l-0.91,0.31c0.07,0.2,6.85,20.23,7.33,26.96c0.28,3.89-1.54,11.99-3.14,19.14c-1.2,5.33-2.23,9.94-2.23,12.03    c0.02,12.18,2.53,23.45,7.82,35.15c0.34-0.04,0.68-0.05,1.01-0.1C384.15,1222.07,381.61,1210.84,381.6,1198.69z" class="colordb52a3 svgShape colordb5267"></path><path fill="#f4de84" d="M399.24,1217.68c3.79,2.49,8.83,4.74,8.69,6.76c-0.29,4.4-6.82,5.12-9.53,3.23       c-2.58-2.06-3.9-7.28-3.9-7.28S395.49,1215.22,399.24,1217.68z" class="colorf4be84 svgShape colorf4de84"></path><path fill="#f4de84" d="M414.22 1232.64c.62-.22-.89-4.98-1.54-5.85-.52-.69-1.02-1.6-6.92-5.09l1.25 4.36c0 0 3.83 1.57 4.31 1.99C411.79 1228.47 412.15 1232.05 414.22 1232.64zM407.59 1238.88c.91.17.97-4.57.77-5.68-.26-1.4.05-1.92-2.19-9l-1.74 4.07c0 0 1.97 4.77 2.06 5.44C406.6 1234.38 406.41 1237.78 407.59 1238.88zM404.4 1238.63c.88.17.93-4.39.74-5.45-.25-1.34.04-1.84-2.1-8.64l-1.67 3.9c0 0 1.89 4.58 1.98 5.22C403.44 1234.31 403.26 1237.57 404.4 1238.63zM400.93 1235.71c.74.14.79-3.71.62-4.61-.21-1.13.04-1.56-1.78-7.31l-1.41 3.3c0 0 1.6 3.88 1.68 4.42C400.12 1232.06 399.96 1234.82 400.93 1235.71zM395.05 1220.86l-6.52-1.29 1.62-6.71c0 0 3.77 1.57 9.1 4.82L395.05 1220.86z" class="colorf4be84 svgShape colorf4de84"></path><path fill="#ff778c" d="M343.67,1134.71c-12.81,0.43-27.65,72.27-19.36,81.54c10.73,13.53,46.34,5.15,66.04,5.42     c0,0,3.49-3.58,4.06-7.43c-13.98-8.11-50.53-8.78-53.7-10.32C337.54,1202.38,356.44,1134.28,343.67,1134.71z" class="colorff77c4 svgShape colorff778c"></path><path fill="#e55d72" d="M326.04,1213.12c-6.51-7.28,1.24-52.98,11.07-72.57c-10.61,17.26-19.69,68-12.8,75.71     c10.73,13.53,46.34,5.15,66.04,5.42c0,0,1.18-1.29,2.28-3.08C372.8,1218.5,336.66,1226.51,326.04,1213.12z" class="colore55daa svgShape colore55d72"></path><polygon fill="#db5267" points="355.86 1129.76 370.86 1145.1 375.35 1138.75 379.5 1142.41 382.36 1138.25 387.3 1143.52 387.74 1129.51 378.77 1130.39" class="colordb52a3 svgShape colordb5267"></polygon><polygon fill="#ed657a" points="355.86 1129.76 362.82 1119.35 378.77 1130.39 371.41 1141.4" class="colored65b2 svgShape colored657a"></polygon><polygon fill="#ed657a" points="382.27 1122.1 378.77 1130.39 386.59 1140.1 387.74 1129.51" class="colored65b2 svgShape colored657a"></polygon><g class="color000 svgShape" fill="#000000"><polygon fill="#b4838b" points="460.33 1237.05 385.51 1233.52 403.97 1176.24 478.79 1179.76" class="color8394b4 svgShape colorb4838b"></polygon><rect width="4.51" height="110.25" x="402.46" y="1182.41" fill="#d7cda5" class="colora5c0d7 svgShape colord7cda5" transform="rotate(-87.358 404.7 1237.564)"></rect><polygon fill="#d7cda5" points="460.38 1236.98 387.28 1233.6 405.38 1177.44 478.49 1180.82" class="colora5c0d7 svgShape colord7cda5"></polygon><path fill="#b4838b" d="M439.9,1206.91c-1.05,2.73-4.38,4.82-7.44,4.68c-3.06-0.14-4.69-2.46-3.64-5.19     c1.05-2.73,4.38-4.82,7.44-4.68C439.33,1201.86,440.95,1204.18,439.9,1206.91z" class="color8394b4 svgShape colorb4838b"></path><polygon fill="#d7cda5" points="387.28 1233.6 405.38 1177.44 478.49 1180.82" class="colora5c0d7 svgShape colord7cda5" opacity=".2"></polygon><rect width="4.51" height="35.54" x="365.15" y="1218.05" fill="#b4838b" class="color8394b4 svgShape colorb4838b" transform="rotate(-87.346 367.421 1235.856)"></rect><rect width="1.98" height="13.73" x="400.51" y="1228.4" fill="#b4838b" class="color8394b4 svgShape colorb4838b" transform="rotate(-87.358 401.537 1235.318)"></rect><rect width="1.98" height="11.75" x="448.45" y="1231.6" fill="#b4838b" class="color8394b4 svgShape colorb4838b" transform="rotate(-87.358 449.463 1237.523)"></rect><polygon fill="#f2e7ba" points="405.83 1178.19 478.26 1181.53 478.49 1180.82 405.38 1177.44 387.28 1233.6 387.96 1233.64" class="colorbad6f2 svgShape colorf2e7ba"></polygon></g><g class="color000 svgShape" fill="#000000"><path d="M377.37,1057.68c-11.7-0.55-19.64,7.86-21.45,11.88c0,0-6.3,5.76-6.18,11.58s-0.86,9.05-0.86,9.05s-4.73,4.01-3.09,10.52     c0,0-0.18-4.24,1.21-5.82c0,0-1.86,5.86,0.47,9.31c0,0-0.82-3.48,0.53-6.52c0,0,0.05,2.52,0.47,4.94     c0.42,2.42-0.33,11.95,5.97,16.1c0,0-1.74-2.3-2.27-5.1c0,0,1.36,1.82,2.42,3.45c1.07,1.63-0.22,7.97,1.66,12.59     c0,0-0.95-5.13-0.57-9.89c0,0,2.68,6.94,5.73,8.72c0,0-4.27-6.23-4.49-7.68c0,0,2.85,0.92,4.73,0.88c0,0-4.25-0.69-5.25-3.1     c-0.96-2.33-1.12-9.32-0.64-10.74c0.29,0.89,1.15,1.96,1.89,2.13c0.02,0.83,0.05,2.99-0.29,4.61c0,0,0.75-0.4,1.19-1.67     c0,0,0.42,2.03-0.01,4.08c0,0,1-1.77,0.89-2.83c0,0,1.69,1.16,3.62,3.11l26.21-49.7     C389.27,1067.57,389.07,1058.23,377.37,1057.68z" class="color000 svgShape" fill="#000000"></path><path d="M387.13,1117.62c0,0,8.18-11.61,7.6-18.65c0,0,0.75,6.82-0.51,9.75c0,0,2.32-2.77,1.99-6.12c0,0,4.4,8.81-2.56,17.93     c0,0,2.44-1.23,3.21-2.69c0,0-1.25,3.56-2.28,4.76c0,0,3.04-2.42,3.76-5.88c0,0-0.2,3.27-1.3,5.38c0,0,5.74-8.1,1.04-18.99     c0,0,1.17-3.29,1.13-5.2c0,0,0.4,2.44-0.44,4.73c0,0,3.19-3.6,1.56-10.38c0,0,0.93-1.92,0.9-3.38c0,0,0.21,1.9,0.11,5.71     c0,0,0.49-1.82,0.54-3.82c0,0,0.28,0.72,0.07,3.72c0,0,0.97-3.1,0-5.99c0,0,0.95-3.92-1.05-6.88c-2-2.96-7.51-10.2-7.51-10.2     s4.38,3.09,4.95,5.17c0,0-0.93-2.7-1.83-3.59c0,0,0.98,0.43,1.7,1.51c0,0,0.14-1.64-4.93-4.35c0,0-1.03-2.88-4.04-3.64     c0,0-1.36-6.33-12.29-6.84c-10.93-0.51-18.36,7.35-20.04,11.1c0,0-5.88,5.38-5.78,10.82c0.11,5.44-0.8,8.46-0.8,8.46     s-4.42,3.75-2.89,9.83c0,0-0.17-3.96,1.13-5.44c0,0-1.74,5.48,0.44,8.7c0,0-0.77-3.25,0.5-6.09c0,0,0.05,2.36,0.44,4.62     c0.4,2.26-0.31,11.17,5.58,15.05c0,0-1.63-2.15-2.12-4.77c0,0,1.27,1.7,2.27,3.22c1,1.52-0.21,7.45,1.55,11.77     c0,0-0.89-4.79-0.53-9.25c0,0,2.51,6.48,5.36,8.15c0,0-3.99-5.82-4.19-7.18c0,0,2.66,0.86,4.42,0.82c0,0-3.98-0.65-4.9-2.9     c-0.93-2.25-1.06-9.14-0.55-10.15c0,0,0.99,1.25,1.71,1.78c0,0,0.14,2.72-0.26,4.63c0,0,0.7-0.38,1.11-1.56     c0,0,0.39,1.9-0.01,3.81c0,0,0.94-1.65,0.83-2.65c0,0-0.35,2.16,1.62,3.85C363.79,1118.01,371.27,1103.87,387.13,1117.62z" class="color000 svgShape" fill="#000000"></path><path d="M403.47,1087.87c0,0,0.98-3.89-1.07-6.82c-2.05-2.93-7.71-10.11-7.71-10.11s4.04,2.75,4.96,4.79      c-0.29-0.74-1.03-2.54-1.76-3.24c0,0,1,0.43,1.75,1.5c0,0,0.15-1.62-5.06-4.31c0,0-2.23-2.4-5.33-3.15c0,0,0,0.02,0,0      l-23.54,48.72c1.9,1.71,4.05,3.46,4.05,3.46l-0.3-0.7c1.89,2.22,9.29,3.38,13.03,2.52c0,0,0,0,0,0      c0.12-0.03,0.24-0.06,0.35-0.09c0,0,0,0,0,0c0.11-0.03,0.22-0.07,0.33-0.1c1.24-0.43,2.63-1.36,3.93-2.53      c0.17-0.15,0.33-0.3,0.49-0.45c0.11-0.11,0.22-0.21,0.33-0.32c0,0,0,0,0.01-0.01c0.41-0.42,0.81-0.85,1.18-1.29      c0.02-0.03,0.05-0.06,0.07-0.08c1.18-1.42,2.08-2.93,2.41-4.2c2.26-3.94,4.78-9.3,4.45-13.22c0,0,0.77,6.76-0.53,9.67      c0,0,2.39-2.75,2.05-6.07c0,0,4.52,8.73-2.64,17.78c0,0,2.51-1.22,3.3-2.67c0,0-1.29,3.54-2.35,4.73c0,0,3.12-2.4,3.87-5.84      c0,0-0.21,3.24-1.34,5.34c0,0,5.91-8.04,1.08-18.83c0,0,1.2-3.26,1.17-5.15c0,0,0.41,2.42-0.45,4.69c0,0,3.28-3.57,1.61-10.29      c0,0,0.96-1.91,0.93-3.35c0,0,0.22,1.89,0.11,5.67c0,0,0.51-1.81,0.56-3.79c0,0,0.29,0.71,0.07,3.69      C403.47,1093.81,404.46,1090.73,403.47,1087.87z" class="color000 svgShape" fill="#000000"></path><path fill="#fee78c" d="M386.41,1076.59c0,0,3,4.13,5.12,5.51c0,0,0.98,6.97,1.64,12.1c0.66,5.12-0.83,12.79-1.73,15.84     c-0.9,3.07-5.54,7.86-8.48,9.93c-4.24,2.98-11.37,0.85-14.08-1.08l-1.72-1.08c0,0-5.6-3.68-6.96-10.54l-0.63-5.84     c0,0-1.13-0.74-1.26-2.26c-0.12-1.52,0.38-4.67,0.38-4.67s14.82-15.32,19.53-17.7c4.71-2.38,7.55-0.53,7.55-0.53l2.4-1.28     C388.18,1074.99,386.96,1075.82,386.41,1076.59z" class="colorfeb48c svgShape colorfee78c"></path><path fill="#951a2e" d="M351.95 1090.56c0 0 7.07 1.3 12.19-3.53 5.12-4.83 7.58-7.08 7.58-7.08s-2.29.96-3.41 2.17c0 0 4.1-5.44 8.07-6.91 3.97-1.47 10.47-1.6 10.47-1.6s-4.22-.74-6.18-.34c0 0 6.25-1.5 8.84.28 0 0-4.48-4.49-12.07-1.78s-12.94 10.23-17.48 11.78c0 0 3.92-.63 5.36-1.94 0 0-5.84 5.46-9.22 5.55 0 0 5.13.2 9.7-4.55C365.79 1082.64 361.47 1090.61 351.95 1090.56zM356.87 1080.16c0 0 12.06-11.77 24.4-11.64 0 0-3.34-.67-6.52-.24 0 0 3.17-1.16 5.42-1.02 0 0-5.14-1.64-10.63 2.13 0 0 5.63-5.14 11.67-3.89 0 0-8.26-5.05-20.8 4.34 0 0 8.86-4.68 11.73-3.71 0 0-6.38 1.77-8.75 4.47 0 0 3.22-1.8 4.41-1.83 0 0-7.42 4.54-10.99 9.18 0 0 6.12-5.06 7.49-5.18C364.32 1072.78 357.66 1078.4 356.87 1080.16z" class="color6d3c12 svgShape color951a2e"></path><path fill="#d68390" d="M357.61,1100.64c0,0-2.42-0.96-1.98,0.4c0.44,1.36,2.92,1.99,2.04,2.74c-0.88,0.74-1.28,1.19-0.31,1.47     c0.97,0.28,0-0.41-0.57,0.4c-0.57,0.81,1.2,3.38,2.21,2.88c1.02-0.5,0.78-2.32-0.07-3.31     C358.94,1105.22,358.93,1101.28,357.61,1100.64z" class="colord6a183 svgShape colord68390"></path><path fill="#951a2e" d="M390.1,1077.05c0,0,2.62,1.93,3.98,5.1c0,0-0.21-1.72-0.57-2.58c0,0,2.08,0.71,3.04,7.28     c0,0,0.61-1.48,0.21-4.06c0,0,2.75,2.04,3.41,6.83c0,0-0.39-6.46-3.64-9.84c-3.26-3.39-4.79-6.98-4.79-6.98s0.49,3.09,1.29,4.29     c0,0-1.67-1.78-1.69-2.38l0.47,1.8l-0.98-1.45c0,0,0.55,1.89,1.09,2.65C391.92,1077.7,391.42,1077.4,390.1,1077.05z" class="color6d3c12 svgShape color951a2e"></path></g></g><g class="color000 svgShape" fill="#000000"><path fill="#fbeeb8" d="M1645.33,1728.73l-0.84,11.96c0,0-12.69,4.21-14.84,2.01c-2.15-2.2-4.3-7.61-4.3-7.61l0-7.77    L1645.33,1728.73z" class="colorfbddb8 svgShape colorfbeeb8"></path><path fill="#2d191c" d="M1645.36,1738.86c0.81-0.06,1.51,0.59,1.51,1.42v18.23c0,0,2.15,2.2-10.76,2.2c-12.92,0-47.37,0-49.52-2.2    c-2.15-2.2,0-4.39,10.76-8.79c10.77-4.39,22.61-12.08,26.91-16.48c0,0,8.61,0,6.46,6.59    C1630.72,1739.84,1632.72,1739.84,1645.36,1738.86z" class="color19262d svgShape color2d191c"></path><path fill="#fbeeb8" d="M1729.74,1709.29l4.12,11.24c0,0-9.82,9.22-12.68,8.14c-2.85-1.08-7.02-5.09-7.02-5.09l-4.15-6.69    L1729.74,1709.29z" class="colorfbddb8 svgShape colorfbeeb8"></path><path fill="#2d191c" d="M1733.9,1718.5c0.71-0.4,1.62-0.1,1.95,0.65l7.44,16.58c0,0,2.85,1.08-8.89,6.57    c-11.75,5.49-43.07,20.12-45.92,19.04c-2.85-1.08-1.79-4,6.2-12.56c8-8.57,15.63-20.59,17.75-26.42c0,0,7.83-3.66,8.56,3.25    C1721,1725.61,1722.81,1724.76,1733.9,1718.5z" class="color19262d svgShape color2d191c"></path><path fill="#2f0f14" d="M1648.91,1619.75c0,0,26.95,67.62,60.07,103.84l25.24-10.46c0,0-40.26-82.11-49.72-98.2    c0,0-3.59-49.1-8.64-66.4C1675.86,1548.53,1642.07,1603.89,1648.91,1619.75z" class="color0f192f svgShape color2f0f14"></path><path fill="#4f141e" d="M1675.86,1552.96l-62.77,1.21c0,0-9,65.59-2.69,87.32c6.31,21.73,12.62,91.76,12.62,91.76h25.24    c0,0-0.79-69.22-1.58-108.66C1646.68,1624.59,1671.12,1572.28,1675.86,1552.96z" class="color142c4f svgShape color4f141e"></path><path fill="#e8d485" d="M1660.08,1408.06l-1.97-10.8l-23.87-1.46l-2.67,13.41C1631.57,1409.22,1642.39,1426.85,1660.08,1408.06z" class="colore8b685 svgShape colore8d485"></path><path fill="#fbe89b" d="M1544.83,1436.14c0,0-6.09-4.19-13.27-6.86c-7.19-2.67-17.77-3.79-7.26-15.15     c10.59-11.44,13.01-1.15,15.75,1.54c4.14,4.05-0.8,3.01,4.59,5.02c5.39,2,10.38,7.7,10.38,7.7L1544.83,1436.14z" class="colorfbcd9b svgShape colorfbe89b"></path><path fill="#d93f57" d="M1613.35,1410.34c-8.85,5.94-26.28,18.44-30.63,27.33c0,0-19.17-12.97-31.66-17.33     c0,0-12.74,11.81-13.59,16.71c0,0,35.23,26.08,47.35,21.77c12.12-4.31,32.46-15.33,37.16-24.5c2.86-5.57,5.71-13.24,4.64-19.16     C1625.62,1409.67,1618.2,1407.08,1613.35,1410.34z" class="colorde3d73 svgShape colord93f57"></path><path fill="#b53348" d="M1622.58,1430.88c-4.7,9.17-25.05,20.18-37.16,24.5c-11.11,3.96-41.65-17.65-46.64-21.25     c-0.68,1.11-1.17,2.12-1.32,2.93c0,0,35.23,26.08,47.35,21.77c12.12-4.31,32.46-15.33,37.16-24.5c0.99-1.92,1.53-4.1,1.7-6.35     C1623.4,1428.99,1623.05,1429.96,1622.58,1430.88z" class="color3368b5 svgShape colorb53348"></path><path fill="#fefcf5" d="M1660.97,1406.43c0,0-19.51,8.97-28.97-1.26c0,0-43.47,38.63-20.25,151.43c0,0,66.37-1.17,67.92-0.89    c1.55,0.28-5.24-8.11-8-19.84c-8.8-37.41-35.44-37.7-10.5-127.64C1661.36,1407.6,1661.43,1407.3,1660.97,1406.43z" class="colorf5f8fe svgShape colorfefcf5"></path><path fill="#d93f57" d="M1661.56,1406.18c0,0,0.19,0.02,0.55,0.07c1,0.14,1.99,0.33,2.96,0.54c5.67,1.96,20.68,8.71,22.98,25.95    c2.85,21.33-14.11,63.46-10.74,82.31c2.03,11.33,5.56,33.51,9.19,50.07c-19.29,2.13-27.82-6.16-31.7-7.31    c-5.35-10.4-7.25-31.7-12.38-50.36c-0.99-2.54-0.98-11.62-1.72-14.35C1627.78,1445.67,1661.56,1406.18,1661.56,1406.18z" class="colorde3d73 svgShape colord93f57"></path><path d="M1656.61,1450.96c0,0,6.81,22.36-7.81,27.12c0,0,10.06,8.65,15.7-0.52    C1670.13,1468.4,1656.61,1450.96,1656.61,1450.96z" class="color000 svgShape" opacity=".2" fill="#000000"></path><path d="M1688.34,1437.81c0.01,1.01-0.01,2.05-0.06,3.13c-0.02,0.42-0.04,0.84-0.06,1.27    c-0.09,1.35-0.21,2.74-0.37,4.17c-0.01,0.11-0.02,0.22-0.03,0.34c-0.19,1.65-0.43,3.35-0.7,5.08c-0.03,0.21-0.07,0.42-0.1,0.62    c-0.25,1.59-0.53,3.2-0.84,4.83c-0.03,0.17-0.06,0.34-0.09,0.5c-2.27,12.08-5.67,25.25-7.65,36.7c-0.01,0.05-0.02,0.1-0.03,0.15    c-0.23,1.34-0.44,2.65-0.63,3.94c0,0,0,0,0,0v0c-0.92,6.39-1.27,12.1-0.48,16.51c2.03,11.33,5.56,33.51,9.19,50.07    c-19.29,2.13-27.82-6.16-31.7-7.31c-1.16-2.25-1.74-5.17-2.02-8.51c20.41-9.23,23.18-4.94,17.7-19.05    c-4.17-10.73,3.94-21.89,4.82-32.78c0.32-16.37,2.95-36.73,5.29-55.01c0.31-2.43,0.43-4.77,0.39-7    c-0.21-11.46-5.9-21.69-14.63-28.19c0.01,0,0.02,0.01,0.02,0.01c0.07,0.03,0.14,0.06,0.21,0.08c0.13,0.05,0.26,0.11,0.39,0.16    c0.21,0.09,0.41,0.16,0.63,0.26c0.02,0.01,0.04,0.02,0.07,0.03c0.02,0.01,0.04,0.02,0.06,0.03c0.42,0.18,0.85,0.37,1.3,0.58    c0.17,0.08,0.36,0.18,0.53,0.26c0.34,0.17,0.68,0.33,1.04,0.52c0.21,0.11,0.43,0.24,0.64,0.35c0.11,0.06,0.23,0.13,0.35,0.19    c0.21,0.12,0.41,0.23,0.63,0.35c0.01,0.01,0.03,0.02,0.04,0.02c0.23,0.13,0.46,0.28,0.68,0.42c0.34,0.21,0.69,0.42,1.04,0.65    c0.24,0.16,0.48,0.33,0.73,0.5c0.06,0.04,0.11,0.08,0.17,0.12c0.03,0.02,0.05,0.04,0.08,0.06c0.25,0.18,0.51,0.35,0.76,0.54    c0.25,0.19,0.5,0.38,0.76,0.58c0.04,0.03,0.08,0.07,0.13,0.1c0.29,0.23,0.57,0.45,0.86,0.69c0.25,0.21,0.5,0.43,0.75,0.66    c0.14,0.12,0.28,0.26,0.42,0.38c0.17,0.15,0.33,0.3,0.5,0.46c0.01,0.01,0.03,0.03,0.04,0.04c0.25,0.24,0.49,0.48,0.73,0.73    c0.31,0.32,0.62,0.65,0.92,0.99c0.24,0.26,0.47,0.53,0.7,0.81c0.14,0.16,0.27,0.34,0.4,0.51c0.15,0.19,0.31,0.39,0.46,0.59    c0.22,0.29,0.44,0.58,0.65,0.89c0.27,0.39,0.54,0.8,0.8,1.22c0.2,0.31,0.4,0.63,0.58,0.95c0.07,0.12,0.13,0.25,0.19,0.37    c0.1,0.18,0.19,0.37,0.29,0.55c0.08,0.15,0.16,0.3,0.24,0.45c0.17,0.34,0.34,0.66,0.5,1.01c0.23,0.5,0.43,1.02,0.63,1.54    c0.13,0.35,0.28,0.68,0.4,1.04c0.2,0.6,0.37,1.22,0.54,1.85c0.09,0.32,0.19,0.61,0.26,0.94c0.23,0.97,0.42,1.97,0.56,3.02    c0.16,1.21,0.24,2.51,0.28,3.85C1688.34,1437,1688.33,1437.41,1688.34,1437.81z" class="color000 svgShape" opacity=".2" fill="#000000"></path><polygon fill="#e2d49c" points="1662.92 1406.38 1645.59 1420.75 1642.83 1410.34 1656.71 1406.35" class="color9cd6e2 svgShape colore2d49c"></polygon><path fill="#e2d49c" d="M1632.01,1405.17l10.16,4.75l-9.6,11.28C1632.56,1421.2,1627.9,1409.67,1632.01,1405.17z" class="color9cd6e2 svgShape colore2d49c"></path><path fill="#d93f57" d="M1604.37,1440.23c0,0,0.89-7.94,2.12-18.65c0.36-3.12,3.4-10.49,8.16-12.51c6.48-2.74,10.02-2.8,17.35-3.9    c0,0-19.68,79.88-18.29,140.74c-0.46,5.53,0.29,9.46,0.6,12.26c0,0-2.01-2.45-11,2.18c-6.19,3.19,0.79-34.3,2.59-41.77    C1600.98,1489.55,1601.49,1470.43,1604.37,1440.23z" class="colorde3d73 svgShape colord93f57"></path><rect width="22.24" height="96.78" x="1523.76" y="1355.64" fill="#c4314e" class="color788587 svgShape colorc4314e" transform="rotate(-48.333 1534.998 1404.11)"></rect><path fill="#d3c383" d="M1367.54,1369.73c36.73,32.68,92.99,29.4,125.67-7.32c32.68-36.72,29.4-92.99-7.32-125.67      c-36.73-32.68-92.99-29.4-125.67,7.32C1327.54,1280.79,1330.81,1337.05,1367.54,1369.73z" class="color83c8d3 svgShape colord3c383" opacity=".7"></path><path fill="#5b1a25" d="M1355.66 1383.08c44.1 39.24 111.65 35.3 150.89-8.79 39.24-44.1 35.3-111.65-8.79-150.89-44.09-39.24-111.65-35.3-150.89 8.79C1307.63 1276.28 1311.57 1343.84 1355.66 1383.08zM1367.54 1369.73c-36.72-32.68-40-88.94-7.32-125.67 32.68-36.73 88.94-40.01 125.67-7.32 36.72 32.68 40 88.95 7.32 125.67C1460.53 1399.14 1404.27 1402.41 1367.54 1369.73zM1537.43 1415.37l9.01-10.12c5.88-6.61 17.15-6.18 25.18.96l120.14 106.91c8.02 7.14 9.76 18.29 3.88 24.89l-9.01 10.13c-5.88 6.61-17.15 6.18-25.18-.96l-120.14-106.91C1533.29 1433.12 1531.55 1421.98 1537.43 1415.37z" class="color1a335b svgShape color5b1a25"></path><path fill="#ffffff" d="M1368.47 1309.05c7.33 13.53 24.23 18.55 37.76 11.23 13.53-7.33 18.55-24.23 11.23-37.76-7.33-13.53-24.23-18.55-37.76-11.23C1366.17 1278.62 1361.15 1295.52 1368.47 1309.05zM1386.53 1357.21c2.6 4.81 8.61 6.59 13.42 3.99 4.81-2.6 6.59-8.61 3.99-13.42-2.6-4.81-8.61-6.59-13.42-3.99C1385.71 1346.39 1383.93 1352.4 1386.53 1357.21z" class="colorfff svgShape"></path><path fill="#fbe89b" d="M1634.36,1507.15c0,0-4.74,2.65-8.3,6.34c-3.56,3.7-6.91,9.29-15.35,0.05c-8.51-9.31-3.77-11.96-0.53-10.78     c3.24,1.17,7.66,3.39,10.33,0.62c2.67-2.77,8.58-4.37,8.58-4.37L1634.36,1507.15z" class="colorfbcd9b svgShape colorfbe89b"></path><path fill="#d93f57" d="M1626.92,1498.26c0,0,8.32-6.07,16.8-11.71c6.17-4.11,12.42-7.98,15.6-9.14c0,0-4.93-28.09-1.54-39.28     c3.39-11.19,26.55-18.24,24.77,1.5c-1.78,19.73-0.7,42.24-9.9,52.05c-9.67,10.33-25.23,8.29-38.83,19.85L1626.92,1498.26z" class="colorde3d73 svgShape colord93f57"></path><g class="color000 svgShape" fill="#000000"><path fill="#fbe89b" d="M1622.08,1362.86c0,0-0.29,11.93-0.1,18.32c0.19,6.38,0.43,21.01,13.26,22.75     c12.83,1.75,19.93-4.75,24.55-7.6c0,0,14.94-13.81,12.69-18c-2.25-4.19-4.76-16.9-17.53-16.52     C1642.18,1362.19,1622.08,1362.86,1622.08,1362.86z" class="colorfbcd9b svgShape colorfbe89b"></path><path fill="#521e26" d="M1638.81,1343.51c2.9-1.24,5.79-2.52,8.49-3.81c4.57-2.18,9.83-2.57,14.58-0.81     c9.82,3.64,13,12.74,13,12.74l4.38,4.13c4.38,4.13,2.24,16.9-2.92,23.66c-9.66,12.63-17.16,17.41-17.16,17.41     c-0.54,0.02-0.54-0.4-0.21-1.06c0.7-2.96,0.1-5,0.1-5c9.56-2.54,10.33-11.37,6.43-12.72c-3.9-1.36-7.12,6.08-7.12,6.08l-0.58-2.6     c-0.99-6.9,2.62-14.55,2.62-14.55s-0.23,0.12-0.65,0.32c-0.02,0.03-0.03,0.06-0.05,0.09c0,0-3.36,3.95-8.8,3.92     c0,0,0.83-0.72,1.89-1.7c-4.25,0.94-9.89,1.42-15.93-0.24c0,0,4.18-0.47,7.34-1.72c-4.04-0.25-8.66-0.81-13.66-1.9     c-17.15-3.75-19.63-15.2-19.63-15.2C1620.13,1349.61,1627.98,1348.12,1638.81,1343.51z" class="color221e52 svgShape color521e26"></path></g></g><g class="color000 svgShape" fill="#000000"><path fill="#f4de84" d="M828.05,820.59c4.11-3.55,11-0.18,25.33,0.51c1.43,0.07,3.02,0.18,4.72,0.34c0.05,4.16,0.22,8.37-0.08,12.49    c-3.66-1.78-6.85-2.56-9.03-1.49c-8.32,4.1-15.35,4.02-15.35,4.02s-0.57,4.64-3.38,5.36c-2.81,0.73-6.73-3.12-8.52-3.88    C819.95,837.18,823.94,824.14,828.05,820.59z" class="colorf4be84 svgShape colorf4de84"></path><polygon fill="#f8f2d8" points="855.47 819.47 846.39 818.99 846.39 835.54 855.47 837.88" class="colorf8e8d8 svgShape colorf8f2d8"></polygon><path fill="#e04463" d="M895.62,763.88c5.62,4.74,22.68,70.79,21.37,76.97c-1.31,6.17-8.2,16.46-17.06,16.24    c-8.86-0.23-48.4-15.74-48.4-15.74l0.25-24.31l34.64,7.68l-6.51-32.18L895.62,763.88z" class="color4484e0 svgShape colore04463"></path></g></svg></svg></g></svg>