<svg id="SvgjsSvg1001" width="288" height="288" xmlns="http://www.w3.org/2000/svg" version="1.1" xmlns:xlink="http://www.w3.org/1999/xlink" xmlns:svgjs="http://svgjs.com/svgjs"><defs id="SvgjsDefs1002"></defs><g id="SvgjsG1008"><svg xmlns="http://www.w3.org/2000/svg" xmlns:xlink="http://www.w3.org/1999/xlink" data-name="Layer 1" viewBox="0 0 2000 2000" width="288" height="288"><defs><linearGradient id="a" x1="-385.02" x2="2495.4" y1="964.87" y2="964.87" gradientTransform="matrix(-1 0 0 1 -329.11 0)" gradientUnits="userSpaceOnUse"><stop offset="0" stop-color="#ffffff" class="stopColorfff svgShape"></stop><stop offset="1" stop-color="#eae6d4" class="stopColord4dbea svgShape"></stop></linearGradient><linearGradient id="e" x1="251.79" x2="1708.05" y1="1036.24" y2="1036.24" xlink:href="#a"></linearGradient><linearGradient id="f" x1="196.23" x2="2198.5" y1="997.25" y2="483.26" xlink:href="#a"></linearGradient><linearGradient id="h" x1="-178.78" x2="2701.63" y1="998.16" y2="998.16" xlink:href="#a"></linearGradient><linearGradient id="c" x1="-181.23" x2="776.87" y1="1167.84" y2="334.08" gradientTransform="matrix(-1 0 0 1 637.56 0)" gradientUnits="userSpaceOnUse"><stop offset="0" stop-color="#b06675" class="stopColor6669b0 svgShape"></stop><stop offset="1" stop-color="#8e303f" class="stopColor33308e svgShape"></stop></linearGradient><linearGradient id="b" x1="1047.15" x2="1550.92" y1="1427.89" y2="892.16" gradientUnits="userSpaceOnUse"><stop offset="0" stop-color="#fb183b" class="stopColorfbad18 svgShape"></stop><stop offset="1" stop-color="#f42041" class="stopColorf47820 svgShape"></stop></linearGradient><linearGradient id="i" x1="1102.37" x2="1606.14" y1="1479.81" y2="944.08" xlink:href="#b"></linearGradient><linearGradient id="j" x1="1254.37" x2="1758.12" y1="1622.74" y2="1087.01" xlink:href="#b"></linearGradient><linearGradient id="k" x1="1214.73" x2="1718.5" y1="1585.48" y2="1049.74" xlink:href="#b"></linearGradient><linearGradient id="l" x1="-1458.14" x2="-1443.02" y1="349.75" y2="349.75" gradientTransform="rotate(-88.88 118.272 -828.698)" xlink:href="#b"></linearGradient><linearGradient id="m" x1="-1476.32" x2="-1453.31" y1="284.95" y2="284.95" gradientTransform="rotate(-88.88 118.272 -828.698)" xlink:href="#c"></linearGradient><linearGradient id="n" x1="-1466.78" x2="-1443.78" y1="283.55" y2="283.55" gradientTransform="rotate(-88.88 118.272 -828.698)" xlink:href="#c"></linearGradient><linearGradient id="o" x1="-1458.29" x2="-1443.54" y1="346.48" y2="346.48" gradientTransform="rotate(8.35 -2947.954 19141.346)" xlink:href="#a"></linearGradient><linearGradient id="p" x1="1287.68" x2="1485.85" y1="368" y2="368" xlink:href="#b"></linearGradient><linearGradient id="q" x1="461.69" x2="516.29" y1="1652.98" y2="1652.98" xlink:href="#a"></linearGradient><linearGradient id="r" x1="280.04" x2="334.65" y1="1693.31" y2="1693.31" xlink:href="#a"></linearGradient><clipPath id="d"><path fill="none" d="M-1661.94,736.91c176.69-53.64,329-129.45,501.61-339.8S-523.89,251.49-389,567s37.75,606.77-124.06,660.71-231.24,106.75-320.58,313.7c-71.66,166-470.07,246-593.52,85.86-225.79-292.81-232-178.42-339.9-396.86S-1843.41,792-1661.94,736.91Z"></path></clipPath><clipPath id="g"><path fill="none" d="M916.18,1769.08c231,7.57,646.68-65.51,770.53-502.43s-325-336.23-481.59-818C1088.33,89.53,48.5,398.93,287.28,1321.43,392.27,1727,715.71,1762.51,916.18,1769.08Z" data-name="SVGID"></path></clipPath></defs><g clip-path="url(#d)" fill="#000000" class="color000 svgShape"><rect width="1399.68" height="1595.88" x="-1349.4" y="164.06" fill="#fffae6" opacity=".35" transform="rotate(180 -649.555 962.005)" class="colorfff svgShape"></rect><path fill="url(#a)" d="M-2774.22,451.93V920.58h-50.29v18.26h50.29V1407.5h-50.29v18.25h50.29v354.79h0v3.39H55.91v-42.24H25.13v-10.57H-877.22V1425.75H55.91V1407.5H-877.22V938.84H55.91V920.58H-877.22V451.93H55.91V433.66H-877.22V195.22H25.42V182.33H55.91V145.81H-2774.22V433.66h-50.29v18.27Zm1399.69,955.57h-435.95V938.84h436Zm-435.95-486.92V451.93h436V920.58Zm0-486.92V195.22h436V433.66Zm436,1308h-.16v-10.57h-435.79V1425.75h436Zm-902.5-10.57V1425.75h435.93v305.37Zm0-323.62V938.84h435.93V1407.5Zm0-486.92V451.93h435.93V920.58Zm0-486.92V195.22h435.93V433.66Zm-30.63,0H-2743.6V195.22h435.94Zm1399.82,0h-435.95V195.22h435.95Zm0,486.92h-435.95V451.93h435.95Zm0,486.92h-435.95V938.84h435.95Zm0,323.62h-435.78v10.57h-.17V1425.75h435.95ZM-2743.6,1425.75h435.94v305.37h-435.77v10.57h-.17Zm0-486.91h435.94V1407.5H-2743.6Zm0-486.91h435.94V920.58H-2743.6Z"></path></g><path fill="url(#e)" d="M916.18,1769.08c231,7.57,646.68-65.51,770.53-502.43s-325-336.23-481.59-818C1088.33,89.53,48.5,398.93,287.28,1321.43,392.27,1727,715.71,1762.51,916.18,1769.08Z"></path><path fill="url(#f)" d="M1464.58,721.4c-168.46-117.56-166.49-210.06-141-284.3,28.87-84.19,347.27,64.36,413.59,333.71S1553.6,783.52,1464.58,721.4Z"></path><g clip-path="url(#g)" fill="#000000" class="color000 svgShape"><polygon fill="#ebe5cb" points="419.43 728.47 419.43 671.97 513.15 671.97 513.15 401.9 538.99 401.9 538.99 671.97 639.94 671.97 639.94 728.47 694.01 728.47 694.01 1860.79 304.05 1860.79 304.05 728.47 419.43 728.47" class="colorcbd3eb svgShape"></polygon><rect width="54.07" height="1018.57" x="304.05" y="728.47" fill="#f0ebd6" transform="rotate(180 331.085 1237.755)" class="colord6dcf0 svgShape"></rect><rect width="389.96" height="862.59" x="499.03" y="998.2" fill="#ebe5cb" transform="rotate(180 694.015 1429.49)" class="colorcbd3eb svgShape"></rect><rect width="54.07" height="862.59" x="499.03" y="998.2" fill="#f0ebd6" transform="rotate(180 526.065 1429.49)" class="colord6dcf0 svgShape"></rect><rect width="55.96" height="23.22" x="778.62" y="1034.94" fill="#f0ebd6" transform="rotate(180 806.605 1046.555)" class="colord6dcf0 svgShape"></rect><rect width="55.96" height="23.22" x="684.41" y="1034.94" fill="#f0ebd6" transform="rotate(180 712.385 1046.555)" class="colord6dcf0 svgShape"></rect><rect width="55.96" height="23.22" x="778.62" y="1119.5" fill="#f0ebd6" transform="rotate(180 806.605 1131.115)" class="colord6dcf0 svgShape"></rect><rect width="55.96" height="23.22" x="684.41" y="1119.5" fill="#f0ebd6" transform="rotate(180 712.385 1131.115)" class="colord6dcf0 svgShape"></rect><rect width="55.96" height="23.22" x="590.2" y="1119.5" fill="#f0ebd6" transform="rotate(180 618.175 1131.115)" class="colord6dcf0 svgShape"></rect><rect width="55.96" height="23.22" x="778.62" y="1204.07" fill="#f0ebd6" transform="rotate(180 806.605 1215.68)" class="colord6dcf0 svgShape"></rect><rect width="55.96" height="23.22" x="590.2" y="1204.07" fill="#f0ebd6" transform="rotate(180 618.175 1215.68)" class="colord6dcf0 svgShape"></rect><rect width="55.96" height="23.22" x="684.41" y="1246.35" fill="#f0ebd6" transform="rotate(180 712.385 1257.965)" class="colord6dcf0 svgShape"></rect><rect width="55.96" height="23.22" x="778.62" y="1288.63" fill="#f0ebd6" transform="rotate(180 806.605 1300.24)" class="colord6dcf0 svgShape"></rect><rect width="55.96" height="23.22" x="684.41" y="1330.91" fill="#f0ebd6" transform="rotate(180 712.385 1342.525)" class="colord6dcf0 svgShape"></rect><rect width="55.96" height="23.23" x="778.62" y="1373.19" fill="#f0ebd6" transform="rotate(180 806.605 1384.805)" class="colord6dcf0 svgShape"></rect><rect width="55.96" height="23.23" x="590.2" y="1373.19" fill="#f0ebd6" transform="rotate(180 618.175 1384.805)" class="colord6dcf0 svgShape"></rect><rect width="55.96" height="23.22" x="778.62" y="1451.33" fill="#f0ebd6" transform="rotate(180 806.605 1462.945)" class="colord6dcf0 svgShape"></rect><rect width="55.96" height="23.22" x="684.41" y="1451.33" fill="#f0ebd6" transform="rotate(180 712.385 1462.945)" class="colord6dcf0 svgShape"></rect><rect width="55.96" height="23.22" x="778.62" y="1535.89" fill="#f0ebd6" transform="rotate(180 806.605 1547.505)" class="colord6dcf0 svgShape"></rect><rect width="55.96" height="23.22" x="684.41" y="1535.89" fill="#f0ebd6" transform="rotate(180 712.385 1547.505)" class="colord6dcf0 svgShape"></rect><rect width="55.96" height="23.22" x="590.2" y="1535.89" fill="#f0ebd6" transform="rotate(180 618.175 1547.505)" class="colord6dcf0 svgShape"></rect><rect width="55.96" height="23.22" x="778.62" y="1620.46" fill="#f0ebd6" transform="rotate(180 806.605 1632.075)" class="colord6dcf0 svgShape"></rect><rect width="55.96" height="23.22" x="590.2" y="1620.46" fill="#f0ebd6" transform="rotate(180 618.175 1632.075)" class="colord6dcf0 svgShape"></rect><rect width="55.96" height="23.22" x="684.41" y="1662.74" fill="#f0ebd6" transform="rotate(180 712.385 1674.35)" class="colord6dcf0 svgShape"></rect><rect width="55.96" height="23.22" x="590.2" y="1662.74" fill="#f0ebd6" transform="rotate(180 618.175 1674.35)" class="colord6dcf0 svgShape"></rect><rect width="55.96" height="23.22" x="778.62" y="1705.02" fill="#f0ebd6" transform="rotate(180 806.605 1716.635)" class="colord6dcf0 svgShape"></rect><rect width="55.96" height="23.22" x="684.41" y="1747.3" fill="#f0ebd6" transform="rotate(180 712.385 1758.915)" class="colord6dcf0 svgShape"></rect><rect width="55.96" height="23.23" x="778.62" y="1789.58" fill="#f0ebd6" transform="rotate(180 806.605 1801.195)" class="colord6dcf0 svgShape"></rect><rect width="55.96" height="23.23" x="590.2" y="1789.58" fill="#f0ebd6" transform="rotate(180 618.175 1801.195)" class="colord6dcf0 svgShape"></rect><rect width="389.96" height="862.59" x="1432.09" y="998.2" fill="#ebe5cb" transform="rotate(180 1627.065 1429.49)" class="colorcbd3eb svgShape"></rect><rect width="54.08" height="862.59" x="1432.09" y="998.2" fill="#f0ebd6" transform="rotate(180 1459.125 1429.49)" class="colord6dcf0 svgShape"></rect><rect width="523.22" height="1272.88" x="878.14" y="587.91" fill="#ebe5cb" transform="rotate(180 1139.745 1224.35)" class="colorcbd3eb svgShape"></rect><rect width="54.07" height="1272.88" x="878.14" y="587.91" fill="#f0ebd6" transform="rotate(180 905.17 1224.35)" class="colord6dcf0 svgShape"></rect><rect width="81.71" height="33.92" x="1264.53" y="648.87" fill="#f0ebd6" transform="rotate(180 1305.38 665.825)" class="colord6dcf0 svgShape"></rect><rect width="81.71" height="33.92" x="1126.95" y="648.87" fill="#f0ebd6" transform="rotate(180 1167.805 665.825)" class="colord6dcf0 svgShape"></rect><rect width="81.71" height="33.92" x="1264.53" y="772.36" fill="#f0ebd6" transform="rotate(180 1305.38 789.315)" class="colord6dcf0 svgShape"></rect><rect width="81.71" height="33.92" x="1126.95" y="772.36" fill="#f0ebd6" transform="rotate(180 1167.805 789.315)" class="colord6dcf0 svgShape"></rect><rect width="81.71" height="33.92" x="989.37" y="772.36" fill="#f0ebd6" transform="rotate(180 1030.225 789.315)" class="colord6dcf0 svgShape"></rect><rect width="81.71" height="33.92" x="1264.53" y="895.84" fill="#f0ebd6" transform="rotate(180 1305.38 912.8)" class="colord6dcf0 svgShape"></rect><rect width="81.71" height="33.92" x="989.37" y="895.84" fill="#f0ebd6" transform="rotate(180 1030.225 912.8)" class="colord6dcf0 svgShape"></rect><rect width="81.71" height="33.92" x="1126.95" y="957.58" fill="#f0ebd6" transform="rotate(180 1167.805 974.54)" class="colord6dcf0 svgShape"></rect><rect width="81.71" height="33.92" x="1264.53" y="1019.32" fill="#f0ebd6" transform="rotate(180 1305.38 1036.285)" class="colord6dcf0 svgShape"></rect><rect width="81.71" height="33.92" x="1126.95" y="1081.07" fill="#f0ebd6" transform="rotate(180 1167.805 1098.025)" class="colord6dcf0 svgShape"></rect><rect width="81.71" height="33.92" x="1264.53" y="1142.81" fill="#f0ebd6" transform="rotate(180 1305.38 1159.765)" class="colord6dcf0 svgShape"></rect><rect width="81.71" height="33.92" x="989.37" y="1142.81" fill="#f0ebd6" transform="rotate(180 1030.225 1159.765)" class="colord6dcf0 svgShape"></rect><rect width="81.71" height="33.92" x="1264.53" y="1256.92" fill="#f0ebd6" transform="rotate(180 1305.38 1273.88)" class="colord6dcf0 svgShape"></rect><rect width="81.71" height="33.92" x="1126.95" y="1256.92" fill="#f0ebd6" transform="rotate(180 1167.805 1273.88)" class="colord6dcf0 svgShape"></rect><rect width="81.71" height="33.92" x="1264.53" y="1380.4" fill="#f0ebd6" transform="rotate(180 1305.38 1397.36)" class="colord6dcf0 svgShape"></rect><rect width="81.71" height="33.92" x="1126.95" y="1380.4" fill="#f0ebd6" transform="rotate(180 1167.805 1397.36)" class="colord6dcf0 svgShape"></rect><rect width="81.71" height="33.92" x="989.37" y="1380.4" fill="#f0ebd6" transform="rotate(180 1030.225 1397.36)" class="colord6dcf0 svgShape"></rect><rect width="81.71" height="33.92" x="1264.53" y="1503.89" fill="#f0ebd6" transform="rotate(180 1305.38 1520.845)" class="colord6dcf0 svgShape"></rect><rect width="81.71" height="33.92" x="989.37" y="1503.89" fill="#f0ebd6" transform="rotate(180 1030.225 1520.845)" class="colord6dcf0 svgShape"></rect><rect width="81.71" height="33.91" x="1126.95" y="1565.64" fill="#f0ebd6" transform="rotate(180 1167.805 1582.59)" class="colord6dcf0 svgShape"></rect><rect width="81.71" height="33.91" x="989.37" y="1565.64" fill="#f0ebd6" transform="rotate(180 1030.225 1582.59)" class="colord6dcf0 svgShape"></rect><rect width="81.71" height="33.92" x="1264.53" y="1627.38" fill="#f0ebd6" transform="rotate(180 1305.38 1644.335)" class="colord6dcf0 svgShape"></rect><rect width="81.71" height="33.92" x="1126.95" y="1689.12" fill="#f0ebd6" transform="rotate(180 1167.805 1706.075)" class="colord6dcf0 svgShape"></rect><rect width="81.71" height="33.92" x="1264.53" y="1750.86" fill="#f0ebd6" transform="rotate(180 1305.38 1767.82)" class="colord6dcf0 svgShape"></rect><rect width="81.71" height="33.92" x="989.37" y="1750.86" fill="#f0ebd6" transform="rotate(180 1030.225 1767.82)" class="colord6dcf0 svgShape"></rect><rect width="512.81" height="1178.01" x="1700.75" y="682.78" fill="#ebe5cb" transform="rotate(180 1957.155 1271.785)" class="colorcbd3eb svgShape"></rect><rect width="53" height="1178.01" x="1700.75" y="682.78" fill="#f0ebd6" transform="rotate(180 1727.245 1271.785)" class="colord6dcf0 svgShape"></rect><rect width="80.09" height="31.39" x="1944.61" y="739.2" fill="#f0ebd6" transform="rotate(180 1984.655 754.9)" class="colord6dcf0 svgShape"></rect><rect width="80.09" height="31.39" x="1944.61" y="853.48" fill="#f0ebd6" transform="rotate(180 1984.655 869.18)" class="colord6dcf0 svgShape"></rect><rect width="80.09" height="31.39" x="1809.77" y="853.48" fill="#f0ebd6" transform="rotate(180 1849.815 869.18)" class="colord6dcf0 svgShape"></rect><rect width="80.09" height="31.39" x="1809.77" y="967.76" fill="#f0ebd6" transform="rotate(180 1849.815 983.46)" class="colord6dcf0 svgShape"></rect><rect width="80.09" height="31.39" x="1944.61" y="1024.9" fill="#f0ebd6" transform="rotate(180 1984.655 1040.6)" class="colord6dcf0 svgShape"></rect><rect width="80.09" height="31.38" x="1944.61" y="1139.19" fill="#f0ebd6" transform="rotate(180 1984.655 1154.88)" class="colord6dcf0 svgShape"></rect><rect width="80.09" height="31.38" x="1809.77" y="1196.33" fill="#f0ebd6" transform="rotate(180 1849.815 1212.02)" class="colord6dcf0 svgShape"></rect><rect width="80.09" height="31.38" x="1944.61" y="1301.93" fill="#f0ebd6" transform="rotate(180 1984.655 1317.625)" class="colord6dcf0 svgShape"></rect><rect width="80.09" height="31.38" x="1944.61" y="1416.21" fill="#f0ebd6" transform="rotate(180 1984.655 1431.905)" class="colord6dcf0 svgShape"></rect><rect width="80.09" height="31.38" x="1809.77" y="1416.21" fill="#f0ebd6" transform="rotate(180 1849.815 1431.905)" class="colord6dcf0 svgShape"></rect><rect width="80.09" height="31.38" x="1809.77" y="1530.49" fill="#f0ebd6" transform="rotate(180 1849.815 1546.185)" class="colord6dcf0 svgShape"></rect><rect width="80.09" height="31.39" x="1944.61" y="1587.63" fill="#f0ebd6" transform="rotate(180 1984.655 1603.325)" class="colord6dcf0 svgShape"></rect><rect width="80.09" height="31.39" x="1809.77" y="1587.63" fill="#f0ebd6" transform="rotate(180 1849.815 1603.325)" class="colord6dcf0 svgShape"></rect><rect width="80.09" height="31.39" x="1944.61" y="1701.91" fill="#f0ebd6" transform="rotate(180 1984.655 1717.605)" class="colord6dcf0 svgShape"></rect><rect width="80.09" height="31.39" x="1809.77" y="1759.05" fill="#f0ebd6" transform="rotate(180 1849.815 1774.745)" class="colord6dcf0 svgShape"></rect><rect width="330.27" height="803.48" x="43.48" y="1057.3" fill="#ebe5cb" transform="rotate(180 208.62 1459.045)" class="colorcbd3eb svgShape"></rect><rect width="34.13" height="803.48" x="43.48" y="1057.3" fill="#f0ebd6" transform="rotate(180 60.545 1459.045)" class="colord6dcf0 svgShape"></rect><rect width="51.58" height="21.4" x="287.38" y="1095.79" fill="#f0ebd6" transform="rotate(180 313.175 1106.49)" class="colord6dcf0 svgShape"></rect><rect width="51.58" height="21.4" x="200.54" y="1095.79" fill="#f0ebd6" transform="rotate(180 226.33 1106.49)" class="colord6dcf0 svgShape"></rect><rect width="51.58" height="21.41" x="287.38" y="1173.73" fill="#f0ebd6" transform="rotate(180 313.175 1184.44)" class="colord6dcf0 svgShape"></rect><rect width="51.58" height="21.41" x="200.54" y="1173.73" fill="#f0ebd6" transform="rotate(180 226.33 1184.44)" class="colord6dcf0 svgShape"></rect><rect width="51.57" height="21.41" x="113.7" y="1173.73" fill="#f0ebd6" transform="rotate(180 139.485 1184.44)" class="colord6dcf0 svgShape"></rect><rect width="51.58" height="21.4" x="287.38" y="1251.69" fill="#f0ebd6" transform="rotate(180 313.175 1262.39)" class="colord6dcf0 svgShape"></rect><rect width="51.57" height="21.4" x="113.7" y="1251.69" fill="#f0ebd6" transform="rotate(180 139.485 1262.39)" class="colord6dcf0 svgShape"></rect><rect width="51.58" height="21.41" x="200.54" y="1290.66" fill="#f0ebd6" transform="rotate(180 226.33 1301.365)" class="colord6dcf0 svgShape"></rect><rect width="51.58" height="21.41" x="287.38" y="1329.63" fill="#f0ebd6" transform="rotate(180 313.175 1340.335)" class="colord6dcf0 svgShape"></rect><rect width="51.58" height="21.41" x="200.54" y="1368.6" fill="#f0ebd6" transform="rotate(180 226.33 1379.31)" class="colord6dcf0 svgShape"></rect><rect width="51.58" height="21.4" x="287.38" y="1407.58" fill="#f0ebd6" transform="rotate(180 313.175 1418.285)" class="colord6dcf0 svgShape"></rect><rect width="51.57" height="21.4" x="113.7" y="1407.58" fill="#f0ebd6" transform="rotate(180 139.485 1418.285)" class="colord6dcf0 svgShape"></rect><rect width="51.58" height="21.41" x="287.38" y="1479.61" fill="#f0ebd6" transform="rotate(180 313.175 1490.315)" class="colord6dcf0 svgShape"></rect><rect width="51.58" height="21.41" x="200.54" y="1479.61" fill="#f0ebd6" transform="rotate(180 226.33 1490.315)" class="colord6dcf0 svgShape"></rect><rect width="51.58" height="21.41" x="287.38" y="1557.55" fill="#f0ebd6" transform="rotate(180 313.175 1568.26)" class="colord6dcf0 svgShape"></rect><rect width="51.58" height="21.41" x="200.54" y="1557.55" fill="#f0ebd6" transform="rotate(180 226.33 1568.26)" class="colord6dcf0 svgShape"></rect><rect width="51.57" height="21.41" x="113.7" y="1557.55" fill="#f0ebd6" transform="rotate(180 139.485 1568.26)" class="colord6dcf0 svgShape"></rect><rect width="51.58" height="21.41" x="287.38" y="1635.5" fill="#f0ebd6" transform="rotate(180 313.175 1646.21)" class="colord6dcf0 svgShape"></rect><rect width="51.57" height="21.41" x="113.7" y="1635.5" fill="#f0ebd6" transform="rotate(180 139.485 1646.21)" class="colord6dcf0 svgShape"></rect><rect width="51.58" height="21.41" x="200.54" y="1674.48" fill="#f0ebd6" transform="rotate(180 226.33 1685.185)" class="colord6dcf0 svgShape"></rect><rect width="51.57" height="21.41" x="113.7" y="1674.48" fill="#f0ebd6" transform="rotate(180 139.485 1685.185)" class="colord6dcf0 svgShape"></rect><rect width="51.58" height="21.41" x="287.38" y="1713.45" fill="#f0ebd6" transform="rotate(180 313.175 1724.155)" class="colord6dcf0 svgShape"></rect><rect width="51.58" height="21.4" x="200.54" y="1752.43" fill="#f0ebd6" transform="rotate(180 226.33 1763.13)" class="colord6dcf0 svgShape"></rect><rect width="51.58" height="21.41" x="287.38" y="1791.4" fill="#f0ebd6" transform="rotate(180 313.175 1802.105)" class="colord6dcf0 svgShape"></rect><rect width="51.57" height="21.41" x="113.7" y="1791.4" fill="#f0ebd6" transform="rotate(180 139.485 1802.105)" class="colord6dcf0 svgShape"></rect><rect width="1399.68" height="1595.88" x="-171.12" y="197.35" fill="#fffae6" opacity=".35" class="colorfff svgShape"></rect><polygon fill="#fffae6" points="318.4 1764.42 209.78 1764.42 792.12 215.61 900.75 215.61 318.4 1764.42" opacity=".5" class="colorfff svgShape"></polygon><polygon fill="#fffae6" points="126.59 1764.42 72.28 1764.42 654.61 215.61 708.93 215.61 126.59 1764.42" opacity=".5" class="colorfff svgShape"></polygon><polygon fill="#fffae6" points="775.14 1764.42 720.83 1764.42 1220.09 381.9 1220.09 493.28 775.14 1764.42" opacity=".5" class="colorfff svgShape"></polygon><rect width="1399.68" height="1595.88" x="1243.58" y="165.77" fill="#fffae6" opacity=".35" class="colorfff svgShape"></rect><polygon fill="#fffae6" points="1475.06 1764.42 1366.43 1764.42 1948.76 215.61 2057.39 215.61 1475.06 1764.42" opacity=".5" class="colorfff svgShape"></polygon><polygon fill="#fffae6" points="1283.25 1764.42 1228.93 1764.42 1811.27 215.61 1865.58 215.61 1283.25 1764.42" opacity=".5" class="colorfff svgShape"></polygon><path fill="url(#h)" d="M2701.63,485.21V467h-50.28V179.1H-178.78v36.51h30.49v12.9H754.35V467H-178.78v18.26H754.35V953.87H-178.78v18.26H754.35v468.65H-178.78V1459H754.35v305.38H-148V1775h-30.78v42.26H2651.34v-3.41h0V1459h50.28v-18.26h-50.28V972.13h50.28V953.87h-50.28V485.21Zm-1450,486.92H1687.6v468.65H1251.66Zm0-18.26V485.21H1687.6V953.87Zm0-486.92V228.51H1687.6V467Zm0,992.09H1687.6v305.38H1251.81V1775h-.15Zm466.57,305.38V1459h435.94v305.38Zm0-323.64V972.13h435.94v468.65Zm0-486.91V485.21h435.94V953.87Zm0-486.92V228.51h435.94V467Zm466.55-238.44h435.94V467H2184.78ZM785,228.51h435.94V467H785Zm0,256.7h435.94V953.87H785Zm0,486.92h435.94v468.65H785ZM785,1459h435.94V1775h-.17v-10.55H785ZM2620.72,1775h-.15v-10.55H2184.78V1459h435.94Zm0-334.19H2184.78V972.13h435.94Zm0-486.91H2184.78V485.21h435.94Z"></path></g><rect width="1383.26" height="10.5" x="287.28" y="1760.99" fill="#ebe5cb" class="colorcbd3eb svgShape"></rect><rect width="636.97" height="1189.1" x="419.74" y="504.32" fill="#ebe5cb" transform="rotate(-.12 738.92 1098.944)" class="colorcbd3eb svgShape"></rect><path fill="#951a2e" d="M440.63,459.51l368.28,2.22.09,50.08-186.5.39L489.56,513c-44.79.09-81,38.2-80.94,85.11l1.72,968.64c.09,46.92,36.47,84.87,81.27,84.78l319.45.69.2,105.17L443,1761c-44.78.1-81.17-37.86-81.26-84.78l-2-1131.58C359.6,497.72,395.84,459.61,440.63,459.51Z" class="color2a276f svgShape"></path><path fill="url(#c)" d="M1092.71,514c0-30.45-23.55-55.08-52.55-55.08L496,459H473.84c-1.84,0-3.76.07-5.59.23a37.24,37.24,0,0,0-4.3.45c-40.12,5.14-71.19,40.89-71.19,84.32l.15,1131.55c.08,45,33.37,81.78,75.65,84.77,1.83.16,3.67.23,5.52.23h16.41l549.9-.15c29,0,52.55-24.63,52.55-55V1517.55Zm-48.79,53.55.15,950.05V1596c0,30.38-23.47,55-52.47,55l-497.27.16c-29,0-52.55-24.71-52.55-55.09l-.23-1028.44c0-28.16,20.26-51.41,46.33-54.55a41.31,41.31,0,0,1,6.22-.46h63.68l433.59-.07C1020.37,512.5,1043.92,537.12,1043.92,567.5Z"></path><path fill="#951a2e" d="M676.48,1731.3l135-.29C825,1731,836,1719.47,836,1705.3h0c0-14.18-11-25.65-24.56-25.62l-135,.28c-13.53,0-24.49,11.55-24.46,25.73h0C652,1719.86,662.94,1731.33,676.48,1731.3Z" class="color2a276f svgShape"></path><path fill="#8e303f" d="M1092.94,1517.55H496V458.87h544.14c29,0,52.55,24.63,52.55,55.08Z" opacity=".2" class="color33308e svgShape"></path><path fill="#c4314e" d="M1602.48 1055.12a3.43 3.43 0 00-3.32-2.52c-32.45.52-73.12.61-100.6 20.68-25.59 18.69-29.43 51.68-28.86 81.07.07 3.14 3.55 4 5.53 2.67.09 0 .15.12.25.15C1543.68 1182.69 1612.15 1126.65 1602.48 1055.12zM1445.33 1187.86c.25-22.58-5-45.43-22.34-61.11-19.89-18-48.67-28.23-72.17-40.44-2.39-1.23-6.23.89-5 3.89 10.63 27 9.14 60.12 27.93 83.62 16 20 43 26.72 66.93 19.34a27.41 27.41 0 004.7-5.3zM1655.09 1261.47c-16-12.37-36.53-11.12-55.84-10.27-21.41.93-42.94 4.21-62.45 13.48-34 16.16-57.87 51.85-45.58 89.63a3.33 3.33 0 002.28 4c32.4 10.26 48-11.38 67.55-32.92 25-27.59 57-47.24 92.52-58.17C1655.78 1266.54 1657.24 1263.15 1655.09 1261.47z" class="color6669b0 svgShape"></path><path fill="#c4314e" d="M1732.6 1342.16a9.6 9.6 0 01-1.24-.55c-13.75-5.91-26.06-17.13-38.57-27.92 0-.06-.07-.06-.14-.14-13.69-11.82-27.64-23-43.94-26a1 1 0 00-.42-.06 48 48 0 00-24.2 2c-34.66 11.55-56 47.66-59.41 82.37a3.07 3.07 0 00.54 2c-.06.21-.13.35-.2.56a3.76 3.76 0 003.09 4.81c29.71 3.49 58.87.06 88-6.06 25.79-5.43 55-9.83 77.37-24.75C1736 1346.7 1735.35 1343.26 1732.6 1342.16zM1681 1408.66c-37.92-7.6-116.29-26.9-121.64 33.55a2.82 2.82 0 002.54 3.2c34.43 40.39 101.36 8.35 121.15-31.71C1684 1411.86 1683.33 1409.12 1681 1408.66zM1440.66 1287.07c-10.06-22.27-33.42-45.27-56.43-53.66-2.12-.78-4.37 1.22-4.35 3.31.38 43.88-10.39 112.94 37.34 137.2a3.2 3.2 0 001 .28c1.27 1.91 4.37 2.62 5.81 0C1438.75 1347.91 1454.23 1317.11 1440.66 1287.07zM1316.39 1315c-23.32-19.06-60.14-23.2-87.25-9.43-37.61 19.1-30.86 64.4-36.6 99.32-.55 3.37 3 5.73 5.75 3.34 37.17-32.6 89-45.4 117.38-88.1 0 0 0 0 0 0C1317.49 1319.06 1318.44 1316.68 1316.39 1315zM1316.62 1349.54a3.34 3.34 0 00-4.25-1.24 3.25 3.25 0 00-4.29-1c-18.64 10.22-40.48 24.5-44.14 47-4.38 26.86 10.71 53.08 12.42 79.53.24 3.65 6 5 6.76.93 4.77-25.43 31.12-37 40.81-59.9C1331.91 1396.11 1327.7 1366.47 1316.62 1349.54zM1431.56 1505.57c-21.89-30.73-44.39-57-82.41-66.63-2.75-.69-5.6 2.46-3.88 5 8.56 12.87 8.39 27.47 15.56 40.45 4.24 7.69 11.22 13.43 18.53 18 16.2 10.25 37.11 19.54 55.18 9.18C1438.21 1509.57 1435.2 1504.12 1431.56 1505.57zM1480.91 1469.28a3.11 3.11 0 00-.37-1c-15-24-15.7-54.54-36.47-75.21a3.49 3.49 0 00-5.4.7c-10.18 16.3-15.11 35.89-7 54.17 8.76 19.77 27.17 25.18 47.23 27.24C1482.42 1475.57 1483 1471.25 1480.91 1469.28zM1523.09 1200.87c-4.29-3.58-10 0-14.24 1.78a108.84 108.84 0 00-22.71 12.48c-13 9.69-21.94 23.43-22.75 39.64a3.09 3.09 0 00-.08 1.25c0 .48-.1.93-.1 1.41 0 3.9 5.39 4.36 6.62 1.35 16.65-3.65 29.81-14.38 40.73-27.24C1515.57 1225.64 1533.11 1209.25 1523.09 1200.87zM1530.63 1472c-.52-.49-1-1-1.45-1.55 4.29-29.34 6.11-63.32-22.78-80.56a3.47 3.47 0 00-5.06 2.06 86.3 86.3 0 0024.43 84.92C1529 1480 1533.86 1475.09 1530.63 1472z" class="color6669b0 svgShape"></path><path fill="#c4314e" d="M1729.64,1338.73c-12.72-5.65-24.68-15.42-36.85-25,0-.06-.07-.06-.14-.14-14-11.06-28.12-21.93-43.94-26a1,1,0,0,0-.42-.06,48,48,0,0,0-24.2,2c-34.66,11.55-56,47.66-59.41,82.37a3.07,3.07,0,0,0,.54,2c-.06.21-.13.35-.2.56a3.78,3.78,0,0,0,3-1.66,3,3,0,0,0,1.86-1c11.28-12,23.31-23.24,35.14-34.73,5.71-5.5,11.28-12.44,17.74-17,13.75-9.83,25.58-8,40-3.78,17.26,5,33,14,48.68,22.55,5.85,3.29,11.55,8.88,18.22,5.85a3.17,3.17,0,0,0,1.72-3A3,3,0,0,0,1729.64,1338.73Z" class="color6669b0 svgShape"></path><path fill="#8e303f" d="M1425.15,1454.48c-3.27-13.33-7-26.83-11.48-40,0-.12.13-.19.17-.31a187.41,187.41,0,0,0,7.27-64,3.23,3.23,0,0,0,2.68-2.31,110.67,110.67,0,0,0,5-38.77c-.21-4.41-7.09-4.43-6.87,0a105.76,105.76,0,0,1-2.17,26.93,192.64,192.64,0,0,0-6.62-30.36c-1.29-4.23-7.93-2.42-6.63,1.82a179.56,179.56,0,0,1,3,95.66c-6.43-16.4-14.52-32.07-25.36-45.94-25.47-32.61-71.78-52.43-108.46-37.05a3,3,0,0,0-2.44-2.81,53.86,53.86,0,0,0-41,6.26c-3.79,2.28-.33,8.23,3.47,5.94a46.62,46.62,0,0,1,33.14-6.07,72,72,0,0,0-23,21c-2.59,3.6,3.38,7,5.94,3.48,17.58-24.4,49.55-32.07,77.54-23a91,91,0,0,1,22.55,11.15c-29.3-.62-51.52,19-71.56,38.54-3.17,3.09,1.69,7.94,4.87,4.87,4-3.89,8-7.79,12.21-11.51a78.3,78.3,0,0,0-.64,21c.45,4.36,7.33,4.4,6.87,0a73.86,73.86,0,0,1,2-26.65,3.29,3.29,0,0,0,.07-1.31c14.17-11.2,30-19.35,49.45-18a2.86,2.86,0,0,0,3.16-2.31c15.6,12.32,27.87,29,36.77,46.72,17.68,35.15,27.77,75.34,33.48,115.58a73.87,73.87,0,0,1-36.59-22c-3-3.28-7.84,1.6-4.86,4.86a80.5,80.5,0,0,0,16.84,14,78.77,78.77,0,0,1-11.87-.82c-4.32-.67-6.19,6-1.83,6.63a90.7,90.7,0,0,0,19.82,1,3.29,3.29,0,0,0,2.85-1.93,81.13,81.13,0,0,0,16,5.48,2.44,2.44,0,0,0,.66,0c2.52,19.51,4,38.94,4.94,57.76.21,4.41,7.09,4.44,6.87,0A592.78,592.78,0,0,0,1425.15,1454.48Z" class="color33308e svgShape"></path><path fill="#8e303f" d="M1539.26,1313.13a226,226,0,0,0-17.73,14.3,107.21,107.21,0,0,1,15.88-34c2.55-3.63-3.41-7.07-5.94-3.47a112.39,112.39,0,0,0-18.29,42.22,3.47,3.47,0,0,0,.48,2.6,223.79,223.79,0,0,0-39,50.93q-2.81-35.55-4.58-71.19c-.82-16.87-2.13-35.77-2.61-55.22,8-10.73,16.38-21.27,28.75-27.08,4-1.88.51-7.81-3.48-5.94-10.49,4.92-18.36,13.09-25.43,22,0-9.12.11-18.31.66-27.42a3.35,3.35,0,0,0,.19-3.16c3.46-48.55,18-94.43,64.54-115.87,4-1.85.52-7.78-3.48-5.94a102.15,102.15,0,0,0-29.68,20.46,45.9,45.9,0,0,1,3.16-19.54c1.61-4.11-5-5.91-6.63-1.82a52.32,52.32,0,0,0-2.78,27.64,2.15,2.15,0,0,0,.15.38c-19.79,23.6-28,55.13-30.93,87.81l-29.89-34.7a2.81,2.81,0,0,0,1.58-2.87,51.41,51.41,0,0,0-9.24-26.65c-2.54-3.58-8.51-.15-5.94,3.47a45.09,45.09,0,0,1,7.79,19.31l-11.11-12.89c-2.89-3.35-7.73,1.52-4.86,4.87q25.47,29.57,50.95,59.13c-.73,12-.83,24.1-.66,35.92l-.46.61a2.75,2.75,0,0,0,.53,4c.23,11.58.7,22.88,1.12,33.51q3.3,82.26,12.37,164.09c-12.38-6.84-19.18-19.73-25.35-32.08-2-4-7.91-.49-5.94,3.48,7.08,14.17,15.19,29,30.25,35.88a3.4,3.4,0,0,0,1.85.26q5.94,52.55,14.1,104.78c.69,4.36,7.32,2.51,6.63-1.82q-13.41-85.78-20.65-172.32a2.89,2.89,0,0,0,1.6-1.45,216.62,216.62,0,0,1,65.5-76.28C1546.28,1316.49,1542.85,1310.53,1539.26,1313.13Z" class="color33308e svgShape"></path><path fill="#8e303f" d="M1653,1318.56a84.09,84.09,0,0,0-39.62,9.14,135.3,135.3,0,0,1,16.52-15c3.46-2.65,0-8.62-3.48-5.93a148,148,0,0,0-30.08,30.82,3.21,3.21,0,0,0-.59,1.36c-23.26,18.27-40.46,46.14-51.17,72.75a315.35,315.35,0,0,0-15.06,49.88c-3.83-6.45-6-13.67-8.37-20.79-1.9-5.68-3.63-10.83-8.9-14.13-3.76-2.36-7.23,3.59-3.48,5.93,5.57,3.48,6.86,13.55,8.86,19.34,2,5.63,4.12,11,7.58,15.84a3.34,3.34,0,0,0,2.67,1.46c-8.33,41.57-10.64,84.78-14.63,126.41-.43,4.4,6.46,4.38,6.88,0,3.71-38.75,6.11-78.39,13.13-116.95a3.16,3.16,0,0,0,1.44-.91c13-14.35,26.45-28.78,42.84-38.75a47.86,47.86,0,0,0,17.12,10.24c4.21,1.44,6-5.2,1.83-6.63a40,40,0,0,1-12.61-7.09,85.78,85.78,0,0,1,14.34-5.94c4.23-1.26,2.43-7.91-1.83-6.62a93.41,93.41,0,0,0-18.7,8,3.54,3.54,0,0,0-2.63,1.57c-14.85,8.85-27.45,21.07-39.36,34,2.27-10.83,4.87-21.57,8.15-32.14,6.63-21.44,17.14-45.19,31.78-65a2.39,2.39,0,0,0,.36,0,130.6,130.6,0,0,1,24-5.56c4.36-.59,2.51-7.22-1.82-6.63a133.05,133.05,0,0,0-15.14,3.06c17.94-20.71,41.13-35.26,70-34.71C1657.47,1325.52,1657.47,1318.64,1653,1318.56Z" class="color33308e svgShape"></path><polygon fill="#ebe5cb" points="1595.69 1532.82 1590.22 1566.89 1580.39 1627.92 1559.03 1760.99 1402.59 1760.99 1381.22 1627.92 1371.4 1566.89 1365.93 1532.82 1595.69 1532.82" class="colorcbd3eb svgShape"></polygon><polygon fill="#6e2632" points="1431.24 1566.89 1425.78 1532.82 1365.93 1532.82 1371.4 1566.89 1381.22 1627.92 1402.59 1760.99 1462.44 1760.99 1441.07 1627.92 1431.24 1566.89" opacity=".08" class="color29266e svgShape"></polygon><path fill="#fffae6" d="M1540.69,1750h-.62c-4-.22-7-2.46-6.69-5l26.88-202.45c.34-2.55,3.83-4.48,7.92-4.23s7,2.47,6.69,5L1548,1745.78C1547.67,1748.2,1544.46,1750,1540.69,1750Z" opacity=".64" class="colorfff svgShape"></path><rect width="679.92" height="1058.68" x="540.06" y="413.55" fill="#fffae6" class="colorfff svgShape"></rect><rect width="145.32" height="129.1" x="585.48" y="632.7" fill="#ebe5cb" class="colorcbd3eb svgShape"></rect><rect width="145.32" height="129.09" x="585.48" y="799.65" fill="#ebe5cb" class="colorcbd3eb svgShape"></rect><rect width="145.32" height="129.1" x="585.48" y="966.59" fill="#ebe5cb" class="colorcbd3eb svgShape"></rect><rect width="145.32" height="129.1" x="585.48" y="1133.53" fill="#ebe5cb" class="colorcbd3eb svgShape"></rect><rect width="145.32" height="129.09" x="585.48" y="1300.47" fill="#ebe5cb" class="colorcbd3eb svgShape"></rect><polygon fill="#8e303f" points="772.95 663.97 772.95 673.46 961.84 673.46 962.06 663.97 772.95 663.97" class="color33308e svgShape"></polygon><polygon fill="#8e303f" points="772.95 692.51 772.95 701.99 1173.73 701.99 1173.95 692.51 772.95 692.51" class="color33308e svgShape"></polygon><polygon fill="#8e303f" points="772.95 721.04 772.95 730.53 1089.81 730.53 1090.03 721.04 772.95 721.04" class="color33308e svgShape"></polygon><polygon fill="#8e303f" points="981.61 673.46 1039.91 673.46 1040.13 663.97 981.82 663.97 981.61 673.46" class="color33308e svgShape"></polygon><polygon fill="#8e303f" points="599.05 503.65 599.05 517.29 1175.7 517.29 1176.01 503.65 599.05 503.65" class="color33308e svgShape"></polygon><polygon fill="#8e303f" points="599.05 544.71 599.05 558.35 1054.94 558.35 1055.26 544.71 599.05 544.71" class="color33308e svgShape"></polygon><polygon fill="#8e303f" points="772.95 830.91 772.95 840.4 961.84 840.4 962.06 830.91 772.95 830.91" class="color33308e svgShape"></polygon><polygon fill="#8e303f" points="772.95 859.46 772.95 868.93 1173.73 868.93 1173.95 859.46 772.95 859.46" class="color33308e svgShape"></polygon><polygon fill="#8e303f" points="772.95 887.99 772.95 897.48 1089.81 897.48 1090.03 887.99 772.95 887.99" class="color33308e svgShape"></polygon><polygon fill="#8e303f" points="981.61 840.4 1039.91 840.4 1040.13 830.91 981.82 830.91 981.61 840.4" class="color33308e svgShape"></polygon><polygon fill="#8e303f" points="772.95 997.86 772.95 1007.34 961.84 1007.34 962.06 997.86 772.95 997.86" class="color33308e svgShape"></polygon><polygon fill="#8e303f" points="772.95 1026.39 772.95 1035.88 1173.73 1035.88 1173.95 1026.39 772.95 1026.39" class="color33308e svgShape"></polygon><polygon fill="#8e303f" points="772.95 1054.93 772.95 1064.41 1089.81 1064.41 1090.03 1054.93 772.95 1054.93" class="color33308e svgShape"></polygon><polygon fill="#8e303f" points="981.61 1007.34 1039.91 1007.34 1040.13 997.86 981.82 997.86 981.61 1007.34" class="color33308e svgShape"></polygon><polygon fill="#8e303f" points="772.95 1164.8 772.95 1174.28 961.84 1174.28 962.06 1164.8 772.95 1164.8" class="color33308e svgShape"></polygon><polygon fill="#8e303f" points="772.95 1193.33 772.95 1202.82 1173.73 1202.82 1173.95 1193.33 772.95 1193.33" class="color33308e svgShape"></polygon><polygon fill="#8e303f" points="772.95 1221.87 772.95 1231.36 1089.81 1231.36 1090.03 1221.87 772.95 1221.87" class="color33308e svgShape"></polygon><polygon fill="#8e303f" points="981.61 1174.28 1039.91 1174.28 1040.13 1164.8 981.82 1164.8 981.61 1174.28" class="color33308e svgShape"></polygon><polygon fill="#8e303f" points="772.95 1331.74 772.95 1341.23 961.84 1341.23 962.06 1331.74 772.95 1331.74" class="color33308e svgShape"></polygon><polygon fill="#8e303f" points="772.95 1360.28 772.95 1369.76 1173.73 1369.76 1173.95 1360.28 772.95 1360.28" class="color33308e svgShape"></polygon><polygon fill="#8e303f" points="772.95 1388.82 772.95 1398.3 1089.81 1398.3 1090.03 1388.82 772.95 1388.82" class="color33308e svgShape"></polygon><polygon fill="#8e303f" points="981.61 1341.23 1039.91 1341.23 1040.13 1331.74 981.82 1331.74 981.61 1341.23" class="color33308e svgShape"></polygon><path fill="#951a2e" d="M647.83 1085.51c-4.68 0-15.23-2.79-45.7-45.87a9.35 9.35 0 0115.26-10.8c9.41 13.29 21.5 28.34 28.52 35 13.12-21.22 50.91-80 52.75-82.8a9.35 9.35 0 1115.72 10.11c-14.26 22.15-52.14 81.21-56.14 88.43a11.4 11.4 0 01-9.37 5.89C648.56 1085.5 648.22 1085.51 647.83 1085.51zM647.83 755.08c-4.68 0-15.23-2.8-45.7-45.88a9.35 9.35 0 0115.26-10.8c9.41 13.3 21.5 28.34 28.52 35 13.12-21.22 50.91-79.95 52.75-82.8a9.35 9.35 0 0115.72 10.12c-14.26 22.14-52.14 81.21-56.14 88.42a11.36 11.36 0 01-9.37 5.89C648.56 755.06 648.22 755.08 647.83 755.08z" class="color2a276f svgShape"></path><path fill="#feeda7" d="M1409.57,1660.29c-2.67-13-10.84-26.58-22-41.4l30.13-19.19c7.9,13.25,10.47,20.71,25.63,36.61,10,10.51,1.94,43.56-23.25,49.75C1418.85,1686.35,1413.52,1679.53,1409.57,1660.29Z" class="colorfed2a7 svgShape"></path><path fill="#951a2e" d="M1420.38,1652.07c-8.39,4.68-22.42-12.39-24-.56,12.46,9,19.87,25.76,17.72,54.79-2,26.44,28.3,48.66,28.3,48.66l10.19-137.2s-4.1-15.38-34-12.75C1417.57,1619.38,1433.05,1645,1420.38,1652.07Z" class="color2a276f svgShape"></path><path fill="#feeda7" d="M1421.27,1726.44c-42.75-18.15-28.93-59.39-35.86-85.89l-32.26,12.16s.37,48.3-1.7,79.07,6.69,28,6.69,28l104.69.77S1451.09,1739.09,1421.27,1726.44Z" class="colorfed2a7 svgShape"></path><path fill="#951a2e" d="M1422.27,1726.87c-9.26-3.13-17-9.83-23.57-18.37-4.25-6-25.14.42-28.69,12,0,0-8.4,6.06-18.38,5,0,2.13-.05,4.21-.18,6.22-2.08,30.78,6.69,28,6.69,28l104.69.77S1453,1737.24,1422.27,1726.87Z" class="color2a276f svgShape"></path><path fill="url(#b)" d="M1306.31,965.94c-28.85,93.5-83.92,358.94-81.68,370.55,2.65,13.68,72.9,59.87,84.82.92,18.57-91.73,190.85-341,79.51-414.13C1348.1,896.46,1315.1,937.51,1306.31,965.94Z"></path><path fill="#d93f57" d="M1418.6,959.16c-6.69-14.86-16.34-27.14-29.64-35.88-1.22-.79-2.42-1.52-3.62-2.2l-.4-.22a47.8,47.8,0,0,0-18.45-6.06c11.63,72.17,6.88,142.27-5.07,204.38l-19.48-98.28s-29.58,78.21-19.82,164.76a105,105,0,0,1-5.69,47.27c-24.21,67.24-36.63,111-40.31,116.7,5.57-3,15.8,2.45,26,5.75,3.25-4.41,5.8-10.29,7.35-18C1325.65,1257.37,1458.85,1057.41,1418.6,959.16Z" class="colord25927 svgShape"></path><path fill="url(#i)" d="M1464.87,1069.13c-3.63-51.49-25.48-93.58-33.14-105.1-12.59-18.91-52.32-33.22-72.7-3.23s-16.63,46.12-20,113.26,14.64,244.78,8.84,293.84,62.42,76.53,66,4.37S1469.07,1128.69,1464.87,1069.13Z"></path><path fill="url(#j)" d="M1414.84,1386.73c-.25-13.9.38-23.84,1.2-37.71,3.49-59.08-66.38-25.47-67.76-9.88-1.73,19.57,2.08,30.46-7.62,97.62s-2.62,105.58,3.66,141,4.26,81.56,4.26,81.56c29.35,13.66,42.46,4.6,42.46,4.6s8.71-71.92,18.08-129.4S1415.46,1419.22,1414.84,1386.73Z"></path><path fill="url(#k)" d="M1428.18,1606s-3.18,5.33-11,10.9c-.39.29-.81.59-1.25.86v0c-6.88,4.64-17,9.29-31.13,11.07,0,0-167.14-275.09-160.6-296.38,2.93-9.63,34-56.1,73.48-20.76,21.28,19.06,45,61.86,68.07,147,.57,2,1.11,4.07,1.65,6.13C1382.32,1521.11,1428.18,1606,1428.18,1606Z"></path><path fill="#951a2e" d="M1413.69,555.44a34,34,0,1,0,36.47,31.42A34,34,0,0,0,1413.69,555.44Z" class="color2a276f svgShape"></path><path fill="#951a2e" d="M1461.78,730.43c-6.25-35.13,13.82-58.16-7.26-97.28s-41.81-42.16-61.79-47c-50.67-12.21-99.67,52.49-78.08,95.35,20,39.65,3.29,72.27-11.5,106.61s-16.24,140.73,76.18,145.29,111.47-35.76,117.74-92.21C1504.57,773.63,1468,765.57,1461.78,730.43Z" class="color2a276f svgShape"></path><path fill="#fbe58f" d="M1279.16,928.52a25.88,25.88,0,0,1-5.46,3.33c-17.81,8-39.43-7.31-32.33-29.62,6.43-20.2,49.46-104.36,58.86-130.81,10.15-28.58,61.46-25.11,57.55,9.12-.83,7.35-16.09,40.47-33.59,74.73C1304.57,893.7,1287.47,922,1279.16,928.52Z" class="colorfbbb8f svgShape"></path><path fill="#fbe58f" d="M1298.4,776.72c-5.17,27.57-31.69,116.84-34.5,137.85a31.12,31.12,0,0,0,3.65,19.59c.56-3.95,13.5-64.94,16.87-80.41,6.54-30.14,19.94-72.28,50.09-86a47.55,47.55,0,0,1,24.58-4.29C1342.25,752.2,1301,762.75,1298.4,776.72Z" class="colorfbbb8f svgShape"></path><path fill="#973c4b" d="M1343.56,753.87c9.78,3.7,16.85,12.19,15.32,25.56-.26,2.3-1.59,7.17-3.82,13.86A511.15,511.15,0,0,1,1319,873.76c-8.39.71-30.17-3.06-58.22-19.8,15.52-32.83,34.21-67.71,39.46-82.53C1306.41,754,1328.3,748.07,1343.56,753.87Z" class="color413c97 svgShape"></path><path fill="#feeda7" d="M1423.55,895.06c2.44-14.28,8.32-27.22,24.1-76,6.16-19,13-33.75,8.65-42.63-5.51-11.24-24.68-14.07-38.41-14.81-24.81-1.35-9.6-60.53-9.6-60.53-3.13-12.69-44.48-12.76-44.75,27.26s-38.63,19.45-48.42,26.34c-13.41,9.46-13.62,31.7-16.84,43.32s-21.48,24.63-20.28,46.43,21.72,22.16,21.72,22.16c6.87,8.81,12,24.23,13.76,34.94,4.2,25.58-3,53-3,53,71.06,35.9,123.15,8.28,123.15,8.28S1416.25,937.81,1423.55,895.06Z" class="colorfed2a7 svgShape"></path><path fill="#fbe58f" d="M1417.89,761.64c-24.81-1.35-9.6-60.53-9.6-60.53-1.74-7-15.26-10.18-27-4.74,7.59,2.4,24.11,37.28,10.36,86.2-3.9,13.9-19.55,21.38-33.68,23.36,0,0,87.35,20.31,89.66,13.15C1453.81,800.07,1431.62,762.38,1417.89,761.64Z" class="colorfbbb8f svgShape"></path><path fill="#fbe58f" d="M1361.17,781.73c-1.6-18.45,1.31-24.35,1.31-24.35,3.43-14.26,2.37-11.89.76-23.59a.43.43,0,0,0,0-.11c-3.14,28.77-30.65,18.19-43.63,19.62,3.58,7.75,8.89,10.15,12.34,17.47.37.8.74,1.72,1.1,2.73,5.29,26.07-2.82,126.55.91,161.1,3.77,34.94,49,33.35,49.86,9.49,1.07-29.78-20.44-128.75-22.62-162.31A.09.09,0,0,0,1361.17,781.73Z" class="colorfbbb8f svgShape"></path><path fill="#c4314e" d="M1452.61,989.22c.23.25.36.37.36.37s-82,29.47-153-6.41c0,0,16.92-39.32,12.7-81.23-1.09-10.8-6.06-26.54-12.94-35.34,0,0-20.52-.35-21.7-22.15s17-34.82,20.25-46.45,3.43-33.85,16.85-43.29c2.79-2,7.92-1.72,13.83-1.26-1.19,20.41,6,38,20.6,45.66,22.69,11.9,54.94-4.73,72.66-37.2a84.22,84.22,0,0,1,18.85,3.47c6.83,2.22,12.59,5.67,15.22,11.06a10.25,10.25,0,0,1,.63,1.53c3,9-3.43,23.17-9.27,41.1-15.77,48.77-23.11,61.53-24.1,76-.29,4.26-.39,8.37-.32,12.37a136.87,136.87,0,0,0,5.72,37.58c.12.46.27.93.44,1.4C1437.29,971.85,1450.3,986.73,1452.61,989.22Z" class="color6669b0 svgShape"></path><path fill="#973c4b" d="M1452.61,989.22c.23.25.36.37.36.37s-41.4-22.13-78.77-19.89c-26.58,1.59-14.77-21.41-7.55-47.05l9.51-33.87a30.72,30.72,0,0,0,24.51-20.89c5-15.64-3.91-34.54-20.17-39.12,0,0,73.15-57.71,75.78-52.32a10.25,10.25,0,0,1,.63,1.53c3.12,9-2.37,23.48-8.21,41.45-15.77,48.76-23.33,61.5-24.84,76.06-.42,4.09-.61,8.06-.64,11.93a124.32,124.32,0,0,0,5.72,37.58c.12.46.27.93.44,1.4A128.77,128.77,0,0,0,1452.61,989.22Z" class="color413c97 svgShape"></path><path fill="#feeda7" d="M1243.81 927.67c-17.9-29.92-26.86-95.16-41.34-110.78s-30.85-37.23-22.11-51.44c7.29-11.85 15.63-16.69 28.27-6.53 8 6.45 12.19 10.38 18.21 33.49s44.69 72.42 58.2 104.74C1298.43 929.18 1255.92 947.92 1243.81 927.67zM1411.6 660.68s-19.39-49.77-36.14-50.71-30 .87-37.56 19.42c0 0-9.13 16.47-5 35.78 0 0-21.45 20.39 3.16 48.53s63.81 7.17 76.08-19.83c0 0 22.55 6.5 24.81-14.37S1425.58 658 1411.6 660.68z" class="colorfed2a7 svgShape"></path><path fill="#fbe58f" d="M1411.6,660.68s-19.39-49.77-36.14-50.71c-13.39-.74-24.52.29-32.33,10.22,11.06-3.19,51.93,39.92,53,66.35,1.1,26.89-27,44.39-50.55,33.46a48.61,48.61,0,0,1-8-4.74c24.68,25.72,62.58,5.08,74.61-21.39,0,0,22.55,6.5,24.81-14.37S1425.58,658,1411.6,660.68Z" class="colorfbbb8f svgShape"></path><path fill="#951a2e" d="M1325.3,637s26.15-4.86,40.63-20.1,22.29-12.92,22.29-12.92C1342.55,585.55,1325.3,637,1325.3,637Z" class="color2a276f svgShape"></path><path fill="#951a2e" d="M1374.12,607.15c-7,6-8,23.68,10.82,43s13.6,43.67,27.85,30.08,14.35-15.78,15.19-33.82S1389.48,594,1374.12,607.15Z" class="color2a276f svgShape"></path><path fill="#feeda7" d="M1464,794.79c-1.33,8.67-26.17,53-50.62,92.44-19.31,31.12-38.41,59.24-45.53,64.39-19,13.68-45.56-3.47-36.72-27.82,3.23-8.87,16.27-31.66,30.66-56.47,14.14-24.37,29.57-50.74,38.31-67.84a72.67,72.67,0,0,0,4.89-9c8.47-19.67,39.64-26.69,53.34-15.38C1462.89,779.53,1465.34,786.07,1464,794.79Z" class="colorfed2a7 svgShape"></path><path fill="#fbe58f" d="M1376.75,873.52s11.85,38.46-3.31,69.6-14.5-65.32-14.5-65.32l7.75-12Z" class="colorfbbb8f svgShape"></path><path fill="#c4314e" d="M1464.47,794.44c-1.33,8.58-24.57,53.62-48.81,92.79-.67,0-1.43,0-2.3,0-9.16-.44-28.06-5.22-51.59-19.9-1.16-.72-2.32-1.45-3.48-2.22,13.82-26.42,32.21-50,41.79-65.62a72.67,72.67,0,0,0,4.89-9c8.47-19.67,39.64-26.69,53.34-15.38C1463.21,779.11,1465.87,785.47,1464.47,794.44Z" class="color6669b0 svgShape"></path><path fill="#973c4b" d="M1417.51,783.7c12.76-12.41,32.5-8.33,45.22-3.37-9.2-21.24-47.51-11.11-56.62,7.89-6.81,14.18-31,44.71-47.82,76.89l.35.23C1379.28,849.61,1399.25,801.45,1417.51,783.7Z" class="color413c97 svgShape"></path><path fill="#feeda7" d="M1350.94,777.31c-1.61-18.46,1.3-24.35,1.3-24.35,3.43-14.26,7.51-14.09,5.91-25.79-1.19-8.69-12.56,17.05-14,13.56-8-19.33-22.23-34.48-31.89-41.34-7.09-5-8.33-.47-4,3.89,18.82,19.08-3.56,26.22-1.49,37.15,2.9,15.26,10.48,16.45,15,25.92.37.79.74,1.71,1.1,2.72,5.3,26.08-2.82,126.56.91,161.11,3.76,34.93,49,33.34,49.86,9.49,1.06-29.79-20.44-128.75-22.62-162.31Z" class="colorfed2a7 svgShape"></path><path fill="#d93f57" d="M1428.18,1606s-3.18,5.33-11,10.9c-.39.29-.81.59-1.25.88v0c-31.6-48.52-69.91-135.42-80.68-181.26-5.86-24.88-15.57-57.08-23.85-83-6.09-19-11.36-34.77-13.72-41.76,21.28,19.06,45,61.86,68.07,147,.57,2,1.11,4.07,1.65,6.13C1382.32,1521.11,1428.18,1606,1428.18,1606Z" class="colord25927 svgShape"></path><polygon fill="#ebe5cb" points="1130.36 777.07 1131.14 783.21 1140.61 786.18 1138.79 771.83 1130.36 777.07" class="colorcbd3eb svgShape"></polygon><path fill="url(#l)" d="M1261.23,756l1.82,14.35,5.36-.68a2.52,2.52,0,0,0,2.18-2.82l-1.18-9.35a2.53,2.53,0,0,0-2.82-2.18Z"></path><path fill="url(#m)" d="M1138.24,784.05h0a2.4,2.4,0,0,0,2.69,2.08l122.46-15.81-.6-4.79-122.46,15.82A2.42,2.42,0,0,0,1138.24,784.05Z"></path><path fill="#951a2e" d="M1137.63,779.27h0a2.4,2.4,0,0,0,2.7,2.08l122.46-15.82-.61-4.78-122.46,15.82A2.41,2.41,0,0,0,1137.63,779.27Z" class="color2a276f svgShape"></path><path fill="url(#n)" d="M1137,774.48h0a2.41,2.41,0,0,0,2.7,2.09l122.46-15.82-.61-4.78-122.46,15.82A2.42,2.42,0,0,0,1137,774.48Z"></path><rect width="14.46" height="3.01" x="1255.38" y="761.62" fill="url(#o)" transform="rotate(-97.23 1262.652 763.117)"></rect><path fill="#951a2e" d="M1127,781.79l4.1,1.42-.78-6.14-3.6,2.42A1.29,1.29,0,0,0,1127,781.79Z" class="color2a276f svgShape"></path><path fill="#feeda7" d="M1227.52,794.73s-3.28-33-19.68-31.05-3.88,11.63-.3,14.46c9.81,7.75,2,22.14,2,22.14Z" class="colorfed2a7 svgShape"></path><path fill="#d93f57" d="M1419.86,436l-48,.65c-.23-6.91-.34-11.11-.36-12.62q-.33-23.36,7.2-38.53t30.43-34.32Q1432,332,1436.48,326.12a33,33,0,0,0,6.68-20.43q-.21-15.45-12.68-26.31t-33.4-10.57q-20.16.29-33.57,11.95t-18.18,35.29h-9l-39.73-5.37q1.63-33.75,28-57.66t69.68-24.5q45.56-.6,72.84,22.87t27.68,55.11a60.93,60.93,0,0,1-9.45,33.29q-9.66,15.76-41.71,43.14-16.59,14.16-20.51,22.7T1419.86,436Zm-47.44,45.39h0a26.47,26.47,0,0,1,26.12-26.82h0a26.48,26.48,0,0,1,26.82,26.11h0a26.48,26.48,0,0,1-26.11,26.82h0A26.47,26.47,0,0,1,1372.42,481.39Z" class="colord25927 svgShape"></path><path fill="url(#p)" d="M1410.9,436l-48,.65c-.23-6.91-.34-11.11-.36-12.62q-.33-23.36,7.2-38.53t30.43-34.32q22.93-19.17,27.37-25.06a33,33,0,0,0,6.69-20.43q-.21-15.45-12.68-26.31t-33.4-10.57q-20.16.29-33.57,11.95t-18.18,35.29l-48.69-5.37q1.63-33.75,28-57.66t69.68-24.5q45.56-.6,72.85,22.87t27.67,55.11a60.84,60.84,0,0,1-9.45,33.29q-9.66,15.76-41.71,43.14-16.59,14.16-20.51,22.7T1410.9,436Zm-47.44,45.39h0a26.47,26.47,0,0,1,26.12-26.82h0a26.48,26.48,0,0,1,26.82,26.11h0a26.48,26.48,0,0,1-26.11,26.82h0A26.47,26.47,0,0,1,1363.46,481.39Z"></path><path fill="#fffae6" d="M493.52,1552.44s22.79,145,22.79,214c0,0,183.38-5.19,255,0,0,0-4.71-141.81-7.25-228.47C764.05,1538,561.88,1557.62,493.52,1552.44Z" class="colorfff svgShape"></path><path fill="url(#q)" d="M478.26,1762.62c1.17-20.35-3.68-83-8.44-136.78-.1-1.18-.2-2.35-.31-3.53-.3-3.53-.66-7.06-1-10.48-3.64-40.22-6.86-72.32-6.86-72.32a76.9,76.9,0,0,0,15.59,9.15.43.43,0,0,0,.26.1c9.81,4.09,16,3.68,16,3.68a533.84,533.84,0,0,1,11.3,57.45c3.62,25,6.13,50.7,7.81,73.86l1.23,18.71c1.28,21,1.9,38.74,2.15,50.19.05,1.28.05,2.51.1,3.63,0,2.86.1,5.16.1,6.85.06,2.19.06,3.32.06,3.32Z"></path><path fill="#ebe5cb" d="M768 1659.05s-20.17 5.16-59.9 9a256 256 0 0060.25 3.8zM764.05 1579.75s-49.16 31.37-111.83 36.55c0 0 62.34 2.6 114.23 0zM514.14 1706.32s64-3.3 84.36-9.77l-85.84-12.79zM496.6 1627.58l-26.78-1.74h-.05l-.26-3.53-.81-10.48-.51-6.79a41.69 41.69 0 005.62 6.54A87.93 87.93 0 00496.6 1627.58zM486.74 1726.33l28.75 15.09-.9-17.84S496.77 1731.5 486.74 1726.33z" class="colorcbd3eb svgShape"></path><path fill="#fffae6" d="M461.7,1539.51s136.8,1.8,261.35-15.39c0,0,11.16,4.79,41,13.86,0,0-181.67,20.41-270.53,14.46C493.52,1552.44,486.66,1556.34,461.7,1539.51Z" class="colorfff svgShape"></path><path fill="#8e303f" d="M616.31,1764.51c-.41-8.64-1.58-32.26-2.91-60.11h.15l-.36-8.59H613c-.41-9.35-.87-19.06-1.33-28.77-.87-18.56-1.73-37-2.4-52.7-29.85-6.08-41-9.3-41-9.3-21.06,1.94-42.42,3.52-63.42,4.85l-3,.16c-9.45.56-18.86,1.07-28.06,1.53-1.69.1-3.43.21-5.11.25h-.15c.3,3.42.66,7,1,10.48l.26,3.53h.05c4.76,53.77,9.61,116.43,8.44,136.78l38,3.83c38.59,0,75.89.41,100.23,1.58C616.52,1768,616.47,1766.81,616.31,1764.51Z" opacity=".2" class="color33308e svgShape"></path><path fill="#fffae6" d="M311.86,1630.1s22.79,91.16,22.79,134.55c0,0,183.38-3.25,255,0,0,0-4.72-89.15-7.25-143.65C582.39,1621,380.21,1633.35,311.86,1630.1Z" class="colorfff svgShape"></path><path fill="url(#r)" d="M311.86,1630.1s-13.38.54-31.82-8.13c0,0,18.72,116.39,16.56,140.26l38,2.42S333.83,1682.46,311.86,1630.1Z"></path><path fill="#ebe5cb" d="M586.35 1697.13s-20.17 3.25-59.91 5.64a404.3 404.3 0 0060.26 2.39zM582.39 1647.27s-49.17 19.72-111.84 23c0 0 62.35 1.64 114.23 0zM332.47 1726.84s64-2.06 84.37-6.13l-85.84-8zM286.54 1663.16s7.79 7.68 28.4 14.19l-26.81-1.09zM305.07 1739.43l28.76 9.49-.91-11.22S315.11 1742.68 305.07 1739.43z" class="colorcbd3eb svgShape"></path><path fill="#fffae6" d="M280,1622s136.8,1.13,261.34-9.67c0,0,11.17,3,41,8.7,0,0-181.67,12.84-270.53,9.1C311.86,1630.1,305,1632.55,280,1622Z" class="colorfff svgShape"></path></svg></g></svg>