<svg xmlns="http://www.w3.org/2000/svg" xmlns:xlink="http://www.w3.org/1999/xlink" data-name="Layer 1" viewBox="0 0 2000 2000" id="customer-survey"><defs fill="#000000"><linearGradient id="a" x1="-51.51" x2="2193.19" y1="1280.97" y2="688.21" gradientUnits="userSpaceOnUse" fill="#000000"><stop offset="0" stop-color="#fff" fill="#000000"/><stop offset="1" stop-color="#fffae6" fill="#000000"/></linearGradient><linearGradient id="d" x1="50.33" x2="2295.03" y1="1666.64" y2="1073.88" xlink:href="#a" fill="#000000"/><linearGradient id="f" x1="79.97" x2="839.43" y1="934.64" y2="934.64" xlink:href="#a" fill="#000000"/><linearGradient id="h" x1="1281.92" x2="1802.68" y1="845.06" y2="845.06" gradientTransform="rotate(-180 1542.295 845.06)" xlink:href="#a" fill="#000000"/><linearGradient id="i" x1="3246.15" x2="3246.15" y1="1050.91" y2="484.93" gradientTransform="translate(-2156.54)" gradientUnits="userSpaceOnUse" fill="#000000"><stop offset="0" stop-color="#fff" stop-opacity="0" fill="#000000"/><stop offset="1" stop-color="#fff" fill="#000000"/></linearGradient><linearGradient id="b" x1="505.11" x2="720.16" y1="718.53" y2="718.53" gradientUnits="userSpaceOnUse" fill="#000000"><stop offset="0" stop-color="#fbad18" fill="#000000"/><stop offset="1" stop-color="#f47820" fill="#000000"/></linearGradient><linearGradient id="j" x1="576.11" x2="849.24" y1="828.58" y2="828.58" xlink:href="#b" fill="#000000"/><linearGradient id="k" x1="682.87" x2="771.55" y1="673.31" y2="673.31" xlink:href="#a" fill="#000000"/><linearGradient id="l" x1="-1060.95" x2="-780.85" y1="1021.78" y2="1021.78" gradientTransform="rotate(7.35 3520.922 13798.774)" gradientUnits="userSpaceOnUse" fill="#000000"><stop offset="0" stop-color="#ffd10a" fill="#000000"/><stop offset="1" stop-color="#f47521" fill="#000000"/></linearGradient><linearGradient id="m" x1="770.58" x2="1021.43" y1="635.67" y2="635.67" xlink:href="#b" fill="#000000"/><linearGradient id="n" x1="915.12" x2="1554.23" y1="1055.34" y2="1055.34" gradientTransform="rotate(89.88 1234.675 1055.333)" xlink:href="#a" fill="#000000"/><linearGradient id="c" x1="1668.87" x2="2626.97" y1="1124.32" y2="290.55" gradientTransform="translate(-514.76)" gradientUnits="userSpaceOnUse" fill="#000000"><stop offset="0" stop-color="#d93f57" fill="#000000"/><stop offset="1" stop-color="#951a2e" fill="#000000"/></linearGradient><linearGradient id="o" x1="768.99" x2="791.1" y1="505.5" y2="505.5" gradientTransform="translate(189.89)" xlink:href="#b" fill="#000000"/><linearGradient id="p" x1="932.48" x2="1064.27" y1="1158.21" y2="1158.21" xlink:href="#b" fill="#000000"/><linearGradient id="q" x1="305.3" x2="422.02" y1="617.91" y2="617.91" xlink:href="#a" fill="#000000"/><linearGradient id="r" x1="453.78" x2="577.12" y1="1678.32" y2="1678.32" xlink:href="#b" fill="#000000"/><linearGradient id="s" x1="305.47" x2="493.1" y1="1149.8" y2="1149.8" xlink:href="#c" fill="#000000"/><linearGradient id="t" x1="383.28" x2="570.91" y1="1138.38" y2="1138.38" xlink:href="#c" fill="#000000"/><linearGradient id="u" x1="452.57" x2="572.85" y1="1651.57" y2="1651.57" xlink:href="#a" fill="#000000"/><linearGradient id="v" x1="327.95" x2="377.97" y1="562.27" y2="562.27" xlink:href="#b" fill="#000000"/><linearGradient id="w" x1="1665.7" x2="1472" y1="1198.01" y2="1489.53" xlink:href="#c" fill="#000000"/><linearGradient id="x" x1="1403.83" x2="1555.9" y1="1403.57" y2="1403.57" xlink:href="#c" fill="#000000"/><linearGradient id="y" x1="1796.23" x2="1498.1" y1="1321.7" y2="1604.99" xlink:href="#c" fill="#000000"/><linearGradient id="A" x1="1833.95" x2="4714.36" y1="980.76" y2="980.76" xlink:href="#a" fill="#000000"/><clipPath id="e" fill="#000000"><path fill="none" d="M1733.26,861.09C1687.48,630,1524,439.66,1304.71,353.71,807.2,158.72,309.2,308.84,213.83,847,123,1359.78,544,1177.43,910.16,1574.68c318.8,345.9,956,33.55,826.25-696.8Q1734.91,869.41,1733.26,861.09Z"/></clipPath><clipPath id="g" fill="#000000"><rect width="760.16" height="980.28" x="79.16" y="436.95" fill="none" data-name="SVGID" transform="rotate(180 459.235 927.09)"/></clipPath><clipPath id="z" fill="#000000"><path fill="none" d="M2972,283.94C3189.57,326.8,3300.64,573.18,3651,792.42s273.2,1075.34-280.09,935.71c-527.85-133.2-552.28-122.68-898-110.38C2040.2,1633.14,2283.58,148.32,2972,283.94Z" data-name="SVGID"/></clipPath></defs><rect width="1383.27" height="10.51" x="340.58" y="1717.46" fill="#fffae6"/><path fill="url(#a)" d="M1733.26,861.09C1687.48,630,1524,439.66,1304.71,353.71,807.2,158.72,309.2,308.84,213.83,847,123,1359.78,544,1177.43,910.16,1574.68c318.8,345.9,956,33.55,826.25-696.8Q1734.91,869.41,1733.26,861.09Z"/><path fill="url(#d)" d="M395.84,1366.58c154.28,62.29,260.9,19.8,385.85,174.67s86.19,188.54-151.35,114.39C304.76,1554,252,1308.51,395.84,1366.58Z"/><g clip-path="url(#e)"><rect width="759.47" height="973.67" x="79.97" y="447.8" fill="url(#f)"/><g clip-path="url(#g)"><path fill="#fffae6" d="M538.21,1203.21c-2.17-11.71-13.07-15-10.3-28.69,1.57-7.75,6-11.5.92-19.58-2.66-4.22-6.7-7.34-11-10.06a16.28,16.28,0,0,0,5.72-18.63,2.75,2.75,0,0,0-4.54-1.19A74.88,74.88,0,0,0,509,1138c-.42-3-.82-6-1.52-8.94-.59-2.46-2.19-4.62-4.9-4.76-4.8-.25-4.89,4.36-3.91,8.59-8.9-6-17.59-12.32-26.51-18.25-3.38-2.25-7-4.46-10.81-6.62a11.06,11.06,0,0,0,3.7-5.8c1.28-5-2.56-9.29-7.55-6.55a29.34,29.34,0,0,0-7.68,6.34,147.19,147.19,0,0,0-17.73-7.26,12.42,12.42,0,0,0,4.25-4.5,5.14,5.14,0,0,0-3.92-7.63c-4-.56-7.66,2.15-10.46,4.61a24.06,24.06,0,0,0-3.54,4c-21.69-4.15-43.42-.73-59.24,18.36-.93,1.13-1.76,2.18-2.57,3.16A20.12,20.12,0,0,0,349,1102a2.22,2.22,0,0,0-2-.42,2.86,2.86,0,0,0-3.31,1.47,2.71,2.71,0,0,0-.88,2.51,43.73,43.73,0,0,0,4.55,13.39,18.79,18.79,0,0,1-4.47.27c-4.23-.21-7.27-1.08-11.5.16-5.64,1.79-10.47,6.08-13.67,11.18a28.34,28.34,0,0,0-2.55,5c-7.7,19.63,8.79,37.26,24,47.18a2.17,2.17,0,0,0,2.27.17c20.88,12.58,43.83,30.26,68.23,33.62,4.67.65,9.5-.59,13.94,0,1.58.16,14,3.86,15.35,5.1s2.28,4.56,3.31,6.13a36.35,36.35,0,0,0,18.6,14.38c24.09,8.84,72.36,3.3,77.56-26.53A34.27,34.27,0,0,0,538.21,1203.21Z"/><path fill="#fffae6" d="M537.51,1214.55a2.6,2.6,0,0,0-2.61-.71c-18.82,7.76-56.57,26.36-70.29,3.31-2.22-3.8-1.63-6.13-5.8-8.57-2.61-1.58-6.41-1.52-9.17-3-7.76-4.18-11.82-11.94-12.31-20.45-.11-1.62-1.68-3.26-3.42-2.61-8.08,2.83-17.3,6.51-25.92,6-12.37-.65-25.49-8.19-23.76-22.52.22-1.73-1.9-3-3.41-2.59-27.83,8.18-55-6.84-63.14-32.87a28.34,28.34,0,0,0-2.55,5c-7.7,19.63,8.79,37.26,24,47.18a2.17,2.17,0,0,0,2.27.17c20.88,12.58,43.83,30.26,68.23,33.62,4.67.65,9.5-.59,13.94,0,1.58.16,14,3.86,15.35,5.1s2.28,4.56,3.31,6.13a36.35,36.35,0,0,0,18.6,14.38c24.09,8.84,72.36,3.3,77.56-26.53C538.1,1215.25,537.83,1214.93,537.51,1214.55Z"/><path fill="#fffae6" d="M353.52 1155.7a2.36 2.36 0 00-.8-.58c.08-.53.13-1 .23-1.56.67-3.42-4.55-4.87-5.23-1.45a30.51 30.51 0 005.49 24.74c1.37 1.81 4.23 1.75 5-.65A21.08 21.08 0 00353.52 1155.7zM421.09 1181a2.11 2.11 0 00-2.2-.34 55.76 55.76 0 01-2.94-8.77c-.81-3.39-6-2-5.23 1.44a59.33 59.33 0 0011.77 23.75c1.23 1.53 4.2.72 4.53-1.2A14.6 14.6 0 00421.09 1181zM473.38 1208.43c-5.68 6.48-12.55 17.68-3.53 24.71 1.52 1.19 4 1 4.53-1.2a39.32 39.32 0 00.78-15.65 2 2 0 00-.46-.94c.85-1.12 1.73-2.19 2.51-3.09C479.51 1209.65 475.68 1205.8 473.38 1208.43z"/><path fill="#fffae6" d="M396.93 1114.4c-8.64-5.94-10.72 18.47-10.51 22.8-1.75 2.7 1.87 6.27 3.95 3.59a39.7 39.7 0 007.41-14.55C398.61 1123 400.41 1116.79 396.93 1114.4zM441.73 1148.79a1.71 1.71 0 00.18-.2 56.55 56.55 0 008.66-26.68 2.76 2.76 0 00-2-2.62c-6.12-1.92-8.85 5.5-10.41 10.13a45.92 45.92 0 00-1.15 24c.7 3.42 5.93 2 5.23-1.44C442 1150.92 441.87 1149.85 441.73 1148.79z"/><path fill="#fffae6" d="M454,1167.28a2.87,2.87,0,0,0-4.68,2.26,2.53,2.53,0,0,0-.3,1.3,17.1,17.1,0,0,0,6.5,13.06c1.32,1,3.33,1.13,4.26-.55C463.32,1177,458.8,1171.28,454,1167.28Z"/><path fill="#fffae6" d="M516.52,1173.37c.29-5.21-4.77-6.92-9-5.23a50.62,50.62,0,0,0-11.18,6.56,71.44,71.44,0,0,0-7.74,4c-2.15,1.28-1.43,5.35,1.37,5.06.11,0,.25,0,.36,0a2.74,2.74,0,0,0,3.5-.08l.1-.08C502.66,1183.36,515.93,1183.8,516.52,1173.37Z"/><path fill="#fffae6" d="M196,1115.78c-4.67-10.25-16.82-25.33-29.08-24.57a20,20,0,0,0-4,.6,46.73,46.73,0,0,0-13.34,5.54c.46-1.48.87-3,1.46-4.44,1.31-3.23-3.93-4.63-5.23-1.44a52.4,52.4,0,0,0-3,10.44c-.22.17-.46.32-.68.49-.57-3.73-1-8.47-3.5-11a4.69,4.69,0,0,0-7.17.32c-2.17,3-.66,6.86.56,9.83,1,2.5,2.16,5,3.39,7.35a32.67,32.67,0,0,0-3.24,4.45c-2.74,4.73-3.29,9.37-5.4,13.23-2.09-2.17-4.17-4.34-6.27-6.5a2.73,2.73,0,0,0-4.53,2.64,35,35,0,0,0,4.59,9.61,18.46,18.46,0,0,1-1.78.87c-5.54,2.12-8.68,2-12.75,6.89-4.61,5.58-8.57,13.94-10.52,22.45-1.69,7.27-1.9,14.64,0,20.61s5.69,11.12,11.33,13.78a30.4,30.4,0,0,0,7.06,1.9,28.79,28.79,0,0,1,16.27,5.1,13.89,13.89,0,0,0,3.09,3.08c28.2,9.39,30.21-42.68,50.17-52.33a2.23,2.23,0,0,0,1.3-2.6C194.51,1142,202.48,1130.21,196,1115.78Z"/><path fill="#fffae6" d="M196,1115.78c-4.67-10.25-16.82-25.33-29.08-24.57a20,20,0,0,0-4,.6s.06.11.11.16c12.48,15,13.78,37.21-.21,52-5.1,5.37-14.75,7.92-16.65,15.73-.82,3.25.27,6.56.86,9.71,2.17,11.76-10.36,14.48-19.79,15.89-9.71,1.46-21.16.38-26.8-9.11-2.44-4.13-3.2-9.06-4.93-13.62-1.69,7.27-1.9,14.64,0,20.61s5.69,11.12,11.33,13.78a30.4,30.4,0,0,0,7.06,1.9,28.79,28.79,0,0,1,16.27,5.1,13.89,13.89,0,0,0,3.09,3.08c28.2,9.39,30.21-42.68,50.17-52.33a2.23,2.23,0,0,0,1.3-2.6C194.51,1142,202.48,1130.21,196,1115.78Z"/><path fill="#fffae6" d="M132.09 1177.91a2.17 2.17 0 00-2.12-1.34 3 3 0 00-4 2.42 40.39 40.39 0 001 14.69c.56 2.18 3.9 2.74 5 .64A18.18 18.18 0 00132.09 1177.91zM145.23 1172.17a2.16 2.16 0 00-2.67-.05c-2-1.21-5.17 1.11-3.74 3.71a23.55 23.55 0 009.63 9.52 2.75 2.75 0 004-3.07A18.24 18.24 0 00145.23 1172.17zM180.83 1123.85a29.32 29.32 0 00-9.21-1.76 49 49 0 009.06-7.11 2.75 2.75 0 00-1.92-4.63 16.21 16.21 0 00-15.29 9.48 3 3 0 002.52 4.11 3.83 3.83 0 00.7.23 2.69 2.69 0 00.49 2.61c2.19 2.67 4.95 5.49 8.67 5.5a6.8 6.8 0 006.88-5.1A2.8 2.8 0 00180.83 1123.85z"/><path fill="#fffae6" d="M124.46 1152.1a9.71 9.71 0 00-6.41.57c-2.4.22-4.82.79-6.58 2.55a6.16 6.16 0 00-.85 7.52c4.38 7.29 11.86-3 15-6.1A2.74 2.74 0 00124.46 1152.1zM145.42 1114.58c-1.61-2.35-4.72-1.28-5.06 1.37a57.14 57.14 0 00.29 15.78c.4 2.65 3.56 2.38 4.77.57a2.28 2.28 0 001.1-1.11A16.41 16.41 0 00145.42 1114.58z"/><path fill="#fffae6" d="M144.72 1144.8c-.31-.91-.61-1.81-.91-2.71-1.1-3.3-6.34-1.89-5.23 1.44l.9 2.71C140.59 1149.53 145.82 1148.13 144.72 1144.8zM583.69 911.71a11.57 11.57 0 004-2.71c6.46-7.61-1.49-13.47-7.24-17.53l-21.64-15.29c-6.36-7.83-12.76-15.22-18.51-21.93 7.81-14.42 10-28.12 8.28-40.83a32.71 32.71 0 003.81-28.54c-2.61-7.94-14.27-5.38-13.89 1.86a94.71 94.71 0 00-11.38-14.52c4-3.43 6.92-10.25 7.89-13.93a2.75 2.75 0 00-1.89-3.34c-3.94-.83-6.8 1.26-9.29 4.16-.23.27-.44.55-.68.82a19.72 19.72 0 00-1.6 2c-.76.92-1.51 1.84-2.26 2.77-17.11-15.07-39.24-26.44-60.07-32.87-1-.32-2-.65-3-1A25.43 25.43 0 00459.11 712a2.74 2.74 0 00-4.53-1.2 27.42 27.42 0 00-7.63 12 57.15 57.15 0 00-5.61-13.9 6.53 6.53 0 00-2.74-2.65 67.24 67.24 0 00-5.31-7c-1.26-1.44-3.3-.74-4.26.55a20.41 20.41 0 00-4.16 12.86c-.17 1.25-.32 2.49-.49 3.74-9.1-5.83-17.42-13-26.82-22.79A118.4 118.4 0 00385.78 683c5.6-3.79-.82-16.66-2.68-20.92-.88-2-3.67-1.5-4.68 0A26.06 26.06 0 00374 674.88a102.52 102.52 0 00-16.88-8c-26.45-9.85-55.05-8.87-81.78-1.1a5.8 5.8 0 00-1.57-5.63c-2.55-2.52-5.16-.4-6.53 2s-2.84 5.14-4.24 7.72c-3.25 1.23-6.48 2.52-9.65 3.93a198.58 198.58 0 01-32.83 11.48 53.47 53.47 0 002.11-7.3c.52-2.7 1.57-6.93-1.32-8.71-2.74-1.69-6.38.81-8.54 2.49-5.43 4.26-8 10.44-9.6 16.91a210.58 210.58 0 01-22.55 2 184.76 184.76 0 00-23.85 2.55c2.31-6.11 2.33-14.63-3.85-18.09-7.12-4-14.66 4.8-19 9.32A85.64 85.64 0 00120.5 703.3a178.19 178.19 0 00-44.88 25.5c-3 2.36-5.6 4.37-8.25 6.39a55.54 55.54 0 00-26.26-16.93c-8.19-2.41-11.86 9.24-5.2 12.91A63.43 63.43 0 0050.56 745.9c-9.22 4.11-19.28 5.16-34 1.47-52-12.84-85.41 2.28-108.2 33.6a26.54 26.54 0 00-1.26-4.77c-.74-2-3.84-2.92-5-.64a27 27 0 00-2.44 7.85 33.18 33.18 0 00-5.48-5.51 2.53 2.53 0 00-.55-.44c-.28-.22-.52-.45-.81-.65a2.46 2.46 0 00-2.76.1c-4.48 2-6.6 6.08-7.3 10.89-3.83 11.76-1.87 23.65 4.13 34-1.15 3-2.23 6.15-3.3 9.28a35.68 35.68 0 00-18.09-7.27 2.12 2.12 0 00-2.47 1.65 2.51 2.51 0 00-.23 2.95 24.58 24.58 0 0017.68 11.33l.24.15c-.66 2.15-1.36 4.25-2 6.45a1.52 1.52 0 01-.7.14c-26.79 12.19-37.85 27.07-33.46 57.13 2.41 16.3 3.83 34.73 11.2 49.19-10.55 10.31-19.8 21.1-25.81 33.37-.31-.25-.64-.5-1-.74-.83-3.11-3.75-4.58-6.79-4.35-6.06-1.48-10.81 6.27-7.1 11.12-.18 7.62.93 15.39 4.43 21.78l-13.65-1.33c-2.56-.25-3.28 3-1.92 4.63a27.22 27.22 0 0020.2 9.65 87.51 87.51 0 0011.19 30.78 111.2 111.2 0 0043.8 42c31.19 16.43 64.64 10.77 98 4.67 28.35-5.1 48.91-25.23 58.4-51.32 21.41 12.19 46.64 3.55 57.27-17.86 23 5.11 45.23-2 61.24-20.13 12.05-13.61 13.05-26.22 18.72-42.67 5.67-16.16 1-11.05 16.44-12.9 8.08-1.13 16-.85 24-2.26 20.41-3.55 34.73-12.62 53.16-20.42 10.63-4.39 25.8-14.74 38.56-5.39 3.69 2.69 6.94 13 9.78 17a84.27 84.27 0 0032.61 26.37c20.13 9.21 44.51 3.12 61.52 17.3 25.52 21.26 43 47.63 79.67 49.61 20.7 1.14 34.45-5.24 46.21-16.59a141.82 141.82 0 0015.46-18.85c16.16-23.1 48-21.83 46.07-56.7C595.49 937 590.63 924.18 583.69 911.71z"/><path fill="#fffae6" d="M503.3 1041c12.86-1.93 22.66-7.58 31.34-16a31.07 31.07 0 00-7.93-12.61c-8.93-8.93-22.12-10.63-33.46-14.46-36.43-12.62-37.85-46.07-36.72-79.24.14-5-4.68-7.66-8.93-7a121.2 121.2 0 01-54.43-1.56c-1-.85-2.13-1.56-3.12-2.55-5.25-5.25-2.27-10.91-2.7-17.44V890a1.09 1.09 0 00-.14-.57v-.14a5.15 5.15 0 00-2.55-4.68c-4.25-3.68-12.33-2.13-11.62 4.82a1.82 1.82 0 01.14.85c-.45 4.5-3.68 6.48-7.81 7.18-4.29-1.43-7.78-4.72-11.06-8.21-3.06-3.27-4.74-6.12-5.18-10.72-.27-2.92-.18-5.58-.86-8.44a2.42 2.42 0 00-1.57-1.63 2.8 2.8 0 00-5.09-1.31 16.1 16.1 0 00-2.05 13.62c-1-1-2.09-1.94-3.1-3-6.38-6.53-11.06-15.59-19.14-20.42-17-10.34-34.87-11.48-48.91-28.49-2.4-3-7.51-2.55-9.91 0-9.36 9.07-20.28 19.28-32.33 28.21-8.08 0-15.59-2.12-19.56-9.35-4.25-7.66-15.17-1.57-12.62 5.81a5.78 5.78 0 002.13 5.53c11.06 9.21-8.93 17.71-15.6 19.56a5.48 5.48 0 00-2.83 1.56c-16.73 2.41-33.46-1.56-48.62-16.87a7.28 7.28 0 00-10.07 0c-19.14 16.3-18.15 38.84-31.61 57.27-10.49 8.36-48.63-2.69-44.23 5.25A31.62 31.62 0 0057.05 938.6a86.84 86.84 0 00-14.74 5.25C21.89 954.06 13.81 971.07-13.83 957a44 44 0 01-9.35-13c-3.83-8.22-16.17-1-12.34 7.23a61.15 61.15 0 009.36 13.89c2 37.85 1 79.95-38.28 99.38-32.89 16.16-68.47 7.37-100.22-6.8a111.2 111.2 0 0043.8 42c23.13 12.19 47.5 12.2 72.14 8.92a42.6 42.6 0 00-2.47 5.29c-.9 2.43 1.75 3.83 3.67 3.06a2.69 2.69 0 002.8.28A27.88 27.88 0 00-32.5 1106q4.8-.84 9.6-1.72a72.58 72.58 0 0031.55-13.9c1.12 2.5 2.95 4.27 6 3.8a4 4 0 001.86-.81 2.65 2.65 0 002.63-2.58c.15-3.36.07-6.7-.1-10A85.25 85.25 0 0035.5 1053c21.41 12.19 46.64 3.55 57.27-17.86a64.87 64.87 0 0019.33 1.31 16.86 16.86 0 001.15 5.44 2.85 2.85 0 003 1.82 2.21 2.21 0 003.38-.24 25.86 25.86 0 004.84-9.29A63.27 63.27 0 00154 1015c12.05-13.61 13.05-26.22 18.72-42.67 5.67-16.16 1-11.05 16.44-12.9 8.08-1.13 16-.85 24-2.26a116.86 116.86 0 0027.5-8.7 38.67 38.67 0 009.57 4.12 2.75 2.75 0 003.43-2.62 5.66 5.66 0 00-2.74-5 9.33 9.33 0 00-1.34-.58l7.58-3.55a28.16 28.16 0 001.26 2.67c1.2 2.24 4.17 1.39 5-.64a19.06 19.06 0 001.16-5.33c.61-.26 1.17-.53 1.78-.79 10.63-4.39 25.8-14.74 38.56-5.39 3.69 2.69 6.94 13 9.78 17a84.46 84.46 0 0028.44 24.14 80.85 80.85 0 009.59 14.87c1.2 1.48 4.26.76 4.52-1.19a23.07 23.07 0 00-.33-8.17c7.5 1.89 15.31 2.56 22.91 3.57a14.06 14.06 0 004.33 11.54c1.41 1.32 4.1.88 4.54-1.19a26.59 26.59 0 00.36-8.79c7.14 1.53 13.9 4 19.77 8.89 25.23 21 42.59 47 78.48 49.5a48.44 48.44 0 0017.74 7.17c2.38.43 4.95-2.65 2.64-4.53A51.81 51.81 0 00503.3 1041zM125.41 791.21c1.28-7.82-11.11-10.87-13.8-2.63a57.06 57.06 0 00-2.67 22.77c.54 6.34 9.85 10.47 13.2 3.58A36.64 36.64 0 00125.41 791.21z"/><path fill="#fffae6" d="M301 842.1a2.26 2.26 0 00-1.42-1.11l0-.11c1.09-3.32-4.15-4.75-5.23-1.44-2.39 7.3-3.61 16.41 1.23 22.4a2.89 2.89 0 00.31.37 14 14 0 004.19 3.38c1.39.72 3.7.21 4-1.63A36.69 36.69 0 00301 842.1zM240.32 840.13a2.78 2.78 0 00-3.57 3.8 20.64 20.64 0 0011.84 10c2.09.71 3.73-1.45 3.34-3.34A13.34 13.34 0 00240.32 840.13zM208.14 871.44a69 69 0 00-17.58-16.63c-2.93-1.92-5.65 2.77-2.74 4.69a60.31 60.31 0 017.06 5.45c-.32-.1-.63-.23-1-.32-.14 0-.24 0-.36 0-1.57-.33-3.29.47-3.08 2.48.05.48 0 1 .08 1.43a2.7 2.7 0 00-2.1.78c0-.26 0-.5 0-.75-.06-3.14-4.33-3.57-5.33-.72-3.3 9.45-2.89 20.34 6.2 26.29a2.75 2.75 0 004-1.62 61.35 61.35 0 002.95-18.4 13.68 13.68 0 0010.29 1.29C208.06 875 209.21 872.88 208.14 871.44zM62.78 940a133.59 133.59 0 00-22.53-7.09c-3.1-.68-4.54 3.56-2.19 4.9a2.77 2.77 0 00-.24 4.78 26.2 26.2 0 0025 2.64A2.74 2.74 0 0062.78 940zM83.64 933.53a50.87 50.87 0 00-10-14.43 2.66 2.66 0 00-4.41 1.12c-2.11-2.64-6.73 0-4.63 2.78a60 60 0 0015.39 14.24C82.42 938.82 84.7 935.8 83.64 933.53zM417.81 910.34c-.42-2-2.81-3.48-4.36-1.49-4.86 6.24-9.95 15.26-2.95 22a2.75 2.75 0 004.53-1.2 78.21 78.21 0 004.25-16.42A2.82 2.82 0 00417.81 910.34zM461.33 948.69a2.14 2.14 0 00-2.13-1c-3.6.32-7.14 1.74-8.95 5.07A8 8 0 00451.5 962a2.75 2.75 0 003.84 0 48.22 48.22 0 007.37-9.58A2.57 2.57 0 00461.33 948.69zM489.84 988.74a2.53 2.53 0 00-2.55-1.21 130.31 130.31 0 01-2.23-13.32c-.39-3.43-5.82-3.47-5.43 0a120.09 120.09 0 004.54 23.08c1.42 4.46 3.29 7.91 7.73 9.77a2.72 2.72 0 003.43-2.62A36.61 36.61 0 00489.84 988.74z"/><path fill="#fffae6" d="M219.22 758.31c-.58-3.92-2.7-15.87-7.95-16.59s-6.54 8.43-7 11.75A33 33 0 00209.25 775a1.63 1.63 0 00.25.27c.07.6.12 1.19.19 1.78.32 2.67 3.43 3.71 5.05 1.37A27.66 27.66 0 00219.22 758.31zM273.52 736.76a2.75 2.75 0 00-3.43-2.61A30 30 0 00248.42 753c-.24.32-.51.6-.74.92a2.11 2.11 0 00-.14 2.29 2.77 2.77 0 004.28 1.79A21.15 21.15 0 00273.52 736.76zM343.34 789.74c-1.17-1.87-3.46-1.6-4.68 0a27 27 0 00-4.6 23.78 2.71 2.71 0 00.39.8 12.69 12.69 0 004.72 8.47c1.5 1.15 3.45-.18 4-1.63C346.91 810.81 349.54 799.7 343.34 789.74zM418.79 739.93c-5.65 0-13.37.61-18.73 2.71a15 15 0 00-8.86 8.55 6.53 6.53 0 00-2.36 5.91c1.63 11.61 22.43-.6 27.06-3.07 3.41-1.81 7.11-4.34 7.87-8.4C424.49 741.74 422.39 740 418.79 739.93zM477.18 809.23a44.88 44.88 0 00-24.85-5.6c-4.36.3-6 4.71-4.86 7.82a4.47 4.47 0 001.84 3.11c7.59 6 17.37 8.18 26.57 4.58C480 817.56 481.61 811.66 477.18 809.23zM501 882.22c-5.2-3-8.78 2.34-10.32 6.47a41.87 41.87 0 00-2.49 13.66c-.14 5.46 6.4 6.59 9.37 3.52a4.3 4.3 0 001.83-1.24A20.85 20.85 0 00504.44 894C505 890 504.94 884.53 501 882.22z"/><path fill="#fffae6" d="M538.35,932.75a17.18,17.18,0,0,0-14.1-6,5.55,5.55,0,0,0-5.42,5.42,5.28,5.28,0,0,0,.34,1.65c0,.13-.15.23-.18.36a5.53,5.53,0,0,0,3.78,6.67,26.84,26.84,0,0,0,13.19.93C540.37,941.14,540.66,935.51,538.35,932.75Z"/><path fill="#fffae6" d="M480.29 1161a396 396 0 01-92.84 12.58c6-7.62 9.11-39.08 4.47-31.22a200.09 200.09 0 01-38.61 47.1c3-9.12-12.51-34.13-11.26-25.19 2.2 15.62-4 30.52-15.52 41-1.95 1.77-27.51 14.12-41.88 19 1-8.86 1.23-11.81 2-20.77 4.08-47.18-2-92.51-4.35-139.49-2.67-53 12.57-110.09 16.64-170.2.61-9.07-36.24 131.41-40.53 188.83a180.88 180.88 0 00-10.62-29.23c-7.74-16.53-17.67-31.73-28.72-46.13.33-.79-15.07-77.38-14.48-68.26 1.13 17.26 1.35 34.51 1.09 51.77-12.22-14.28-54.55-37.86-48.21-31.29 34.31 35.55 70.66 73 85.85 121.24 8 25.53 10.17 52.83 9.67 80.16-31.44-.66-57.56-3.59-93.38-23.35a140 140 0 0092.95 37.5c-.87 17.86-2.66 35.61-4.57 52.75-9.79 88.14-11.58 236.23-11 328.09-1.43 3.59-.42 8.05 4.43 9.1a161.69 161.69 0 0041 3.85c4.35-.13 7.45-4.25 6.84-9-10.89-83.78-16.62-229.61-7-314.06A213.62 213.62 0 00375.92 1187a6.66 6.66 0 003.41.94C414.88 1188 489.14 1158.67 480.29 1161zM1181.32 1461.06a2.61 2.61 0 00-1.53-2.09c-4.68-1.81-11.93-1.37-16.59.25-5.91 2-8.9 7-11.48 12.37l0 .13a97.12 97.12 0 00-9 4.67 33.88 33.88 0 001.48-10.2c0-3.46-.56-13.6-6.55-12.16-4.46 1.08-7.82 10.77-9 14.57a20.83 20.83 0 001.5 16.49 119.2 119.2 0 00-14.5 14 33.45 33.45 0 000-9.27c-.48-3.43-2.23-13.43-8-11.26-4.3 1.61-6.43 11.64-7.09 15.56-1.05 6.31.22 12.37 4.36 17.28a2.61 2.61 0 00-.31 2c-3.15 4.64-6.09 9.46-8.81 14.42-.16.29-.3.57-.46.85a33.79 33.79 0 00-2.14-10.09c-1.24-3.24-5.22-12.58-10.34-9.17-3.82 2.54-3.62 12.8-3.37 16.75.4 6.39 3 12 8.16 15.85a2.88 2.88 0 000 1.54c-1.92 3.93-3.75 7.84-5.54 11.84a34.34 34.34 0 00-3.15-7.59c-1.1-1.93-3.7-6.16-6.61-7.87-.68-5.18-9.31-5-14-3.77a38.28 38.28 0 00-12.17 5.71q2.49-11.52 5.24-23c10.13-.08 30.6-6.16 30.88-14.05.21-6.07-9.11-5.94-14.1-4.63a38.57 38.57 0 00-13.85 7q2.43-9.37 5.16-18.64c10.69.69 28.74-2.38 30.09-9.52 1.12-6-8.12-7.24-13.24-6.69a37.89 37.89 0 00-13 3.88 194.06 194.06 0 017.75-19.4c10.28 3 28.38 4.07 31.29-2.55 2.46-5.56-6.25-8.87-11.37-9.5a38.56 38.56 0 00-14.17 1 116.81 116.81 0 0113-18.36c9 4.78 29.71 9.22 33.75 2.46 3.12-5.22-5.11-9.58-10.11-10.83a38.82 38.82 0 00-14.71-.66 94.32 94.32 0 0111.87-9 2 2 0 00.63.16c5.93.26 13.79-.24 18.54-4.24 3.73-3.14 5.46-9.79 4.25-14.47a2.57 2.57 0 00-1.83-1.82c-4.91-1.07-12 .48-16.35 2.78-5.52 2.93-7.71 8.33-9.44 14a.59.59 0 000 .13 98 98 0 00-8.13 6 34 34 0 00-.11-10.31c-.59-3.42-2.65-13.36-8.35-11-4.24 1.74-6.06 11.83-6.59 15.77a20.75 20.75 0 004 16.06 118.2 118.2 0 00-12.17 16.07 33.76 33.76 0 00-1.4-9.16c-1-3.32-4.28-12.93-9.65-9.91-4 2.25-4.56 12.49-4.6 16.46-.07 6.4 2.12 12.19 7 16.41a2.67 2.67 0 000 2q-3.59 7.62-6.47 15.6c-.11.31-.2.63-.32.94a33.62 33.62 0 00-3.67-9.67c-1.73-3-7.1-11.63-11.64-7.47-3.38 3.09-1.6 13.19-.74 17.06 1.38 6.26 4.83 11.41 10.51 14.42a2.78 2.78 0 00.27 1.68q-1.91 6.22-3.64 12.53a34.11 34.11 0 00-4.35-7.15c-2.17-2.72-8.78-10.44-12.64-5.65-2.88 3.56.4 13.29 1.84 17a20.91 20.91 0 0011 12q-2.62 10.81-4.93 21.71a34 34 0 00-5.12-9.11l-1-1.18a7.06 7.06 0 00-1.11-4.46c-1.48-1.85-3.38-1.83-5.27-1-1.89-.87-3.79-.89-5.27 1a7.06 7.06 0 00-1.11 4.46c-.38.45-.72.85-1 1.18a33.74 33.74 0 00-5.12 9.11q-2.31-10.89-4.92-21.71a21 21 0 0011-12c1.43-3.7 4.7-13.43 1.83-17-3.86-4.79-10.48 2.93-12.63 5.65a33.74 33.74 0 00-4.36 7.15q-1.73-6.3-3.64-12.53a2.78 2.78 0 00.27-1.68c5.68-3 9.13-8.16 10.51-14.42.86-3.87 2.64-14-.74-17.06-4.54-4.16-9.91 4.46-11.64 7.47a34.24 34.24 0 00-3.68 9.67c-.1-.31-.2-.63-.31-.94q-2.88-8-6.48-15.6a2.67 2.67 0 000-2c4.85-4.22 7-10 7-16.41 0-4-.6-14.21-4.6-16.46-5.37-3-8.64 6.59-9.65 9.91a34.16 34.16 0 00-1.4 9.16 118.2 118.2 0 00-12.17-16.07 20.8 20.8 0 004-16.06c-.54-3.94-2.36-14-6.6-15.77-5.7-2.35-7.77 7.59-8.35 11a33.67 33.67 0 00-.11 10.31 98 98 0 00-8.13-6 .59.59 0 000-.13c-1.73-5.66-3.91-11.06-9.44-14-4.36-2.3-11.44-3.85-16.35-2.78a2.57 2.57 0 00-1.83 1.82c-1.21 4.68.53 11.33 4.25 14.47 4.75 4 12.62 4.5 18.54 4.24a2 2 0 00.63-.16 93.6 93.6 0 0111.87 9 38.82 38.82 0 00-14.71.66c-5 1.25-13.24 5.61-10.11 10.83 4 6.76 24.79 2.32 33.76-2.46a117.41 117.41 0 0113 18.36 38.54 38.54 0 00-14.17-1c-5.12.63-13.83 3.94-11.37 9.5 2.91 6.62 21 5.58 31.29 2.55a191.62 191.62 0 017.74 19.4 37.77 37.77 0 00-13-3.88c-5.12-.55-14.36.71-13.23 6.69 1.34 7.14 19.4 10.21 30.08 9.52q2.71 9.27 5.16 18.64a38.49 38.49 0 00-13.85-7c-5-1.31-14.31-1.44-14.1 4.63.28 7.89 20.75 14 30.88 14.05q2.76 11.46 5.24 23a38.28 38.28 0 00-12.17-5.71c-4.52-1.19-12.57-1.39-13.89 3.1-4-.7-8.13 6-9.6 8.54a33.83 33.83 0 00-3.14 7.59c-1.79-4-3.62-7.91-5.55-11.84a2.88 2.88 0 000-1.54c5.15-3.85 7.76-9.46 8.17-15.85.25-4 .45-14.21-3.37-16.75-5.13-3.41-9.11 5.93-10.35 9.17a33.79 33.79 0 00-2.14 10.09l-.45-.85c-2.73-5-5.66-9.78-8.81-14.42a2.7 2.7 0 00-.31-2c4.13-4.91 5.41-11 4.35-17.28-.66-3.92-2.79-14-7.09-15.56-5.76-2.17-7.52 7.83-8 11.26a34.24 34.24 0 000 9.27 119.2 119.2 0 00-14.5-14 20.78 20.78 0 001.5-16.49c-1.13-3.8-4.49-13.49-8.95-14.57-6-1.44-6.5 8.7-6.55 12.16a33.88 33.88 0 001.48 10.2 97.12 97.12 0 00-8.95-4.67s0-.08 0-.13c-2.59-5.33-5.58-10.33-11.49-12.37-4.66-1.62-11.9-2.06-16.59-.25a2.61 2.61 0 00-1.53 2.09c-.47 4.8 2.27 11.11 6.44 13.64 5.31 3.23 13.16 2.51 19 1.35a2.14 2.14 0 00.6-.26 92.59 92.59 0 0113.12 7.08 38.28 38.28 0 00-14.43 2.9c-4.75 2-12.22 7.56-8.33 12.24 5 6.07 24.86-1.5 33-7.6a117.81 117.81 0 0115.66 16.15 38.35 38.35 0 00-14.16 1.17c-5 1.4-13.06 6-9.78 11.14 3.91 6.08 21.63 2.29 31.32-2.28a191.22 191.22 0 0110.65 18 38.44 38.44 0 00-13.43-1.84c-5.15.24-14.08 2.91-12 8.64 2.44 6.86 20.79 7.11 31.23 4.8 2.93 6.19 5.4 11.71 7.92 17.6a38.85 38.85 0 00-14.74-4.73c-5.13-.53-14.36.77-13.21 6.74 1.5 7.76 22.73 10.63 32.73 9.13 1.45 1.87 5.27-.06 4.9-2.39-.21-.54-.42-1-.64-1.58a20.9 20.9 0 009-13.55 48.58 48.58 0 001.18-10.55c6.06 4.38 17.28 7.46 24.77 8 .66 3.2 1.32 6.38 2 9.57a38.26 38.26 0 00-12.5-6c-5-1.31-14.32-1.44-14.1 4.64.27 7.55 19.1 13.47 29.59 14A2.73 2.73 0 001024 1576a51.2 51.2 0 005.16-4.29 51.2 51.2 0 005.16 4.29 2.73 2.73 0 004.19 1.06c10.48-.54 29.32-6.46 29.59-14a5.78 5.78 0 00-.08-1.13 19.82 19.82 0 007.54 9c-.21.53-.42 1-.65 1.58-.36 2.33 3.47 4.26 4.91 2.39 10 1.5 31.24-1.37 32.73-9.13 1.15-6-8.08-7.27-13.21-6.74a38.85 38.85 0 00-14.74 4.73c2.52-5.89 5-11.41 7.92-17.6 10.44 2.31 28.79 2.06 31.23-4.8 2-5.73-6.9-8.4-12-8.64a38.47 38.47 0 00-13.43 1.84 191.22 191.22 0 0110.65-18c9.69 4.57 27.41 8.36 31.32 2.28 3.28-5.12-4.81-9.74-9.77-11.14a38.37 38.37 0 00-14.16-1.17 117.15 117.15 0 0115.65-16.15c8.12 6.1 27.94 13.67 33 7.6 3.89-4.68-3.58-10.24-8.33-12.24a38.27 38.27 0 00-14.42-2.9 92.48 92.48 0 0113.11-7.08 2.14 2.14 0 00.6.26c5.81 1.16 13.66 1.88 19-1.35C1179.05 1472.17 1181.79 1465.86 1181.32 1461.06zm-152.8 85.4c.22-.24.45-.48.65-.74.2.26.43.5.65.74l-.65.62zM1054 1558.4a38.51 38.51 0 00-12.51 6c.65-3.19 1.31-6.37 2-9.57a60 60 0 0021.93-6.19 52.53 52.53 0 001.18 8.78 24.9 24.9 0 001 3.28C1065.53 1557 1058.23 1557.29 1054 1558.4z"/><path fill="#fffae6" d="M476.58,906.25c11.19,50.13,40.54,85.14,87.15,112.52,29.82,17.53,66.67,31.9,110.3,45.19,3,.89,24.76.6,28.87-.15,127.8-23.89,191.26-133.48,199.48-228.94,3.92-46.51-3.88-93.58-22.21-137.88-17-41.13-43.1-79.91-77.21-113.69C774,554.7,722.6,504.89,669.27,516.77c-27.32,6.08-46.08,26.48-62.57,43.3a590,590,0,0,0-51.48,59.6C491,705.29,454.26,806.73,476.58,906.25Z"/><path fill="#fffae6" d="M563.73,1018.77c29.82,17.53,66.67,31.9,110.3,45.19,3,.89,24.76.6,28.87-.15,127.8-23.89,191.26-133.48,199.48-228.94,3.92-46.51-3.88-93.58-22.21-137.88,2.5,37.89-4.41,77.51-12.44,114.5-8.52,39.3-23.28,78.41-53.75,110.73-30.72,32.61-76.61,52.11-122.45,68.7C650.58,1005.72,608.13,1016.41,563.73,1018.77Z"/><path fill="#fffae6" d="M869.6 826.57a3 3 0 001.34 1.36 4.07 4.07 0 004.28 1.87c13.69-1.77 27.24-3.22 36.25-12.48 11-11.3 9.8-27.18 10.28-40.62.08-2.26-3-4.39-5.83-3.14C892.7 784 857.83 801.46 869.6 826.57zM835.48 702.68a3.48 3.48 0 001.7 1.09 4.43 4.43 0 004.71 1c12.81-4.19 25.58-8 31.69-18.7 7.46-13 1.7-28.23-1.71-41.4-.57-2.21-4.2-3.73-6.57-2C845.68 657 816.79 680.36 835.48 702.68zM800.27 639.57a3.53 3.53 0 001.7 1.08 4.43 4.43 0 004.71 1c12.81-4.19 25.58-8.05 31.69-18.7 7.46-13 1.7-28.22-1.71-41.39-.57-2.22-4.21-3.74-6.57-2C810.47 593.9 781.57 617.24 800.27 639.57zM762.54 608a3.46 3.46 0 001.7 1.08 4.44 4.44 0 004.71 1c12.81-4.2 25.58-8.06 31.69-18.7 7.46-13 1.7-28.23-1.71-41.4-.57-2.22-4.21-3.73-6.57-2C772.74 562.34 743.84 585.69 762.54 608zM720.5 568.66a3.67 3.67 0 001.86.9 4.55 4.55 0 004.83.56c12-5.46 24.07-10.6 28.4-21.77 5.28-13.65-2.91-28.17-8.43-40.88-.93-2.14-4.78-3.28-6.85-1.32C723.19 522.34 698.33 548.43 720.5 568.66zM512.93 642.71c-2.36-1.73-6-.21-6.57 2-3.41 13.17-9.17 28.41-1.71 41.4 6.11 10.65 18.88 14.51 31.69 18.7a4.42 4.42 0 004.71-1 3.48 3.48 0 001.7-1.09C561.45 680.36 532.54 657 512.93 642.71z"/><path fill="#fffae6" d="M548.15,603.15c-2.38-1.73-6-.21-6.58,2-3.41,13.18-9.17,28.41-1.71,41.4,6.11,10.65,18.88,14.51,31.69,18.71a4.44,4.44,0,0,0,4.71-1,3.48,3.48,0,0,0,1.7-1.09C596.66,640.8,567.76,617.46,548.15,603.15Z"/><path fill="#fffae6" d="M585.88 548c-2.37-1.72-6-.21-6.58 2-3.41 13.17-9.17 28.4-1.71 41.4 6.11 10.64 18.88 14.5 31.7 18.7a4.43 4.43 0 004.7-1 3.46 3.46 0 001.7-1.08C634.39 585.69 605.49 562.34 585.88 548zM637.92 506.15c-2.07-2-5.92-.82-6.84 1.32-5.53 12.71-13.72 27.23-8.43 40.88C627 559.52 639 564.66 651 570.12a4.57 4.57 0 004.84-.56 3.67 3.67 0 001.86-.9C679.91 548.43 655 522.34 637.92 506.15zM680.06 537.77a4.07 4.07 0 002 .61 4.63 4.63 0 004.89-.16c10.53-7.13 21.16-13.94 22.8-25.56 2-14.19-9.45-27.25-17.86-38.94-1.41-2-5.46-2.51-7-.29C671.86 491.85 653.54 521.14 680.06 537.77zM867.29 863.34a2.27 2.27 0 00.32 1.71c-.15 1.33.55 2.7 2.58 3.29 13 3.77 25.72 7.76 39.32 3.2 16.6-5.58 25.37-19.89 34.12-31.41 1.47-1.94.09-5-3.13-5C913.83 835.17 872.59 836.89 867.29 863.34z"/><path fill="#fffae6" d="M791,919.11a2.31,2.31,0,0,0,.33,1.71c-.16,1.32.54,2.7,2.57,3.29,13,3.77,25.73,7.77,39.32,3.2,16.6-5.58,25.37-19.89,34.12-31.41,1.48-1.94.09-5-3.13-5C837.54,890.94,796.3,892.66,791,919.11Z"/><path fill="#fffae6" d="M734.92 940.63a2.45 2.45 0 00-.69 1.65 2.56 2.56 0 00.42 3.85c9.45 8 18.49 16.14 33.23 16.94 18 1 34-8.64 48.38-15.79 2.42-1.2 2.94-4.42.07-5.57C792.52 932.18 754.77 919 734.92 940.63zM673.56 975.72a2.41 2.41 0 00-.69 1.65 2.56 2.56 0 00.41 3.85c9.46 8 18.5 16.14 33.23 16.94 18 1 34-8.64 48.39-15.78 2.43-1.21 2.94-4.43.07-5.58C731.16 967.28 693.41 954 673.56 975.72z"/><path fill="#fffae6" d="M819,864.75a2.49,2.49,0,0,0,.77,1.62c.2,1.32,1.25,2.55,3.39,2.79,13.73,1.51,27.21,3.3,39.29-3.43,14.75-8.22,19.52-23.66,25-36.39.93-2.14-1.23-4.9-4.38-4.36C857,829.46,817.18,838,819,864.75Z"/><path fill="#fffae6" d="M732.12 1033.82a2.18 2.18 0 00-.91 1.13 2 2 0 00-.6 2.94c5.17 7.39 10 14.79 20.83 17.56 13.21 3.39 27.43-1.42 39.87-4.63 2.09-.54 3.24-2.87 1.37-4.15C777.14 1036 752.06 1020.56 732.12 1033.82zM852.93 936.44a2.57 2.57 0 00.86 1.58c.28 1.31 1.41 2.5 3.56 2.66 13.8 1 27.38 2.28 39-4.89 14.24-8.76 18.09-24.36 22.81-37.28.8-2.17-1.53-4.85-4.64-4.19C888.79 899.76 849.49 909.79 852.93 936.44z"/><path fill="#fffae6" d="M476.22 711.26c-2.81-1.26-5.91.88-5.83 3.14.49 13.44-.74 29.31 10.28 40.61 9 9.26 22.57 10.72 36.24 12.49a4.07 4.07 0 004.28-1.87 3 3 0 001.35-1.37C534.3 739.15 499.43 721.65 476.22 711.26zM428 767.54c-3.22 0-4.6 3.06-3.13 5 8.75 11.53 17.52 25.83 34.12 31.41 13.6 4.57 26.3.57 39.32-3.19 2-.6 2.73-2 2.58-3.29a2.32 2.32 0 00.32-1.71C495.9 769.3 454.66 767.58 428 767.54z"/><path fill="#fffae6" d="M444.4 939.53c-3.16.49-3.76 3.71-1.84 5.39 11.41 10 23.52 22.64 41.18 25.56 14.46 2.38 25.94-3.49 37.79-9.19 1.84-.89 2.19-2.35 1.71-3.62a2.25 2.25 0 00-.1-1.73C511.45 930.81 470.57 935.47 444.4 939.53zM510.74 992.72c-3.16.49-3.77 3.71-1.84 5.38 11.41 10 23.52 22.64 41.18 25.57 14.46 2.38 25.94-3.5 37.78-9.19 1.85-.89 2.2-2.36 1.72-3.63a2.25 2.25 0 00-.1-1.73C577.79 984 536.91 988.65 510.74 992.72z"/><path fill="#fffae6" d="M559.79,1028.52c-3.16.49-3.76,3.71-1.84,5.39,11.41,10,23.53,22.64,41.18,25.56,14.46,2.39,25.94-3.49,37.79-9.19,1.84-.89,2.19-2.35,1.71-3.62a2.2,2.2,0,0,0-.1-1.73C626.84,1019.8,586,1024.46,559.79,1028.52Z"/><path fill="#fffae6" d="M620.54 1062.59c-1.57 1-.7 3 1 3.43 10.12 2.88 21.66 7.11 32.61 4.58 9-2.07 13.19-8 17.65-14a1.63 1.63 0 00-.4-2.43 1.67 1.67 0 00-.7-.94C654.72 1041.92 633.64 1054.15 620.54 1062.59zM740.67 1062.59c1.34 1 .6 3-.84 3.43-8.59 2.88-18.37 7.11-27.67 4.58-7.61-2.07-11.17-8-15-14a1.82 1.82 0 01.35-2.43 1.68 1.68 0 01.59-.94C711.69 1041.92 729.56 1054.15 740.67 1062.59z"/><path fill="#fffae6" d="M453.93,826.73c-3.11-.66-5.44,2-4.64,4.19,4.72,12.92,8.56,28.52,22.81,37.28,11.66,7.18,25.24,5.9,39,4.89,2.15-.16,3.28-1.34,3.55-2.66a2.51,2.51,0,0,0,.87-1.58C519,842.2,479.7,832.18,453.93,826.73Z"/><path fill="#fffae6" d="M453.93 870.69c-3.11-.66-5.44 2-4.64 4.2 4.72 12.91 8.56 28.52 22.81 37.28 11.66 7.17 25.24 5.89 39 4.88 2.15-.16 3.28-1.34 3.55-2.65a2.56 2.56 0 00.87-1.59C519 886.17 479.7 876.14 453.93 870.69zM763.31 1002a2.43 2.43 0 00-.7 1.64 2.57 2.57 0 00.38 3.86c9.39 8.07 18.37 16.23 33.1 17.1 18 1.06 34.06-8.47 48.51-15.53 2.44-1.19 3-4.42.11-5.58C821 993.83 783.34 980.39 763.31 1002z"/><path fill="#fffae6" d="M796.93 980.7a2.24 2.24 0 00-.3 1.71 2.67 2.67 0 001.29 3.73c11.14 6.53 21.9 13.21 36.58 11.87 17.91-1.64 31.44-13.4 43.94-22.49a3 3 0 00-1.22-5.5C851.63 964.09 811.46 956.51 796.93 980.7zM639.2 588.92a2.65 2.65 0 001.33.27 2.89 2.89 0 003.05-.38c5.94-5.07 12-9.94 11.94-17.31 0-9-8.39-16.53-14.72-23.37-1.06-1.15-3.65-1.26-4.44.22C629.88 560.63 621.07 580 639.2 588.92zM540.52 793.53a2.72 2.72 0 001.37 0 2.66 2.66 0 002.81-1c4-6.14 8.18-12.12 5.65-19.21-3.08-8.66-13.69-14.14-22.09-19.39-1.42-.88-4-.45-4.2 1.15C522 768.25 520 788.8 540.52 793.53z"/><path fill="#fffae6" d="M636.51,834.38a2.6,2.6,0,0,0,1.28.41,2.9,2.9,0,0,0,3.08,0c6.8-4.35,13.64-8.49,14.93-15.79,1.58-8.92-5.35-17.31-10.39-24.79-.85-1.26-3.39-1.66-4.43-.28C632.36,805.33,620.16,823.53,636.51,834.38Z"/><path fill="#fffae6" d="M751,735.94a3,3,0,0,0,1.34,1.36,4.07,4.07,0,0,0,4.28,1.87c13.68-1.77,27.23-3.23,36.25-12.48,11-11.31,9.79-27.18,10.27-40.62.08-2.26-3-4.4-5.82-3.14C774.13,693.32,739.26,710.82,751,735.94Z"/><path fill="#fffae6" d="M643.44,712.72a6,6,0,0,0,2.5,0,6.3,6.3,0,0,0,5.45-1.34c9.46-8.91,19.13-17.56,17-28.26-2.54-13.08-19.86-21.86-33.28-30.16-2.26-1.4-7-.89-8,1.46C618.66,674,607.92,704.48,643.44,712.72Z"/><path fill="#fffae6" d="M733.23 611.55a3.71 3.71 0 001.37 1.19 4.84 4.84 0 004 1.85c11.78-.21 23.48-.19 30.12-6.74 8.11-8 4.84-20.69 3.4-31.3-.24-1.78-3.25-3.74-5.54-3C747.62 579.78 719.42 590.63 733.23 611.55zM738 865.29a3.6 3.6 0 001.36 1.19 4.87 4.87 0 004 1.86c11.78-.22 23.47-.19 30.12-6.75 8.1-8 4.84-20.68 3.4-31.29-.24-1.79-3.26-3.75-5.55-3C752.34 833.52 724.13 844.37 738 865.29zM725.44 1064.12c-10.77 16.56-12 34.82-6.17 56.45 3.75 13.84 10.42 29 19.37 46.07.63 1.18 7 7.86 8.42 8.94 43.75 33.48 92.8 24.61 121.87 2.24A102.75 102.75 0 00901 1135c6.56-16 9.83-34.25 9.38-53.67-.4-16.45-1.4-45.43-20.19-58.91-9.63-6.91-20.77-7.41-30.26-8.14a232.51 232.51 0 00-31.6-.45C785.8 1016.16 746.78 1031.22 725.44 1064.12z"/><path fill="#fffae6" d="M719.27 1120.57c3.75 13.84 10.42 29 19.37 46.07.63 1.18 7 7.86 8.42 8.94 43.75 33.48 92.8 24.61 121.87 2.24A102.75 102.75 0 00901 1135c-9.87 10.66-22.95 18.85-35.62 26-13.45 7.6-28.67 13.22-46.55 12.19s-36.79-10.21-54.73-20.13C748.11 1144.16 732.81 1133.76 719.27 1120.57zM870.92 995.57c-.16-1.75-2.09-2.71-3.2-2-6.6 4-14.9 7.79-17.5 16.46-2.13 7.1.91 14.3 3.83 21.65a2.33 2.33 0 002.13 1.62 1.73 1.73 0 001.06.29C873.11 1032.47 872.18 1010.11 870.92 995.57z"/><path fill="#fffae6" d="M801.35 1004.3c-.15-1.76-2.08-2.72-3.2-2-6.6 4-14.9 7.8-17.5 16.46-2.13 7.1.92 14.3 3.83 21.65a2.37 2.37 0 002.14 1.63 1.68 1.68 0 001 .29C803.54 1041.19 802.61 1018.83 801.35 1004.3zM761.64 1012.53c-.66-1.63-2.79-2-3.65-1-5.15 5.74-12 11.81-11.93 20.86 0 7.42 5.06 13.41 10 19.58a2.3 2.3 0 002.51.93 1.73 1.73 0 001.1 0C774.53 1047.17 767.09 1026.06 761.64 1012.53zM906.86 1019.8c1.12-1.37.4-3.41-.86-3.7-7.52-1.75-16.12-4.8-24-.4-6.48 3.61-9.31 10.89-12.34 18.2a2.32 2.32 0 00.4 2.64 1.66 1.66 0 00.55 1C882.71 1047.77 897.63 1031.09 906.86 1019.8zM924.13 1056a2.12 2.12 0 011.48 3.22c-4.84 6-9.77 13.57-18.5 15.33-7.14 1.45-13.6-2.06-20.22-5.46a2.06 2.06 0 01-1.24-2.16 1.64 1.64 0 01-.12-1C889 1050.85 910.35 1053.6 924.13 1056z"/><path fill="#fffae6" d="M917.53,1116.34a2.11,2.11,0,0,1,1.47,3.22c-4.83,6-9.76,13.58-18.49,15.34-7.15,1.44-13.6-2.06-20.22-5.47a2,2,0,0,1-1.24-2.16,1.61,1.61,0,0,1-.12-1C882.4,1111.18,903.75,1113.93,917.53,1116.34Z"/><path fill="#fffae6" d="M810.27,1177.17a2.12,2.12,0,0,1-2,2.91c-7.6-1.15-16.65-1.54-22.59-8.18-4.87-5.43-5.11-12.78-5.53-20.2a2.06,2.06,0,0,1,1.24-2.17,1.57,1.57,0,0,1,.83-.62C796.93,1144.28,805.37,1164.08,810.27,1177.17Z"/><path fill="#fffae6" d="M762.92 1175.73a6.61 6.61 0 00-3.41 2.62c-1.22 7.24-2.64 14.38 2.52 19.87 6.29 6.7 18.2 7.47 28 8.9 1.66.24 3.8-1.17 3.39-2.73C790.05 1191.45 783.58 1171.85 762.92 1175.73zM818.8 1184.89a2.72 2.72 0 00-.87 1.06 2.68 2.68 0 00-1 2.79c2.07 7 3.91 14.09 10.94 16.77 8.6 3.27 19.65-1.24 29.1-4.23 1.59-.51 2.9-2.72 1.85-3.94C850.08 1187.17 835.69 1172.38 818.8 1184.89zM868.13 1166.65a2.56 2.56 0 00-.32 1.18 2.38 2.38 0 00.15 2.63c4.2 4.94 8.21 10 14.85 9.62 8.11-.44 15.42-8 22-13.84 1.1-1 1.36-3.23.08-3.84C894.21 1157.3 877.29 1150.51 868.13 1166.65zM799.2 1071.49a2.7 2.7 0 001.08.71 2.79 2.79 0 002.76.75c6.6-2.27 13.23-4.33 15.27-10.69 2.49-7.77-2.67-17.2-6.25-25.32-.61-1.36-2.82-2.37-3.92-1.38C799 1043.85 785.92 1057.43 799.2 1071.49zM753.33 1103.84a2.82 2.82 0 001.19.5 2.75 2.75 0 002.85.24c6.09-3.41 12.24-6.62 13.11-13.24 1.07-8.08-5.7-16.45-10.67-23.79-.84-1.24-3.21-1.84-4.11-.66C748.23 1076.66 737.75 1092.38 753.33 1103.84z"/><path fill="#fffae6" d="M845.39 1066.56a2.88 2.88 0 00.51 1.19 2.72 2.72 0 001.87 2.15c6.74 1.82 13.39 3.8 18.63-.32 6.41-5 7.4-15.76 9-24.5.27-1.47-1-3.55-2.48-3.33C860.7 1043.53 842.23 1047.48 845.39 1066.56zM812.5 1116.36a6.78 6.78 0 00-.55 4.07c3.71 5.92 7.21 11.9 13.87 12.45 8.12.68 16.15-6.49 23.24-11.82 1.2-.9 1.68-3.29.46-4.13C839.39 1109.94 823.18 1100.24 812.5 1116.36z"/><path fill="#fffae6" d="M701.29,939.92s-5.8,579.12,13,796.58H649.37S697.12,993.5,701.29,939.92Z"/><path fill="#fffae6" d="M692.86 1079.14s-52.59-70.35-65.79-99c0 0 53 105.2 62.75 141.65zM692.66 1205.59s37.54-35.45 78.23-71.48c0 0-51.77 77.75-75.18 114.16zM695 1049.09s30.66-41.31 38.59-58.49c0 0-30.9 62.23-36.76 84.11z"/><path fill="#fffae6" d="M930.59,1589.38a3.55,3.55,0,0,0-2.1-2.86c-6.4-2.46-16.31-1.86-22.68.35-8.09,2.79-12.18,9.63-15.71,16.92,0,.06,0,.11-.06.17a134.11,134.11,0,0,0-12.26,6.4,46.19,46.19,0,0,0,2-14c-.07-4.73-.76-18.6-8.95-16.63-6.11,1.48-10.7,14.73-12.25,19.93-2.32,7.79-1.84,15.6,2.06,22.56a161.84,161.84,0,0,0-19.84,19.17,46.07,46.07,0,0,0,0-12.69c-.66-4.69-3.06-18.37-10.94-15.4-5.89,2.2-8.8,15.92-9.7,21.27-1.44,8.65.29,16.93,6,23.65a3.62,3.62,0,0,0-.43,2.76c-4.31,6.35-8.32,13-12,19.73-.22.39-.41.78-.63,1.17a45.9,45.9,0,0,0-2.92-13.81c-1.7-4.43-7.14-17.21-14.15-12.54-5.22,3.47-5,17.5-4.61,22.91.55,8.75,4.12,16.42,11.17,21.68a3.75,3.75,0,0,0,0,2.1c-2.63,5.38-5.14,10.73-7.59,16.21a46.19,46.19,0,0,0-4.3-10.39c-1.51-2.63-5-8.42-9-10.76-.92-7.1-12.73-6.86-19.2-5.16a52,52,0,0,0-16.65,7.81q3.4-15.77,7.17-31.47c13.86-.1,41.86-8.42,42.24-19.21.3-8.31-12.46-8.13-19.28-6.34a53,53,0,0,0-19,9.52q3.32-12.83,7.06-25.48c14.61.92,39.3-3.28,41.15-13,1.54-8.17-11.09-9.9-18.11-9.15a52,52,0,0,0-17.75,5.3,256.12,256.12,0,0,1,10.59-26.52c14.06,4.14,38.82,5.56,42.81-3.49,3.35-7.61-8.56-12.15-15.56-13a52.62,52.62,0,0,0-19.39,1.39,159.68,159.68,0,0,1,17.75-25.12c12.26,6.54,40.66,12.6,46.18,3.36,4.27-7.14-7-13.1-13.84-14.81a52.88,52.88,0,0,0-20.11-.9,126.3,126.3,0,0,1,16.24-12.3,2.78,2.78,0,0,0,.86.21c8.1.36,18.86-.32,25.35-5.79,5.1-4.3,7.47-13.41,5.82-19.8a3.54,3.54,0,0,0-2.51-2.5c-6.71-1.46-16.4.66-22.36,3.82-7.56,4-10.55,11.38-12.92,19.13,0,.06,0,.12,0,.18a131.23,131.23,0,0,0-11.12,8.2,46.35,46.35,0,0,0-.15-14.1c-.81-4.67-3.63-18.27-11.42-15.07-5.81,2.39-8.3,16.2-9,21.58-1.09,8,.6,15.7,5.52,22a161.33,161.33,0,0,0-16.64,22,46.29,46.29,0,0,0-1.93-12.55c-1.37-4.53-5.85-17.68-13.19-13.54-5.46,3.08-6.23,17.09-6.29,22.51-.1,8.76,2.9,16.68,9.54,22.45a3.6,3.6,0,0,0,0,2.79q-4.92,10.43-8.86,21.35c-.15.42-.28.85-.43,1.28a46.09,46.09,0,0,0-5-13.23c-2.36-4.11-9.71-15.91-15.92-10.22-4.62,4.23-2.19,18.05-1,23.35,1.9,8.56,6.62,15.59,14.39,19.71a3.79,3.79,0,0,0,.36,2.3q-2.61,8.52-5,17.14a46.33,46.33,0,0,0-6-9.78c-3-3.71-12-14.27-17.28-7.73-3.94,4.88.54,18.18,2.5,23.24,2.88,7.44,7.91,13.26,15,16.45q-3.56,14.79-6.73,29.7a46.36,46.36,0,0,0-7-12.46c-.36-.45-.82-1-1.35-1.62,0-2.47-.35-4.67-1.51-6.1-2-2.53-4.63-2.5-7.21-1.31-2.59-1.19-5.18-1.22-7.21,1.31-1.16,1.43-1.54,3.63-1.52,6.1-.52.61-1,1.17-1.34,1.62a46.36,46.36,0,0,0-7,12.46q-3.18-14.89-6.74-29.7c7.14-3.19,12.16-9,15-16.45,1.95-5.06,6.44-18.36,2.5-23.24-5.28-6.54-14.33,4-17.28,7.73a46.33,46.33,0,0,0-6,9.78q-2.36-8.62-5-17.14a3.79,3.79,0,0,0,.36-2.3c7.77-4.12,12.49-11.15,14.39-19.71,1.17-5.3,3.6-19.12-1-23.35-6.2-5.69-13.55,6.11-15.92,10.22a46.35,46.35,0,0,0-5,13.23c-.15-.43-.28-.86-.43-1.28q-4-10.9-8.86-21.35a3.6,3.6,0,0,0,0-2.79c6.64-5.77,9.64-13.69,9.54-22.45-.06-5.42-.83-19.43-6.29-22.51-7.34-4.14-11.82,9-13.19,13.54a45.91,45.91,0,0,0-1.93,12.55,162.14,162.14,0,0,0-16.64-22c4.92-6.27,6.6-13.92,5.52-22-.74-5.38-3.22-19.19-9-21.58-7.79-3.2-10.62,10.4-11.42,15.07a46.35,46.35,0,0,0-.15,14.1,132.86,132.86,0,0,0-11.12-8.2c0-.06,0-.12,0-.18-2.37-7.75-5.35-15.13-12.91-19.13-6-3.16-15.65-5.28-22.36-3.82a3.56,3.56,0,0,0-2.52,2.5c-1.65,6.39.73,15.5,5.83,19.8,6.49,5.47,17.25,6.15,25.35,5.79a2.85,2.85,0,0,0,.86-.21,126.3,126.3,0,0,1,16.24,12.3,52.88,52.88,0,0,0-20.11.9c-6.85,1.71-18.11,7.67-13.84,14.81,5.52,9.24,33.91,3.18,46.18-3.36a160.34,160.34,0,0,1,17.75,25.12,52.64,52.64,0,0,0-19.39-1.39c-7,.85-18.92,5.39-15.56,13,4,9.05,28.75,7.63,42.81,3.49a260.73,260.73,0,0,1,10.6,26.52,52.19,52.19,0,0,0-17.76-5.3c-7-.75-19.65,1-18.11,9.15,1.84,9.76,26.54,14,41.15,13q3.72,12.66,7.06,25.48a52.94,52.94,0,0,0-18.94-9.52c-6.83-1.79-19.58-2-19.29,6.34.38,10.79,28.38,19.11,42.24,19.21q3.78,15.69,7.17,31.47a52,52,0,0,0-16.65-7.81c-6.18-1.62-17.2-1.9-19,4.24-5.49-1-11.12,8.16-13.13,11.68a45.74,45.74,0,0,0-4.3,10.39c-2.45-5.48-5-10.83-7.59-16.21a3.84,3.84,0,0,0,0-2.1c7-5.26,10.62-12.93,11.17-21.68.34-5.41.61-19.44-4.61-22.91-7-4.67-12.46,8.11-14.16,12.54a45.89,45.89,0,0,0-2.91,13.81l-.63-1.17c-3.73-6.78-7.74-13.38-12.05-19.73a3.66,3.66,0,0,0-.43-2.76c5.66-6.72,7.4-15,6-23.65-.9-5.35-3.82-19.07-9.7-21.27-7.89-3-10.28,10.71-10.94,15.4a46.07,46.07,0,0,0,0,12.69,161.84,161.84,0,0,0-19.84-19.17c3.9-7,4.38-14.77,2.06-22.56-1.55-5.2-6.15-18.45-12.25-19.93-8.19-2-8.88,11.9-8.95,16.63a45.87,45.87,0,0,0,2,14A133.93,133.93,0,0,0,551,1604c0-.06,0-.11-.06-.17-3.54-7.29-7.62-14.13-15.71-16.92-6.38-2.21-16.28-2.81-22.69-.35a3.58,3.58,0,0,0-2.09,2.86c-.65,6.57,3.1,15.2,8.8,18.67,7.27,4.41,18,3.43,26,1.84a3.18,3.18,0,0,0,.83-.35,127.12,127.12,0,0,1,17.93,9.67,52.6,52.6,0,0,0-19.73,4c-6.5,2.74-16.71,10.35-11.39,16.76,6.89,8.28,34-2.07,45.11-10.41a160.46,160.46,0,0,1,21.42,22.1,52.7,52.7,0,0,0-19.37,1.6c-6.79,1.92-17.86,8.22-13.37,15.23,5.34,8.33,29.59,3.14,42.84-3.12A262.92,262.92,0,0,1,624,1689.92a52.54,52.54,0,0,0-18.36-2.51c-7,.33-19.27,4-16.49,11.82,3.34,9.38,28.44,9.73,42.72,6.56,4,8.47,7.39,16,10.84,24.09a53,53,0,0,0-20.16-6.48c-7-.73-19.65,1-18.08,9.22,2,10.62,31.1,14.55,44.78,12.5,2,2.55,7.2-.1,6.71-3.28-.3-.73-.59-1.43-.88-2.16,6.54-4.24,10.6-10.75,12.29-18.53a66.41,66.41,0,0,0,1.62-14.43c8.28,6,23.64,10.19,33.88,10.89q1.35,6.54,2.68,13.08a52.26,52.26,0,0,0-17.11-8.15c-6.82-1.8-19.57-2-19.28,6.34.37,10.33,26.14,18.43,40.48,19.18,1.65,1.6,4.76.77,5.73-1.47a66.8,66.8,0,0,0,7.06-5.86,65.8,65.8,0,0,0,7.06,5.86c1,2.24,4.08,3.07,5.73,1.47,14.34-.75,40.11-8.85,40.48-19.18a7.42,7.42,0,0,0-.12-1.53,27.26,27.26,0,0,0,10.32,12.33c-.29.73-.58,1.43-.88,2.16-.5,3.18,4.74,5.83,6.71,3.28,13.68,2.05,42.73-1.88,44.77-12.5,1.58-8.17-11-9.95-18.07-9.22a53,53,0,0,0-20.16,6.48c3.45-8.07,6.83-15.62,10.84-24.09,14.28,3.17,39.38,2.82,42.71-6.56,2.79-7.84-9.43-11.49-16.48-11.82a52.54,52.54,0,0,0-18.36,2.51,260.75,260.75,0,0,1,14.56-24.58c13.25,6.26,37.5,11.45,42.84,3.12,4.49-7-6.58-13.31-13.37-15.23a52.72,52.72,0,0,0-19.37-1.6,160.39,160.39,0,0,1,21.41-22.1c11.11,8.34,38.23,18.69,45.12,10.41,5.32-6.41-4.89-14-11.39-16.76a52.6,52.6,0,0,0-19.73-4,127.12,127.12,0,0,1,17.93-9.67,3.12,3.12,0,0,0,.82.35c7.95,1.59,18.69,2.57,26-1.84C927.49,1604.58,931.23,1596,930.59,1589.38Zm-209,116.83c.3-.34.61-.66.89-1,.28.36.59.68.88,1-.3.29-.6.56-.88.84Zm34.87,16.33a52.31,52.31,0,0,0-17.1,8.15q1.32-6.54,2.68-13.08c8.8-.6,21.37-3.79,30-8.48a71.31,71.31,0,0,0,1.61,12,34.29,34.29,0,0,0,1.33,4.49C772.2,1720.68,762.21,1721,756.44,1722.54Z"/></g><rect width="760.16" height="980.28" x="79.16" y="436.95" fill="#fff" opacity=".31" transform="rotate(180 459.235 927.09)"/><polygon fill="#fff" points="575.17 1399.53 654.76 1399.53 316.55 448.17 236.97 448.17 575.17 1399.53" opacity=".6"/><polygon fill="#fff" points="715.7 1399.53 755.49 1399.53 417.29 448.17 377.49 448.17 715.7 1399.53" opacity=".6"/><polygon fill="#fff" points="328.99 1399.53 368.78 1399.53 88.3 551.07 79.83 606.33 328.99 1399.53" opacity=".6"/><rect width="22.43" height="1004.14" x="828.56" y="425.73" fill="#fff" transform="rotate(180 839.775 927.805)"/><rect width="22.43" height="994.02" x="575.17" y="430.79" fill="#fff" transform="rotate(180 586.385 927.805)"/><rect width="22.44" height="782.59" x="448.48" y="45.65" fill="#fff" transform="rotate(-90 459.7 436.95)"/><rect width="22.44" height="782.59" x="448.48" y="1025.93" fill="#fff" transform="rotate(-90 459.695 1417.225)"/><rect width="22.43" height="994.02" x="321.79" y="430.79" fill="#fff" transform="rotate(180 333 927.805)"/><rect width="22.43" height="1004.14" x="68.4" y="425.73" fill="#fff" transform="rotate(180 79.615 927.805)"/><rect width="782.59" height="22.44" x="68.4" y="916.59" fill="#fff"/><rect width="7.91" height="737.49" x="455.74" y="574.23" fill="#fffae6" transform="rotate(90 459.7 942.98)"/><rect width="7.92" height="737.49" x="455.74" y="1034.74" fill="#fffae6" transform="rotate(90 459.7 1403.49)"/><rect width="7.92" height="737.92" x="455.74" y="83.17" fill="#fffae6" transform="rotate(90 459.695 452.125)"/><rect width="578.18" height="348.57" x="1253.21" y="670.77" fill="#fffae6" transform="rotate(180 1542.3 845.06)"/><rect width="520.76" height="290.55" x="1281.92" y="699.79" fill="url(#h)" transform="rotate(180 1542.295 845.06)"/><rect width="428.18" height="211.7" x="1328.21" y="739.21" fill="#fffae6" transform="rotate(180 1542.3 845.06)"/><path fill="#fffae6" d="M1756.39,950.91,1688.92,853a6.36,6.36,0,0,0-10.62.21L1641.18,912l-29.78-31.57a6.36,6.36,0,0,0-10.21,1.29l-38.06,69.16Z"/><path fill="#fff" d="M1625.64 789a21.14 21.14 0 1021.14-21.14A21.13 21.13 0 001625.64 789zM1468.51 796.36c1.08 2.28 3.43 2.58 5.67 3 8 1.5 17.38.73 25.53.88 5 .09 9.93 0 14.88 0 4.93 2.2 10.18 4.39 15.65 4.26 6-.14 10.85-3.76 16.85-4.27 3.51-.3 13.82 1.08 10.92-6.22-3.27-8.24-22.27-6.46-28.84-8.49a53.93 53.93 0 00-9.68-2.18c-4.63-.62-3.77-.79-7.91-3.41a21.11 21.11 0 00-5.13-2.7 15.77 15.77 0 00-11.73.56c-4.21 1.94-6.06 6.35-10.62 7.62C1480.32 786.5 1464.12 787.05 1468.51 796.36zM1413.05 814.81a58.38 58.38 0 0022.79 2.22c4.2-.41 11-.79 14.08-4.12a5.52 5.52 0 00-.35-8c-2.2-2.07-4.89-2.09-7.53-1.42-4.69-2-9.42-3.37-14.65-2.55-2 .31-3.9 1.47-6.06 1.34-1.68-.1-3.67-1.34-5.32-1.61a10.8 10.8 0 00-5.67.29C1401.53 804.28 1406.56 812.69 1413.05 814.81z"/><path fill="#fffae6" d="M1513.14,950.91,1471,875.6a3.92,3.92,0,0,0-6.76-.14l-31.93,52.11-13.53-21.06a3.92,3.92,0,0,0-6.84.45l-20.82,43.95-35.08-81.39a3.91,3.91,0,0,0-7.28.24l-20.58,57.81v23.34Z"/><path fill="#fffae6" d="M1094.31,601.58c-72.69,0-131.84-59.14-131.84-131.83h6.21a125.63,125.63,0,0,0,251.26,0h6.2C1226.14,542.44,1167,601.58,1094.31,601.58Z"/><polygon fill="#fffae6" points="1092.53 366.62 926.25 504.38 1292.88 504.38 1092.53 366.62"/><polygon fill="url(#i)" points="1009.89 484.93 834.29 1050.91 1344.94 1050.91 1178.98 484.93 1009.89 484.93" opacity=".22"/><polygon fill="#fffae6" points="1084.9 269.97 1084.9 349.57 1084.9 372.32 1084.9 372.9 1084.9 383.64 1084.9 384.85 1084.9 409.02 1101.05 409.02 1101.05 384.85 1101.05 383.6 1101.05 373.01 1101.05 372.47 1101.05 349.61 1101.05 277.22 1084.9 269.97"/><path fill="#fdbe5c" d="M1068.41,384.85h49.12a2.49,2.49,0,0,1,2.49,2.49v56.11a0,0,0,0,1,0,0h-54.1a0,0,0,0,1,0,0V387.34A2.49,2.49,0,0,1,1068.41,384.85Z"/><path fill="#fffae6" d="M1123.76,509a31.51,31.51,0,1,0-31.51,31.51A31.5,31.5,0,0,0,1123.76,509Z"/><path fill="#fff" d="M1092.68,528.74c-7.46-1.35-17.71-7.21-19.63-15.1-.69-2.8-5-1.62-4.34,1.2,2.29,9.4,13.76,16.61,22.78,18.24C1094.32,533.59,1095.53,529.25,1092.68,528.74Z"/><polygon fill="#fffae6" points="1092.53 366.62 909.22 504.38 1275.85 504.38 1092.53 366.62"/><rect width="34.06" height="34.06" x="1075.5" y="349.59" fill="#fffae6" rx="1.24"/></g><path fill="#fed2a7" d="M660.84,726.58c-16.62,30.68-117.1,111.51-136.75,129.09-23.67,21.19-58.38,2.53-52.33-25.94,5.16-24.25,117-142.62,133.26-153.42C634.35,656.8,681.63,688.18,660.84,726.58Z"/><path fill="#fed2a7" d="M477.82,871.55c-41.88-27.36-137.66-151-167.3-159.33-8.46-2.37,26.52-28,45.94-7.11,24,25.76,113.4,67.72,151.12,100.93C545,839,506.15,890.06,477.82,871.55Z"/><path fill="#951a2e" d="M582.84,1019.76c10.2-47,38.11-78.5,47.5-86.48,15.41-13.1,58.4-11.81,75.79,23.93s23.83,57.36,19,121.72S667,1363.17,666.84,1411.44s-100.43,43-95.08-26.12S571,1074.18,582.84,1019.76Z"/><path fill="#951a2e" d="M726.53,1033.5c-1.06-32.21-7.89-50.6-20.4-76.29-9.71-20-27.39-29.16-43.8-31.13-1-.13-2.09-.23-3.12-.3s-1.81-.1-2.7-.11a52.46,52.46,0,0,0-7.81.42,44,44,0,0,0-9.32,2.18,33.28,33.28,0,0,0-4,1.72c-.63.32-1.24.65-1.82,1a24.41,24.41,0,0,0-3.2,2.29c-.6.51-1.28,1.11-2,1.81l-1.25,1.21-.44.44c-.32.32-.65.65-1,1l-.52.54L624,939.43c-.16.18-.33.35-.49.54q-1.62,1.75-3.38,3.84l-.52.62c-.43.51-.87,1-1.3,1.57-.21.25-.42.5-.62.76-.45.55-.9,1.12-1.35,1.7l-.56.72c-1.28,1.65-2.59,3.42-3.92,5.28l-.55.78c-.49.69-1,1.4-1.47,2.12l-.65,1-1.48,2.22c-.19.3-.38.6-.58.9-1.35,2.1-2.71,4.31-4.06,6.62-.19.33-.38.67-.57,1-.49.85-1,1.7-1.45,2.57-.23.4-.44.8-.66,1.2L599,975.46c-.2.37-.4.74-.59,1.12-.65,1.26-1.3,2.54-1.93,3.85h0c-.63,1.31-1.26,2.65-1.87,4-.19.4-.36.81-.54,1.22-.44,1-.87,2-1.29,3-.21.47-.41,1-.61,1.43-.41,1-.82,2-1.22,3-.18.45-.36.89-.53,1.35-.56,1.44-1.11,2.91-1.63,4.4l0,0c-.52,1.49-1,3-1.53,4.55-.16.49-.3,1-.46,1.46-.34,1.09-.67,2.18-1,3.29-.16.56-.32,1.12-.47,1.68-.32,1.11-.62,2.24-.91,3.37-.14.52-.27,1-.4,1.56-.41,1.62-.8,3.27-1.16,4.93,0,0,0,0,0,0a.43.43,0,0,1,0,0c-.2.92-.39,1.89-.57,2.9-.07.34-.13.72-.19,1.07-.13.73-.25,1.46-.38,2.22-.06.44-.13.89-.2,1.34-.11.74-.22,1.5-.33,2.29-.07.48-.13,1-.19,1.45q-.16,1.25-.33,2.55c0,.48-.11,1-.17,1.45-.11,1-.23,2.06-.34,3.11,0,.38-.08.74-.12,1.13-.3,3-.59,6.18-.86,9.53,0,.33,0,.68-.08,1-.1,1.36-.21,2.73-.31,4.13l-.09,1.37c-.1,1.36-.19,2.74-.28,4.13l-.09,1.38c-.09,1.48-.18,3-.27,4.51l-.06,1.15c-.11,1.89-.21,3.8-.31,5.75v.06c-.32,6.25-.6,12.85-.84,19.72,0,.17,0,.33,0,.48q-.12,3.21-.22,6.49c0,.17,0,.33,0,.49q-.1,3.43-.21,6.94v0c42.63,30.43,116.07,29.85,113.7,51.52-1.07,9.79-32.14,218.57-35.79,226.71-.41.92,5.67,30.82,12.33,30.57a30.28,30.28,0,0,0,.25-3.86c.11-47.49,51.71-261.11,58-329.28a.66.66,0,0,0,0-.14c.1-1.07.19-2.1.26-3.09.76-10,1.24-19.07,1.45-27.25C726.72,1045.13,726.71,1039.11,726.53,1033.5Z"/><path fill="#951a2e" d="M814.07,1020.62c-18.41-47.37-51.8-79.41-62.58-87.58-17.7-13.41-60.45-12.87-71.61,22.69s-13.81,57.12,2.28,121.78,76.87,285.36,85.41,333.78,99.25,10.13,88.84-60.71C844.92,1272.29,835.37,1075.43,814.07,1020.62Z"/><path fill="#951a2e" d="M714.94,1116.41c22.43-3.68,57.43-9.6,65.52-7.14,16.89,5.15,30.08,20,30.22,38.29.16,21.1,33.18,224.13,33.11,225.06a147,147,0,0,0,13.43-12.49,77.41,77.41,0,0,0-.81-9.55c-11.49-78.29-21-275.15-42.34-330-16.68-42.92-45.67-73.27-59-84.66-1.38-1.18-2.59-2.15-3.59-2.92-17.7-13.41-60.45-12.87-71.61,22.69s-13.81,57.12,2.28,121.78c.78,3.14,4.39,13.92,7.77,23.89A22.54,22.54,0,0,0,714.94,1116.41Z"/><path fill="url(#b)" d="M506.3,769.76c14.08-16.61,139.59-141.48,146-146.53,24.22-19,87.89-5,61.57,56.11C690,734.91,599.76,815.45,556.9,821.5c-16.08,2.28-44.14-14.89-48.72-28.29C510.17,792,502.21,774.59,506.3,769.76Z"/><path fill="#d25927" d="M634.2,668s-13.79,45.43-38.81,70.2C577.81,755.57,563.26,757,563.26,757l-47.33,44.71-.89,1.44c10.49,10.55,29.63,20.07,41.86,18.34,35.23-5,102.39-60.25,138.5-110.63Z"/><path fill="#951a2e" d="M732.33,523.05c-4.26,32.37,35.47,45.27,35.47,45.27,3.16-24,30.24-37.6,39.05-66.85,9.13-30.31-9.1-62.44-51.64-61.19C729.09,441.05,736.59,490.68,732.33,523.05Z"/><path fill="url(#j)" d="M766.88,614.83c22.73,2.93,64.23,13.21,76.59,34.89s3.32,228.75-12.4,364.23c0,0-188.18,79.52-255-5.9,0,0,46.57-348.94,73.22-381.3C671.55,599.75,744.14,611.89,766.88,614.83Z"/><path fill="url(#k)" d="M771.55,615.43s-79.42,110.44-88.68,119.48c0,0,2.91-94.78,4.62-123.2Z"/><path fill="url(#l)" d="M757,568.68c.93-4.19,1.71-6.91,1.71-6.91s-45.09-35.94-51.08.54Z"/><path fill="#fed2a7" d="M708.66,638.49,695,612.42s14.12-9.53,12.24-34.47c-4.62-60.91,51.48-16.18,51.48-16.18s-10.2,50.68,8.19,53.05Z"/><path fill="#fbbb8f" d="M709,626.54c31.58,4.08,30-35.48,31.54-42.9,1.44-7,18.16-21.87,18.16-21.87s-10.2,50.68,8.19,53.05l-58.22,23.67-8.09-15.41A16.47,16.47,0,0,0,709,626.54Z"/><path fill="#d25927" d="M849.24,706.84l-56.17,11.34,21.6,110.7s8.15,213.66-197.81,208.73C699,1069.75,831.07,1014,831.07,1014,838.61,949,852,779.63,849.24,706.84Z"/><path fill="#fed2a7" d="M691.6,474.41,676,544.77c-2.76,21,19.17,41.18,41.29,44.1h0c22.12,2.9,42.29-11.75,45.05-32.75l.23-1.73s23.13,1.4,26.19-21.9-13.46-15.79-13.46-15.79l1.31-10a21,21,0,0,0-18-23.52Z"/><path fill="#fbbb8f" d="M775.31,516.7l1.44-10.88a20.05,20.05,0,0,0-17.25-22.48l-11.3-1.48c0,.23,0,.45-.06.68l-10.6,80.56c-1.85,14.08-16.91,23.26-30.52,21-4.22-.71-12.48-4.38-15.64-6.78,9.33,7.5,17.85,10.5,25.92,11.57,22.12,2.9,42.29-11.75,45.05-32.75l.23-1.73s23.13,1.4,26.19-21.9S775.31,516.7,775.31,516.7Z"/><path fill="#fffae6" d="M701.81,604.51c-1.75,16.29,6.85,34,6.85,34s-9.29-5.64-19.25,5c-4.23,4.5-8.21,4.59-8.21,4.59s.13-13,6.43-37.39Z"/><path fill="url(#m)" d="M993,564.6c-21.25,4.76-37.84,13.38-90,36.62-2.28.7-4.59,1.46-6.92,2.32-42,15.53-93.2,19-100.65,22.37-28.06,12.64-45.2,75.54,21.11,80.58,60.33,4.59,173.53-37.89,198.8-73,9.48-13.19,7.3-46-2.44-56.3C1010.86,578.34,999.18,563.22,993,564.6Z"/><path fill="#fed2a7" d="M963.78,598.8c-1.27-44.71,34.6-169.15,31.67-196.52-2-18.25,39.44-1.51,36.85,11.61-6.52,33.08,3,145.36,0,190.2C1029.65,642.32,964.65,629.06,963.78,598.8Z"/><path fill="#fffae6" d="M757.19,603.17c-10.25,15.81-48.53,35.32-48.53,35.32s11.73-2.49,23,12.72A26.66,26.66,0,0,0,743.89,660s24.32-18.66,27.66-44.52Z"/><path fill="#951a2e" d="M750.58,475.06s-17.59,17.7-46.1,11.08-33,8.24-33,8.24-6.69-54.44,32.62-68.32S763,440.48,763,440.48Z"/><path fill="#fed2a7" d="M897.47,1684.07c-23.27-8.09-28.89-43.63-31.25-64.72l-34,12.26s13.42,36.06,8.09,60.61,2,22.24,2,22.24H946.7S920.73,1692.16,897.47,1684.07Z"/><path fill="#951a2e" d="M948.74,1717.39H843s-3.89,1.26-5.42-6.68c-.82-4.14-1.34-4,0-14.71.27-2,.46-4.14.58-6.29,10,.93,25.06-6.6,25.06-6.6,4.34-11.74,19.69-17.07,23.6-11,6.32,10.77,19.53,13.25,28.68,16.34,20.07,6.76,24.94,14.54,29.76,22.27A38.79,38.79,0,0,1,948.74,1717.39Z"/><path fill="#951a2e" d="M948.74,1717.39H843s-3.89,1.26-5.42-6.68H945.26A38.79,38.79,0,0,1,948.74,1717.39Z"/><path fill="#951a2e" d="M850.62,1341.44c30.7,25,16.66,205.2,32.12,325,0,0-35.51,7.93-56.93-1.36,0,0-58.37-210.78-58.37-259.83C767.44,1319,817.7,1314.58,850.62,1341.44Z"/><path fill="#fed2a7" d="M557.48,1686.46c23.34-7.86,12.7-45.14,15.27-66.2l33.85,12.58s2.85,37.73,7.93,62.34-2.23,22.22-2.23,22.22l-106.39-1.06S534.14,1694.31,557.48,1686.46Z"/><path fill="#951a2e" d="M557.48,1686.46c7.11-2.19,8.76-6.87,13-13.61,2.71-4.76,11,3.53,15.12,12.83,0,0,18.3,7.5,28.14,4.5.23,1.71.43,3.39.76,5,5.09,24.61-2.23,22.22-2.23,22.22l-106.39-1.06C511.35,1696.28,535,1693.36,557.48,1686.46Z"/><path fill="#951a2e" d="M616.28,1711c-.45,7.52-4,6.38-4,6.38l-106.39-1.06a19.76,19.76,0,0,1,2.64-6.4Z"/><path fill="#951a2e" d="M578.22,1378.81c-19.66,21.78-7.56,171.31-13.09,279.41,0,0,35.75,10.49,56.29,1.23,0,0,56.55-208.06,44.28-251C649.23,1350.72,604.59,1349.62,578.22,1378.81Z"/><path fill="#951a2e" d="M665.7 1408.4a97.29 97.29 0 00-9.49-22.78c.06 2.75-39 186.47-43.53 276.52a45.07 45.07 0 005.63-1.49c1.06-.38 2.12-.75 3.11-1.2 0 0 18-67.92 32.64-137.35C663.89 1473.52 670.85 1426.43 665.7 1408.4zM850.62 1341.44a72.45 72.45 0 00-12.41-8.18c4.06 16.51 20.1 85 19 133.83-1.19 54.4 9.16 184 13.63 201.29 7.09-.89 11.87-2 11.87-2C867.28 1546.64 881.32 1366.49 850.62 1341.44z"/><rect width="1189.1" height="636.97" x="640.13" y="736.86" fill="url(#n)" transform="rotate(-89.88 1234.658 1055.345)"/><path fill="#951a2e" d="M1532.27,416,1164,418.21l-.1,50.08,186.51.39,132.94.77c44.79.09,81,38.21,80.94,85.11l-1.72,968.65c-.1,46.91-36.48,84.87-81.27,84.78l-319.45.69-.2,105.16,368.27,3.62c44.79.1,81.17-37.85,81.26-84.77l2-1131.58C1613.29,454.19,1577.06,416.09,1532.27,416Z"/><path fill="url(#c)" d="M1504.64,415.64c-1.84-.13-3.73-.19-5.62-.19l-566.26-.1c-29.06,0-52.58,24.65-52.59,55L880,1661.84c0,30.36,23.52,55,52.51,55l566.32.1c1.83,0,3.7,0,5.53-.19,42.25-3,75.62-39.75,75.62-84.78l.19-1131.54C1580.15,455.49,1546.82,418.69,1504.64,415.64Zm26.51,1136.86c0,30.4-23.56,55.06-52.59,55l-497.24-.09c-29,0-52.51-24.65-52.51-55L929,524c0-30.4,23.53-55,52.53-55l497.27.09c29,0,52.54,24.65,52.54,55Z"/><path fill="#951a2e" d="M1296.42 1687.77l-135-.28c-13.53 0-24.49-11.55-24.46-25.72h0c0-14.17 11-25.65 24.56-25.62l135 .28c13.53 0 24.48 11.55 24.46 25.73h0C1321 1676.33 1310 1687.8 1296.42 1687.77zM1531.32 543.2H928.81V489.69c0-12.08 9.36-21.88 20.9-21.88h560.71c11.54 0 20.9 9.8 20.9 21.88z"/><path fill="#fff" d="M1044,505.5A11.07,11.07,0,1,1,1055,517.08,11.33,11.33,0,0,1,1044,505.5Z"/><path fill="#fffae6" d="M1001.42,505.5a11.07,11.07,0,1,1,11.06,11.58A11.33,11.33,0,0,1,1001.42,505.5Z"/><path fill="url(#o)" d="M958.87,505.5a11.07,11.07,0,1,1,11.06,11.58A11.34,11.34,0,0,1,958.87,505.5Z"/><polygon fill="#fff" points="1478.63 497.04 1484.11 491.3 1491.92 499.49 1499.75 491.3 1505.21 497.04 1497.4 505.22 1505.22 513.41 1499.74 519.14 1491.92 510.96 1484.11 519.14 1478.64 513.41 1486.46 505.22 1478.63 497.04"/><path fill="#d93f57" d="M968.08 680.08l18.12-1.76c1.09 6.07 3.3 10.55 6.64 13.4s7.84 4.28 13.5 4.28c6 0 10.52-1.27 13.56-3.8s4.56-5.51 4.56-8.91a8.4 8.4 0 00-1.92-5.57c-1.27-1.54-3.51-2.87-6.7-4q-3.29-1.12-14.91-4-15-3.71-21-9.12a24.22 24.22 0 01-4.51-31.74 25.11 25.11 0 0111.52-9.36 46.34 46.34 0 0118.16-3.21q17.37 0 26.14 7.62t9.23 20.32l-18.63.83q-1.2-7.11-5.13-10.23c-2.62-2.07-6.55-3.12-11.8-3.12q-8.11 0-12.71 3.34a6.7 6.7 0 00-3 5.73 7.05 7.05 0 002.77 5.59q3.53 3 17.12 6.18t20.1 6.63a26 26 0 0110.19 9.38q3.69 6 3.68 14.69a27.26 27.26 0 01-4.39 14.86 26.5 26.5 0 01-12.46 10.28q-8.07 3.38-20.08 3.37-17.5 0-26.87-8.09T968.08 680.08zM1058.63 617.83h18.62v50c0 7.92.24 13.06.69 15.41a15 15 0 005.7 9.1q4.5 3.42 12.3 3.43c5.3 0 9.27-1.09 12-3.24a12.76 12.76 0 004.84-8 103.14 103.14 0 00.82-15.67v-51h18.63v48.46q0 16.62-1.51 23.48a25.9 25.9 0 01-5.57 11.58 28.08 28.08 0 01-10.85 7.52q-6.81 2.79-17.74 2.8-13.21 0-20-3.06a28.32 28.32 0 01-10.79-7.93 25.43 25.43 0 01-5.23-10.22q-1.82-7.94-1.82-23.41zM1151.89 710.09V617.83h39.21q14.79 0 21.49 2.5a21.16 21.16 0 0110.73 8.84 26.58 26.58 0 014 14.53c0 6.92-2 12.64-6.1 17.15s-10.16 7.36-18.25 8.53a43.37 43.37 0 0110 7.74q3.94 4.2 10.61 15l11.26 18h-22.27L1199.09 690q-7.17-10.77-9.82-13.56a14.34 14.34 0 00-5.6-3.84q-3-1-9.38-1h-3.77v38.51zm18.63-53.24h13.78q13.41 0 16.74-1.13a10 10 0 005.22-3.9 12 12 0 001.89-6.92 11 11 0 00-2.49-7.51 11.31 11.31 0 00-7-3.63q-2.26-.32-13.6-.31h-14.53zM1266.11 710.09l-33-92.26h20.2l23.35 68.29 22.59-68.29H1319l-33 92.26zM1328.54 710.09V617.83h68.4v15.62h-49.78V653.9h46.32v15.54h-46.32v25.11h51.54v15.54zM1438.73 710.09V671.26l-33.8-53.43h21.83l21.71 36.51 21.27-36.51h21.46l-33.92 53.56v38.7z"/><polygon fill="#951a2e" points="1095.54 806.84 1095.54 818.94 1478.37 818.94 1478.63 806.84 1095.54 806.84"/><polygon fill="#951a2e" points="1095.54 833.74 1095.54 845.85 1296.32 845.85 1296.58 833.74 1095.54 833.74"/><path fill="#951a2e" d="M1004.4,865.77H989.34V809a51.92,51.92,0,0,1-19.45,11.41V806.78a43.61,43.61,0,0,0,12.8-7.31,27.81,27.81,0,0,0,9.49-12.57h12.22Z"/><rect width="13.62" height="12.47" x="1020.38" y="853.3" fill="#951a2e"/><polygon fill="#951a2e" points="1095.54 977.36 1095.54 989.46 1391.52 989.46 1391.78 977.36 1095.54 977.36"/><polygon fill="#951a2e" points="1095.54 1004.26 1095.54 1016.37 1432.94 1016.37 1433.21 1004.26 1095.54 1004.26"/><path fill="#951a2e" d="M1020.85,1022.32v14H968.08a36.31,36.31,0,0,1,5.14-15q4.28-7.11,16.93-18.84,10.17-9.49,12.49-12.86a16.57,16.57,0,0,0,3.1-9.21q0-5.05-2.71-7.74a11.5,11.5,0,0,0-15,.12q-2.79,2.87-3.22,9.44l-15-1.5q1.33-12.43,8.41-17.85c4.71-3.61,10.62-5.4,17.69-5.4q11.63,0,18.26,6.26a20.51,20.51,0,0,1,6.65,15.6,27.28,27.28,0,0,1-1.89,10.09,41.81,41.81,0,0,1-6,10,97.16,97.16,0,0,1-9.87,10q-7.12,6.54-9,8.68a24.64,24.64,0,0,0-3.09,4.19Z"/><rect width="13.62" height="12.47" x="1032" y="1023.82" fill="#951a2e"/><polygon fill="#951a2e" points="1095.54 1490.88 1095.54 1502.98 1391.52 1502.98 1391.78 1490.88 1095.54 1490.88"/><polygon fill="#951a2e" points="1095.54 1517.79 1095.54 1529.88 1432.94 1529.88 1433.21 1517.79 1095.54 1517.79"/><path fill="#951a2e" d="M968.08,1528.54l15.25-1.58a13.11,13.11,0,0,0,3.87,8.21,10.53,10.53,0,0,0,7.4,3,10.29,10.29,0,0,0,8.12-3.89q3.31-3.9,3.32-11.74,0-7.36-3.29-11a11,11,0,0,0-8.58-3.68q-6.6,0-11.82,5.83l-12.42-1.8,7.84-41.56h40.47v14.33H989.37L987,1498.21a23.21,23.21,0,0,1,10.45-2.56,23,23,0,0,1,17.27,7.41q7.08,7.39,7.08,19.22a28.75,28.75,0,0,1-5.72,17.59q-7.78,10.56-21.62,10.57-11.06,0-18-5.94T968.08,1528.54Z"/><rect width="13.62" height="12.47" x="1032" y="1536.72" fill="#951a2e"/><polygon fill="#951a2e" points="1095.54 1148.55 1095.54 1160.64 1478.37 1160.64 1478.63 1148.55 1095.54 1148.55"/><polygon fill="#951a2e" points="1095.54 1175.45 1095.54 1187.56 1442.45 1187.56 1442.71 1175.45 1095.54 1175.45"/><path fill="#951a2e" d="M969.89,1186l14.58-1.76q.69,5.57,3.74,8.52a10.33,10.33,0,0,0,7.41,2.94,10.14,10.14,0,0,0,7.83-3.53q3.19-3.54,3.2-9.54c0-3.79-1-6.79-3.06-9a9.68,9.68,0,0,0-7.44-3.33,26.16,26.16,0,0,0-6.91,1.12l1.65-12.26c4.07.1,7.19-.78,9.33-2.65a9.48,9.48,0,0,0,3.21-7.48,8.12,8.12,0,0,0-8.62-8.69,9.1,9.1,0,0,0-6.6,2.68c-1.82,1.8-2.92,4.4-3.32,7.83L971,1148.46a30.86,30.86,0,0,1,4.36-11.38,19.73,19.73,0,0,1,8.15-6.7,27.3,27.3,0,0,1,11.71-2.44q11.09,0,17.79,7.07a18.51,18.51,0,0,1,5.52,13.07q0,10.35-11.31,16.51a18.32,18.32,0,0,1,10.79,6.48,18.85,18.85,0,0,1,4.05,12.18,23.6,23.6,0,0,1-7.55,17.62,26,26,0,0,1-18.82,7.28q-10.65,0-17.68-6.13A24.08,24.08,0,0,1,969.89,1186Z"/><rect width="13.62" height="12.47" x="1032" y="1195.68" fill="#951a2e"/><polygon fill="#951a2e" points="1095.54 1319.73 1095.54 1331.83 1221.14 1331.83 1221.4 1319.73 1095.54 1319.73"/><polygon fill="#951a2e" points="1095.54 1346.64 1095.54 1358.74 1296.32 1358.74 1296.58 1346.64 1095.54 1346.64"/><path fill="#951a2e" d="M998.37,1378.67v-15.8H966.23v-13.19l34.08-49.88H1013v49.82h9.75v13.25H1013v15.8Zm0-29.05v-26.83l-18,26.83Z"/><rect width="13.62" height="12.47" x="1032" y="1366.2" fill="#951a2e"/><path fill="url(#p)" d="M996.48,1234.91c-25.05,0-46.34-16.09-56.81-37-13.59-27.1-7.59-57.88,15.3-78.42,17.95-16.12,34.66-21.69,49.65-16.51,22.47,7.72,31.95,36.64,32.34,37.86,1.14,3.54-.36,7.51-3.32,8.87s-6.29-.41-7.43-4c-.18-.54-8-23.86-24.84-29.59-11.32-3.86-24.61,1-39.48,14.31-18.41,16.53-23,39.11-12.35,60.39,12.14,24.19,42.17,40.45,73.92,22.9,19.1-10.56,29-26.18,29.29-46.44.49-29-19.54-61.67-37.81-72.85-2.83-1.74-4-5.87-2.5-9.24s4.92-4.72,7.75-3c21.75,13.3,44.65,50.78,44.07,85.34-.3,17.84-6.78,42.5-36,58.63C1017.39,1232.27,1006.63,1234.91,996.48,1234.91Z"/><path fill="#fed2a7" d="M1050.55,402.4a2.21,2.21,0,0,0-1.07,1.38c-1.39-2.28-3.18-4.54-5.66-4.87-3.2-.43-5.53,2.41-7.31,4.53a3.54,3.54,0,0,0-.19.33c-2.37-5.38-6.06-10-11.49-9.48-5.13.52-6.92,4.87-7.35,10a27.26,27.26,0,0,0-3.49-5.1c-5.15-5.82-12.27-.61-15.17,4.83a2.26,2.26,0,0,0,0,2.34,2.24,2.24,0,0,0-.05.63,69.27,69.27,0,0,0,3.33,16.28c1.24,3.63,2.7,9.11,5.87,11.71,5.62,4.64,9.74-2.84,11.72-8.1.83,5.57,3.09,10.55,10,8.59a13.12,13.12,0,0,0,8.93-8.45,16,16,0,0,0,4.08,6.66c4.81,4.37,9.76-1.72,11.45-6.07a18.72,18.72,0,0,0,1.24-6.31,3.23,3.23,0,0,0,1.19.71c3.84,1.32,7.25-3.64,8.26-6.6C1067.87,406.6,1059.54,398.32,1050.55,402.4Z"/><polygon fill="url(#q)" points="377.97 575.37 327.95 582.72 305.3 660.45 422.02 643.31 377.97 575.37"/><path fill="url(#r)" d="M570.51,1639.17l-116.73,17.15,6.4,43.56a20.59,20.59,0,0,0,23.35,17.37l76-11.17a20.57,20.57,0,0,0,17.37-23.34Z"/><path fill="url(#s)" d="M322.28,640.72h0A19.65,19.65,0,0,0,305.69,663L454.2,1659.09l38.9-5.7L344.58,657.33A19.67,19.67,0,0,0,322.28,640.72Z"/><path fill="#951a2e" d="M361.18,635h0a19.66,19.66,0,0,0-16.6,22.31L493.1,1653.39l38.9-5.72L383.49,651.61A19.64,19.64,0,0,0,361.18,635Z"/><path fill="url(#t)" d="M400.08,629.3h0a19.66,19.66,0,0,0-16.59,22.31L532,1647.67l38.91-5.72-148.52-996A19.65,19.65,0,0,0,400.08,629.3Z"/><polygon fill="url(#u)" points="569.28 1630.84 452.57 1647.98 456.13 1672.3 572.85 1655.15 569.28 1630.84"/><path fill="url(#v)" d="M338.93,549.06l-11,33.66,50-7.35L357.6,546.43A10.5,10.5,0,0,0,338.93,549.06Z"/><path fill="#fed2a7" d="M304.5,710.56a2.17,2.17,0,0,0,1.5.89c-2.09,1.66-4.12,3.71-4.14,6.22,0,3.23,3.08,5.19,5.39,6.7a2.67,2.67,0,0,0,.36.14c-5.05,3-9.21,7.25-8,12.57,1.15,5,5.68,6.28,10.84,6.06a28,28,0,0,0-4.64,4.09c-5.14,5.83.91,12.26,6.66,14.47a2.27,2.27,0,0,0,2.33-.31,2.15,2.15,0,0,0,.62,0,68.51,68.51,0,0,0,15.74-5.3c3.46-1.67,8.72-3.81,10.91-7.26,3.91-6.15-4-9.33-9.48-10.64,5.43-1.51,10.1-4.37,7.3-11a13.09,13.09,0,0,0-9.49-7.82,15.85,15.85,0,0,0,6.11-4.87c3.75-5.31-2.9-9.47-7.43-10.62a18.39,18.39,0,0,0-6.41-.45,3.67,3.67,0,0,0,.57-1.27c.83-4-4.51-6.76-7.58-7.4C306.54,692.85,299.35,702.14,304.5,710.56Z"/><path fill="url(#w)" d="M1629.83,1304.42c9.79,0,18.73-3.4,26.54-8.75a227,227,0,0,1-3.94,48.77c-10.43,16.81-39.38,47.75-37.42,47.57,8.09-.66,15.71-2.81,23.23-5.42a172.65,172.65,0,0,1-17.7,28.93c-14,18.72-34,33.7-41.64,56.55a1.42,1.42,0,0,1-.87,1,1.66,1.66,0,0,1-2.74,1.21c-37.77-35.86-44.52-90.33-50.07-139.45-.26-2.34-.52-4.62-.74-7,10.46,10.46,21.59,20,34.81,27.17,1.83,1-23.65-39.77-36.12-58.55a110.43,110.43,0,0,1,6.5-34.89c8.84-23.68,24-45.84,38.7-66.22.6-.84,1.28-1.65,1.87-2.49a113,113,0,0,0,16.25,29.44c1.21,1.58-2.68-29.82-5.07-44.15,3.7-4.58,7.39-9.17,11.23-13.59,5-5.95,11.25-16,20.29-14.67,8.78,1.25,28.77,37.18,31.31,47.46,1.09,4.39,2.07,8.87,3,13.36.43,1.94.78,3.91,1.13,5.85a542.8,542.8,0,0,1,6.73,54.69c-.62,1-1.24,2-1.95,2.89C1645.79,1284.15,1628,1304.41,1629.83,1304.42Z"/><path fill="#951a2e" d="M1595.4,1286.33c18.64-2.82,32.87-14.58,46.57-26.73,2-1.82-.5-5.26-2.56-3.43-12.82,11.38-26.18,22.76-43.56,25.71,4-27.74,8.59-55.39,14-82.9.53-2.7-3.69-3.36-4.22-.67q-10.82,54.7-17.66,110a182.9,182.9,0,0,1-24.67-49.58c-.84-2.61-4.8-1-4,1.59a186.45,186.45,0,0,0,26.46,52.35,1.92,1.92,0,0,0,1.55.85q-1.47,12.08-2.74,24.2a114.9,114.9,0,0,1-18.31-32c-.95-2.57-4.92-1-4,1.59a118.49,118.49,0,0,0,20.81,35.52,2.07,2.07,0,0,0,.87.61q-4.1,39.84-6.2,79.87a2.15,2.15,0,0,0-.25.92q-.86,14.65-1,29.26-.32,9.54-.52,19.08a1.71,1.71,0,0,0,.62,1.45c1.1,60.1,10,119.57,22.65,178.4,1.38-.34,2.77-.64,4.15-1-14.29-66.49-23.79-133.78-22.54-201.91q.38-10.8.9-21.57a2,2,0,0,0,1.9-.24,71.11,71.11,0,0,0,19.52-20c1.49-2.28-1.84-5-3.34-2.66a67.8,67.8,0,0,1-17.86,18.54q3.56-68.91,13.17-137.29C1595.29,1286.31,1595.34,1286.34,1595.4,1286.33Z"/><path fill="url(#x)" d="M1447.27,1409.85a46.41,46.41,0,0,1-25.12,2.15,162.22,162.22,0,0,0,17.53,35.35c13.75,9.21,47.34,22.93,45.63,23.44a95.25,95.25,0,0,1-21.32,3.57,137.57,137.57,0,0,0,23.45,15.92c17.37,9.45,38.73,14.12,51.83,28.79a1.18,1.18,0,0,0,1,.47,1.54,1.54,0,0,0,2.68,0c21.69-39.36,11.59-82.51,2-121.24-.45-1.84-.89-3.64-1.39-5.47-5.85,11.3-12.53,22.14-21.69,31.85-1.27,1.36,8.54-37.65,13.69-55.86a79.76,79.76,0,0,0-15.66-24.07c-14.4-14.89-33.72-26.56-52.15-37-.75-.44-1.56-.82-2.31-1.25a88.62,88.62,0,0,1-5.26,27.45c-.57,1.59-6.38-23.27-8.52-34.83-4.47-2.23-8.94-4.46-13.49-6.53-6-2.8-14.21-8.32-21.51-4.34-7.1,3.82-13.65,37.39-12.82,46,.34,3.66.81,7.35,1.36,11,.19,1.6.47,3.2.73,4.77a387.26,387.26,0,0,0,10.18,43.31c.81.52,1.62,1,2.49,1.53C1427.8,1399.87,1448.79,1409.25,1447.27,1409.85Z"/><path fill="#951a2e" d="M1574.29,1661.28c-6.34-48.36-16-96-32.58-141.5a1.3,1.3,0,0,0,.11-1.28q-2.94-7.11-6-14.17-4.39-10.92-9.37-21.65a1.56,1.56,0,0,0-.48-.61q-13.41-29.37-28.48-58a1.88,1.88,0,0,0,.56-.75,93.44,93.44,0,0,0,7.37-33.52c.07-2.26-3.76-2.15-3.83.11a90.33,90.33,0,0,1-6.25,30.08c-3.08-5.79-6.18-11.55-9.36-17.28a1.79,1.79,0,0,0,1.07-1.14,144.57,144.57,0,0,0,7.28-48c0-2.24-3.87-2.14-3.83.1A141.41,141.41,0,0,1,1484,1399q-21.93-39.26-47-76.85c-1.23-1.84-4.63,0-3.39,1.89q18.93,28.32,36,57.68c-15.63,3.49-30.29-.66-44.49-5-2.29-.69-3.44,2.72-1.18,3.41,15.17,4.63,30.69,8.79,47.34,4.78a.41.41,0,0,0,.15-.07q28,48.21,51.09,98.84a58.38,58.38,0,0,1-20.57-8.07c-1.94-1.24-4,1.87-2.06,3.1a61,61,0,0,0,22.39,8.58,2,2,0,0,0,1.68-.44q3.58,7.92,7,15.9c20.86,50.79,32.33,104.47,39.51,159.12Z"/><path fill="#87afdd" d="M1438.46,1358.16a97.7,97.7,0,0,1-33.2-13c.19,1.6.47,3.2.73,4.77a102.72,102.72,0,0,0,31.27,11.62C1439.65,1362,1440.82,1358.62,1438.46,1358.16Z"/><path fill="url(#y)" d="M1798.7,1390.16c-.23,15.36-35.77,22.81-47,27-25,9.25-49.36,18.57-67.83,38.67-21.77,23.69-40.54,51-59.33,77.15a4.42,4.42,0,0,1-4.43,1.91c-.28,0-2.41-4.43-5.17-11.23-6.48-16-16.39-45.16-13.93-61.8a100.64,100.64,0,0,1,11.32-33.18c1.28,5.24,3.41,10.25,7.12,14,.89.91,2.82-21,4.1-30.92,1.64-2,3.31-4,5.07-5.87a109.36,109.36,0,0,1,13.13-12.09c1-.8,2-1.6,3-2.34a135.63,135.63,0,0,1,12-7.94c1.08-.64,2.2-1.28,3.35-1.92,3.85-2.14,7.86-4.13,12-5.92a80.84,80.84,0,0,0,6.59,21.9c.69,1.46,2.37-17.3,2.62-25.6,3.85-1.46,7.79-2.66,11.79-3.81a62.77,62.77,0,0,0,4.9,14.15c.54,1.08,5.83-11.62,7.74-17.21a153.88,153.88,0,0,1,38.07-3c1.09,0,2.17.09,3.23.2,3.41.23,6.79.62,10.1,1.13,12.24,1.9,41.09,9.65,41.66,26.21A3.69,3.69,0,0,1,1798.7,1390.16Z"/><path fill="#951a2e" d="M1662,1430.54c-30.2,29.79-39.57,84.53-41.51,100.08a70.79,70.79,0,0,0-6.22,20.21c-3.59,24.57-2.53,50.49-1.92,75.24.2,8.14.56,16.27,1,24.41l4.2-.78c-.27-5.13-.51-10.26-.69-15.4-.75-22.16-.73-44.38.29-66.52.52-11.45,1.59-23,6-33.57a4.65,4.65,0,0,0,1.35-1.25c18.79-26.12,37.56-53.46,59.33-77.15,18.47-20.1,42.86-29.42,67.82-38.67,11.28-4.17,46.83-11.62,47-27C1751.34,1395.68,1696.73,1396.25,1662,1430.54Z"/><path fill="#951a2e" d="M1660.68 1415.92a98.6 98.6 0 01-.64-34.3c-1.15.64-2.27 1.28-3.35 1.92a100.64 100.64 0 001 33.06C1658 1418.58 1661 1417.87 1660.68 1415.92zM1649.13 1422.05a129.84 129.84 0 01-4.41-30.57c-1 .74-2 1.54-3 2.34a131.91 131.91 0 004.38 28.94C1646.6 1424.68 1649.64 1424 1649.13 1422.05z"/><path fill="#fffae6" d="M1699.64,1627.32a110.54,110.54,0,0,1-45.84,89.78h-130a110.92,110.92,0,0,1-43.16-113.95,108.61,108.61,0,0,1,6.1-19.11h204.17a108.66,108.66,0,0,1,6.12,19.11A110.58,110.58,0,0,1,1699.64,1627.32Z"/><path fill="#fffae6" d="M1699.64,1627.32a110.54,110.54,0,0,1-45.84,89.78h-130c169.91,8.44,167.11-133.06,167.11-133.06a108.66,108.66,0,0,1,6.12,19.11A110.58,110.58,0,0,1,1699.64,1627.32Z"/><g clip-path="url(#z)"><rect width="1399.69" height="1595.88" x="1841.61" y="179.95" fill="#fff" opacity=".35"/><path fill="url(#A)" d="M4714.36,467.81V449.55h-50.28V161.7H1834v36.53h30.49v12.89h902.64V449.55H1834v18.26h933.13V936.47H1834v18.26h933.13v468.65H1834v18.26h933.13V1747H1864.73v10.56H1834v42.25H4664.07v-3.39h0V1441.64h50.28v-18.26h-50.28V954.73h50.28V936.47h-50.28V467.81Zm-1450,486.92h436v468.65h-436Zm0-18.26V467.81h436V936.47Zm0-486.92V211.11h436V449.55Zm0,992.09h436V1747H3264.55v10.56h-.16ZM3731,1747V1441.64h435.94V1747Zm0-323.63V954.73h435.94v468.65Zm0-486.91V467.81h435.94V936.47Zm0-486.92V211.11h435.94V449.55Zm466.56-238.44h435.95V449.55H4197.51Zm-1399.81,0h435.94V449.55H2797.7Zm0,256.7h435.94V936.47H2797.7Zm0,486.92h435.94v468.65H2797.7Zm0,486.91h435.94v315.93h-.16V1747H2797.7Zm1835.76,315.93h-.17V1747H4197.51V1441.64h435.95Zm0-334.19H4197.51V954.73h435.95Zm0-486.91H4197.51V467.81h435.95Z"/></g></svg>