<svg xmlns="http://www.w3.org/2000/svg" xmlns:xlink="http://www.w3.org/1999/xlink" data-name="Layer 1" viewBox="0 0 2000 2000" id="online-survey"><defs fill="#f7a180"><linearGradient id="a" x1="-2238.78" x2="641.63" y1="998.16" y2="998.16" gradientUnits="userSpaceOnUse" fill="#f7a180"><stop offset="0" stop-color="#fff" fill="#f7a180"/><stop offset="1" stop-color="#fffae6" fill="#f7a180"/></linearGradient><linearGradient id="e" x1="111.37" x2="2031.75" y1="1271.49" y2="746.76" xlink:href="#a" fill="#f7a180"/><linearGradient id="f" x1="234.16" x2="1724.15" y1="1005.07" y2="1005.07" xlink:href="#a" fill="#f7a180"/><linearGradient id="g" x1="-24.15" x2="1896.24" y1="775.53" y2="250.79" xlink:href="#a" fill="#f7a180"/><linearGradient id="b" x1="1030.23" x2="1056.24" y1="888.05" y2="888.05" gradientUnits="userSpaceOnUse" fill="#f7a180"><stop offset="0" stop-color="#fbad18" fill="#f7a180"/><stop offset="1" stop-color="#f47820" fill="#f7a180"/></linearGradient><linearGradient id="h" x1="1030.23" x2="1056.24" y1="932.99" y2="932.99" xlink:href="#b" fill="#f7a180"/><linearGradient id="i" x1="1030.23" x2="1056.24" y1="798.16" y2="798.16" xlink:href="#b" fill="#f7a180"/><linearGradient id="j" x1="871.65" x2="1347.62" y1="1284.18" y2="1284.18" xlink:href="#b" fill="#f7a180"/><linearGradient id="k" x1="849.25" x2="1357.65" y1="985.34" y2="985.34" xlink:href="#b" fill="#f7a180"/><linearGradient id="c" x1="-3927.74" x2="-3719.42" y1="1197.2" y2="1197.2" gradientTransform="matrix(-1 0 0 1 -3464.1 0)" gradientUnits="userSpaceOnUse" fill="#f7a180"><stop offset="0" stop-color="#d93f57" fill="#f7a180"/><stop offset="1" stop-color="#951a2e" fill="#f7a180"/></linearGradient><linearGradient id="l" x1="-4120.24" x2="-3966.39" y1="1429.35" y2="1429.35" xlink:href="#c" fill="#f7a180"/><linearGradient id="m" x1="681.09" x2="999.28" y1="385.7" y2="385.7" xlink:href="#b" fill="#f7a180"/><clipPath id="d" fill="#f7a180"><path fill="none" d="M-1143.82,1769.08c231,7.57,646.68-65.51,770.53-502.43s-325-336.23-481.59-818c-116.79-359.16-1156.62-49.76-917.84,872.74C-1667.73,1727-1344.29,1762.51-1143.82,1769.08Z"/></clipPath></defs><g clip-path="url(#d)"><rect width="512.81" height="1178.01" x="-359.25" y="682.78" fill="#fffae6" transform="rotate(180 -102.845 1271.785)"/><rect width="80.09" height="31.39" x="19.46" y="739.2" fill="#fffae6" transform="rotate(180 59.5 754.9)"/><rect width="80.09" height="31.39" x="19.46" y="853.48" fill="#fffae6" transform="rotate(180 59.5 869.18)"/><rect width="80.09" height="31.39" x="19.46" y="967.76" fill="#fffae6" transform="rotate(180 59.5 983.46)"/><rect width="80.09" height="31.38" x="19.46" y="1082.05" fill="#fffae6" transform="rotate(180 59.5 1097.74)"/><rect width="80.09" height="31.38" x="19.46" y="1196.33" fill="#fffae6" transform="rotate(180 59.5 1212.02)"/><rect width="80.09" height="31.38" x="19.46" y="1301.93" fill="#fffae6" transform="rotate(180 59.5 1317.625)"/><rect width="80.09" height="31.38" x="19.46" y="1416.21" fill="#fffae6" transform="rotate(180 59.5 1431.905)"/><rect width="80.09" height="31.38" x="19.46" y="1530.49" fill="#fffae6" transform="rotate(180 59.5 1546.185)"/><rect width="80.09" height="31.39" x="19.46" y="1644.77" fill="#fffae6" transform="rotate(180 59.5 1660.465)"/><rect width="80.09" height="31.39" x="19.46" y="1759.05" fill="#fffae6" transform="rotate(180 59.5 1774.745)"/><rect width="1399.68" height="1595.88" x="-816.42" y="165.77" fill="#fff" opacity=".35"/><polygon fill="#fff" points="114.95 1764.42 60.64 1764.42 559.91 381.9 559.91 493.28 114.95 1764.42" opacity=".6"/><path fill="#f7a180" d="M641.63,485.21V467H591.35V179.1H-2238.78v36.51h30.49v12.9h902.64V467h-933.13v18.26h933.13V953.87h-933.13v18.26h933.13v468.65h-933.13V1459h933.13v305.38H-2208V1775h-30.78v42.26H591.34v-3.41h0V1459h50.28v-18.26H591.35V972.13h50.28V953.87H591.35V485.21Zm-1450,486.92H-372.4v468.65H-808.34Zm0-18.26V485.21H-372.4V953.87Zm0-486.92V228.51H-372.4V467Zm0,992.09H-372.4v305.38H-808.19V1775h-.15Zm466.57,305.38V1459H94.17v305.38Zm0-323.64V972.13H94.17v468.65Zm0-486.91V485.21H94.17V953.87Zm0-486.92V228.51H94.17V467ZM124.78,228.51H560.72V467H124.78Zm-1399.81,0h435.94V467H-1275Zm0,256.7h435.94V953.87H-1275Zm0,486.92h435.94v468.65H-1275Zm0,486.91h435.94V1775h-.17v-10.55H-1275ZM560.72,1775h-.15v-10.55H124.78V1459H560.72Zm0-334.19H124.78V972.13H560.72Zm0-486.91H124.78V485.21H560.72Z"/></g><path fill="url(#e)" d="M269.83,1031.38c-71,135.57-18.88,263.95,10.23,335.78,60,148.09,261.31,337.87,743.93,371,621.5,42.65,715.82-497.64,698.26-730.34S1677.72,469.76,1167.74,300,857.65,719.83,465.24,892.81C395.55,923.52,305.44,963.42,269.83,1031.38Z"/><path fill="#f7a180" d="M269.83,1031.38c-71,135.57-18.88,263.95,10.23,335.78,60,148.09,261.31,337.87,743.93,371,621.5,42.65,715.82-497.64,698.26-730.34S1677.72,469.76,1167.74,300,857.65,719.83,465.24,892.81C395.55,923.52,305.44,963.42,269.83,1031.38Z" data-name="SVGID"/><path fill="url(#g)" d="M306.71,785.62a40.92,40.92,0,0,0,33.7,24.88c58.3,5.71,142.41-19,229.38-128.3C667,560,773.56,433.92,669.19,443.68S392.35,552.52,329.84,656.21C291.45,719.89,296.84,762.34,306.71,785.62Z"/><path fill="#f7a180" d="M269.83,1031.38c-71,135.57-18.88,263.95,10.23,335.78,60,148.09,261.31,337.87,743.93,371,621.5,42.65,715.82-497.64,698.26-730.34S1677.72,469.76,1167.74,300,857.65,719.83,465.24,892.81C395.55,923.52,305.44,963.42,269.83,1031.38Z" data-name="SVGID"/><rect width="1383.26" height="10.51" x="287.52" y="1740.7" fill="#fffae6"/><path fill="#fffae6" d="M1508.36 1049.14l-80.81.06c-.24-11.62-.34-18.69-.34-21.23q0-39.3 12.93-64.66t51.92-57.09q39-31.76 46.57-41.57a55.59 55.59 0 0011.69-34.23q0-26-20.79-44.52t-56-18.48q-33.91 0-56.72 19.38t-31.32 59l-81.78-10.07Q1307.2 779 1352 739.31t117.71-39.72q76.66-.06 122 40t45.39 93.29q0 29.49-16.6 55.79t-71.08 71.68q-28.2 23.49-35 37.75T1508.36 1049.14zm-80.76 75.33h0a44.53 44.53 0 0144.5-44.56h0a44.53 44.53 0 0144.56 44.49h0a44.52 44.52 0 01-44.49 44.56h0A44.53 44.53 0 011427.6 1124.47zM1132.84 672.47l-59.62 0c-.18-8.57-.25-13.79-.25-15.66q0-29 9.54-47.71T1120.82 567q28.74-23.43 34.35-30.67a41 41 0 008.63-25.26q0-19.17-15.34-32.84t-41.28-13.64q-25 0-41.86 14.3t-23.1 43.51L981.87 515q2.55-41.87 35.61-71.12t86.85-29.31q56.58 0 90.05 29.51t33.49 68.84a75.48 75.48 0 01-12.25 41.16q-12.22 19.42-52.44 52.88-20.81 17.34-25.82 27.86T1132.84 672.47zm-59.58 55.58h0a32.85 32.85 0 0132.83-32.88h0A32.85 32.85 0 011139 728h0a32.84 32.84 0 01-32.82 32.87h0A32.85 32.85 0 011073.26 728.05zM782 1070.09l-59.62.05c-.18-8.57-.25-13.79-.25-15.67q0-29 9.54-47.71T770 964.65Q798.69 941.22 804.3 934a41 41 0 008.63-25.25q0-19.17-15.34-32.84t-41.28-13.65q-25 0-41.86 14.31t-23.1 43.51L631 912.62q2.55-41.86 35.61-71.12t86.85-29.31q56.58 0 90.06 29.51T877 910.53q0 21.76-12.24 41.17t-52.45 52.88q-20.8 17.34-25.81 27.86T782 1070.09zm-59.58 55.58h0a32.84 32.84 0 0132.83-32.87h0a32.84 32.84 0 0132.87 32.82h0a32.84 32.84 0 01-32.82 32.88h0A32.85 32.85 0 01722.39 1125.67zM1156.42 1038.25l-37.22 0q-.17-8-.15-9.78 0-18.11 6-29.79t23.92-26.29q17.94-14.62 21.45-19.15a25.6 25.6 0 005.37-15.77q0-12-9.57-20.5t-25.77-8.52q-15.62 0-26.13 8.93t-14.42 27.17l-37.67-4.64q1.58-26.13 22.23-44.41t54.21-18.29q35.33 0 56.22 18.43t20.91 43a47.18 47.18 0 01-7.64 25.7q-7.63 12.12-32.75 33-13 10.82-16.11 17.38T1156.42 1038.25zm-37.19 34.7h0a20.49 20.49 0 0120.49-20.52h0a20.5 20.5 0 0120.52 20.49h0a20.5 20.5 0 01-20.49 20.52h0A20.49 20.49 0 011119.23 1073zM849.13 690.25l-25.21 0c-.06-3.62-.1-5.82-.1-6.62q0-12.25 4-20.17t16.19-17.8q12.15-9.9 14.52-13A17.31 17.31 0 00862.22 622a18 18 0 00-6.49-13.89q-6.47-5.77-17.44-5.76-10.59 0-17.7 6t-9.77 18.39l-25.51-3.14q1.08-17.7 15.05-30.07t36.72-12.38q23.91 0 38.07 12.47t14.16 29.1a32 32 0 01-5.17 17.4Q879 648.42 862 662.56q-8.81 7.34-10.92 11.77T849.13 690.25zM824 713.75h0a13.87 13.87 0 0113.87-13.89h0a13.88 13.88 0 0113.9 13.87h0a13.88 13.88 0 01-13.88 13.9h0A13.87 13.87 0 01824 713.75zM1380.34 575.64h-25.21q-.11-5.43-.11-6.62 0-12.25 4-20.17t16.19-17.81q12.16-9.9 14.53-13a17.37 17.37 0 003.65-10.68 18 18 0 00-6.49-13.88q-6.48-5.77-17.45-5.77-10.59 0-17.7 6T1342 512.2l-25.5-3.14q1.07-17.69 15-30.07t36.71-12.39q23.92 0 38.08 12.48t14.16 29.1a32.08 32.08 0 01-5.18 17.4q-5.17 8.22-22.18 22.36-8.79 7.32-10.91 11.78T1380.34 575.64zm-25.19 23.49h0a13.89 13.89 0 0113.88-13.9h0a13.9 13.9 0 0113.9 13.88h0a13.89 13.89 0 01-13.87 13.9h0A13.89 13.89 0 011355.15 599.13z" opacity=".8"/><path fill="#d93f57" d="M869,776.77c-11.87.39-59.54-9.86-107.72-22.22-14.31-3.65-28.67-7.5-42.12-11.32-31.6-8.93-58.38-17.65-68.36-23.22-9.7-5.45,7.19-73.36,48.29-72.9,17.5.21,191.22,62.73,206.6,78.79C923.69,744.75,899.39,775.78,869,776.77Z"/><path fill="#951a2e" d="M909.92,750.16c3.31-8.3,2.53-17.15-4.28-24.27-15.38-16.06-189.1-78.2-206.6-78.77-9.92-.33-27.57,6.6-36.23,16.67C802.55,701.51,916.84,726.93,909.92,750.16Z"/><path fill="#fed2a7" d="M879.19,719.91c36.88-5.92,146.65,11.47,166.83.44s46.12-4.57,59.75,7c13.93,11.8,16.09,9.27,1,17.81-9.61,5.42-20.83,10-46.23,6.77S931.77,771,894.23,771.63C857,772.21,854.23,723.91,879.19,719.91Z"/><rect width="212.83" height="256.19" x="1003.22" y="712.56" fill="#fff"/><path fill="#951a2e" d="M1063.75 771.56h-41V734.88h41zm-39.12-1.92h37.2V736.8h-37.2zM1063.75 816.5h-41V779.83h41zm-39.12-1.91h37.2V781.75h-37.2zM1063.75 861.45h-41V824.78h41zm-39.12-1.92h37.2V826.69h-37.2zM1063.75 906.39h-41V869.72h41zm-39.12-1.92h37.2V871.64h-37.2zM1063.75 951.33h-41V914.66h41zm-39.12-1.91h37.2V916.58h-37.2z"/><polygon fill="#951a2e" points="1074.14 744.26 1074.14 746.82 1135.54 746.82 1135.61 744.26 1074.14 744.26"/><polygon fill="#951a2e" points="1074.14 751.95 1074.14 754.49 1204.42 754.49 1204.49 751.95 1074.14 751.95"/><polygon fill="#951a2e" points="1074.14 759.63 1074.14 762.18 1177.14 762.18 1177.21 759.63 1074.14 759.63"/><polygon fill="#951a2e" points="1141.96 746.82 1160.92 746.82 1160.99 744.26 1142.04 744.26 1141.96 746.82"/><polygon fill="#951a2e" points="1074.14 789.2 1074.14 791.76 1135.54 791.76 1135.61 789.2 1074.14 789.2"/><polygon fill="#951a2e" points="1074.14 796.89 1074.14 799.45 1204.42 799.45 1204.49 796.89 1074.14 796.89"/><polygon fill="#951a2e" points="1074.14 804.57 1074.14 807.12 1177.14 807.12 1177.21 804.57 1074.14 804.57"/><polygon fill="#951a2e" points="1141.96 791.76 1160.92 791.76 1160.99 789.2 1142.04 789.2 1141.96 791.76"/><polygon fill="#951a2e" points="1074.14 834.15 1074.14 836.7 1135.54 836.7 1135.61 834.15 1074.14 834.15"/><polygon fill="#951a2e" points="1074.14 841.83 1074.14 844.39 1204.42 844.39 1204.49 841.83 1074.14 841.83"/><polygon fill="#951a2e" points="1074.14 849.51 1074.14 852.07 1177.14 852.07 1177.21 849.51 1074.14 849.51"/><polygon fill="#951a2e" points="1141.96 836.7 1160.92 836.7 1160.99 834.15 1142.04 834.15 1141.96 836.7"/><polygon fill="#951a2e" points="1074.14 879.09 1074.14 881.64 1135.54 881.64 1135.61 879.09 1074.14 879.09"/><polygon fill="#951a2e" points="1074.14 886.78 1074.14 889.33 1204.42 889.33 1204.49 886.78 1074.14 886.78"/><polygon fill="#951a2e" points="1074.14 894.46 1074.14 897.01 1177.14 897.01 1177.21 894.46 1074.14 894.46"/><polygon fill="#951a2e" points="1141.96 881.64 1160.92 881.64 1160.99 879.09 1142.04 879.09 1141.96 881.64"/><polygon fill="#951a2e" points="1074.14 924.03 1074.14 926.59 1135.54 926.59 1135.61 924.03 1074.14 924.03"/><polygon fill="#951a2e" points="1074.14 931.72 1074.14 934.27 1204.42 934.27 1204.49 931.72 1074.14 931.72"/><polygon fill="#951a2e" points="1074.14 939.41 1074.14 941.95 1177.14 941.95 1177.21 939.41 1074.14 939.41"/><polygon fill="#951a2e" points="1141.96 926.59 1160.92 926.59 1160.99 924.03 1142.04 924.03 1141.96 926.59"/><polygon fill="url(#b)" points="1056.24 877.1 1052.3 873.67 1043.23 884.08 1034.17 873.67 1030.22 877.1 1039.77 888.05 1030.22 899.01 1034.17 902.43 1043.23 892.03 1052.3 902.43 1056.24 899.01 1046.69 888.05 1056.24 877.1"/><polygon fill="url(#h)" points="1056.24 922.04 1052.3 918.61 1043.23 929.02 1034.17 918.61 1030.22 922.04 1039.77 932.99 1030.22 943.95 1034.17 947.38 1043.23 936.97 1052.3 947.38 1056.24 943.95 1046.69 932.99 1056.24 922.04"/><polygon fill="url(#i)" points="1056.24 787.21 1052.3 783.78 1043.23 794.19 1034.17 783.78 1030.22 787.21 1039.77 798.16 1030.22 809.12 1034.17 812.55 1043.23 802.14 1052.3 812.55 1056.24 809.12 1046.69 798.16 1056.24 787.21"/><path fill="#d93f57" d="M1040.46 857.75c-1.27 0-4.11-.75-12.31-12.35a2.52 2.52 0 014.11-2.91 79.71 79.71 0 007.67 9.43c3.54-5.72 13.71-21.53 14.21-22.3a2.52 2.52 0 014.23 2.73c-3.84 6-14 21.86-15.12 23.8a3 3 0 01-2.51 1.59zM1040.46 768.79c-1.27 0-4.11-.76-12.31-12.35a2.52 2.52 0 014.11-2.91 78.67 78.67 0 007.67 9.42c3.54-5.71 13.71-21.52 14.21-22.29a2.51 2.51 0 014.23 2.72c-3.84 6-14 21.87-15.12 23.81a3 3 0 01-2.51 1.59z"/><path fill="#fed2a7" d="M1104.54,709.47a1.35,1.35,0,0,0-.66.88c-.88-1.45-2-2.87-3.58-3.08-2-.27-3.47,1.52-4.6,2.86,0,.06-.07.14-.12.21-1.49-3.39-3.81-6.32-7.23-6-3.23.33-4.36,3.06-4.63,6.3a16.37,16.37,0,0,0-2.2-3.21c-3.24-3.67-7.72-.38-9.55,3a1.44,1.44,0,0,0,0,1.48,1.29,1.29,0,0,0,0,.39,43.31,43.31,0,0,0,2.09,10.25c.78,2.29,1.71,5.74,3.7,7.38,3.55,2.92,6.14-1.79,7.38-5.11.53,3.51,2,6.65,6.3,5.41A8.22,8.22,0,0,0,1097,725a10.06,10.06,0,0,0,2.57,4.19c3,2.76,6.15-1.08,7.22-3.82a11.77,11.77,0,0,0,.78-4,2.09,2.09,0,0,0,.75.45c2.42.83,4.57-2.29,5.2-4.16A6.54,6.54,0,0,0,1104.54,709.47Z"/><path fill="#951a2e" d="M1628.09,1740.55H713.52c-27.2,0-46.16-22.07-42.34-49.27L752.25,1068c3.82-27.21,29-49.25,56.18-49.25H1723c27.2,0,46.16,22,42.34,49.25l-81.08,623.32C1680.45,1718.48,1655.29,1740.55,1628.09,1740.55Z"/><path fill="#d93f57" d="M1591.36,1694.08H676.78c-27.2,0-46.16-22-42.34-49.25L715.52,1068c3.83-27.21,29-49.25,56.18-49.25h914.58c27.19,0,46.16,22,42.33,49.25l-81.07,576.87C1643.71,1672,1618.56,1694.08,1591.36,1694.08Z"/><path fill="#fffae6" d="M677.24,1622.28,752,1090.52c3.52-25.08,26.7-45.41,51.79-45.41h843c25.08,0,42.55,20.33,39,45.41l-74.74,531.76Z"/><path fill="#951a2e" d="M286.6,1635.13H1651.67a0,0,0,0,1,0,0v97.43a8,8,0,0,1-8,8H294.59a8,8,0,0,1-8-8v-97.43A0,0,0,0,1,286.6,1635.13Z"/><polygon fill="#d93f57" points="1644.6 1673.95 285.12 1673.95 285.12 1635.07 1648.91 1635.07 1644.6 1673.95"/><polygon fill="url(#j)" points="1347.62 1621.91 1342.44 1622.28 872.68 1622.28 871.83 1060.2 871.74 1038.28 871.65 955.83 871.65 947.77 1341.44 946.08 1346.68 946.08 1346.68 954.14 1346.78 1036.6 1346.87 1058.52 1347.62 1621.91"/><polygon fill="#d25927" points="1342.44 1622.28 1342.47 1621.91 1341.63 1058.52 1341.53 1036.69 1341.44 954.14 1341.44 946.08 1351.18 946.08 1356.71 945.99 1452.47 945.62 1452.47 953.77 1452.56 1036.31 1452.66 1058.14 1453.4 1622.28 1342.44 1622.28"/><polygon fill="#951a2e" points="1452.56 1036.31 1452.66 1058.14 1352.12 1058.52 1341.63 1058.52 871.83 1060.2 871.74 1038.28 850.38 1038.37 849.54 955.92 871.65 955.83 1341.44 954.14 1356.81 954.14 1452.47 953.77 1469.62 953.67 1470.46 1036.21 1452.56 1036.31" opacity=".3"/><polygon fill="url(#k)" points="1357.65 1036.6 1346.78 1036.6 1341.53 1036.69 871.74 1038.28 850.38 1038.37 849.54 955.92 849.25 934.1 1350.99 932.31 1356.62 932.31 1356.71 945.99 1356.81 954.14 1357.65 1036.6"/><polygon fill="#d25927" points="1470.64 1036.21 1470.46 1036.21 1452.56 1036.31 1352.12 1036.69 1352.12 1036.6 1351.28 954.14 1351.18 946.08 1350.99 932.31 1356.62 932.31 1469.62 931.75 1470.64 1036.21"/><path fill="#951a2e" d="M955.41 1175.11a37.88 37.88 0 012.72-15.26 28 28 0 015.55-8.16 22.92 22.92 0 017.69-5.35A32.45 32.45 0 01984.2 1144q13.14 0 21 8.16t7.9 22.69q0 14.42-7.84 22.55t-20.95 8.13q-13.26 0-21.1-8.09T955.41 1175.11zm12.39-.4q0 10.1 4.66 15.32a16 16 0 0023.65 0q4.6-5.17 4.61-15.53t-4.49-15.26a16.63 16.63 0 00-23.89.06Q967.79 1164.44 967.8 1174.71zM1022.64 1204.5V1145h11.68l24.36 39.73V1145h11.16v59.5h-12l-24-38.8v38.8zM1082.88 1204.5v-59h12v49h29.87v10zM1133 1204.5V1145h12v59.5zM1156.55 1204.5V1145h11.69l24.35 39.73V1145h11.17v59.5H1191.7l-24-38.8v38.8zM1216.46 1204.5V1145h44.12v10.06h-32.11v13.2h29.88v10h-29.88v16.2h33.25v10zM942.4 1275.2l11.69-1.14q1 5.89 4.28 8.65c2.15 1.84 5.06 2.76 8.71 2.76 3.87 0 6.78-.82 8.75-2.45a7.33 7.33 0 002.94-5.75 5.41 5.41 0 00-1.24-3.6 10 10 0 00-4.32-2.57q-2.12-.74-9.62-2.6-9.66-2.4-13.56-5.88a15.51 15.51 0 01-5.48-12 15.34 15.34 0 012.58-8.51 16.16 16.16 0 017.43-6 29.73 29.73 0 0111.71-2.07q11.21 0 16.86 4.91a17.32 17.32 0 016 13.11l-12 .53q-.76-4.59-3.3-6.6t-7.61-2q-5.24 0-8.21 2.15a4.36 4.36 0 00-1.91 3.7 4.57 4.57 0 001.79 3.61q2.28 1.9 11 4a58.81 58.81 0 0113 4.28 16.7 16.7 0 016.57 6 17.71 17.71 0 012.37 9.48 17.48 17.48 0 01-2.84 9.58 17 17 0 01-8 6.64 33.79 33.79 0 01-12.94 2.17q-11.28 0-17.34-5.22T942.4 1275.2zM1000.8 1235.05h12v32.23a66.42 66.42 0 00.45 10 9.6 9.6 0 003.67 5.86 12.8 12.8 0 007.94 2.22q5.11 0 7.71-2.09a8.31 8.31 0 003.13-5.14 67.05 67.05 0 00.53-10.11v-32.92h12v31.26q0 10.73-1 15.14a16.61 16.61 0 01-3.59 7.47 18.07 18.07 0 01-7 4.85 30.52 30.52 0 01-11.45 1.8q-8.52 0-12.92-2a18.49 18.49 0 01-7-5.12 16.35 16.35 0 01-3.36-6.59c-.79-3.42-1.19-8.44-1.19-15.1zM1061 1294.56v-59.51h25.29q9.54 0 13.86 1.61a13.64 13.64 0 016.92 5.7 17.07 17.07 0 012.6 9.38 15.91 15.91 0 01-3.93 11.06q-3.95 4.37-11.78 5.49a28.44 28.44 0 016.43 5 67.47 67.47 0 016.84 9.66l7.27 11.61H1100.1l-8.69-12.94a83.86 83.86 0 00-6.33-8.76 9.21 9.21 0 00-3.61-2.47 19.7 19.7 0 00-6-.67H1073v24.84zm12-34.34h8.88q8.66 0 10.8-.73A6.4 6.4 0 001096 1257a7.81 7.81 0 001.22-4.47 7.16 7.16 0 00-1.6-4.85 7.35 7.35 0 00-4.53-2.33q-1.47-.21-8.77-.21H1073zM1134.65 1294.56l-21.27-59.51h13l15.06 44 14.57-44h12.75l-21.31 59.51zM1174.91 1294.56v-59.51H1219v10.07h-32.11v13.2h29.88v10h-29.88v16.2h33.25v10zM1246 1294.56v-25l-21.79-34.47h14.08l14 23.54 13.73-23.54h13.84L1258 1269.6v25z"/><path fill="#fff" d="M1212.81,1444.5a101.76,101.76,0,1,1-98-105.36A101.77,101.77,0,0,1,1212.81,1444.5Z"/><path fill="#951a2e" d="M1096.56,1501.72c-5.61-.54-17.75-5.88-49-53.56a10.55,10.55,0,1,1,17.65-11.55c10.06,15.37,23.09,32.83,30.74,40.64,15.66-23.41,60.67-88.11,62.86-91.26a10.55,10.55,0,0,1,17.31,12c-17,24.41-62.09,89.49-66.9,97.46a12.86,12.86,0,0,1-10.81,6.27A15.82,15.82,0,0,1,1096.56,1501.72Z"/><polygon fill="#951a2e" points="413.82 1740.46 407.97 1740.34 416.32 1559.04 422.18 1559.17 413.82 1740.46"/><path fill="#951a2e" d="M442.78,1562c-24.86,0-106-1-106-13.4s81.13-13.41,106-13.41,106,1,106,13.41S467.65,1562,442.78,1562Zm-98.68-13.4c8.63,3.43,44.09,7.53,98.68,7.53s90-4.1,98.68-7.53c-8.64-3.44-44.09-7.55-98.68-7.55S352.73,1545.2,344.1,1548.64Z"/><path fill="#fffae6" d="M342.66,1454.21a107.88,107.88,0,1,0,200.24,0Z"/><path fill="#fffae6" d="M542.9,1454.2c0,8.75-44.82,15.86-100.12,15.86S342.66,1463,342.66,1454.2s44.83-15.86,100.12-15.86S542.9,1445.45,542.9,1454.2Z"/><path fill="#84605a" d="M533.05,1454.2c0,6.48-40.41,11.73-90.27,11.73s-90.26-5.25-90.26-11.73,40.41-11.73,90.26-11.73S533.05,1447.72,533.05,1454.2Z"/><path fill="#fff" d="M533.09,1490.6c-.24-8.08-12.81-8.11-12.57,0,.57,19.18-1.91,38.31-15.76,52.72-5.61,5.83,3.27,14.73,8.89,8.88C529.77,1535.44,533.76,1513.16,533.09,1490.6Z" opacity=".42"/><path fill="#951a2e" d="M442.78,1562c-24.86,0-106-1-106-13.4h5.86a1.53,1.53,0,0,0-.33-1c3.55,3.58,40.43,8.54,100.46,8.54s96.91-5,100.46-8.54a1.61,1.61,0,0,0-.32,1h5.85C548.77,1561.07,467.65,1562,442.78,1562Z"/><polygon fill="#951a2e" points="321.67 1740.35 315.82 1739.95 338.22 1550.18 344.07 1550.58 321.67 1740.35"/><polygon fill="#951a2e" points="558.72 1740.37 539.98 1551.33 545.82 1550.9 564.57 1739.94 558.72 1740.37"/><polygon fill="#951a2e" points="458.26 1740.4 454.56 1559.17 460.42 1559.04 464.12 1740.28 458.26 1740.4"/><path fill="#fffae6" d="M533,1454.22c0,4.76-21.7,8.84-52.94,10.66-1.83.1-3.7.22-5.63.27-2.63.16-5.25.27-8,.32-1.77.11-3.59.16-5.47.21q-6.11.16-12.54.17c-1.88.05-3.75.05-5.63.05h0c-8.36,0-16.45-.17-24.12-.43-1.92,0-3.86-.16-5.73-.22-35.15-1.6-60.4-5.89-60.4-11,0-4.67,21.06-8.74,51.56-10.61l6-.33c9.11-.48,18.92-.75,29.15-.8h5.68q9.33,0,18.12.27c1.88,0,3.64.16,5.47.21,3,.11,6.05.27,9,.43,1.88.06,3.76.22,5.58.27C512.72,1445.64,533,1449.6,533,1454.22Z"/><path fill="#d93f57" d="M504.68,1352.27c-10,19.31,8.91,38.07,27,43.67a84.3,84.3,0,0,0,35.76,2.86c-5.14-6.64-10-13.46-14.76-20.43-4.89-7.19-10.38-13.82-15.37-20.91-3.4-4.81-7.15-11-5.8-17.17.79-3.63,3.69-8.74,7.88-9,9.39-.63,14.09,17.6,16.33,24.2,5.62,16.51,15.22,28.62,27.88,39.59a79.44,79.44,0,0,0,18.56-9A75.86,75.86,0,0,0,635,1335.4c.63-4,1.19-9.29,1.52-15.43a96.94,96.94,0,0,1-30.81,9.81c-5.53.72-15.64,1.69-20.17-2.35-5.31-4.71,2.08-10.48,6.8-11.17,5.62-.82,11.38.49,17,1a55.79,55.79,0,0,0,26.23-4.13,1.6,1.6,0,0,1,1.25,0c.41-21-2.21-49.36-13.73-74-10.41,11.82-22.85,21.25-35.43,31-5.47,4.24-11.77,9.84-18.78,11.14-2.74.5-8.55.49-9.66-3-2.11-6.58,14.19-14.19,18.53-16.4,14-7.12,37.52-13.49,39.87-31.91a1.47,1.47,0,0,1,.26-.68A86.41,86.41,0,0,0,591.06,1201a94.93,94.93,0,0,0-19.87-10c-.88,6.62-1.39,23.47-8.65,23-5.5-.33-8.07-10-7.4-14.21.73-4.52,3.48-8.37,7-11.5a75.41,75.41,0,0,0-34.8.21c-4.56,6.62-8.77,13.46-11.34,21.15-3,8.86-3,16.73-3.17,25.84-.07,3.72.42,12-3.62,14.29-2.47,1.38-5.73.08-7.31-2-5.8-7.46.45-23.62,2.8-31.21,2.3-7.41,4.81-15.91,8.42-23.41-17.8,7.55-33.81,20.66-47.13,35.66a99.22,99.22,0,0,0,4.66,14.42c2.78,6.33,6.45,12.22,9.63,18.37a1.36,1.36,0,0,1,.65.77,10.26,10.26,0,0,1,.35,1.15h0a1.44,1.44,0,0,1,.15.69c.88,4.37-.29,9.73-6.1,7.68-5.47-1.93-10.07-11-12.93-15.73a80.22,80.22,0,0,1-7-14.31c-15.2,20.49-25.36,42.44-28.38,57.84-2.62,13.33-1.34,28.58,6.45,39.65,5.68-2.27,11.22-5.79,14.64-10.21,2.79-3.59,4.31-8.21,7.86-11.24,4-3.41,10-2.12,10.07,3.65.09,7-7,14.5-11.56,19.09a52.55,52.55,0,0,1-10.35,8.54C461.41,1359.45,485.27,1356.55,504.68,1352.27Zm93.91-62.49a10.4,10.4,0,0,1,7.89-8.37c3.37-.6,4.69,2.59,4.66,5.4a17.7,17.7,0,0,1-.45,3.56,1.44,1.44,0,0,1,.21,1.22c-.58,2.21-1.79,4.75-3.71,5.94-.23.27-.47.55-.73.8a1.48,1.48,0,0,1-2.24-.21,4.7,4.7,0,0,1-.81-.13C600.06,1297,598.24,1293.06,598.59,1289.78Zm-113.32,3.82c2.48-2.1,6.39-2,9.25-.84.05,0,.07.06.12.08a1.34,1.34,0,0,1,.94,1,9.28,9.28,0,0,1-2.35,9.36,5.21,5.21,0,0,1-7.78-.65C483.35,1300,482.46,1296,485.27,1293.6Z"/><path fill="url(#c)" d="M290.92,1245.72a129.48,129.48,0,0,1-30.35,7.43l.18.59a89.75,89.75,0,0,0,3.93,9.59c12.7,1.59,24.88-1.08,36.7-7.24,9.84-5.12,20.45-8.11,31.62-7.28a1.54,1.54,0,0,1,1.31,2.28c-4.45,9.7-19.14,12.17-28.42,13.78a265,265,0,0,1-38.67,3.49,94.38,94.38,0,0,0,28.22,31.49c1.55,1.09,3.15,2.1,4.76,3.06,15.19.78,30.47-5.85,43.51-13.05,3.79-2.09,14.14-8.52,15.42-.57,1.48,9.23-8.57,13.76-15.8,15.2-6.64,1.32-13.46,1.7-20.13,2.8-3.39.55-6.76,1.18-10.14,1.81,33.56,12.49,88.09,12,87.71-41.42,0-.26,50.83,29.93,49.92-28.43q-3.33,1.62-6.79,3.08c-5.67,2.37-16.79,7.64-22.72,3.33-7.37-5.35,1.15-15.75,6.13-19.05,7-4.64,14-7.38,20-13.48a138.64,138.64,0,0,0,15.71-19.56,80.72,80.72,0,0,0-1.74-29.22c-5.63-21.56-23.09-35.73-41.48-46.68-.28-.17-.58-.31-.87-.48a73.77,73.77,0,0,1,3.8,19.39c.77,11.28,2.28,22.83-.3,34-1.72,7.49-9.73,27.62-20,25.84-12.18-2.12,2.89-21.21,5.49-25.31,11.89-18.76,13.15-38.64,4-57.81-24.38-13-51-20.65-78.11-26,8.13,11,14.93,22.73,19.05,36,2.61,8.38,9,33.52-4.5,37.13-12.75,3.43-9.41-24.53-9.84-29.87-1.51-18.76-10.8-33.84-23.82-46.64-12-2-23.95-3.63-35.81-5.26a1.57,1.57,0,0,0-1.87,1.06c-2.75,11.95-5.5,23.9-8.07,35.89a70.6,70.6,0,0,0,2.39,6.77c1.51,3.69,5.19,6.77,6.17,10.57.66,2.51-.54,6.3-3.75,5.79-3.44-.56-5.9-6.15-7.19-8.78l-.42-.86c-3,15.1-5.69,30.26-7.6,45.55-.22,1.7-.43,3.42-.63,5.13,6.45,8.28,16.55,14.61,26,17.57s20.25,2.32,28.31,9a1.57,1.57,0,0,1,0,2.15c-7.44,8.66-21.74,2.1-30.05-1.79-10-4.64-17.95-11.1-25.27-18.55-2.21,20.68-3.09,42.29,2.65,62.13a126.74,126.74,0,0,0,30.45-7.41C291.94,1242.1,292.73,1245,290.92,1245.72Zm15.77-104.32c-2.87,1-6.25-.14-8.52-2-5.91-4.86-.95-13.22,6.14-12.13a5.87,5.87,0,0,1,5.18,4.85,1.19,1.19,0,0,1,.69,1C310.69,1136.34,310.26,1140.16,306.69,1141.4ZM374,1269.84a4.31,4.31,0,0,1,6.8-.87,8.19,8.19,0,0,1,2,5.48,1.3,1.3,0,0,1,.3,2.24c-2.28,1.79-5.13,1.42-7.32-.37C374,1274.79,372.63,1272.11,374,1269.84Zm-.13-120c4.39-2.56,9.75-1.17,10.45,4.22a19.33,19.33,0,0,1-2.36,11,1.65,1.65,0,0,1,0,.67c-.5,3.16-2.23,8.45-6.48,6.37-3.54-1.75-5.25-7-5.82-10.55C369,1157.27,369.78,1152.25,373.88,1149.86Zm-42.82,59.47a5.1,5.1,0,0,1,7.71.74,1.69,1.69,0,0,1,2.32,1.31c.45,3.36-.86,6.76-4.1,8.17-2.43,1-5.64.81-7.44-1.29C327.29,1215.61,328.8,1211.48,331.06,1209.33Z"/><path fill="url(#l)" d="M546,1470.26a78.86,78.86,0,0,0-6.38,18.82l-.39-.15a60.17,60.17,0,0,1-6.16-3c-.44-8.11,1.92-15.68,6.56-22.84,3.87-6,6.36-12.53,6.35-19.63a1,1,0,0,0-1.45-.94c-6.63,2.32-9,11.49-10.49,17.27a162.6,162.6,0,0,0-4.18,24.28,61.74,61.74,0,0,1-19.49-19.44c-.65-1-1.24-2.1-1.8-3.16.22-9.65,5.35-19,10.74-26.86,1.57-2.29,6.33-8.51,1.12-9.72-6-1.4-9.52,4.73-10.83,9.22-1.19,4.13-1.76,8.43-2.82,12.59-.53,2.12-1.11,4.22-1.69,6.32-6.65-21.85-3.71-56.32,31.66-53.37.18,0-17.37-33.65,21.24-30.13-.82,1.35-1.61,2.72-2.36,4.13-1.85,3.47-5.88,10.24-3.31,14.21,3.19,4.93,10.49.06,12.92-2.92,3.41-4.19,5.56-8.46,9.9-12a90.63,90.63,0,0,1,13.7-9,56,56,0,0,1,19.27,2.58c14,4.64,22.55,16.41,28.91,28.58.1.2.18.39.28.58a51,51,0,0,0-12.66-3.38c-7.43-1.06-15-2.59-22.52-1.53-5,.71-18.77,4.77-18.08,11.33.81,7.8,14.18-.76,17-2.2,13-6.57,26.23-6.36,38.48.41,7.44,16.07,11.22,33.28,13.46,50.7a82.16,82.16,0,0,0-22.91-13.86c-5.41-2.07-21.76-7.36-24.8,1-2.88,7.89,15.79,7.19,19.31,7.73,12.35,1.91,21.89,8.54,29.74,17.42.72,7.66,1.24,15.33,1.75,22.92a1,1,0,0,1-.79,1.12c-8,1.14-16.1,2.28-24.16,3.3-1.49-.55-2.94-1.17-4.37-1.85-2.37-1.15-4.23-3.63-6.7-4.45-1.63-.54-4.2,0-4,2.08.2,2.21,3.78,4,5.46,5l.55.31c-10.14,1.16-20.32,2.07-30.54,2.51l-3.43.14a35,35,0,0,1-10.37-17.36c-1.51-6.18-.55-12.93-4.57-18.36a1,1,0,0,0-1.42-.1c-6.09,4.26-2.44,13.63-.27,19.09a54.87,54.87,0,0,0,11.07,16.91c-13.8.36-28.15-.18-41-4.81a77.71,77.71,0,0,1,6.38-18.88C548.49,1469.79,546.58,1469.15,546,1470.26Zm69.85-4.71a5.65,5.65,0,0,0,.92,5.49c2.93,4,8.7,1.28,8.33-3.26a3.81,3.81,0,0,0-3-3.52.84.84,0,0,0-.62-.5C619.44,1463.28,616.88,1463.37,615.89,1465.55Zm-81.81-49.06a2.67,2.67,0,0,0,.9-4.26,5.6,5.6,0,0,0-3.53-1.55.88.88,0,0,0-1.46-.3,3.47,3.47,0,0,0-.12,4.65C530.79,1416.28,532.51,1417.25,534.08,1416.49Zm79.45,6.15c1.91-2.64,1.24-6.11-2.3-6.82a13.3,13.3,0,0,0-7.4.93,1,1,0,0,0-.44-.06c-2.11.16-5.7,1-4.53,3.77,1,2.34,4.37,3.68,6.7,4.22C608.39,1425.34,611.75,1425.11,613.53,1422.64Zm-41.46,24.08a3.13,3.13,0,0,0-.12-4.92,1.07,1.07,0,0,0-.75-1.54,5,5,0,0,0-5.61,2.19,4,4,0,0,0,.5,4.76C567.73,1448.78,570.55,1448,572.07,1446.72Z"/><path fill="#d93f57" d="M252.56,1364.79c1.14,1,2.33,1.89,3.53,2.76a53.87,53.87,0,0,0,17.86,1.93c7.2-.49,14-2.74,21-3.89,5.28-.86,21-.17,17.26,10.14-2.23,6.19-12.18,7.4-19,8a97,97,0,0,1,10.23,4.5c8.64,4.49,14.52,10.93,20.59,18.18,5.36,2.14,10.9,3.93,16.49,3.81,5-.1,7.78-2.51,12.15-4.18,3.54-1.35,8.59-1,6.71,4.51-1.95,5.77-10.18,6.16-15,6.34a82.35,82.35,0,0,1-11.3-.42c4.26,3.91,9.08,6.83,14.87,7.64,16.16,2.3,28.57-11.28,27.91-27.86,16.61,12.86,38,8.28,51.67-5.91,6.31-6.55,9.28-13.75,8.53-22.8-9,9.62-25,22.6-32,11.39-3.4-5.41,3.61-9.7,7.17-11.73,7.57-4.33,15.82-6.35,22.81-11.28a210.3,210.3,0,0,0-8.58-29.26,125.33,125.33,0,0,0-14-27.27c-.59,14.14-2.15,28.51-5.88,41.87-1.19,4.27-4.55,14.49-10.25,9.13-8.28-7.79.21-21.81,3.24-29.26,4.22-10.36,4.66-22,3.22-33.47a76.26,76.26,0,0,0-10.61-9.1c-11.46-8.07-24.54-12.77-37.88-15.51,1.52,3.9,2.86,7.86,4.13,11.58,3,8.89,7.47,20.8,5.65,30.25-1,5.17-7.72,10.46-11.32,4.06-2.28-4.06-.46-9.76-.85-14.08-1-11.65-7-23.29-12.27-33.47a1.59,1.59,0,0,1-.18-.64c-2-.22-4-.42-5.94-.57a178.68,178.68,0,0,0-33.14.4c6.12,4.47,11.19,11.56,10.62,19.45-.49,6.82-5.12,15.43-12.49,13.46-10.45-2.8-12.2-19.59-10.58-30.88a92.69,92.69,0,0,0-20.94,7A43.36,43.36,0,0,0,245.78,1290c8.55,10.84,19.45,18.07,30.59,25.48,2.72,1.8,11.55,7.8,6.49,11.55-4.6,3.41-13.67-5-17.17-7.85-8.78-7.09-14.69-16.82-21.36-25.93a66.68,66.68,0,0,0-4.52,19.43,112.57,112.57,0,0,0,.63,27.17c12-.5,24.37-10.93,35.61-1.46a1.64,1.64,0,0,1-.11,2.49c-6,5-16.18,3.75-23.44,4.34-3.58.29-7.16.53-10.74.74C243.73,1353.34,247.07,1360,252.56,1364.79Zm109.33-19.58c-.66-3.74.28-8.26,2.77-10.91a4.19,4.19,0,0,1,4.18-1.47c2.11.61,3.21,3,3.9,5a1.58,1.58,0,0,1,.08.73,14.46,14.46,0,0,1,1.31,8.16c-.36,2.9-1.88,6.73-5.06,6.84C365.35,1353.67,362.5,1348.55,361.89,1345.21Zm-40.8-27.92a8.74,8.74,0,0,1-2.93-10.7c1.67-3.41,5-3.78,7.85-1.83a1.44,1.44,0,0,1,.9.36c2.87,2.48,4.16,6.69,2.38,10.13A5.4,5.4,0,0,1,321.09,1317.29Zm24.63,61.34a1.47,1.47,0,0,1,.06,2.24c1.09,2.88,1,6.22-1,8.47-2.62,2.88-7.17,1.47-9.16-1.84C331.57,1380.82,340.29,1373.94,345.72,1378.63Z"/><path fill="#951a2e" d="M418.67 1465.47c-1.92 0-3.86-.16-5.73-.22-2-5.78-4.13-11.52-6.7-17.15-.69-1.49-1.39-3-2.14-4.49a209.36 209.36 0 00-58.84-72.72c-2.79-2.26 1.18-6.17 4-4a213.55 213.55 0 0160 74.27c.32.7.64 1.39.91 2.09A173.5 173.5 0 01418.67 1465.47zM448.47 1465.85c-1.88.05-3.75.05-5.63.05-1-7.83-2.25-15.65-3.59-23.42-2.31-13.5-5-27-8-40.3-6.33-28.18-13.77-56.11-21.27-84-7.35-27.27-15.23-54.45-32.05-77.6-2.15-2.89 2.73-5.68 4.81-2.78 16.19 22.19 24.29 48.07 31.41 74.32 8.47 31.15 16.77 62.39 23.64 93.9 2.62 12.11 5.08 24.27 7.12 36.49C446.27 1450.25 447.46 1458.07 448.47 1465.85zM515.19 1337.55a320.87 320.87 0 00-18.22 46c-.75 2.25-1.4 4.51-2 6.75h-.05a427.22 427.22 0 00-11.79 53.38c-1.18 7-2.15 14.15-3 21.22-1.83.1-3.7.22-5.63.27.91-7.29 1.88-14.53 3.05-21.76a454.51 454.51 0 0110.13-47.8c.81-2.89 1.61-5.85 2.52-8.74a341.26 341.26 0 0120.2-52.14C511.91 1331.44 516.74 1334.28 515.19 1337.55z"/><path fill="#951a2e" d="M567.06,1423.4c-14.47-9.59-28.88-19.4-43.46-28.83-8.14-5.25-16.18-9.16-25.93-5.58a21.61,21.61,0,0,0-2.74,1.29,30.67,30.67,0,0,0-7.29,5.31,46,46,0,0,0-7.28,9.21c-6.7,11.1-10,24.34-11.84,38.16-1,7.45-1.62,15.06-2,22.51-1.77.11-3.59.16-5.47.21.48-7.5,1-15.27,2-22.93,2.41-19,7.44-37.3,19.61-49.78a40.45,40.45,0,0,1,7.5-6.12,32,32,0,0,1,6.81-3.32,26.48,26.48,0,0,1,18.59.27c8.42,3.27,16.3,9.8,23.8,14.79,10.13,6.75,20.25,13.45,30.38,20.2C572.64,1420.66,570,1425.33,567.06,1423.4Z"/><path fill="#fed2a7" d="M335.61,1703.72c33.14-11.19,45.68-65.6,51.48-94.75l36.42,13.67s-13.83,53.12-9.42,87.07-5.47,30.75-5.47,30.75H293.19S302.47,1714.9,335.61,1703.72Z"/><path fill="#951a2e" d="M335.61,1703.72c10-3.37,18.12-10.71,24.75-20.07,4.27-6.62,27.75.68,32.47,13.48,0,0,9.68,6.74,20.62,5.72.14,2.35.34,4.65.64,6.86,4.4,34-5.47,30.75-5.47,30.75H293.19S302.47,1714.9,335.61,1703.72Z"/><path fill="#fed2a7" d="M817.13,1706.36c-60.55,0-68.67-34.81-63.26-71.91H713.39c.49,16.52.26,42.49-4.29,65.58-6.79,34.48,10.37,40.43,10.37,40.43h147.4S845.54,1706.36,817.13,1706.36Z"/><path fill="#951a2e" d="M758.68,1708.77c5.67-8.6-11.46-25,1.31-25.69,8.68,14,26,23.28,57.14,23.28,28.41,0,49.74,34.1,49.74,34.1H719.47s-16.11-5.59-10.94-37.29C724,1703.17,750.12,1721.73,758.68,1708.77Z"/><path fill="#951a2e" d="M750.55,1263.11c-4.1-62-81.76,24.29-81.2,40.84.71,20.77,1.22,30.4-.6,103.2s11.42,109.35,23.36,143.14,11.22,109.32,11.22,109.32c42.24,4.05,60.66-7.19,60.66-7.19s-7.21-110-4.44-172.71S751.52,1277.67,750.55,1263.11Z"/><path fill="#951a2e" d="M717.16,1660.43c-.35-24.28-2.18-76.47-11.15-103.54-11.93-36-7.59-108.37-5.77-186s-16.28-54.54-17-76.68c-.22-7,11.88-25.71,26.8-41.6-20.49,15.73-41,42.8-40.7,51.33.71,20.77,1.22,30.4-.6,103.2s11.42,109.35,23.36,143.14,11.22,109.32,11.22,109.32C708.27,1660.08,712.86,1660.33,717.16,1660.43Z"/><path fill="#951a2e" d="M759.34,1072.41c-2.53,82.29-12.4,190.45-8.42,242,3.6,46.42-26.76,62.95-50.69,56.51-13.82-3.7-25.5-15.08-27.24-32.77-.06-.74-.11-1.48-.16-2.21s-.05-1.51-.05-2.3c0-1.65,0-3.41-.18-5.26-2.8-41.9-35-136.73-54.39-211.6-.85-3.33-1.69-6.6-2.51-9.85s-1.58-6.44-2.35-9.58c-1.11-4.73-2.16-9.32-3.11-13.78-.66-3-1.25-5.89-1.82-8.71A263,263,0,0,1,604,1044.4c-5.28-70.26,1.72-93.83,20.7-132.83s65.9-40.42,82.72-26.13c.31.26.66.57,1,.89,11,10.22,36.89,46.76,47.66,96.47C760.14,1001.63,760.54,1034.23,759.34,1072.41Z"/><path fill="#951a2e" d="M642.21,1130.7c1.16,10.69,54.07,231.29,58,240.2.8,1.73-24.84-3.73-27.24-32.77-.06-.74-.11-1.48-.16-2.21s-.05-1.51-.05-2.3c0-1.65,0-3.41-.18-5.26-2.7-41.9-34.93-136.73-54.39-211.6-.85-3.33-1.69-6.6-2.51-9.85s-1.58-6.44-2.35-9.58c-1.11-4.73-2.16-9.32-3.11-13.78-.64-3-1.25-5.89-1.82-8.71A263,263,0,0,1,604,1044.4c-5.28-70.26,1.72-93.83,20.7-132.83s65.9-40.42,82.72-26.13c.31.26.66.57,1,.89,11,10.22,36.89,46.76,47.66,96.47,4.09,18.83,4.49,51.43,3.29,89.61C713.68,1107.73,639.57,1106.54,642.21,1130.7Z"/><path fill="#951a2e" d="M445,1325.8c4.91-14.15,7.55-24.59,11.31-39.16,16-62,78.44.76,74.7,17.31-4.7,20.77-12.34,30.4-24.51,103.2s-32.42,109.35-50.85,143.14-32.18,98.31-32.18,98.31c-35.47,2.13-49.92-15.5-49.92-15.5s18.94-90.64,28.23-153.39S433.56,1358.89,445,1325.8Z"/><path fill="#951a2e" d="M426.45,1495.89c9.3-62.75,21.1-99.51,32.58-132.59,4.91-14.15,18.19-45.91,22-60.48,6.56-25.37,20.88-29.85,35.26-25.15-18.65-18.57-49.34-31.88-59.89,9-3.76,14.57-6.4,25-11.31,39.16-11.48,33.09-33.93,91.16-43.22,153.91s-28.23,153.39-28.23,153.39,7.61,9.18,25.2,13.49C402,1631.23,418.1,1552.31,426.45,1495.89Z"/><path fill="#951a2e" d="M498.18,979.81c21-51.34,58-85.66,69.95-94.37,19.57-14.29,66.21-12.89,77.7,26.12s14,62.59-4.82,132.83S532.17,1281,521.93,1333.62s-91.29,53.23-71-22.22S473.89,1039.2,498.18,979.81Z"/><path fill="#951a2e" d="M499.45 1118.38c.5-19.91 15.18-35.92 33.71-41.21 8.88-2.53 47 4.6 71.35 9a24.58 24.58 0 0027.57-15.9c3.88-10.81 8-22.51 8.93-25.92 18.79-70.24 16.3-93.82 4.82-132.83s-58.13-40.41-77.7-26.12c-11.92 8.71-49 43-69.95 94.37C473.89 1039.2 471.29 1236 451 1311.4c-7 26-2 43 8.06 51.9C459 1362.29 498.87 1141.39 499.45 1118.38zM600.55 643.55s49.45-10.83 84.27.18v11l-82 2.16zM586 443.15a37.54 37.54 0 11-37.54 37.53A37.53 37.53 0 01586 443.15z"/><path fill="#951a2e" d="M581.89,589.11c-7.48-36-40.49-32.45-20.51-77.18s40.68-36.05,62.26-43c54.73-17.56,98.54,55.53,78.3,104.42C683.21,618.62,589.9,627.63,581.89,589.11Z"/><path fill="#fed2a7" d="M582.61,801.6c-1.82-15.86-7.52-30.47-22-85.1-5.65-21.31-14.25-33.51-8.92-43,6.74-12.05,30-18.45,45.13-18.44,27.41,0,14.21-66.07,14.21-66.07,4.2-13.78,49.73-11.37,47.63,32.7s41.37,24.25,51.72,32.43c14.21,11.21,13.11,35.19,16,48.18s22.16,28.41,19.53,52.34-25.24,23.1-25.24,23.1c-8.09,9.28-15.6,26.18-16.38,38.12-1.8,27.81,12,55.5,12,55.5-80.4,35.27-148.78,4.32-148.78,4.32S588.08,849.11,582.61,801.6Z"/><path fill="#fbbb8f" d="M596.84,655c27.41,0,14.21-66.07,14.21-66.07,2.33-7.66,17.41-10.3,30-3.6-8.5,2.19-28.79,39.6-16.58,94.3,3.46,15.53,20.24,24.7,35.67,27.73,0,0-97.38,17.13-99.5,9.1C555,695.19,581.69,655,596.84,655Z"/><path fill="#d93f57" d="M708.81,1067.76h0q-6.54.62-13.33,1c-2.64.16-5.28.29-7.95.4-2.45.1-4.9.18-7.36.26l-22.84-34.24-27.67,33.56c-77.91,3-155.66-18.07-155.66-18.07A363.42,363.42,0,0,1,489.16,984a.31.31,0,0,1,0-.13c26.59-80.6,67.17-114.66,28.59-253.58,0-.06,0-.08,0-.13-5.89-21.23,17.05-49.42,30.78-63.58,8.66-8.92,33.75-11.14,48.29-11.59,23.45,29.33,60.35,51,60.35,51s25.32-41.32,28.67-54.54c6.53-.16,21.57-.26,24.53,2.08,14.23,11.22,15.76,34,18.59,47s21.3,31.33,18.66,55.29c-2.5,22.85-21.76,34.87-23.47,35.9l-.13.08C698.83,930.66,759.93,899,766.63,1055c-15.29,6.7-35.35,10.69-57.82,12.76Z"/><path fill="#951a2e" d="M724.5,791.5c-.13.11-.24.16-.32.24l-.13.08c0,2.08-136,37.17-150.54,57-10.9,14.93-60.8,152.54-43.8,169.25s83.61-29.94,90.59-24.55c4.91,3.77,84.53,65.5,88.51,74.21-4.37.39-8.84.74-13.38,1-2.64.16-5.28.29-7.95.4-2.45.1-4.9.18-7.36.26l-22.84-34.24-27.67,33.56c-77.91,3-155.66-18.07-155.66-18.07,3.28-23,8.9-44.61,15.21-66.63a.31.31,0,0,1,0-.13c26.59-80.6,67.17-114.66,28.59-253.58,9.27-1.55,59.23-24.82,78.64-16.66.6.26-6.77,95.09,17.83,92.53,6.5-.68,13-1.56,19.46-2.37,2.35-.32,37.23-1.32,50.27-2.9A213.23,213.23,0,0,0,724.5,791.5Z"/><path fill="#fed2a7" d="M609,552.42s17.27-56.32,35.6-58.71,33-1.49,42.9,18.29c0,0,11.38,17.37,8.38,38.94,0,0,25.26,20.68.48,53.62s-69.58,13.1-85.27-15.59c0,0-24.26,9-28.45-13.78S593.39,550.62,609,552.42Z"/><path fill="#fbbb8f" d="M609,552.42s17.27-56.32,35.6-58.71c14.68-1.91,27-1.68,36.41,8.6-12.43-2.61-53.86,48.13-52.9,77.29,1,29.66,33.34,46.61,58.31,32.67a54.38,54.38,0,0,0,8.46-5.87c-25,30.29-68.41,10.7-83.79-17.43,0,0-24.26,9-28.45-13.78S593.39,550.62,609,552.42Z"/><path fill="#951a2e" d="M707.5,521.31s-29.16-3.2-46.33-18.78-25.55-12.39-25.55-12.39C684.35,466.19,707.5,521.31,707.5,521.31Z"/><path fill="#951a2e" d="M645.82,490.51c8.18,6,10.78,25.38-8.4,48.14S626,587.77,609.26,574s-17.07-16.18-19.46-36S627.86,477.23,645.82,490.51Z"/><path fill="#951a2e" d="M575.89,654.77s12.45,29.7,36.21,45.54,33.85,36.84,34.73,47.07l16.95,11.34-10.1,12.38s15.46,13.95,15,31.21c0,0,12.72-26.74,9-47.43s-23.86-55.24-35-67.33-39-32.31-42.09-44C600.55,643.55,589.69,645.86,575.89,654.77Z"/><path fill="#951a2e" d="M682.07,643.55s-2.52,22.11-12.32,38S656.27,699,658.61,710.35s26.26,30.39,13.51,83.54c0,0,16.23-13.38,18.87-25.27l-5.94-11.88,6.51-7.61S688,726.39,681.4,713.68s20.8-44.61,20.8-65.29C702.2,648.39,689.66,643.55,682.07,643.55Z"/><path fill="#fffae6" d="M651.44 710.35a5.75 5.75 0 105.75-5.76A5.76 5.76 0 00651.44 710.35zM671.92 749.13a5.75 5.75 0 105.75-5.75A5.74 5.74 0 00671.92 749.13zM664 795.3a5.75 5.75 0 105.74-5.74A5.74 5.74 0 00664 795.3zM661.83 850.91a5.75 5.75 0 105.75-5.74A5.75 5.75 0 00661.83 850.91zM658.25 907.76A5.75 5.75 0 10664 902 5.75 5.75 0 00658.25 907.76zM654.68 964.61a5.75 5.75 0 105.74-5.75A5.73 5.73 0 00654.68 964.61z"/><path fill="#d93f57" d="M600.62,713.43c-7.88,32.22-76.75,161.86-93.68,178.86-9,9.08-30.26,9.31-44.19,3.86,0,0-.1,0-.15-.08a23.07,23.07,0,0,1-12.41-10.66c-.19-.39-.4-.78-.58-1.2a23.2,23.2,0,0,1-1.88-8c-.52-9.14,9.12-36.12,26.13-75.45,7.17-16.62,15-34,22.66-50.55q3.12-6.78,6.19-13.28c2-4.35,4.07-8.59,6-12.68,1.33-2.74,2.6-5.43,3.88-8.05,2.55-5.21,5-10.17,7.27-14.75,1.16-2.3,2.26-4.51,3.34-6.63,7-13.72,12.35-23.3,14.71-26,.38-.43.8-.87,1.22-1.28a6.44,6.44,0,0,1,.76-.71,4.6,4.6,0,0,1,.71-.6c7.07-5.76,17.12-6.6,27.59-4.68C591.81,665.81,602.41,706.14,600.62,713.43Z"/><path fill="#951a2e" d="M462.6,896.07a23.07,23.07,0,0,1-12.41-10.66c-.19-.39-.4-.78-.58-1.2a23.2,23.2,0,0,1-1.88-8c-.52-9.14,9.12-36.12,26.13-75.45,7.17-16.62,15-34,22.66-50.55l6.19-13.28c2.06-4.33,4.07-8.59,6-12.68,1.33-2.74,2.61-5.41,3.88-8.05,2.55-5.21,5-10.17,7.27-14.75,1.16-2.3,2.26-4.51,3.34-6.63,7-13.72,12.64-23.08,14.71-26,8.27-11.68,19.81-9.19,30.28-7.27C500.35,789.3,441.22,884.81,462.6,896.07Z"/><path fill="#fed2a7" d="M462.31,851.63c38.16-9.77,161.56-3.5,181.67-17s59-24.12,74.45-13.31c15.77,11,6.77,23.06-8.3,33.48-9.57,6.63-20.92,12.48-47.89,11.58s-138.35,33.16-177.7,37.41C445.54,908,436.49,858.25,462.31,851.63Z"/><path fill="url(#m)" d="M716.6,248.79H963.78a35.5,35.5,0,0,1,35.5,35.51V419.79a35.5,35.5,0,0,1-35.5,35.51H809.2l-53.64,64.49a6.93,6.93,0,0,1-12.5-4.14l16.25-60.35H716.6a35.5,35.5,0,0,1-35.51-35.51V284.3A35.51,35.51,0,0,1,716.6,248.79Z"/><polygon fill="#fff" points="720.39 287.02 720.39 297.02 863.12 297.02 863.29 287.02 720.39 287.02"/><polygon fill="#fff" points="720.39 317.07 720.39 327.06 978.28 327.06 978.44 317.07 720.39 317.07"/><polygon fill="#fff" points="720.39 347.12 720.39 357.11 959.83 357.11 959.99 347.12 720.39 347.12"/><polygon fill="#fff" points="878.06 297.02 922.12 297.02 922.28 287.02 878.23 287.02 878.06 297.02"/><polygon fill="#fff" points="720.39 375.2 720.39 385.19 863.12 385.19 863.29 375.2 720.39 375.2"/><polygon fill="#fff" points="720.39 405.25 720.39 415.24 978.28 415.24 978.44 405.25 720.39 405.25"/><polygon fill="#fff" points="878.06 385.19 922.12 385.19 922.28 375.2 878.23 375.2 878.06 385.19"/></svg>