<svg id="SvgjsSvg1797" width="288" height="288" xmlns="http://www.w3.org/2000/svg" version="1.1" xmlns:xlink="http://www.w3.org/1999/xlink" xmlns:svgjs="http://svgjs.com/svgjs"><defs id="SvgjsDefs1798"></defs><g id="SvgjsG1799"><svg xmlns="http://www.w3.org/2000/svg" xmlns:xlink="http://www.w3.org/1999/xlink" data-name="Layer 1" viewBox="0 0 2000 2000" width="288" height="288"><defs><linearGradient id="a" x1="205.05" x2="2037.97" y1="1242.45" y2="663.06" gradientUnits="userSpaceOnUse"><stop offset="0" stop-color="#ffffff" class="stopColorfff svgShape"></stop><stop offset="1" stop-color="#eae6d4" class="stopColord4dbea svgShape"></stop></linearGradient><linearGradient id="d" x1="140.51" x2="1973.45" y1="1038.31" y2="458.91" xlink:href="#a"></linearGradient><linearGradient id="b" x1="1521.33" x2="1729.64" y1="1225.34" y2="1225.34" gradientUnits="userSpaceOnUse"><stop offset="0" stop-color="#b06675" class="stopColor6669b0 svgShape"></stop><stop offset="1" stop-color="#8e303f" class="stopColor33308e svgShape"></stop></linearGradient><linearGradient id="e" x1="1328.82" x2="1482.67" y1="1457.5" y2="1457.5" xlink:href="#b"></linearGradient><linearGradient id="c" x1="512.18" x2="616.86" y1="1334.44" y2="1334.44" gradientUnits="userSpaceOnUse"><stop offset="0" stop-color="#fb183b" class="stopColorfbad18 svgShape"></stop><stop offset="1" stop-color="#f42041" class="stopColorf47820 svgShape"></stop></linearGradient><linearGradient id="f" x1="535.21" x2="639.89" y1="1499.17" y2="1499.17" xlink:href="#c"></linearGradient><linearGradient id="g" x1="466.12" x2="570.8" y1="1005" y2="1005" xlink:href="#c"></linearGradient><linearGradient id="h" x1="2276.92" x2="2727.62" y1="1222.5" y2="771.8" gradientTransform="rotate(11.5 3599.671 -3929.123)" xlink:href="#c"></linearGradient><linearGradient id="i" x1="2314.08" x2="2577.86" y1="1268.4" y2="1004.62" gradientTransform="rotate(11.5 3599.671 -3929.123)" xlink:href="#c"></linearGradient><linearGradient id="j" x1="2878.42" x2="3064.69" y1="2129.58" y2="1943.31" gradientTransform="matrix(.73 .69 -.69 .73 761.98 -2712.48)" xlink:href="#c"></linearGradient><linearGradient id="k" x1="6982.87" x2="7301.06" y1="458.08" y2="458.08" gradientTransform="matrix(-1 0 0 1 8371.82 0)" gradientUnits="userSpaceOnUse"><stop offset="0" stop-color="#8e303f" class="stopColor33308e svgShape"></stop><stop offset="1" stop-color="#b06675" class="stopColor6669b0 svgShape"></stop></linearGradient><clipPath id="l"><path fill="none" d="M3793.26,861.09C3747.48,630,3584,439.66,3364.71,353.71,2867.2,158.72,2369.2,308.84,2273.83,847,2183,1359.78,2604,1177.43,2970.16,1574.68c318.8,345.9,956,33.55,826.25-696.8Q3794.91,869.41,3793.26,861.09Z"></path></clipPath><clipPath id="m"><rect width="760.16" height="980.28" x="2139.16" y="436.95" fill="none" data-name="SVGID" transform="rotate(180 2519.235 927.09)"></rect></clipPath></defs><rect width="1383.27" height="10.51" x="287.52" y="1774.2" fill="#ebe5cb" class="colorcbd3eb svgShape"></rect><path fill="url(#a)" d="M245.52,1024.54C300.33,668.86,609.29,12.33,1062.46,276.31c389.06,226.63,121.35,501.56,441.25,614.7,546.1,193.16,71.48,1007.52-590.92,866.84S194.53,1355.38,245.52,1024.54Z"></path><path fill="url(#d)" d="M1344,393.22c-25.7,129.66,19.36,371.34,272.78,454.05s165.43-116.15,0-278.06S1382.69,197.87,1344,393.22Z"></path><path fill="#ebe5cb" d="M1471.93,1379.68H1342.18v-71h129.75Zm-122.46-7.28h115.17V1316H1349.47Z" class="colorcbd3eb svgShape"></path><path fill="#ebe5cb" d="M1560.9 1443.42H1431.15v-71H1560.9zm-122.46-7.28h115.17v-56.46H1438.44zM1151.57 768H1021.83v-71h129.74zm-122.46-7.29h115.17V704.23H1029.11zM923.26 1553.76H793.51v-71H923.26zm-122.46-7.28H916V1490H800.8z" class="colorcbd3eb svgShape"></path><path fill="#ebe5cb" d="M1045.86,1553.76H916.11v-71h129.75Zm-122.46-7.28h115.17V1490H923.4Z" class="colorcbd3eb svgShape"></path><path fill="#ebe5cb" d="M984.49 1617.5H854.74v-71H984.49zM862 1610.21H977.2v-56.45H862zM734.88 1144.38H605.13v-71H734.88zm-122.46-7.29H727.59v-56.45H612.42z" class="colorcbd3eb svgShape"></path><path fill="#ebe5cb" d="M645.91 1208.11H516.16v-71H645.91zm-122.46-7.28H638.62v-56.45H523.45zM517.79 851.58H388v-71H517.79zm-122.46-7.29H510.5V787.84H395.33z" class="colorcbd3eb svgShape"></path><path fill="#ebe5cb" d="M640.39,851.58H510.64v-71H640.39Zm-122.46-7.29H633.1V787.84H517.93Z" class="colorcbd3eb svgShape"></path><path fill="#ebe5cb" d="M579,915.31H449.27v-71H579ZM456.56,908H571.73V851.58H456.56Z" class="colorcbd3eb svgShape"></path><polygon fill="#8e303f" points="1571.13 1768.61 1576.99 1768.49 1568.64 1587.19 1562.78 1587.31 1571.13 1768.61" class="color33308e svgShape"></polygon><path fill="#8e303f" d="M1436.18,1576.78c0-12.45,81.13-13.41,106-13.41s106,1,106,13.41-81.12,13.4-106,13.4S1436.18,1589.22,1436.18,1576.78Zm106-7.55c-54.6,0-90,4.11-98.68,7.55,8.63,3.43,44.08,7.54,98.68,7.54s90-4.11,98.68-7.54C1632.22,1573.34,1596.77,1569.23,1542.18,1569.23Z" class="color33308e svgShape"></path><path fill="#ebe5cb" d="M1642.3,1482.35a107.88,107.88,0,1,1-200.24,0Z" class="colorcbd3eb svgShape"></path><path fill="#e7dfc0" d="M1442.06,1482.34c0,8.76,44.82,15.86,100.12,15.86s100.12-7.1,100.12-15.86-44.83-15.85-100.12-15.85S1442.06,1473.59,1442.06,1482.34Z" class="colorc0c9e7 svgShape"></path><path fill="#c4314e" d="M1451.91,1482.34c0,6.48,40.41,11.73,90.27,11.73s90.26-5.25,90.26-11.73-40.41-11.72-90.26-11.72S1451.91,1475.87,1451.91,1482.34Z" class="color84605a svgShape"></path><path fill="#fffae6" d="M1451.87,1518.74c.24-8.07,12.82-8.1,12.57,0-.57,19.19,1.91,38.32,15.76,52.72,5.61,5.84-3.27,14.74-8.89,8.89C1455.19,1563.59,1451.2,1541.3,1451.87,1518.74Z" opacity=".42" class="colorfff svgShape"></path><path fill="#8e303f" d="M1542.18,1590.18c24.87,0,106-1,106-13.4h-5.86a1.53,1.53,0,0,1,.33-1c-3.55,3.59-40.43,8.55-100.46,8.55s-96.92-5-100.46-8.55a1.53,1.53,0,0,1,.33,1h-5.87C1436.18,1589.22,1517.31,1590.18,1542.18,1590.18Z" class="color33308e svgShape"></path><polygon fill="#8e303f" points="1663.29 1768.5 1669.14 1768.1 1646.74 1578.32 1640.89 1578.73 1663.29 1768.5" class="color33308e svgShape"></polygon><polygon fill="#8e303f" points="1426.24 1768.52 1444.98 1579.48 1439.13 1579.05 1420.39 1768.08 1426.24 1768.52" class="color33308e svgShape"></polygon><rect width="181.27" height="5.87" x="1434.99" y="1674.93" fill="#8e303f" transform="rotate(-88.83 1525.63 1677.868)" class="color33308e svgShape"></rect><path fill="#ebe5cb" d="M1451.92,1482.36c0,4.77,21.71,8.84,52.95,10.67,1.83.1,3.7.21,5.63.26,2.62.17,5.25.27,8,.32,1.77.11,3.59.17,5.47.22q6.1.17,12.54.16c1.88,0,3.75,0,5.63,0h.05c8.36,0,16.45-.16,24.12-.43,1.92,0,3.85-.15,5.73-.21,35.15-1.61,60.4-5.89,60.4-11,0-4.66-21.06-8.74-51.56-10.61l-6-.32c-9.11-.49-18.92-.75-29.15-.81H1540c-6.22,0-12.27.11-18.12.27-1.88,0-3.64.17-5.46.22-3.06.1-6.06.27-9,.42-1.87.06-3.75.22-5.57.27C1472.23,1473.79,1451.92,1477.75,1451.92,1482.36Z" class="colorcbd3eb svgShape"></path><path fill="#b06675" d="M1540.86,1377.41a51.88,51.88,0,0,1-10.35-8.53c-4.53-4.59-11.66-12.07-11.56-19.09.07-5.77,6.07-7.07,10.06-3.66,3.56,3,5.08,7.65,7.87,11.25,3.42,4.41,9,7.94,14.64,10.21,7.78-11.08,9.06-26.32,6.45-39.66-3-15.39-13.18-37.34-28.38-57.83a80.1,80.1,0,0,1-7,14.3c-2.86,4.75-7.46,13.8-12.93,15.73-5.81,2-7-3.31-6.11-7.68a1.65,1.65,0,0,1,.16-.69h0c.1-.39.21-.78.34-1.15a1.45,1.45,0,0,1,.66-.77c3.17-6.14,6.85-12,9.63-18.37A98.78,98.78,0,0,0,1519,1257c-13.31-15-29.32-28.1-47.12-35.66,3.61,7.5,6.12,16,8.42,23.42,2.36,7.59,8.59,23.75,2.81,31.2-1.59,2-4.86,3.35-7.32,2-4-2.27-3.55-10.57-3.62-14.29-.17-9.1-.2-17-3.17-25.83-2.57-7.7-6.78-14.54-11.34-21.16a75.58,75.58,0,0,0-34.81-.21c3.51,3.13,6.26,7,7,11.51.67,4.2-1.9,13.87-7.4,14.2-7.26.43-7.76-16.42-8.65-23a94.27,94.27,0,0,0-19.87,10,86.38,86.38,0,0,0-26.73,28.3,1.59,1.59,0,0,1,.26.68c2.35,18.43,25.87,24.8,39.87,31.91,4.34,2.21,20.64,9.83,18.53,16.41-1.11,3.47-6.92,3.49-9.66,3-7-1.3-13.32-6.89-18.78-11.14-12.58-9.77-25-19.19-35.44-31-11.51,24.63-14.13,53-13.72,74a1.55,1.55,0,0,1,1.25,0,55.8,55.8,0,0,0,26.23,4.12c5.57-.52,11.34-1.82,17-1,4.72.69,12.11,6.46,6.8,11.17-4.54,4-14.64,3.07-20.17,2.34a96.36,96.36,0,0,1-30.81-9.81c.33,6.14.89,11.44,1.52,15.43a75.81,75.81,0,0,0,32.82,50.65,79,79,0,0,0,18.56,9c12.65-11,22.26-23.08,27.88-39.59,2.24-6.59,6.94-24.82,16.33-24.19,4.19.28,7.09,5.4,7.88,9,1.34,6.17-2.4,12.35-5.8,17.17-5,7.08-10.49,13.71-15.37,20.9-4.72,7-9.62,13.8-14.77,20.44a84.18,84.18,0,0,0,35.77-2.87c18.06-5.59,37-24.35,27-43.66C1499.69,1384.7,1523.54,1387.6,1540.86,1377.41Zm-159.31-51.28a4.86,4.86,0,0,1-.81.13,1.47,1.47,0,0,1-2.24.21c-.26-.25-.5-.52-.74-.79-1.91-1.19-3.12-3.73-3.7-5.94a1.4,1.4,0,0,1,.21-1.22,17.7,17.7,0,0,1-.45-3.56c0-2.81,1.29-6,4.65-5.41a10.44,10.44,0,0,1,7.9,8.37C1386.72,1321.2,1384.89,1325.12,1381.55,1326.13Zm118,4.54a5.2,5.2,0,0,1-7.78.65,9.27,9.27,0,0,1-2.35-9.36,1.35,1.35,0,0,1,.94-1s.07-.06.12-.07c2.86-1.2,6.77-1.27,9.25.84C1502.5,1324.14,1501.61,1328.11,1499.51,1330.67Z" class="color6669b0 svgShape"></path><path fill="url(#b)" d="M1694.85,1270.93a126.76,126.76,0,0,0,30.45,7.42c5.74-19.85,4.85-41.45,2.65-62.13-7.32,7.45-15.31,13.91-25.26,18.55-8.33,3.89-22.62,10.44-30.06,1.78a1.54,1.54,0,0,1,0-2.14c8.06-6.65,18.78-6,28.31-9s19.6-9.29,26-17.56c-.2-1.72-.41-3.43-.62-5.13-1.92-15.29-4.58-30.45-7.62-45.56-.13.3-.27.59-.41.87-1.29,2.63-3.74,8.21-7.19,8.77-3.21.52-4.41-3.27-3.75-5.78,1-3.81,4.66-6.88,6.17-10.57a71.77,71.77,0,0,0,2.39-6.78c-2.57-12-5.32-23.94-8.07-35.88a1.57,1.57,0,0,0-1.87-1.07c-11.87,1.64-23.85,3.31-35.82,5.26-13,12.81-22.3,27.89-23.81,46.65-.44,5.34,2.9,33.29-9.85,29.87-13.45-3.62-7.11-28.75-4.49-37.13,4.12-13.23,10.92-25,19-36-27.14,5.34-53.73,13-78.11,26-9.17,19.17-7.91,39,4,57.82,2.6,4.1,17.67,23.19,5.49,25.3-10.24,1.79-18.25-18.34-20-25.84-2.58-11.16-1.07-22.7-.3-34a73.93,73.93,0,0,1,3.8-19.39c-.29.17-.59.31-.87.48-18.39,11-35.85,25.12-41.48,46.69a80.9,80.9,0,0,0-1.74,29.21,139.35,139.35,0,0,0,15.71,19.56c6.06,6.1,13.05,8.85,20,13.48,5,3.31,13.5,13.71,6.13,19.06-5.93,4.31-17-1-22.72-3.33q-3.46-1.45-6.79-3.08c-.91,58.35,49.92,28.17,49.92,28.43-.38,53.45,54.14,53.9,87.71,41.42-3.38-.63-6.75-1.26-10.14-1.82-6.67-1.1-13.49-1.48-20.13-2.8-7.23-1.43-17.28-6-15.8-15.19,1.27-8,11.63-1.52,15.42.57,13,7.2,28.31,13.83,43.51,13,1.61-1,3.21-2,4.76-3.07a94.39,94.39,0,0,0,28.22-31.49,265,265,0,0,1-38.67-3.49c-9.28-1.61-24-4.08-28.42-13.77A1.55,1.55,0,0,1,1652,1277c11.17-.83,21.78,2.17,31.62,7.29,11.82,6.15,24,8.83,36.7,7.23a86.07,86.07,0,0,0,3.92-9.59c.07-.19.12-.4.19-.59a129,129,0,0,1-30.35-7.43C1692.23,1273.18,1693,1270.25,1694.85,1270.93Zm-20.08-109.7a1.24,1.24,0,0,1,.7-1,5.88,5.88,0,0,1,5.18-4.85c7.09-1.08,12,7.27,6.13,12.13-2.26,1.87-5.64,3-8.52,2C1674.7,1168.31,1674.28,1164.48,1674.77,1161.23Zm-65.62,143.23c-2.19,1.79-5,2.16-7.32.37a1.3,1.3,0,0,1,.3-2.24,8.19,8.19,0,0,1,2-5.48,4.33,4.33,0,0,1,6.8.87C1612.33,1300.25,1611,1302.94,1609.15,1304.46Zm6.1-114.74c-.57,3.57-2.28,8.81-5.82,10.55-4.25,2.08-6-3.2-6.47-6.37a1.45,1.45,0,0,1,0-.66,19.36,19.36,0,0,1-2.36-11c.69-5.38,6.06-6.78,10.45-4.22C1615.18,1180.39,1615.94,1185.42,1615.25,1189.72Zm40.16,56.68c-1.8,2.1-5,2.35-7.44,1.3-3.24-1.42-4.55-4.81-4.1-8.18a1.7,1.7,0,0,1,2.33-1.3,5.08,5.08,0,0,1,7.7-.74C1656.16,1239.62,1657.67,1243.75,1655.41,1246.4Z"></path><path fill="url(#e)" d="M1437,1499.06a77.71,77.71,0,0,1,6.38,18.88c-12.87,4.64-27.22,5.17-41,4.82a55.17,55.17,0,0,0,11.07-16.91c2.17-5.46,5.82-14.84-.27-19.1a1.07,1.07,0,0,0-1.43.11c-4,5.43-3,12.18-4.56,18.35a35,35,0,0,1-10.38,17.37l-3.43-.14c-10.22-.44-20.39-1.36-30.53-2.52l.54-.3c1.69-.95,5.27-2.79,5.47-5s-2.38-2.62-4-2.08c-2.48.81-4.33,3.29-6.7,4.44q-2.14,1-4.37,1.85c-8.07-1-16.12-2.16-24.16-3.29a1,1,0,0,1-.79-1.13c.51-7.58,1-15.25,1.75-22.92,7.85-8.88,17.39-15.51,29.74-17.42,3.52-.54,22.19.17,19.31-7.73-3-8.32-19.39-3-24.81-1a82,82,0,0,0-22.9,13.87c2.23-17.43,6-34.63,13.46-50.7,12.25-6.78,25.47-7,38.48-.41,2.84,1.43,16.21,10,17,2.19.68-6.56-13-10.62-18.08-11.33-7.51-1.06-15.09.48-22.52,1.54a50.6,50.6,0,0,0-12.66,3.38c.1-.2.18-.39.27-.58,6.37-12.18,14.91-23.94,28.92-28.59a56.11,56.11,0,0,1,19.27-2.58,91.91,91.91,0,0,1,13.7,8.95c4.34,3.53,6.49,7.81,9.9,12,2.43,3,9.73,7.85,12.92,2.92,2.57-4-1.46-10.74-3.31-14.21-.75-1.41-1.54-2.78-2.36-4.13,38.61-3.52,21.06,30.15,21.24,30.13,35.37-2.94,38.31,31.52,31.66,53.37-.58-2.1-1.16-4.19-1.69-6.31-1.06-4.17-1.64-8.46-2.83-12.59-1.3-4.5-4.78-10.63-10.82-9.23-5.21,1.21-.45,7.43,1.12,9.72,5.39,7.89,10.52,17.21,10.74,26.86-.56,1.07-1.15,2.13-1.8,3.17a61.74,61.74,0,0,1-19.5,19.43,161.31,161.31,0,0,0-4.17-24.28c-1.52-5.78-3.86-15-10.49-17.26a1,1,0,0,0-1.46.93c0,7.11,2.49,13.67,6.36,19.63,4.64,7.17,7,14.74,6.56,22.84a56.27,56.27,0,0,1-6.16,3l-.39.15a78.72,78.72,0,0,0-6.38-18.82C1438.38,1497.29,1436.47,1497.94,1437,1499.06Zm-73.62-7.15a.81.81,0,0,0-.62.49,3.8,3.8,0,0,0-3,3.52c-.38,4.54,5.39,7.25,8.33,3.27a5.71,5.71,0,0,0,.92-5.49C1368.08,1491.51,1365.52,1491.43,1363.4,1491.91Zm91.68-48.74a3.46,3.46,0,0,0-.1-4.64.88.88,0,0,0-1.47.3,5.6,5.6,0,0,0-3.53,1.55,2.68,2.68,0,0,0,.9,4.26C1452.45,1445.4,1454.17,1444.42,1455.08,1443.17Zm-75.68,9.66c2.33-.54,5.72-1.89,6.7-4.22,1.17-2.79-2.42-3.62-4.53-3.77a1.24,1.24,0,0,0-.44.05,13.4,13.4,0,0,0-7.41-.93c-3.53.71-4.2,4.18-2.29,6.82C1373.21,1453.25,1376.57,1453.48,1379.4,1452.83Zm39.47,22.53a4,4,0,0,0,.5-4.77,5.05,5.05,0,0,0-5.61-2.19,1.08,1.08,0,0,0-.76,1.55,3.13,3.13,0,0,0-.11,4.91C1414.41,1476.17,1417.23,1476.92,1418.87,1475.36Z"></path><path fill="#b06675" d="M1743.2,1374.11c-3.58-.21-7.16-.44-10.75-.73-7.26-.59-17.43.63-23.43-4.34a1.66,1.66,0,0,1-.11-2.5c11.24-9.46,23.58,1,35.61,1.46a112,112,0,0,0,.62-27.16,66.34,66.34,0,0,0-4.51-19.44c-6.67,9.12-12.58,18.84-21.36,25.93-3.5,2.83-12.57,11.26-17.17,7.85-5.06-3.74,3.77-9.74,6.49-11.55,11.14-7.41,22-14.63,30.58-25.47a43.27,43.27,0,0,0-20.19-20.44,92,92,0,0,0-20.93-7c1.62,11.3-.13,28.08-10.58,30.88-7.37,2-12-6.64-12.49-13.45-.57-7.9,4.5-15,10.62-19.45a177,177,0,0,0-33.14-.4c-2,.14-4,.35-5.93.56a1.59,1.59,0,0,1-.2.64c-5.25,10.19-11.22,21.82-12.26,33.47-.39,4.32,1.43,10-.85,14.08-3.6,6.41-10.32,1.12-11.32-4.06-1.82-9.45,2.6-21.35,5.65-30.25,1.27-3.71,2.6-7.68,4.12-11.58-13.33,2.74-26.41,7.45-37.87,15.51a76.26,76.26,0,0,0-10.61,9.1c-1.44,11.49-1,23.11,3.22,33.48,3,7.44,11.52,21.47,3.24,29.26-5.7,5.35-9.06-4.87-10.25-9.14-3.72-13.35-5.29-27.73-5.89-41.86a125.5,125.5,0,0,0-14,27.27,208.12,208.12,0,0,0-8.57,29.26c7,4.93,15.22,6.94,22.8,11.27,3.56,2,10.57,6.32,7.17,11.73-7.06,11.22-23.05-1.77-32-11.39-.75,9.06,2.22,16.26,8.53,22.81,13.66,14.18,35.06,18.76,51.67,5.9-.66,16.58,11.74,30.16,27.9,27.87,5.8-.82,10.62-3.74,14.88-7.65a80.81,80.81,0,0,1-11.3.43c-4.85-.18-13.08-.58-15-6.34-1.88-5.56,3.17-5.87,6.71-4.51,4.37,1.67,7.17,4.08,12.15,4.18,5.59.11,11.13-1.67,16.48-3.81,6.08-7.26,12-13.7,20.6-18.18a96.19,96.19,0,0,1,10.23-4.51c-6.78-.58-16.73-1.79-19-8-3.72-10.32,12-11,17.27-10.15,7.07,1.15,13.83,3.4,21,3.9a54.14,54.14,0,0,0,17.86-1.93c1.2-.87,2.38-1.78,3.52-2.76C1737.88,1388.18,1741.23,1381.48,1743.2,1374.11Zm-127.31,7.58c-3.19-.12-4.7-4-5.07-6.84a14.77,14.77,0,0,1,1.31-8.17,1.76,1.76,0,0,1,.09-.73c.69-2,1.79-4.36,3.9-5a4.19,4.19,0,0,1,4.18,1.48c2.49,2.65,3.44,7.17,2.77,10.9C1622.46,1376.69,1619.61,1381.82,1615.89,1381.69Zm39.78-38.3c-1.78-3.44-.49-7.64,2.38-10.13a1.42,1.42,0,0,1,.89-.35c2.82-2,6.19-1.59,7.85,1.82a8.73,8.73,0,0,1-2.92,10.71A5.4,5.4,0,0,1,1655.67,1343.39Zm-6.28,72.26c-2,3.31-6.55,4.71-9.16,1.84-2-2.26-2.14-5.59-1-8.47a1.47,1.47,0,0,1,0-2.24C1644.67,1402.09,1653.39,1409,1649.39,1415.65Z" class="color6669b0 svgShape"></path><path fill="#8e303f" d="M1566.29 1493.61c1.92 0 3.85-.15 5.73-.21 2-5.79 4.13-11.52 6.7-17.15.69-1.5 1.39-3 2.14-4.5A209.34 209.34 0 011639.7 1399c2.79-2.26-1.18-6.17-4-4a213.61 213.61 0 00-60 74.26c-.32.71-.64 1.4-.91 2.1A173.36 173.36 0 001566.29 1493.61zM1536.49 1494c1.88 0 3.75 0 5.63 0 1-7.82 2.25-15.64 3.59-23.42 2.3-13.5 5-27 8-40.3 6.32-28.18 13.78-56.1 21.27-84 7.35-27.28 15.22-54.45 32-77.6 2.15-2.89-2.73-5.68-4.82-2.78-16.18 22.18-24.28 48.06-31.4 74.32-8.47 31.14-16.78 62.38-23.64 93.89-2.62 12.11-5.09 24.28-7.12 36.49C1538.69 1478.4 1537.51 1486.22 1536.49 1494zM1469.77 1365.7a320.41 320.41 0 0118.22 46c.75 2.25 1.4 4.5 2 6.75h0a428.86 428.86 0 0111.79 53.37c1.18 7 2.14 14.15 3 21.23 1.83.1 3.7.21 5.63.26-.91-7.29-1.88-14.52-3.06-21.76a451.24 451.24 0 00-10.12-47.79c-.81-2.9-1.61-5.85-2.52-8.74a339.88 339.88 0 00-20.21-52.14C1473 1359.59 1468.22 1362.42 1469.77 1365.7z" class="color33308e svgShape"></path><path fill="#8e303f" d="M1417.9 1451.55c14.47-9.6 28.88-19.4 43.46-28.83 8.14-5.25 16.18-9.17 25.93-5.58a22.28 22.28 0 012.74 1.29 30.67 30.67 0 017.29 5.31 45.69 45.69 0 017.28 9.21c6.7 11.1 10 24.33 11.85 38.16 1 7.44 1.61 15.06 2 22.5 1.77.11 3.59.17 5.47.22-.48-7.51-1-15.28-2-22.94-2.41-19-7.45-37.29-19.61-49.78a40 40 0 00-7.5-6.11 31.5 31.5 0 00-6.81-3.32 26.45 26.45 0 00-18.6.27c-8.41 3.26-16.28 9.8-23.79 14.78q-15.18 10.13-30.38 20.21C1412.32 1448.81 1415 1453.47 1417.9 1451.55zM362.23 1774.08H1276.8c27.2 0 46.16-22 42.33-49.26l-81.06-623.33c-3.83-27.2-29-49.25-56.18-49.25H267.3c-27.2 0-46.15 22-42.33 49.25l81.08 623.33C309.87 1752 335 1774.08 362.23 1774.08z" class="color33308e svgShape"></path><path fill="#b06675" d="M399,1727.63h914.58c27.2,0,46.16-22.05,42.34-49.25l-81.08-576.89c-3.83-27.2-29-49.25-56.18-49.25H304c-27.19,0-46.15,22-42.32,49.25l81.07,576.89C346.6,1705.58,371.75,1727.63,399,1727.63Z" class="color6669b0 svgShape"></path><path fill="#ebe5cb" d="M1313.07,1655.82l-74.72-531.77c-3.52-25.07-26.71-45.4-51.79-45.4h-843c-25.08,0-42.55,20.33-39,45.4l74.74,531.77Z" class="colorcbd3eb svgShape"></path><path fill="#8e303f" d="M346.63,1668.67h1349.1a8,8,0,0,1,8,8v97.43a0,0,0,0,1,0,0H338.64a0,0,0,0,1,0,0v-97.43A8,8,0,0,1,346.63,1668.67Z" transform="rotate(180 1021.18 1721.375)" class="color33308e svgShape"></path><polygon fill="#b06675" points="345.71 1707.49 1705.2 1707.49 1705.2 1668.61 341.41 1668.61 345.71 1707.49" class="color6669b0 svgShape"></polygon><polygon fill="#fffae6" points="1226.83 1628.91 462.11 1630.51 330.81 691.56 1095.54 689.96 1226.83 1628.91" class="colorfff svgShape"></polygon><path fill="#8e303f" d="M430.7 908L411.82 772.91l148.32-.31 18.89 135zM420.64 780.57l16.74 119.7L570.21 900 553.47 780.28zM453.74 1072.68L434.85 937.63l148.33-.31 18.88 135zM443.67 945.29L460.41 1065l132.83-.27L576.5 945zM476.77 1237.4l-18.88-135.05 148.32-.31 18.88 135zM466.7 1110l16.74 119.72 132.84-.28-16.74-119.71zM499.8 1402.12l-18.88-135 148.32-.32 18.89 135.06zm-10.06-127.39l16.73 119.71 132.84-.28-16.74-119.71zM522.83 1566.85L504 1431.8l148.33-.31 18.88 135zm-10.06-127.4l16.74 119.71 132.83-.28-16.74-119.7z" class="color33308e svgShape"></path><polygon fill="#8e303f" points="601.88 807.21 603.2 816.57 823.81 816.11 822.76 806.75 601.88 807.21" class="color33308e svgShape"></polygon><polygon fill="#8e303f" points="605.82 835.37 607.13 844.73 1075.24 843.74 1074.18 834.39 605.82 835.37" class="color33308e svgShape"></polygon><polygon fill="#8e303f" points="609.76 863.52 611.07 872.88 981.15 872.11 980.1 862.75 609.76 863.52" class="color33308e svgShape"></polygon><polygon fill="#8e303f" points="846.9 816.06 915 815.91 913.95 806.55 845.84 806.7 846.9 816.06" class="color33308e svgShape"></polygon><polygon fill="#8e303f" points="624.92 971.93 626.23 981.29 846.84 980.83 845.79 971.47 624.92 971.93" class="color33308e svgShape"></polygon><polygon fill="#8e303f" points="628.86 1000.09 630.16 1009.45 1098.27 1008.47 1097.22 999.11 628.86 1000.09" class="color33308e svgShape"></polygon><polygon fill="#8e303f" points="632.79 1028.25 634.1 1037.6 1004.18 1036.83 1003.13 1027.47 632.79 1028.25" class="color33308e svgShape"></polygon><polygon fill="#8e303f" points="869.93 980.78 938.04 980.64 936.98 971.28 868.88 971.42 869.93 980.78" class="color33308e svgShape"></polygon><polygon fill="#8e303f" points="647.95 1136.65 649.26 1146.01 869.88 1145.55 868.82 1136.19 647.95 1136.65" class="color33308e svgShape"></polygon><polygon fill="#8e303f" points="651.89 1164.81 653.2 1174.17 1121.3 1173.19 1120.25 1163.83 651.89 1164.81" class="color33308e svgShape"></polygon><polygon fill="#8e303f" points="655.83 1192.97 657.13 1202.33 1027.22 1201.55 1026.17 1192.2 655.83 1192.97" class="color33308e svgShape"></polygon><polygon fill="#8e303f" points="892.97 1145.5 961.07 1145.36 960.01 1136 891.91 1136.14 892.97 1145.5" class="color33308e svgShape"></polygon><polygon fill="#8e303f" points="670.99 1301.37 672.29 1310.73 892.91 1310.27 891.86 1300.92 670.99 1301.37" class="color33308e svgShape"></polygon><polygon fill="#8e303f" points="674.92 1329.54 676.23 1338.89 1144.34 1337.91 1143.29 1328.56 674.92 1329.54" class="color33308e svgShape"></polygon><polygon fill="#8e303f" points="678.86 1357.69 680.17 1367.05 1050.25 1366.28 1049.2 1356.92 678.86 1357.69" class="color33308e svgShape"></polygon><polygon fill="#8e303f" points="916 1310.22 984.1 1310.08 983.05 1300.72 914.94 1300.87 916 1310.22" class="color33308e svgShape"></polygon><polygon fill="#8e303f" points="694.02 1466.1 695.33 1475.45 915.94 1475 914.89 1465.64 694.02 1466.1" class="color33308e svgShape"></polygon><polygon fill="#8e303f" points="697.96 1494.26 699.26 1503.61 1167.37 1502.63 1166.32 1493.28 697.96 1494.26" class="color33308e svgShape"></polygon><polygon fill="#8e303f" points="701.89 1522.41 703.2 1531.78 1073.28 1531 1072.23 1521.64 701.89 1522.41" class="color33308e svgShape"></polygon><polygon fill="#8e303f" points="939.03 1474.95 1007.13 1474.81 1006.08 1465.44 937.97 1465.59 939.03 1474.95" class="color33308e svgShape"></polygon><polygon fill="url(#c)" points="605.63 1294.2 589.73 1281.66 562.49 1319.88 524.57 1281.79 512.18 1294.39 552.08 1334.47 523.41 1374.7 539.31 1387.23 566.56 1349.01 604.48 1387.1 616.86 1374.5 576.96 1334.42 605.63 1294.2"></polygon><polygon fill="url(#f)" points="628.67 1458.92 612.77 1446.38 585.52 1484.6 547.6 1446.51 535.21 1459.11 575.12 1499.19 546.44 1539.42 562.34 1551.96 589.59 1513.73 627.51 1551.82 639.89 1539.22 599.99 1499.14 628.67 1458.92"></polygon><polygon fill="url(#g)" points="559.57 964.75 543.67 952.21 516.42 990.44 478.5 952.35 466.12 964.95 506.02 1005.03 477.35 1045.25 493.24 1057.79 520.49 1019.56 558.41 1057.65 570.8 1045.06 530.89 1004.97 559.57 964.75"></polygon><path fill="#b06675" d="M539 1223.4c-4.53 0-15.12-2.73-50.54-45.18-3.46-4.15-3.29-9.91.37-12.86s9.43-2 12.9 2.18c10.93 13.09 24.7 27.92 32.42 34.49 9.75-21 38.22-79 39.6-81.81 2.11-4.29 7.54-5.54 12.11-2.79s6.6 8.45 4.49 12.73c-10.74 21.89-39.23 80.24-42.1 87.37a9.27 9.27 0 01-8.26 5.83C539.72 1223.38 539.39 1223.4 539 1223.4zM493.43 897.35c-4.53 0-15.12-2.73-50.54-45.17-3.46-4.15-3.3-9.91.37-12.86s9.44-2 12.91 2.18c10.92 13.09 24.69 27.91 32.41 34.48 9.75-21 38.22-79 39.6-81.81 2.11-4.29 7.54-5.53 12.11-2.79s6.59 8.46 4.49 12.74C534 826 505.55 884.36 502.68 891.48a9.26 9.26 0 01-8.25 5.84C494.13 897.34 493.8 897.35 493.43 897.35z" class="color6669b0 svgShape"></path><path fill="#feeda7" d="M1517.55,1668c-2.82-13.71-11.46-28.12-23.32-43.82l31.9-20.3c8.35,14,11.08,21.91,27.12,38.74,10.6,11.13,2,46.1-24.6,52.65C1527.38,1695.61,1521.75,1688.39,1517.55,1668Z" class="colorfed2a7 svgShape"></path><path fill="#6e2632" d="M1529,1659.32c-8.88,5-23.73-13.11-25.39-.6,13.18,9.59,21,27.27,18.75,58-2.08,28,30,51.5,30,51.5L1563.1,1623s-4.34-16.29-35.94-13.51C1526,1624.73,1542.41,1651.85,1529,1659.32Z" class="color29266e svgShape"></path><path fill="#feeda7" d="M1529.94,1738c-45.24-19.2-30.62-62.85-38-90.9L1457.85,1660s.39,51.11-1.81,83.69,7.09,29.57,7.09,29.57l110.79.82S1561.5,1751.43,1529.94,1738Z" class="colorfed2a7 svgShape"></path><path fill="#6e2632" d="M1531,1738.5c-9.8-3.32-18-10.41-25-19.46-4.49-6.38-26.6.46-30.36,12.72,0,0-8.89,6.41-19.45,5.34,0,2.26,0,4.47-.2,6.59-2.19,32.57,7.09,29.57,7.09,29.57l110.79.82S1563.48,1749.47,1531,1738.5Z" class="color29266e svgShape"></path><path fill="#973c4b" d="M1408.28,933.16c-30.54,98.95-88.82,379.89-86.45,392.17,2.8,14.48,77.15,63.36,89.77,1,19.65-97.08,202-360.92,84.15-438.28C1452.51,859.63,1417.57,903.07,1408.28,933.16Z" class="color413c97 svgShape"></path><path fill="#951a2e" d="M1527.12,926c-7.08-15.73-17.29-28.72-31.37-38-1.29-.85-2.57-1.62-3.84-2.34l-.42-.24A50.59,50.59,0,0,0,1472,879c12.31,76.39,7.29,150.58-5.36,216.31l-20.62-104s-16.81,82.24-6.49,173.84a110.89,110.89,0,0,1-6,50c-25.62,71.17-53.24,118-57.16,124,5.91-3.12,16.73,2.6,27.5,6.09,3.45-4.67,6.15-10.89,7.79-19C1428.74,1241.6,1569.71,1030,1527.12,926Z" class="color2a276f svgShape"></path><path fill="#973c4b" d="M1576.08,1042.37c-3.84-54.5-27-99-35.07-111.23-13.32-20-55.37-35.16-76.94-3.42s-19.5,48.14-23.1,119.2,17.4,259.73,11.26,311.65,66.06,81,69.8,4.62S1580.53,1105.4,1576.08,1042.37Z" class="color413c97 svgShape"></path><path fill="#973c4b" d="M1523.14,1378.49c-.27-14.71.4-25.21,1.27-39.9,3.7-62.53-70.25-26.95-71.71-10.46-1.84,20.7,2.2,32.24-8.07,103.31s-2.77,111.75,3.88,149.25S1453,1667,1453,1667c31,14.45,44.92,4.86,44.92,4.86s9.23-76.11,19.14-136.94S1523.79,1412.89,1523.14,1378.49Z" class="color413c97 svgShape"></path><path fill="#973c4b" d="M1537.25,1610.53s-3.37,5.63-11.6,11.53c-.42.31-.87.62-1.34.91v0c-7.27,4.9-18,9.83-32.93,11.7,0,0-176.89-291.13-170-313.67,3.11-10.19,36-59.37,77.77-22,22.53,20.19,47.64,65.49,72,155.56.6,2.14,1.17,4.3,1.75,6.5C1488.72,1520.72,1537.25,1610.53,1537.25,1610.53Z" class="color413c97 svgShape"></path><path fill="#951a2e" d="M1537.25 1610.53s-3.37 5.63-11.6 11.53c-.42.31-.87.62-1.34.94v0c-33.42-51.35-74-143.33-85.38-191.83-6.2-26.33-16.48-60.42-25.24-87.88-6.44-20.16-12-36.8-14.52-44.21 22.53 20.19 47.64 65.49 72 155.56.6 2.14 1.17 4.3 1.75 6.5C1488.72 1520.72 1537.25 1610.53 1537.25 1610.53zM1505.32 513.45a37 37 0 1038.22 35.83A37 37 0 001505.32 513.45z" class="color2a276f svgShape"></path><path fill="#951a2e" d="M1549.62,705.92c-5.18-38.48,17.68-62.62-3.44-106.1s-43.54-47.76-65-53.91c-54.54-15.59-110.77,52.52-89.25,100.11,19.91,44,.28,78.74-17.37,115.41s-24.07,152.27,76.21,161.45,122.84-33.8,132.22-94.9C1594.18,754.85,1554.81,744.41,1549.62,705.92Z" class="color2a276f svgShape"></path><path fill="#feeda7" d="M1440.51,762c-3,12.26-42.43,159.48-54.58,175.87-14.25,19.24-40.18,2.72-41.6-25.19-1.37-26.76,17.9-135.48,38.16-167.12C1404.3,711.51,1447.05,735.6,1440.51,762Z" class="colorfed2a7 svgShape"></path><path fill="#f68d9d" d="M1435.45,757.29c-74,40.66-90.57,147.83-91.13,155.18-1.26-27.11,18-135.34,38.17-166.9S1437.3,756.28,1435.45,757.29Z" class="colorf6968d svgShape"></path><path fill="#fbe58f" d="M1532.15,872.76c1.3-15.71,6.46-30.3,19-84.65,4.89-21.19,10.92-37.81,5.36-47-7-11.67-28.08-12.93-43-12.44-27,.87-16.11-64.73-16.11-64.73-4.57-13.46-49.41-9.64-45.94,33.77s-40.06,24.72-50,33.12c-13.66,11.51-11.79,35.64-14.19,48.55s-21,28.72-17.61,52.24,25.63,22,25.63,22c8.28,8.9,16.21,25.33,17.36,37.09,2.67,27.37-10,55.13-10,55.13,80.43,32.24,146.92-.46,146.92-.46S1528.26,919.8,1532.15,872.76Z" class="colorfbbb8f svgShape"></path><path fill="#fbe58f" d="M1513.46,728.64c-27,.87-16.11-64.73-16.11-64.73-2.54-7.47-17.49-9.6-29.69-2.61,8.45,1.9,29.65,38.16,19.34,92.5-2.92,15.43-19.18,25-34.31,28.5,0,0,96.61,13.8,98.45,5.81C1556,766.92,1528.42,728.15,1513.46,728.64Z" class="colorfbbb8f svgShape"></path><path fill="url(#h)" d="M1344,876.28s21.8,19.68,57,31.35l14-42.41-2.84-137s-23.32-3.88-37.44,27.75S1350.7,858.33,1344,876.28Z"></path><path fill="#d93f57" d="M1413.63,868.11l-2.58-124.31a150.17,150.17,0,0,1-1.59-15.72c-6.45,0-11.59,4.68-14.44,7.08-13.66,11.52-11.8,35.67-14.19,48.55s-21,28.73-17.6,52.25,18.94,27.58,18.94,27.58c7.59,8.13,19,23.68,21,35.08Z" class="colord25927 svgShape"></path><path fill="url(#i)" d="M1532.14,872.75c1.31-15.69,6.46-30.28,19-84.63,4.9-21.19,10.94-37.81,5.37-47-6.33-10.51-24-12.58-38.33-12.55-16.15,36.88-49.55,58-75.28,47.18-16.56-6.91-26-25.35-26.62-47.56-6.45.05-12,.23-14.88,2.64-13.67,11.52-11.8,35.66-14.19,48.55s-21,28.72-17.6,52.25,25.61,22,25.61,22c8.29,8.89,16.23,25.33,17.37,37.08,2.66,27.37-10,55.14-10,55.14,80.43,32.23,146.91-.46,146.91-.46S1528.26,919.81,1532.14,872.75Z"></path><path fill="#d93f57" d="M1532.14,872.75c1.31-15.69,6.46-30.28,19-84.63,4.9-21.19,10.94-37.81,5.37-47-6.11-10.15-22.79-12.44-36.85-12.53-.26,2.34-.6,4.71-1.05,7.09a88.83,88.83,0,0,1-55.17,66.3l15.8,3c18.08,3.43,29.51,23.1,25.57,40.52-2.88,12.82-12.79,21.87-24.63,25L1473.05,908c-5.41,28.5,20.28,53.31,48.47,46.62,17.56-4.18,27.94-9.29,27.94-9.29S1528.26,919.81,1532.14,872.75Z" class="colord25927 svgShape"></path><path fill="#feeda7" d="M1685.48,877.23c-8.81-19.82-110.47-119.62-131.29-139.38-7.4-7-44.62,37.54-31.14,63.19,7.46,14.21,122.8,109.32,142.21,115.6C1688.05,924,1696.83,902.77,1685.48,877.23Z" class="colorfed2a7 svgShape"></path><path fill="#fbe58f" d="M1555.1,807.35c-10.15-19.83-18.23-39.37-15.48-61.7-12.17,13.08-25.51,38.39-16.57,55.39,6.72,12.8,101,91.23,133.78,111.26C1650.44,907.68,1568.57,833.67,1555.1,807.35Z" class="colorfbbb8f svgShape"></path><path fill="#feeda7" d="M1498.25,627.79s-18.82-55-37-56.78-32.6-.43-41.73,19.39c0,0-10.67,17.5-7,38.69,0,0-24.27,21.19,1.22,52.91s69,10.7,83.62-18.09c0,0,24.22,8.09,27.64-14.5S1513.57,625.52,1498.25,627.79Z" class="colorfed2a7 svgShape"></path><path fill="#fbe58f" d="M1498.25,627.79s-18.82-55-37-56.78c-14.53-1.42-26.68-.81-35.63,9.63,12.18-3,54.65,45.77,54.62,74.57,0,29.29-31.4,47-56.48,34.07a53.55,53.55,0,0,1-8.53-5.52c25.66,29.09,67.82,8.38,82.1-19.85,0,0,24.22,8.09,27.64-14.5S1513.57,625.52,1498.25,627.79Z" class="colorfbbb8f svgShape"></path><path fill="#feeda7" d="M1350.55,891.66c38.15,4.7,38.22,52.05,12.35,55.11-38.23,4.53-144.17-26.91-165.24-16.92s-25.9,28.57-46.48,15.26-22.58-22.19-20.16-38.2,26.87-15,52.37-8S1318.86,887.75,1350.55,891.66Z" class="colorfed2a7 svgShape"></path><path fill="#951a2e" d="M1405.49,598.05s28.66-4.08,45.11-20,24.82-13,24.82-13C1426.59,543,1405.49,598.05,1405.49,598.05Z" class="color2a276f svgShape"></path><path fill="#951a2e" d="M1459.93,567.89c-7.88,6.21-9.83,25.37,9.81,47.22s12.8,48.09,28.91,34S1515,632.57,1516.71,613,1477.24,554.22,1459.93,567.89Z" class="color2a276f svgShape"></path><path fill="url(#j)" d="M1607.05,880.42s-77.8-67.53-87.74-81,10.84-58.75,33.59-62.85c0,0,.41.35,1.16,1.07,7.52,6.77,49.68,44.93,86.21,81.93C1640.27,819.55,1644.63,847.8,1607.05,880.42Z"></path><path fill="#d93f57" d="M1607.05,880.42s-77.8-67.53-87.74-81,10.84-58.75,33.59-62.85c0,0,.41.35,1.16,1.07l.12.22s-33.35,34.53-19.9,59.31S1597.8,853.93,1607.05,880.42Z" class="colord25927 svgShape"></path><path fill="#feeda7" d="M1503.79,832.24c-17.46-15.47-52.35-17.53-62.41-2.54a36.43,36.43,0,0,0-5.46,12.42c-2.56,9.77-.46,19.15,3.43,28.55.43,1.05,13.7,9.94,14.29,7.83,8.71-1.12,21.15-6.26,35.39-12.78,24.1-11,121.31,44.55,158.72,54.74,37.09,10.09,53.14-33.39,29.15-43.53C1641.45,861.94,1521.24,847.71,1503.79,832.24Z" class="colorfed2a7 svgShape"></path><rect width="286.59" height="15.13" x="1058.65" y="885.3" fill="#b06675" class="color6669b0 svgShape"></rect><path fill="#b06675" d="M1345.24,900.42h131.92v-8.51a6.6,6.6,0,0,0-6.61-6.61H1345.24Z" class="color6669b0 svgShape"></path><path fill="#973c4b" d="M1066.73,885.3h285.45L1314.6,709.55a10.74,10.74,0,0,0-10.33-8.77H1047.2c-10.21,0-17.77,10.07-15.5,20.65Z" class="color413c97 svgShape"></path><path fill="#b06675" d="M1059.79,885.3h285.45l-37.58-175.75a10.74,10.74,0,0,0-10.33-8.77H1034.84c-7.43,0-12.93,7.34-11.29,15Z" class="color6669b0 svgShape"></path><polygon fill="#f5f0db" points="1171.86 700.78 1091.47 885.3 1128.25 885.3 1211.63 700.78 1171.86 700.78" opacity=".34" class="colordbe6f5 svgShape"></polygon><polygon fill="#f5f0db" points="1231.94 700.78 1151.56 885.3 1165.87 885.3 1249.26 700.78 1231.94 700.78" opacity=".34" class="colordbe6f5 svgShape"></polygon><path fill="url(#k)" d="M1353.45,321.18H1106.26a35.5,35.5,0,0,0-35.5,35.51V492.18a35.5,35.5,0,0,0,35.5,35.51h154.58l53.65,64.49A6.94,6.94,0,0,0,1327,588l-16.25-60.34h42.71A35.51,35.51,0,0,0,1389,492.18V356.69A35.51,35.51,0,0,0,1353.45,321.18Z"></path><polygon fill="#fffae6" points="1100.83 359.42 1100.83 369.4 1243.57 369.4 1243.73 359.42 1100.83 359.42" class="colorfff svgShape"></polygon><polygon fill="#fffae6" points="1100.83 389.46 1100.83 399.45 1358.72 399.45 1358.89 389.46 1100.83 389.46" class="colorfff svgShape"></polygon><polygon fill="#fffae6" points="1100.83 419.51 1100.83 429.5 1340.27 429.5 1340.43 419.51 1100.83 419.51" class="colorfff svgShape"></polygon><polygon fill="#fffae6" points="1258.5 369.4 1302.57 369.4 1302.73 359.42 1258.67 359.42 1258.5 369.4" class="colorfff svgShape"></polygon><polygon fill="#fffae6" points="1100.83 447.59 1100.83 457.58 1243.57 457.58 1243.73 447.59 1100.83 447.59" class="colorfff svgShape"></polygon><polygon fill="#fffae6" points="1100.83 477.64 1100.83 487.62 1358.72 487.62 1358.89 477.64 1100.83 477.64" class="colorfff svgShape"></polygon><polygon fill="#fffae6" points="1258.5 457.58 1302.57 457.58 1302.73 447.59 1258.67 447.59 1258.5 457.58" class="colorfff svgShape"></polygon><g clip-path="url(#l)" fill="#000000" class="color000 svgShape"><g clip-path="url(#m)" fill="#000000" class="color000 svgShape"><path fill="#f0ebd6" d="M2643.69,911.71a11.57,11.57,0,0,0,4-2.71c6.46-7.61-1.49-13.47-7.24-17.53l-21.64-15.29c-6.36-7.83-12.76-15.22-18.51-21.93,7.81-14.42,10-28.12,8.28-40.83a32.71,32.71,0,0,0,3.81-28.54c-2.61-7.94-14.27-5.38-13.89,1.86a94.71,94.71,0,0,0-11.38-14.52c4-3.43,6.92-10.25,7.89-13.93a2.75,2.75,0,0,0-1.89-3.34c-3.94-.83-6.8,1.26-9.29,4.16-.23.27-.44.55-.68.82a19.72,19.72,0,0,0-1.6,2c-.76.92-1.51,1.84-2.26,2.77-17.11-15.07-39.24-26.44-60.07-32.87-1-.32-2-.65-2.95-1a25.43,25.43,0,0,0,2.83-18.85,2.74,2.74,0,0,0-4.53-1.2,27.42,27.42,0,0,0-7.63,12,57.15,57.15,0,0,0-5.61-13.9,6.53,6.53,0,0,0-2.74-2.65,67.24,67.24,0,0,0-5.31-7c-1.26-1.44-3.3-.74-4.26.55a20.41,20.41,0,0,0-4.16,12.86c-.17,1.25-.32,2.49-.49,3.74-9.1-5.83-17.42-13-26.82-22.79A118.4,118.4,0,0,0,2445.78,683c5.6-3.79-.82-16.66-2.68-20.92-.88-2-3.67-1.5-4.68,0a26.06,26.06,0,0,0-4.38,12.85,102.52,102.52,0,0,0-16.88-8c-26.45-9.85-55-8.87-81.78-1.1a5.8,5.8,0,0,0-1.57-5.63c-2.55-2.52-5.16-.4-6.53,2s-2.84,5.14-4.24,7.72c-3.25,1.23-6.48,2.52-9.65,3.93a198.58,198.58,0,0,1-32.83,11.48,53.47,53.47,0,0,0,2.11-7.3c.52-2.7,1.57-6.93-1.32-8.71-2.74-1.69-6.38.81-8.54,2.49-5.43,4.26-8,10.44-9.6,16.91a210.58,210.58,0,0,1-22.55,2,184.76,184.76,0,0,0-23.85,2.55c2.31-6.11,2.33-14.63-3.85-18.09-7.12-4-14.66,4.8-19,9.32a85.64,85.64,0,0,0-13.45,18.86,178.19,178.19,0,0,0-44.88,25.5c-3,2.36-5.6,4.37-8.25,6.39a55.54,55.54,0,0,0-26.26-16.93c-8.19-2.41-11.86,9.24-5.2,12.91a63.43,63.43,0,0,0,14.65,14.73c-9.22,4.11-19.28,5.16-34,1.47-52-12.84-85.41,2.28-108.2,33.6a26.54,26.54,0,0,0-1.26-4.77c-.74-2-3.84-2.92-5-.64a27,27,0,0,0-2.44,7.85,33.18,33.18,0,0,0-5.48-5.51,2.53,2.53,0,0,0-.55-.44c-.28-.22-.52-.45-.81-.65a2.46,2.46,0,0,0-2.76.1c-4.48,2-6.6,6.08-7.3,10.89-3.83,11.76-1.87,23.65,4.13,34-1.15,3-2.23,6.15-3.3,9.28a35.68,35.68,0,0,0-18.09-7.27,2.12,2.12,0,0,0-2.47,1.65,2.51,2.51,0,0,0-.23,2.95,24.58,24.58,0,0,0,17.68,11.33l.24.15c-.66,2.15-1.36,4.25-2,6.45a1.52,1.52,0,0,1-.7.14c-26.79,12.19-37.85,27.07-33.46,57.13,2.41,16.3,3.83,34.73,11.2,49.19-10.55,10.31-19.8,21.1-25.81,33.37-.31-.25-.64-.5-1-.74-.83-3.11-3.75-4.58-6.79-4.35-6.06-1.48-10.81,6.27-7.1,11.12-.18,7.62.93,15.39,4.43,21.78l-13.65-1.33c-2.56-.25-3.28,3-1.92,4.63a27.22,27.22,0,0,0,20.2,9.65,87.51,87.51,0,0,0,11.19,30.78,111.2,111.2,0,0,0,43.8,42c31.19,16.43,64.64,10.77,98,4.67,28.35-5.1,48.91-25.23,58.4-51.32,21.41,12.19,46.64,3.55,57.27-17.86,23,5.11,45.23-2,61.24-20.13,12-13.61,13-26.22,18.72-42.67,5.67-16.16,1-11.05,16.44-12.9,8.08-1.13,16-.85,24-2.26,20.41-3.55,34.73-12.62,53.16-20.42,10.63-4.39,25.8-14.74,38.56-5.39,3.69,2.69,6.94,13,9.78,17a84.27,84.27,0,0,0,32.61,26.37c20.13,9.21,44.51,3.12,61.52,17.3,25.52,21.26,43,47.63,79.67,49.61,20.7,1.14,34.45-5.24,46.21-16.59a141.82,141.82,0,0,0,15.46-18.85c16.16-23.1,48.05-21.83,46.07-56.7C2655.49,937,2650.63,924.18,2643.69,911.71Z" class="colord6dcf0 svgShape"></path><path fill="#ebe5cb" d="M2563.3 1041c12.86-1.93 22.66-7.58 31.34-16a31.07 31.07 0 00-7.93-12.61c-8.93-8.93-22.12-10.63-33.46-14.46-36.43-12.62-37.85-46.07-36.72-79.24.14-5-4.68-7.66-8.93-7a121.2 121.2 0 01-54.43-1.56c-1-.85-2.13-1.56-3.12-2.55-5.25-5.25-2.27-10.91-2.7-17.44V890a1.09 1.09 0 00-.14-.57v-.14a5.15 5.15 0 00-2.55-4.68c-4.25-3.68-12.33-2.13-11.62 4.82a1.82 1.82 0 01.14.85c-.45 4.5-3.68 6.48-7.81 7.18-4.29-1.43-7.78-4.72-11.06-8.21-3.06-3.27-4.74-6.12-5.18-10.72-.27-2.92-.18-5.58-.86-8.44a2.42 2.42 0 00-1.57-1.63 2.8 2.8 0 00-5.09-1.31 16.1 16.1 0 00-2.05 13.62c-1-1-2.09-1.94-3.1-3-6.38-6.53-11.06-15.59-19.14-20.42-17-10.34-34.87-11.48-48.91-28.49-2.4-3-7.51-2.55-9.91 0-9.36 9.07-20.28 19.28-32.33 28.21-8.08 0-15.59-2.12-19.56-9.35-4.25-7.66-15.17-1.57-12.62 5.81a5.78 5.78 0 002.13 5.53c11.06 9.21-8.93 17.71-15.6 19.56a5.48 5.48 0 00-2.83 1.56c-16.73 2.41-33.46-1.56-48.62-16.87a7.28 7.28 0 00-10.07 0c-19.14 16.3-18.15 38.84-31.61 57.27-10.49 8.36-48.63-2.69-44.23 5.25a31.62 31.62 0 0013.89 12.75 86.84 86.84 0 00-14.74 5.25c-20.42 10.21-28.5 27.22-56.14 13.18a44 44 0 01-9.35-13c-3.83-8.22-16.17-1-12.34 7.23a61.15 61.15 0 009.36 13.89c2 37.85 1 79.95-38.28 99.38-32.89 16.16-68.47 7.37-100.22-6.8a111.2 111.2 0 0043.8 42c23.13 12.19 47.5 12.2 72.14 8.92a42.6 42.6 0 00-2.47 5.29c-.9 2.43 1.75 3.83 3.67 3.06a2.69 2.69 0 002.8.28A27.88 27.88 0 002027.5 1106q4.8-.84 9.6-1.72a72.58 72.58 0 0031.55-13.9c1.12 2.5 2.95 4.27 6 3.8a4 4 0 001.86-.81 2.65 2.65 0 002.63-2.58c.15-3.36.07-6.7-.1-10a85.25 85.25 0 0016.48-27.8c21.41 12.19 46.64 3.55 57.27-17.86a64.87 64.87 0 0019.33 1.31 16.86 16.86 0 001.15 5.44 2.85 2.85 0 003 1.82 2.21 2.21 0 003.38-.24 25.86 25.86 0 004.84-9.29A63.27 63.27 0 002214 1015c12-13.61 13-26.22 18.72-42.67 5.67-16.16 1-11.05 16.44-12.9 8.08-1.13 16-.85 24-2.26a116.86 116.86 0 0027.5-8.7 38.67 38.67 0 009.57 4.12 2.75 2.75 0 003.43-2.62 5.66 5.66 0 00-2.74-5 9.33 9.33 0 00-1.34-.58l7.58-3.55a28.16 28.16 0 001.26 2.67c1.2 2.24 4.17 1.39 5-.64a19.06 19.06 0 001.16-5.33c.61-.26 1.17-.53 1.78-.79 10.63-4.39 25.8-14.74 38.56-5.39 3.69 2.69 6.94 13 9.78 17a84.46 84.46 0 0028.44 24.14 80.85 80.85 0 009.59 14.87c1.2 1.48 4.26.76 4.52-1.19a23.07 23.07 0 00-.33-8.17c7.5 1.89 15.31 2.56 22.91 3.57a14.06 14.06 0 004.33 11.54c1.41 1.32 4.1.88 4.54-1.19a26.59 26.59 0 00.36-8.79c7.14 1.53 13.9 4 19.77 8.89 25.23 21 42.59 47 78.48 49.5a48.44 48.44 0 0017.74 7.17c2.38.43 4.95-2.65 2.64-4.53A51.81 51.81 0 002563.3 1041zM1989.33 918.52c-5.45-10.89-15.88-17.21-27.86-18.15-8.88-.71-9 12.74-.54 14a5.91 5.91 0 001.22 3.61c5.24 7.08 12.15 11 21.07 11.19C1988.87 929.28 1991.66 923.18 1989.33 918.52z" class="colorcbd3eb svgShape"></path><path fill="#f0ebd6" d="M1927 1065.61a18.68 18.68 0 00-6-3.48c.91-1.81-.52-4.64-3.09-4l-15.67 4.15c-1.83.48-2.81 3.2-1.2 4.53a23.28 23.28 0 0025.44 3A2.73 2.73 0 001927 1065.61zM1990.49 1057.9c-.68-2.64-4.48-2.53-5.23 0-.65 2.21-1.4 4.37-2.19 6.53a2.37 2.37 0 00-2.85.23c-1.44-1.52-4.71-1-4.75 1.77a57.76 57.76 0 00.12 8.81 28.81 28.81 0 00.27 5.61c.33 2.22 3.16 2.33 4.54 1.19.49-.4.95-.86 1.43-1.3a7.47 7.47 0 00.93-.28 6.4 6.4 0 004.12-5.47C1990.31 1070 1992.12 1064.13 1990.49 1057.9z" class="colord6dcf0 svgShape"></path></g></g></svg></g></svg>